
<!-- Generator: visioncortex VTracer 0.6.4 -->
<svg version="1.1" xmlns="http://www.w3.org/2000/svg" viewBox="0 0 512 512" preserveAspectRatio="xMidYMid meet">
<path d="M0 0 C5.254 4.423 10.168 9.123 15 14 C15.767 14.77 16.534 15.539 17.324 16.332 C24.621 23.99 39 39.75 39 51 C39.548 50.965 40.096 50.93 40.66 50.895 C64.992 50.064 87.333 61.777 104.938 77.648 C114.115 86.253 121.855 96.46 127 108 C127 108.99 127 109.98 127 111 C128.176 110.917 129.351 110.835 130.562 110.75 C148.205 110.86 165.372 120.327 178 132 C178.98 132.878 178.98 132.878 179.98 133.773 C194.081 147.034 202.463 166.09 203.379 185.27 C203.708 197.452 203.259 208.481 199 220 C198.711 220.891 198.423 221.781 198.125 222.699 C191.025 242.891 174.151 257.02 156 267 C156.804 267.928 157.609 268.856 158.438 269.812 C161.695 273.571 162.3 276.834 162.219 281.822 C161.84 285.589 160.432 288.799 158.938 292.25 C158.598 293.065 158.258 293.88 157.907 294.719 C157.103 296.644 156.293 298.567 155.478 300.487 C154.05 303.881 152.649 307.285 151.255 310.693 C149.927 313.939 148.592 317.183 147.257 320.427 C146.589 322.051 145.922 323.676 145.258 325.301 C144.308 327.618 143.351 329.93 142.391 332.242 C141.967 333.282 141.967 333.282 141.536 334.342 C138.947 340.535 136.234 346.183 129.938 349.304 C120.45 352.71 111.038 347.178 102.438 343.5 C100.937 342.872 99.437 342.246 97.936 341.621 C94.283 340.097 90.64 338.554 87 337 C86.12 337.953 85.239 338.905 84.332 339.887 C83.159 341.154 81.986 342.421 80.812 343.688 C80.234 344.313 79.656 344.939 79.061 345.584 C75.775 349.129 72.439 352.602 69 356 C68.319 356.692 67.639 357.384 66.938 358.098 C59.859 365.276 59.859 365.276 56 368 C55.34 368 54.68 368 54 368 C54.389 368.887 54.777 369.773 55.177 370.687 C56.632 374.017 58.068 377.355 59.499 380.695 C60.118 382.133 60.742 383.568 61.37 385.001 C69.43 403.389 69.43 403.389 67.441 411.192 C64.341 418.672 57.149 421.71 50.041 424.674 C49.348 424.954 48.655 425.235 47.941 425.523 C47.194 425.833 46.447 426.142 45.676 426.461 C43.308 427.439 40.935 428.407 38.562 429.375 C37.008 430.015 35.454 430.656 33.9 431.297 C30.812 432.571 27.72 433.837 24.627 435.1 C21.491 436.382 18.365 437.687 15.246 439.01 C14.097 439.493 14.097 439.493 12.924 439.987 C11.477 440.597 10.032 441.212 8.589 441.833 C2.305 444.469 -2.732 445.529 -9.203 443.211 C-18.613 438.367 -21.547 425.556 -25.312 416.375 C-26.859 412.621 -28.406 408.868 -30 405 C-45.18 405 -60.36 405 -76 405 C-80.107 414.973 -80.107 414.973 -84.196 424.954 C-84.719 426.213 -85.242 427.472 -85.766 428.73 C-86.156 429.696 -86.156 429.696 -86.554 430.681 C-88.687 435.771 -91.05 439.654 -95.625 442.812 C-104.423 445.908 -111.825 443.422 -120.055 439.836 C-121.077 439.406 -122.1 438.977 -123.154 438.534 C-126.402 437.164 -129.638 435.77 -132.875 434.375 C-135.04 433.461 -137.205 432.548 -139.371 431.637 C-170.297 418.564 -170.297 418.564 -173 412 C-176.121 403.31 -171.34 394.954 -168 387 C-167.345 385.397 -166.691 383.792 -166.039 382.188 C-164.38 378.116 -162.697 374.056 -161 370 C-163.427 366.85 -165.848 364.078 -168.875 361.5 C-169.572 360.901 -170.27 360.301 -170.988 359.684 C-172.659 358.285 -174.358 356.919 -176.062 355.562 C-179.764 352.333 -182.824 348.734 -186 345 C-188.328 342.329 -190.663 339.664 -193 337 C-193.922 337.394 -194.844 337.788 -195.795 338.193 C-199.249 339.663 -202.712 341.112 -206.177 342.554 C-207.67 343.179 -209.161 343.809 -210.649 344.446 C-227.732 351.742 -227.732 351.742 -236.418 349.328 C-247.436 342.615 -251.49 324.814 -256.125 313.375 C-256.834 311.635 -257.544 309.896 -258.254 308.156 C-259.597 304.863 -260.935 301.569 -262.268 298.271 C-263.289 295.747 -264.321 293.228 -265.366 290.713 C-265.729 289.836 -266.091 288.958 -266.465 288.055 C-266.908 286.999 -266.908 286.999 -267.359 285.921 C-268.89 281.331 -268.485 277.375 -266.875 272.812 C-262.814 266.721 -257.467 264.011 -251 261 C-251.678 260.587 -252.356 260.175 -253.055 259.75 C-268.321 250.277 -282.478 238.419 -292 223 C-292.855 221.704 -292.855 221.704 -293.727 220.383 C-308.863 196.311 -313.668 164.818 -307.375 137.125 C-306.675 134.383 -305.869 131.693 -305 129 C-304.791 128.324 -304.582 127.647 -304.367 126.951 C-295.903 100.152 -276.324 76.756 -251.52 63.555 C-236.456 55.912 -220.57 50.735 -203.562 50.938 C-202.831 50.942 -202.099 50.947 -201.346 50.951 C-199.564 50.963 -197.782 50.981 -196 51 C-195.633 49.755 -195.633 49.755 -195.258 48.484 C-191.34 37.632 -184.602 27.587 -177 19 C-176.19 18.047 -175.381 17.095 -174.547 16.113 C-154.95 -6.525 -128.203 -19.791 -99 -25 C-97.928 -25.193 -96.855 -25.387 -95.75 -25.586 C-61.831 -29.331 -27.029 -21.329 0 0 Z M-150 273 C-146.406 283.783 -138.699 291.822 -131 300 C-130.174 300.922 -130.174 300.922 -129.332 301.863 C-116.836 315.285 -98.423 324.158 -81 329 C-79.879 329.32 -78.757 329.639 -77.602 329.969 C-48.599 337.008 -18.952 330.289 6.277 315.348 C11.623 312.056 16.376 308.239 21 304 C21.913 303.169 22.825 302.337 23.766 301.48 C28.923 296.56 33.391 291.454 37.562 285.688 C37.98 285.113 38.398 284.538 38.828 283.947 C41.416 280.237 42.517 277.45 44 273 C-20.02 273 -84.04 273 -150 273 Z " fill="#01A8F2" transform="translate(309,47)"/>
<path d="M0 0 C5.254 4.423 10.168 9.123 15 14 C15.767 14.77 16.534 15.539 17.324 16.332 C24.621 23.99 39 39.75 39 51 C39.548 50.965 40.096 50.93 40.66 50.895 C64.992 50.064 87.333 61.777 104.938 77.648 C114.115 86.253 121.855 96.46 127 108 C127 108.99 127 109.98 127 111 C128.176 110.917 129.351 110.835 130.562 110.75 C148.205 110.86 165.372 120.327 178 132 C178.98 132.878 178.98 132.878 179.98 133.773 C194.081 147.034 202.463 166.09 203.379 185.27 C203.708 197.452 203.259 208.481 199 220 C198.711 220.891 198.423 221.781 198.125 222.699 C191.025 242.891 174.151 257.02 156 267 C156.804 267.928 157.609 268.856 158.438 269.812 C161.695 273.571 162.3 276.834 162.219 281.822 C161.84 285.589 160.432 288.799 158.938 292.25 C158.598 293.065 158.258 293.88 157.907 294.719 C157.103 296.644 156.293 298.567 155.478 300.487 C154.05 303.881 152.649 307.285 151.255 310.693 C149.927 313.939 148.592 317.183 147.257 320.427 C146.589 322.051 145.922 323.676 145.258 325.301 C144.308 327.618 143.351 329.93 142.391 332.242 C141.967 333.282 141.967 333.282 141.536 334.342 C138.947 340.535 136.234 346.183 129.938 349.304 C120.45 352.71 111.038 347.178 102.438 343.5 C100.937 342.872 99.437 342.246 97.936 341.621 C94.283 340.097 90.64 338.554 87 337 C86.12 337.953 85.239 338.905 84.332 339.887 C83.159 341.154 81.986 342.421 80.812 343.688 C80.234 344.313 79.656 344.939 79.061 345.584 C75.775 349.129 72.439 352.602 69 356 C68.319 356.692 67.639 357.384 66.938 358.098 C59.859 365.276 59.859 365.276 56 368 C55.34 368 54.68 368 54 368 C54.389 368.887 54.777 369.773 55.177 370.687 C56.632 374.017 58.068 377.355 59.499 380.695 C60.118 382.133 60.742 383.568 61.37 385.001 C69.43 403.389 69.43 403.389 67.441 411.192 C64.341 418.672 57.149 421.71 50.041 424.674 C49.348 424.954 48.655 425.235 47.941 425.523 C47.194 425.833 46.447 426.142 45.676 426.461 C43.308 427.439 40.935 428.407 38.562 429.375 C37.008 430.015 35.454 430.656 33.9 431.297 C30.812 432.571 27.72 433.837 24.627 435.1 C21.491 436.382 18.365 437.687 15.246 439.01 C14.097 439.493 14.097 439.493 12.924 439.987 C11.477 440.597 10.032 441.212 8.589 441.833 C2.305 444.469 -2.732 445.529 -9.203 443.211 C-18.613 438.367 -21.547 425.556 -25.312 416.375 C-26.859 412.621 -28.406 408.868 -30 405 C-45.18 405 -60.36 405 -76 405 C-80.107 414.973 -80.107 414.973 -84.196 424.954 C-84.719 426.213 -85.242 427.472 -85.766 428.73 C-86.156 429.696 -86.156 429.696 -86.554 430.681 C-88.687 435.771 -91.05 439.654 -95.625 442.812 C-104.423 445.908 -111.825 443.422 -120.055 439.836 C-121.077 439.406 -122.1 438.977 -123.154 438.534 C-126.402 437.164 -129.638 435.77 -132.875 434.375 C-135.04 433.461 -137.205 432.548 -139.371 431.637 C-170.297 418.564 -170.297 418.564 -173 412 C-176.121 403.31 -171.34 394.954 -168 387 C-167.345 385.397 -166.691 383.792 -166.039 382.188 C-164.38 378.116 -162.697 374.056 -161 370 C-163.427 366.85 -165.848 364.078 -168.875 361.5 C-169.572 360.901 -170.27 360.301 -170.988 359.684 C-172.659 358.285 -174.358 356.919 -176.062 355.562 C-179.764 352.333 -182.824 348.734 -186 345 C-188.328 342.329 -190.663 339.664 -193 337 C-193.922 337.394 -194.844 337.788 -195.795 338.193 C-199.249 339.663 -202.712 341.112 -206.177 342.554 C-207.67 343.179 -209.161 343.809 -210.649 344.446 C-227.732 351.742 -227.732 351.742 -236.418 349.328 C-247.436 342.615 -251.49 324.814 -256.125 313.375 C-256.834 311.635 -257.544 309.896 -258.254 308.156 C-259.597 304.863 -260.935 301.569 -262.268 298.271 C-263.289 295.747 -264.321 293.228 -265.366 290.713 C-265.729 289.836 -266.091 288.958 -266.465 288.055 C-266.908 286.999 -266.908 286.999 -267.359 285.921 C-268.89 281.331 -268.485 277.375 -266.875 272.812 C-262.814 266.721 -257.467 264.011 -251 261 C-251.678 260.587 -252.356 260.175 -253.055 259.75 C-268.321 250.277 -282.478 238.419 -292 223 C-292.855 221.704 -292.855 221.704 -293.727 220.383 C-308.863 196.311 -313.668 164.818 -307.375 137.125 C-306.675 134.383 -305.869 131.693 -305 129 C-304.791 128.324 -304.582 127.647 -304.367 126.951 C-295.903 100.152 -276.324 76.756 -251.52 63.555 C-236.456 55.912 -220.57 50.735 -203.562 50.938 C-202.831 50.942 -202.099 50.947 -201.346 50.951 C-199.564 50.963 -197.782 50.981 -196 51 C-195.633 49.755 -195.633 49.755 -195.258 48.484 C-191.34 37.632 -184.602 27.587 -177 19 C-176.19 18.047 -175.381 17.095 -174.547 16.113 C-154.95 -6.525 -128.203 -19.791 -99 -25 C-97.928 -25.193 -96.855 -25.387 -95.75 -25.586 C-61.831 -29.331 -27.029 -21.329 0 0 Z M-115 -3 C-115.694 -2.743 -116.389 -2.486 -117.104 -2.221 C-148.812 9.772 -169.233 33.455 -183.688 63.367 C-185 66 -185 66 -186 67 C-187.461 67.097 -188.926 67.132 -190.391 67.141 C-210.513 67.478 -228.581 70.537 -246 81 C-246.577 81.345 -247.154 81.691 -247.748 82.047 C-270.708 96.144 -284.366 118.319 -291 144 C-296.214 167.912 -289.757 193.114 -277.273 213.641 C-273.556 219.378 -268.785 224.157 -264 229 C-263.417 229.655 -262.835 230.31 -262.234 230.984 C-253.282 240.841 -239.522 247.885 -227 252 C-226.004 252.334 -225.008 252.669 -223.982 253.014 C-209.413 257.146 -194.508 256.572 -179.502 256.523 C-175.373 256.514 -171.243 256.528 -167.114 256.539 C-159.046 256.557 -150.979 256.553 -142.912 256.541 C-136.351 256.532 -129.79 256.531 -123.229 256.535 C-121.824 256.536 -121.824 256.536 -120.39 256.537 C-118.486 256.538 -116.582 256.54 -114.678 256.541 C-96.864 256.552 -79.051 256.539 -61.238 256.518 C-45.979 256.5 -30.72 256.503 -15.461 256.521 C2.295 256.543 20.052 256.551 37.809 256.539 C39.705 256.538 41.601 256.537 43.497 256.535 C44.43 256.535 45.362 256.534 46.323 256.533 C52.871 256.53 59.419 256.536 65.967 256.545 C73.954 256.556 81.94 256.553 89.927 256.532 C93.996 256.522 98.064 256.517 102.133 256.531 C105.868 256.543 109.601 256.536 113.336 256.515 C115.305 256.508 117.275 256.521 119.244 256.535 C138.379 256.369 155.148 249.468 168.93 236.133 C181.006 223.198 186.834 206.559 186.592 189.033 C185.779 171.621 177.577 155.914 165 144 C152.094 133.105 137.886 127.786 121.066 127.504 C117.25 126.877 116.303 126.076 114 123 C112.597 120.517 111.39 117.96 110.188 115.375 C99.128 92.631 82.959 79.924 59.438 71.031 C52.007 68.65 44.273 68.287 36.527 67.821 C35.137 67.724 35.137 67.724 33.719 67.625 C32.465 67.552 32.465 67.552 31.186 67.477 C28.544 66.901 27.651 66.107 26 64 C25.087 61.942 24.242 59.853 23.438 57.75 C18.351 45.236 10.357 34.659 1 25 C0.363 24.278 -0.274 23.556 -0.93 22.812 C-17.239 5.044 -43.393 -6.841 -67.431 -8.193 C-91.634 -8.756 -91.634 -8.756 -115 -3 Z M-150 273 C-146.406 283.783 -138.699 291.822 -131 300 C-130.174 300.922 -130.174 300.922 -129.332 301.863 C-116.836 315.285 -98.423 324.158 -81 329 C-79.879 329.32 -78.757 329.639 -77.602 329.969 C-48.599 337.008 -18.952 330.289 6.277 315.348 C11.623 312.056 16.376 308.239 21 304 C21.913 303.169 22.825 302.337 23.766 301.48 C28.923 296.56 33.391 291.454 37.562 285.688 C37.98 285.113 38.398 284.538 38.828 283.947 C41.416 280.237 42.517 277.45 44 273 C-20.02 273 -84.04 273 -150 273 Z " fill="#000001" transform="translate(309,47)"/>
<path d="M0 0 C5.86 0.869 11.613 1.198 17.531 1.316 C18.846 1.348 18.846 1.348 20.187 1.379 C22.958 1.444 25.729 1.503 28.5 1.562 C30.391 1.606 32.281 1.649 34.172 1.693 C38.781 1.8 43.391 1.901 48 2 C48.522 2.999 49.043 3.999 49.581 5.029 C66.77 37.755 93.106 61.921 128.742 73.043 C129.817 73.359 130.892 73.675 132 74 C132.745 74.223 133.49 74.446 134.258 74.676 C136.152 75.195 138.078 75.597 140 76 C140.833 76.184 141.665 76.369 142.523 76.559 C169.298 81.654 196.737 76.941 221 65 C221.618 64.703 222.236 64.407 222.873 64.101 C249.747 51.077 268.961 28.348 282 2 C289.79 1.836 297.579 1.713 305.371 1.637 C308.99 1.601 312.609 1.552 316.228 1.472 C346.992 0.806 346.992 0.806 361 9 C360.449 14.774 358.808 19.448 356.508 24.75 C356.161 25.567 355.815 26.384 355.457 27.226 C354.354 29.82 353.24 32.41 352.125 35 C351.383 36.739 350.642 38.479 349.902 40.219 C348.236 44.131 346.562 48.04 344.882 51.947 C343.586 54.964 342.293 57.982 341 61 C335.708 59.342 330.605 57.461 325.496 55.301 C324.343 54.814 323.19 54.328 322.002 53.826 C319.618 52.814 317.238 51.793 314.861 50.764 C306.2 46.985 306.2 46.985 297 47 C294.365 49.061 294.365 49.061 292.438 52 C291.297 53.522 291.297 53.522 290.133 55.074 C289.429 56.04 288.725 57.005 288 58 C279.104 69.003 268.925 79.122 257.328 87.23 C254.792 88.958 254.792 88.958 253 92 C253.309 97.528 255.024 102.1 257.16 107.121 C257.624 108.238 257.624 108.238 258.098 109.378 C259.078 111.734 260.07 114.086 261.062 116.438 C261.733 118.043 262.403 119.649 263.072 121.256 C264.706 125.174 266.35 129.088 268 133 C265.332 135.123 262.819 136.661 259.678 137.977 C258.834 138.334 257.989 138.691 257.119 139.059 C255.763 139.621 255.763 139.621 254.379 140.195 C253.442 140.588 252.505 140.981 251.54 141.386 C249.561 142.214 247.582 143.039 245.601 143.862 C242.574 145.12 239.551 146.39 236.529 147.66 C234.604 148.464 232.679 149.268 230.754 150.07 C229.401 150.639 229.401 150.639 228.02 151.219 C227.172 151.57 226.325 151.92 225.451 152.282 C224.711 152.59 223.97 152.899 223.207 153.217 C220.825 154.062 218.486 154.561 216 155 C215.567 153.93 215.133 152.861 214.687 151.759 C213.072 147.781 211.443 143.809 209.811 139.839 C209.107 138.122 208.407 136.403 207.71 134.683 C206.707 132.206 205.691 129.736 204.672 127.266 C204.364 126.499 204.057 125.732 203.74 124.942 C201.378 119.233 201.378 119.233 197 115 C194.112 114.73 194.112 114.73 190.91 115.242 C185.243 115.822 179.693 116.127 173.996 116.133 C173.218 116.134 172.439 116.135 171.637 116.137 C170.041 116.137 168.446 116.135 166.85 116.13 C164.437 116.125 162.024 116.13 159.611 116.137 C158.031 116.137 156.451 116.135 154.871 116.133 C153.726 116.132 153.726 116.132 152.558 116.13 C146.845 116.09 141.249 115.611 135.586 114.824 C132.926 114.783 132.926 114.783 130.88 116.468 C128.368 119.851 126.89 123.37 125.328 127.266 C125.001 128.059 124.674 128.852 124.336 129.67 C123.298 132.193 122.274 134.721 121.25 137.25 C120.546 138.967 119.842 140.683 119.137 142.398 C117.414 146.595 115.704 150.796 114 155 C108.421 153.194 102.936 151.259 97.508 149.039 C96.836 148.767 96.165 148.494 95.473 148.213 C94.066 147.642 92.659 147.069 91.253 146.494 C89.138 145.63 87.02 144.772 84.902 143.914 C77.187 140.778 69.545 137.531 62 134 C63.561 130.083 65.124 126.166 66.688 122.25 C67.123 121.158 67.558 120.066 68.006 118.941 C68.441 117.852 68.876 116.763 69.324 115.641 C69.76 114.54 70.197 113.44 70.646 112.307 C71.55 110.1 72.496 107.911 73.483 105.74 C75.443 101.393 76.942 97.904 77.25 93.117 C75.483 88.71 72.783 86.848 69 84.125 C56.312 74.401 44.707 63.29 35.566 50.125 C34.172 47.897 34.172 47.897 32 47 C24.104 46.061 18.162 49.108 11.062 52.312 C8.805 53.312 6.546 54.308 4.285 55.301 C3.294 55.746 2.303 56.191 1.281 56.65 C-2.75 58.309 -6.851 59.667 -11 61 C-13.207 55.772 -15.412 50.543 -17.616 45.314 C-18.365 43.539 -19.113 41.764 -19.862 39.99 C-21.958 35.025 -24.047 30.058 -26.126 25.086 C-26.881 23.283 -27.644 21.482 -28.408 19.683 C-28.774 18.805 -29.139 17.928 -29.516 17.023 C-29.812 16.319 -30.109 15.614 -30.415 14.888 C-31 13 -31 13 -31 9 C-27.158 7.285 -23.3 5.608 -19.438 3.938 C-18.351 3.452 -17.265 2.967 -16.146 2.467 C-10.297 -0.04 -6.359 -1.719 0 0 Z " fill="#5F7C8A" transform="translate(91,318)"/>
<path d="M0 0 C0.883 -0.006 1.767 -0.011 2.677 -0.017 C4.554 -0.027 6.43 -0.033 8.306 -0.037 C11.148 -0.047 13.99 -0.078 16.832 -0.109 C18.659 -0.116 20.486 -0.121 22.312 -0.125 C23.571 -0.144 23.571 -0.144 24.855 -0.162 C35.324 -0.124 44.598 3.033 52.32 10.176 C59.213 17.386 62.338 24.138 62.688 34.141 C62.304 44.862 59.151 52.306 51.688 60.039 C44.23 66.495 34.955 69.486 25.16 69.398 C23.874 69.392 22.588 69.386 21.264 69.379 C19.926 69.362 18.588 69.345 17.25 69.328 C15.885 69.318 14.52 69.309 13.154 69.301 C9.832 69.277 6.51 69.244 3.188 69.203 C3.203 70.51 3.219 71.817 3.235 73.163 C3.289 78.018 3.324 82.872 3.352 87.727 C3.367 89.827 3.388 91.927 3.414 94.027 C3.45 97.048 3.467 100.069 3.48 103.09 C3.496 104.026 3.511 104.963 3.527 105.928 C3.529 110.845 3.427 114.225 0.188 118.203 C-2.449 120.274 -3.906 120.203 -7.312 120.203 C-10.979 119.155 -12.05 118.338 -14.011 115.144 C-15.648 111.181 -15.365 107.005 -15.33 102.779 C-15.337 101.743 -15.344 100.706 -15.351 99.638 C-15.369 96.221 -15.357 92.804 -15.344 89.387 C-15.346 87.008 -15.35 84.63 -15.355 82.251 C-15.361 77.271 -15.353 72.29 -15.334 67.31 C-15.311 60.925 -15.324 54.541 -15.348 48.156 C-15.363 43.246 -15.358 38.337 -15.348 33.427 C-15.345 31.073 -15.348 28.719 -15.358 26.364 C-15.368 23.075 -15.352 19.787 -15.33 16.498 C-15.342 15.038 -15.342 15.038 -15.355 13.549 C-15.301 9.24 -15.215 6.853 -12.905 3.122 C-8.94 -0.514 -5.132 0.026 0 0 Z " fill="#000507" transform="translate(244.8125,148.796875)"/>
<path d="M0 0 C5.127 3.113 6.398 6.651 8.129 12.094 C8.536 13.304 8.536 13.304 8.95 14.538 C9.837 17.187 10.7 19.843 11.562 22.5 C12.178 24.354 12.795 26.207 13.413 28.059 C14.677 31.855 15.931 35.653 17.178 39.454 C18.855 44.567 20.555 49.672 22.266 54.773 C24.262 60.731 26.248 66.692 28.223 72.656 C30.034 78.125 31.877 83.582 33.746 89.031 C34.383 90.899 34.383 90.899 35.032 92.805 C35.818 95.108 36.61 97.409 37.411 99.707 C37.755 100.719 38.099 101.731 38.453 102.773 C38.754 103.644 39.054 104.515 39.364 105.412 C40.098 108.399 40.23 110.934 40 114 C38.2 116.7 36.916 118.542 34 120 C31.187 120.438 31.187 120.438 28 120 C23.609 115.62 21.718 111.391 19.887 105.539 C19.627 104.748 19.368 103.958 19.101 103.143 C18.284 100.641 17.485 98.133 16.688 95.625 C16.133 93.918 15.578 92.211 15.021 90.504 C13.664 86.341 12.333 82.171 11 78 C-2.86 77.505 -2.86 77.505 -17 77 C-17.99 80.63 -18.98 84.26 -20 88 C-21.354 92.377 -22.802 96.719 -24.279 101.055 C-24.722 102.364 -25.159 103.675 -25.591 104.988 C-26.223 106.913 -26.875 108.832 -27.527 110.75 C-27.906 111.879 -28.285 113.008 -28.676 114.172 C-30.094 117.2 -31.114 118.377 -34 120 C-37.99 120.679 -39.497 120.339 -42.875 118.062 C-45.753 113.915 -45.502 110.922 -45 106 C-44.242 102.57 -43.158 99.29 -42.018 95.97 C-41.701 95.011 -41.384 94.052 -41.058 93.064 C-40.014 89.918 -38.951 86.78 -37.887 83.641 C-37.153 81.446 -36.42 79.251 -35.689 77.056 C-34.156 72.468 -32.614 67.882 -31.066 63.298 C-29.082 57.426 -27.115 51.548 -25.154 45.668 C-23.643 41.141 -22.126 36.615 -20.607 32.09 C-19.879 29.923 -19.153 27.756 -18.429 25.588 C-17.415 22.561 -16.394 19.536 -15.37 16.513 C-15.072 15.619 -14.774 14.725 -14.467 13.805 C-9.379 -1.126 -9.379 -1.126 0 0 Z " fill="#000304" transform="translate(182,149)"/>
<path d="M0 0 C1.105 -0.01 2.21 -0.019 3.348 -0.029 C5.146 -0.035 5.146 -0.035 6.981 -0.042 C8.209 -0.048 9.438 -0.053 10.703 -0.059 C13.307 -0.069 15.91 -0.075 18.514 -0.079 C22.497 -0.086 26.48 -0.12 30.464 -0.151 C32.99 -0.158 35.517 -0.163 38.044 -0.167 C39.237 -0.179 40.429 -0.192 41.658 -0.204 C42.773 -0.201 43.887 -0.198 45.035 -0.195 C46.013 -0.199 46.991 -0.203 47.998 -0.206 C51.215 0.229 53.099 1.264 55.712 3.161 C57.276 6.291 57.409 9.772 56.712 13.161 C55.392 14.481 54.072 15.801 52.712 17.161 C45.782 17.161 38.852 17.161 31.712 17.161 C31.712 45.541 31.712 73.921 31.712 103.161 C38.312 103.161 44.912 103.161 51.712 103.161 C56.712 107.161 56.712 107.161 57.341 109.161 C57.219 112.826 57.137 114.608 54.837 117.599 C51.473 120.072 49.564 120.296 45.423 120.338 C44.318 120.351 43.214 120.364 42.075 120.377 C40.876 120.384 39.677 120.392 38.442 120.399 C36.6 120.412 36.6 120.412 34.72 120.424 C32.117 120.438 29.513 120.448 26.91 120.456 C22.926 120.47 18.943 120.517 14.96 120.562 C12.433 120.572 9.906 120.58 7.38 120.587 C5.59 120.613 5.59 120.613 3.765 120.64 C-4.512 120.618 -4.512 120.618 -8.518 118.26 C-10.63 115.756 -11.229 114.609 -11.663 111.349 C-11.288 108.161 -11.288 108.161 -6.288 103.161 C0.642 103.161 7.572 103.161 14.712 103.161 C14.712 74.781 14.712 46.401 14.712 17.161 C7.782 17.161 0.852 17.161 -6.288 17.161 C-10.288 13.161 -10.288 13.161 -11.288 9.724 C-11.288 6.161 -11.288 6.161 -9.476 3.286 C-6.21 0.114 -4.448 0.031 0 0 Z " fill="#000203" transform="translate(318.288330078125,148.8388671875)"/>
<path d="M0 0 C3.692 2.592 4.829 4.041 5.625 8.5 C4.81 13.062 3.65 14.153 0 17 C-1.573 17.954 -3.158 18.89 -4.75 19.812 C-18.212 27.73 -26.825 39.388 -31.344 54.281 C-35.096 69.825 -32.797 84.667 -26 99 C-24.776 100.824 -23.506 102.618 -22.188 104.375 C-19.876 107.496 -19.019 108.904 -18.25 112.812 C-19.234 116.995 -20.49 118.535 -24 121 C-27.312 121.875 -27.312 121.875 -31 121 C-43.755 111.138 -48.907 92.3 -51 77 C-52.342 55.922 -46.901 36.33 -32.926 20.102 C-32.29 19.408 -31.655 18.715 -31 18 C-30.155 17.053 -30.155 17.053 -29.293 16.086 C-24.757 11.263 -19.527 7.607 -14 4 C-13.357 3.562 -12.714 3.123 -12.051 2.672 C-7.934 0.045 -4.833 -0.806 0 0 Z " fill="#000203" transform="translate(85,139)"/>
<path d="M0 0 C16.269 2.524 29.302 11.939 38.938 25 C42.236 30.081 44.814 35.355 47 41 C47.321 41.816 47.642 42.632 47.973 43.473 C53.244 59.336 50.301 76.496 43.461 91.34 C34.962 106.989 21.905 117.681 5.207 123.539 C3 124 3 124 0 123 C0.557 122.587 1.114 122.175 1.688 121.75 C17.307 109.93 27.432 95.292 31.492 75.875 C34.365 53.957 30.38 35.113 17.867 16.895 C13.301 10.961 8.296 6.632 2.09 2.461 C1.4 1.979 0.711 1.497 0 1 C0 0.67 0 0.34 0 0 Z " fill="#0275B9" transform="translate(445,177)"/>
<path d="M0 0 C1.771 -0.043 1.771 -0.043 3.578 -0.086 C6.75 0.375 6.75 0.375 9.133 2.152 C11.103 4.86 11.449 7.073 11.25 10.406 C10.539 13.204 9.03 14.85 6.699 16.496 C3.715 17.842 0.827 17.838 -2.41 18.023 C-15.663 19.664 -27.896 28.269 -36.25 38.375 C-41.659 45.997 -45.511 53.793 -48.828 62.477 C-50.315 65.507 -51.298 66.792 -54.25 68.375 C-58.074 68.307 -60.458 67.883 -63.688 65.812 C-65.87 62.408 -65.677 59.273 -65.25 55.375 C-64.51 52.658 -63.44 50.173 -62.25 47.625 C-61.936 46.934 -61.622 46.243 -61.299 45.531 C-51.668 24.976 -36.363 10.553 -15.25 2.375 C-10.153 0.777 -5.367 0.059 0 0 Z " fill="#000304" transform="translate(219.25,55.625)"/>
<path d="M0 0 C1.42 0.428 2.836 0.868 4.25 1.312 C5.039 1.556 5.828 1.8 6.641 2.051 C9.133 3.053 10.89 4.359 13 6 C-7.373 26.962 -7.373 26.962 -16.883 33.441 C-19.241 34.992 -19.241 34.992 -21 38 C-20.691 43.528 -18.976 48.1 -16.84 53.121 C-16.531 53.866 -16.221 54.611 -15.902 55.378 C-14.922 57.734 -13.93 60.086 -12.938 62.438 C-12.267 64.043 -11.597 65.649 -10.928 67.256 C-9.294 71.174 -7.65 75.088 -6 79 C-8.668 81.123 -11.181 82.661 -14.322 83.977 C-15.166 84.334 -16.011 84.691 -16.881 85.059 C-17.785 85.434 -18.689 85.809 -19.621 86.195 C-20.558 86.588 -21.495 86.981 -22.46 87.386 C-24.439 88.214 -26.418 89.039 -28.399 89.862 C-31.426 91.12 -34.449 92.39 -37.471 93.66 C-39.396 94.464 -41.321 95.268 -43.246 96.07 C-44.599 96.639 -44.599 96.639 -45.98 97.219 C-46.828 97.57 -47.675 97.92 -48.549 98.282 C-49.289 98.59 -50.03 98.899 -50.793 99.217 C-53.175 100.062 -55.514 100.561 -58 101 C-58 100.34 -58 99.68 -58 99 C-57.071 98.622 -56.143 98.244 -55.186 97.854 C-51.742 96.449 -48.303 95.032 -44.865 93.611 C-43.377 92.997 -41.887 92.387 -40.396 91.781 C-38.252 90.908 -36.114 90.024 -33.977 89.137 C-33.309 88.868 -32.641 88.599 -31.953 88.322 C-28.525 86.885 -27.118 86.178 -25 83 C-25.316 77.751 -26.874 73.252 -28.906 68.457 C-29.191 67.766 -29.476 67.075 -29.769 66.363 C-30.672 64.177 -31.585 61.994 -32.5 59.812 C-33.413 57.619 -34.323 55.425 -35.231 53.229 C-35.794 51.869 -36.36 50.51 -36.93 49.153 C-38.185 46.136 -39.343 43.207 -40 40 C-39.285 39.49 -38.569 38.979 -37.832 38.453 C-23.112 27.713 -9.943 15.385 0 0 Z " fill="#36464E" transform="translate(365,372)"/>
<path d="M0 0 C7.487 -0.124 7.487 -0.124 15.125 -0.25 C17.471 -0.305 17.471 -0.305 19.864 -0.36 C21.108 -0.37 22.351 -0.38 23.633 -0.391 C24.9 -0.412 26.167 -0.433 27.473 -0.454 C32.799 0.232 35.825 2.666 39.312 6.625 C42.484 11.088 42.476 14.634 42 20 C40.233 25.89 37.83 28.506 33 32 C30.026 33.487 27.337 33.111 24.023 33.098 C22.77 33.095 21.516 33.093 20.224 33.09 C18.624 33.081 17.024 33.072 15.375 33.062 C10.301 33.042 5.227 33.021 0 33 C0 22.11 0 11.22 0 0 Z " fill="#01A8F2" transform="translate(248,167)"/>
<path d="M0 0 C5.33 0.542 9.579 1.847 14.438 4.062 C15.074 4.344 15.71 4.626 16.365 4.916 C17.914 5.603 19.457 6.3 21 7 C20.449 12.774 18.808 17.448 16.508 22.75 C16.161 23.567 15.815 24.384 15.457 25.226 C14.354 27.82 13.24 30.41 12.125 33 C11.383 34.739 10.642 36.479 9.902 38.219 C8.236 42.131 6.562 46.04 4.882 49.947 C3.586 52.964 2.293 55.982 1 59 C-0.355 58.567 -1.709 58.128 -3.062 57.688 C-3.817 57.444 -4.571 57.2 -5.348 56.949 C-8.635 55.773 -11.801 54.398 -15 53 C-13.95 50.476 -12.9 47.953 -11.849 45.429 C-10.945 43.256 -10.041 41.081 -9.139 38.907 C-6.983 33.716 -4.81 28.535 -2.555 23.387 C-2.001 22.111 -2.001 22.111 -1.436 20.81 C-0.745 19.225 -0.046 17.644 0.662 16.067 C2.469 11.896 3.538 8.639 3 4 C1.621 1.657 1.621 1.657 0 0 Z " fill="#36464E" transform="translate(431,320)"/>
<path d="M0 0 C5.61 0.33 11.22 0.66 17 1 C14.762 8.004 12.13 14.773 9.312 21.562 C8.897 22.571 8.481 23.58 8.053 24.619 C7.038 27.081 6.02 29.541 5 32 C-0.716 30.113 -6.376 28.147 -12 26 C-11.34 25.67 -10.68 25.34 -10 25 C-9.339 23.016 -8.685 21.028 -8.062 19.031 C-5.784 12.53 -2.8 6.288 0 0 Z " fill="#37474F" transform="translate(200,441)"/>
<path d="M0 0 C11.642 1.874 19.982 9.993 28 18 C28.744 18.732 29.488 19.464 30.254 20.219 C36.342 26.605 43.441 36.108 45 45 C43.783 45.021 42.566 45.041 41.312 45.062 C40.628 45.074 39.944 45.086 39.238 45.098 C34.498 44.891 34.498 44.891 32 44 C30.445 41.48 30.445 41.48 29.125 38.188 C22.836 23.603 14.685 11.038 1.363 1.988 C0.913 1.662 0.464 1.336 0 1 C0 0.67 0 0.34 0 0 Z " fill="#0275BA" transform="translate(376,122)"/>
<path d="M0 0 C16.775 11.512 28.88 27.449 37 46 C37 46.33 37 46.66 37 47 C34.36 47 31.72 47 29 47 C28.364 45.585 28.364 45.585 27.715 44.141 C20.839 29.015 12.848 16.053 1.504 3.848 C0 2 0 2 0 0 Z " fill="#0275B9" transform="translate(296,60)"/>
<path d="M0 0 C1.691 2.536 2.563 4.304 3.508 7.125 C3.772 7.914 4.036 8.703 4.309 9.516 C4.578 10.335 4.847 11.155 5.125 12 C5.402 12.82 5.679 13.64 5.965 14.484 C6.227 15.273 6.488 16.062 6.758 16.875 C6.996 17.594 7.235 18.314 7.481 19.055 C8 21 8 21 8 24 C2.72 24 -2.56 24 -8 24 C-2.286 2.286 -2.286 2.286 0 0 Z " fill="#019DE2" transform="translate(179,185)"/>
</svg>