
<!-- Generator: visioncortex VTracer 0.6.4 -->
<svg version="1.1" xmlns="http://www.w3.org/2000/svg" viewBox="0 0 2560 2040" preserveAspectRatio="xMidYMid meet">
<path d="M0 0 C2.64 -0.003 5.28 -0.006 7.921 -0.011 C13.662 -0.019 19.403 -0.019 25.144 -0.015 C33.739 -0.009 42.333 -0.014 50.928 -0.022 C65.579 -0.034 80.23 -0.037 94.881 -0.035 C109.725 -0.033 124.568 -0.035 139.411 -0.042 C140.819 -0.043 140.819 -0.043 142.255 -0.044 C146.076 -0.045 149.898 -0.047 153.72 -0.049 C193.569 -0.07 233.418 -0.076 273.268 -0.077 C277.556 -0.077 281.844 -0.077 286.132 -0.077 C287.729 -0.077 287.729 -0.077 289.357 -0.077 C312.948 -0.078 336.539 -0.083 360.13 -0.088 C369.847 -0.09 379.564 -0.092 389.281 -0.094 C390.354 -0.094 391.428 -0.094 392.534 -0.094 C454.055 -0.107 515.575 -0.115 577.095 -0.114 C579.397 -0.114 581.699 -0.114 584.001 -0.114 C594.394 -0.114 604.787 -0.114 615.18 -0.114 C619.814 -0.114 624.449 -0.113 629.083 -0.113 C631.403 -0.113 633.722 -0.113 636.042 -0.113 C709.379 -0.112 782.716 -0.127 856.053 -0.154 C874.529 -0.161 893.005 -0.168 911.481 -0.175 C913.187 -0.175 913.187 -0.175 914.928 -0.176 C950.002 -0.189 985.075 -0.196 1020.149 -0.199 C1021.25 -0.199 1022.352 -0.199 1023.487 -0.199 C1047.668 -0.201 1071.85 -0.201 1096.031 -0.2 C1104.684 -0.2 1113.337 -0.2 1121.99 -0.2 C1124.143 -0.2 1126.296 -0.2 1128.448 -0.2 C1162.723 -0.2 1196.998 -0.211 1231.272 -0.228 C1265.802 -0.246 1300.332 -0.25 1334.862 -0.237 C1339.639 -0.235 1344.416 -0.233 1349.192 -0.232 C1350.129 -0.231 1351.065 -0.231 1352.03 -0.231 C1366.825 -0.226 1381.621 -0.235 1396.416 -0.249 C1410.983 -0.263 1425.549 -0.262 1440.116 -0.247 C1448.643 -0.238 1457.171 -0.24 1465.698 -0.258 C1471.379 -0.27 1477.06 -0.266 1482.741 -0.251 C1485.95 -0.243 1489.159 -0.243 1492.368 -0.256 C1545.918 -0.47 1598.771 15.765 1641.025 49.257 C1641.86 49.901 1642.695 50.544 1643.556 51.206 C1650.377 56.527 1656.766 62.293 1663.025 68.257 C1663.625 68.829 1664.225 69.401 1664.844 69.99 C1673.23 78.034 1680.872 86.31 1687.809 95.636 C1688.954 97.164 1690.133 98.666 1691.314 100.167 C1717.952 134.383 1734.538 176.586 1741.025 219.257 C1741.279 220.795 1741.279 220.795 1741.538 222.363 C1743.623 236.941 1743.248 251.602 1743.162 266.29 C1743.141 270.251 1743.135 274.212 1743.127 278.174 C1743.103 289.104 1743.059 300.034 1743.014 310.964 C1742.963 323.305 1742.92 335.646 1742.9 347.988 C1742.898 349.195 1742.898 349.195 1742.896 350.426 C1742.854 380.074 1743.492 409.643 1745.025 439.257 C1745.065 440.041 1745.105 440.824 1745.147 441.631 C1745.605 450.473 1746.175 459.304 1746.837 468.132 C1746.921 469.286 1747.005 470.44 1747.092 471.628 C1753.692 561.989 1767.158 652.611 1851.025 848.257 C1851.59 849.058 1852.155 849.859 1852.737 850.685 C1859.94 860.831 1867.435 870.26 1876.025 879.257 C1877.242 880.645 1878.451 882.041 1879.65 883.445 C1886.747 891.585 1894.556 898.575 1903.025 905.257 C1904 906.05 1904.976 906.843 1905.982 907.66 C1931.18 927.723 1961.542 941.655 1992.837 948.945 C1993.64 949.135 1994.443 949.325 1995.271 949.521 C2005.131 951.71 2014.958 952.819 2025.025 954.257 C2025.025 997.817 2025.025 1041.377 2025.025 1086.257 C2016.445 1087.577 2007.865 1088.897 1999.025 1090.257 C1977.385 1095.091 1957.536 1101.769 1938.025 1112.257 C1937.367 1112.604 1936.709 1112.95 1936.031 1113.307 C1916.658 1123.536 1899.921 1137.276 1884.025 1152.257 C1883.292 1152.947 1882.56 1153.637 1881.806 1154.347 C1877.262 1158.756 1873.247 1163.497 1869.29 1168.437 C1867.865 1170.211 1866.42 1171.969 1864.947 1173.703 C1805.838 1243.539 1780.288 1341.353 1745.337 1597.132 C1745.246 1598.748 1745.246 1598.748 1745.153 1600.397 C1743.573 1628.769 1742.868 1657.091 1743.011 1685.501 C1743.034 1690.282 1743.047 1695.063 1743.058 1699.844 C1743.091 1713.411 1743.133 1726.978 1743.196 1740.545 C1743.231 1748.101 1743.254 1755.658 1743.266 1763.215 C1743.273 1767.178 1743.285 1771.141 1743.311 1775.104 C1743.456 1797.442 1742.653 1819.442 1737.337 1841.257 C1737.082 1842.326 1736.826 1843.394 1736.563 1844.495 C1725.125 1890.813 1701.852 1931.841 1669.025 1966.257 C1668.471 1966.839 1667.918 1967.422 1667.347 1968.021 C1659.666 1976.05 1651.708 1983.303 1642.791 1989.935 C1641.026 1991.256 1639.287 1992.605 1637.548 1993.96 C1627.335 2001.816 1616.376 2008.191 1605.025 2014.257 C1604.262 2014.667 1603.5 2015.077 1602.715 2015.499 C1580.919 2027.023 1556.303 2034.366 1532.025 2038.257 C1530.985 2038.429 1529.946 2038.601 1528.875 2038.777 C1515.954 2040.66 1503.089 2040.536 1490.054 2040.512 C1487.414 2040.514 1484.774 2040.517 1482.135 2040.521 C1476.395 2040.529 1470.655 2040.529 1464.915 2040.524 C1456.322 2040.517 1447.729 2040.521 1439.136 2040.528 C1424.488 2040.539 1409.84 2040.54 1395.191 2040.536 C1380.351 2040.532 1365.511 2040.533 1350.671 2040.538 C1349.733 2040.539 1348.795 2040.539 1347.828 2040.539 C1344.008 2040.541 1340.187 2040.542 1336.366 2040.544 C1297.596 2040.56 1258.825 2040.562 1220.055 2040.56 C1214.699 2040.559 1209.343 2040.559 1203.987 2040.559 C1202.923 2040.559 1201.859 2040.559 1200.763 2040.559 C1177.18 2040.557 1153.597 2040.56 1130.014 2040.563 C1124.628 2040.564 1119.242 2040.565 1113.856 2040.566 C1111.695 2040.566 1109.533 2040.566 1107.372 2040.567 C1106.3 2040.567 1105.229 2040.567 1104.125 2040.567 C1101.957 2040.567 1099.79 2040.568 1097.623 2040.568 C1036.128 2040.577 974.633 2040.581 913.138 2040.577 C911.999 2040.577 910.861 2040.577 909.688 2040.577 C896.991 2040.576 884.294 2040.575 871.597 2040.574 C870.451 2040.574 869.305 2040.574 868.124 2040.574 C858.599 2040.573 858.599 2040.573 854.217 2040.573 C780.9 2040.567 707.584 2040.575 634.267 2040.593 C615.794 2040.598 597.322 2040.603 578.849 2040.607 C577.712 2040.608 576.574 2040.608 575.402 2040.608 C540.34 2040.616 505.278 2040.621 470.215 2040.622 C468.564 2040.622 468.564 2040.622 466.879 2040.622 C442.71 2040.623 418.54 2040.622 394.371 2040.621 C385.722 2040.621 377.074 2040.62 368.426 2040.62 C366.274 2040.62 364.123 2040.62 361.971 2040.62 C327.704 2040.618 293.436 2040.625 259.169 2040.637 C223.691 2040.648 188.213 2040.649 152.735 2040.637 C148.923 2040.636 145.11 2040.634 141.298 2040.633 C140.362 2040.633 139.427 2040.633 138.463 2040.632 C123.668 2040.628 108.873 2040.634 94.078 2040.644 C79.518 2040.653 64.958 2040.652 50.399 2040.639 C41.871 2040.632 33.344 2040.633 24.816 2040.647 C19.14 2040.655 13.464 2040.652 7.788 2040.64 C4.578 2040.634 1.369 2040.634 -1.84 2040.644 C-21.728 2040.702 -41.321 2039.421 -60.663 2034.507 C-62.213 2034.122 -62.213 2034.122 -63.794 2033.729 C-106.902 2022.701 -144.156 1999.967 -175.975 1969.257 C-176.916 1968.358 -177.857 1967.458 -178.827 1966.531 C-184.7 1960.803 -189.911 1954.705 -194.975 1948.257 C-195.767 1947.271 -196.558 1946.285 -197.374 1945.269 C-232.448 1900.845 -253.347 1844.308 -253.057 1787.558 C-253.054 1786.108 -253.05 1784.659 -253.048 1783.21 C-253.041 1780.102 -253.032 1776.994 -253.02 1773.887 C-253.001 1768.916 -252.992 1763.944 -252.984 1758.973 C-252.962 1745.715 -252.93 1732.457 -252.888 1719.199 C-252.758 1678.839 -252.666 1638.569 -254.975 1598.257 C-255.029 1597.304 -255.083 1596.35 -255.139 1595.367 C-259.216 1523.362 -267.662 1451.571 -283.975 1381.257 C-284.134 1380.569 -284.293 1379.881 -284.457 1379.172 C-294.381 1336.329 -307.889 1294.363 -325.975 1254.257 C-326.402 1253.307 -326.828 1252.356 -327.267 1251.377 C-346.921 1207.884 -375.222 1165.142 -412.975 1135.257 C-413.952 1134.463 -414.93 1133.669 -415.936 1132.851 C-441.137 1112.792 -471.492 1098.86 -502.788 1091.57 C-503.591 1091.38 -504.394 1091.189 -505.221 1090.993 C-515.081 1088.804 -524.909 1087.695 -534.975 1086.257 C-534.975 1042.697 -534.975 999.137 -534.975 954.257 C-526.395 952.937 -517.815 951.617 -508.975 950.257 C-487.335 945.424 -467.487 938.746 -447.975 928.257 C-446.988 927.738 -446.988 927.738 -445.981 927.207 C-435.624 921.739 -426.235 915.415 -416.975 908.257 C-416.083 907.579 -415.191 906.901 -414.272 906.203 C-407.125 900.646 -400.538 894.483 -393.975 888.257 C-393.22 887.544 -392.465 886.832 -391.686 886.097 C-387.183 881.728 -383.215 877.028 -379.3 872.128 C-377.818 870.298 -376.303 868.495 -374.745 866.73 C-361.005 851.057 -350.211 832.732 -340.217 814.515 C-339.134 812.545 -338.03 810.589 -336.917 808.636 C-292.607 728.952 -274.83 633.007 -255.288 446.695 C-255.227 445.675 -255.166 444.656 -255.103 443.605 C-253.503 416.475 -252.831 389.419 -252.961 362.25 C-252.985 357.259 -252.998 352.268 -253.009 347.276 C-253.042 333.109 -253.084 318.941 -253.147 304.773 C-253.182 296.892 -253.205 289.011 -253.217 281.13 C-253.224 276.993 -253.236 272.856 -253.262 268.719 C-253.405 245.71 -252.854 222.865 -247.35 200.382 C-247.097 199.325 -246.843 198.267 -246.581 197.177 C-234.686 149.313 -211.106 107.586 -176.975 72.257 C-176.475 71.735 -175.974 71.212 -175.458 70.674 C-169.033 63.986 -162.318 57.92 -154.975 52.257 C-154.429 51.835 -153.883 51.412 -153.321 50.977 C-143.332 43.301 -132.876 36.562 -121.975 30.257 C-120.944 29.658 -120.944 29.658 -119.891 29.046 C-96.02 15.35 -69.09 6.637 -41.975 2.257 C-40.953 2.088 -39.931 1.919 -38.877 1.745 C-25.936 -0.14 -13.055 -0.023 0 0 Z " fill="#7C11F7" transform="translate(534.9753313064575,-0.25726890563964844)"/>
<path d="M0 0 C489.593 0 489.593 0 520 4.75 C520.852 4.881 521.704 5.013 522.582 5.148 C578.081 13.753 635.029 33.024 679 69 C679.915 69.724 680.83 70.449 681.773 71.195 C689.177 77.114 696.126 83.483 703 90 C703.754 90.712 704.508 91.423 705.285 92.156 C710.673 97.383 715.321 103.141 720 109 C720.659 109.791 721.317 110.583 721.996 111.398 C745.95 140.413 761.612 176.126 769.501 212.697 C769.831 214.22 770.17 215.741 770.518 217.26 C784.39 277.804 772.976 344.914 740.374 397.63 C729.959 414.023 718.462 429.019 705 443 C704.498 443.524 703.996 444.047 703.479 444.587 C696.725 451.602 689.729 458.056 682 464 C681.029 464.761 681.029 464.761 680.038 465.538 C653.102 486.564 612.438 511 577 511 C577 511.66 577 512.32 577 513 C578.511 512.966 578.511 512.966 580.052 512.931 C583.892 512.998 587.385 513.437 591.164 514.102 C591.83 514.218 592.495 514.335 593.181 514.455 C595.331 514.837 597.478 515.229 599.625 515.625 C600.362 515.76 601.099 515.894 601.858 516.033 C614.156 518.297 626.091 521.16 638 525 C639.734 525.539 641.469 526.078 643.203 526.617 C680.038 538.271 715.213 556.647 743.738 582.922 C745.79 584.807 747.882 586.628 750 588.438 C757.626 595.112 764.481 602.313 770.793 610.238 C772.225 612.03 773.685 613.8 775.176 615.543 C791.679 634.919 803.89 658.351 813 682 C813.27 682.683 813.54 683.365 813.818 684.069 C821.974 704.824 826.052 726.971 829 749 C829.105 749.748 829.211 750.496 829.319 751.267 C830.405 760.189 830.199 769.215 830.188 778.188 C830.187 779.528 830.187 779.528 830.186 780.897 C830.16 794.698 829.741 808.295 828 822 C827.823 823.525 827.823 823.525 827.642 825.08 C823.774 857.809 814.306 889.341 800 919 C799.479 920.084 799.479 920.084 798.947 921.189 C787.584 944.465 771.959 965.426 754 984 C753.369 984.653 752.737 985.306 752.087 985.979 C744.119 994.179 736.109 1002.057 727 1009 C725.812 1009.928 724.625 1010.857 723.438 1011.785 C674.5 1049.647 615.689 1070.348 555.393 1081.379 C552.619 1081.887 549.848 1082.409 547.078 1082.938 C373.565 1115.038 117.391 1090 0 1090 C0 730.3 0 370.6 0 0 Z " fill="#F7F0FD" transform="translate(887,475)"/>
<path d="M0 0 C40.26 -0.041 80.52 -0.082 122 -0.125 C134.656 -0.143 147.312 -0.161 160.352 -0.18 C175.949 -0.189 175.949 -0.189 183.279 -0.191 C188.337 -0.193 193.396 -0.2 198.455 -0.211 C267.801 -0.355 267.801 -0.355 297.812 4.25 C298.527 4.357 299.242 4.464 299.979 4.574 C342.628 10.98 385.762 23.255 419 52 C419.816 52.695 420.632 53.39 421.473 54.105 C449.939 78.964 466.82 114.453 470 152 C470.15 155.413 470.187 158.822 470.203 162.238 C470.209 163.199 470.215 164.16 470.22 165.15 C470.23 167.178 470.236 169.206 470.24 171.234 C470.25 174.266 470.281 177.298 470.312 180.33 C470.402 196.641 469.101 212.743 464.375 228.438 C463.996 229.718 463.996 229.718 463.61 231.024 C456.883 252.904 446.557 272.201 431 289 C430.501 289.543 430.003 290.085 429.489 290.644 C397.345 325.222 350.848 340.196 305.5 347.75 C304.328 347.949 303.157 348.147 301.95 348.352 C280.687 351.712 259.322 352.293 237.836 352.227 C235.179 352.226 232.523 352.227 229.867 352.228 C223.542 352.229 217.218 352.22 210.894 352.207 C203.556 352.192 196.218 352.191 188.88 352.189 C169.566 352.179 150.252 352.151 130.938 352.125 C66.123 352.063 66.123 352.063 0 352 C0 235.84 0 119.68 0 0 Z " fill="#7711F1" transform="translate(1065,1070)"/>
<path d="M0 0 C39.744 -0.041 79.489 -0.082 120.438 -0.125 C132.948 -0.143 145.459 -0.161 158.349 -0.18 C173.725 -0.189 173.725 -0.189 180.942 -0.191 C185.94 -0.193 190.939 -0.2 195.938 -0.211 C202.345 -0.225 208.751 -0.229 215.157 -0.226 C217.49 -0.227 219.822 -0.231 222.155 -0.238 C242.113 -0.302 262.163 0.453 281.875 3.812 C282.902 3.984 283.929 4.155 284.987 4.331 C327.689 11.727 370.092 30.105 396.077 66.179 C409.248 85.073 417.021 107.046 419.688 129.875 C419.813 130.951 419.939 132.028 420.069 133.137 C424.288 172.069 417.286 214.795 393.02 246.527 C389.499 250.838 385.828 254.96 382 259 C381.179 259.886 380.358 260.771 379.512 261.684 C362.424 279.531 340.79 291.064 318 300 C317.187 300.321 316.374 300.642 315.536 300.973 C295.566 308.73 274.828 312.797 253.688 315.812 C252.95 315.918 252.213 316.023 251.453 316.132 C234.879 318.469 218.682 319.144 201.962 319.114 C199.717 319.113 197.473 319.113 195.229 319.114 C189.25 319.114 183.271 319.108 177.293 319.101 C171.671 319.096 166.049 319.095 160.426 319.095 C144.013 319.089 127.6 319.075 111.188 319.062 C74.496 319.042 37.804 319.021 0 319 C0 213.73 0 108.46 0 0 Z " fill="#7C12F2" transform="translate(1064,617)"/>
</svg>