
<!-- Generator: visioncortex VTracer 0.6.4 -->
<svg version="1.1" xmlns="http://www.w3.org/2000/svg" viewBox="0 0 2048 2048" preserveAspectRatio="xMidYMid meet">
<path d="M0 0 C595.98 0 1191.96 0 1806 0 C1806 6.179 1805.945 12.083 1805.379 18.192 C1805.312 18.958 1805.244 19.724 1805.175 20.513 C1804.949 23.067 1804.718 25.621 1804.486 28.175 C1804.32 30.041 1804.154 31.908 1803.989 33.775 C1803.531 38.924 1803.068 44.073 1802.604 49.222 C1802.099 54.844 1801.599 60.466 1801.098 66.088 C1800.214 76.004 1799.326 85.92 1798.437 95.836 C1797.473 106.577 1796.511 117.318 1795.552 128.059 C1795.491 128.742 1795.43 129.425 1795.367 130.129 C1795.056 133.617 1794.744 137.106 1794.433 140.594 C1792.152 166.14 1789.866 191.686 1787.579 217.231 C1785.266 243.058 1782.956 268.885 1780.647 294.712 C1780.539 295.93 1780.539 295.93 1780.428 297.173 C1779.538 307.132 1778.648 317.091 1777.758 327.05 C1776.38 342.473 1775.001 357.896 1773.623 373.319 C1773.467 375.068 1773.31 376.818 1773.154 378.567 C1770.729 405.699 1768.303 432.832 1765.877 459.964 C1756.733 562.213 1747.599 664.464 1735.174 803.687 C1734.167 814.972 1733.16 826.257 1732.153 837.541 C1728.914 873.825 1725.676 910.109 1722.438 946.393 C1716.985 1007.496 1711.532 1068.6 1706.077 1129.703 C1705.795 1132.862 1705.513 1136.021 1705.231 1139.18 C1701.063 1185.877 1696.894 1232.574 1692.725 1279.272 C1692.451 1282.343 1692.177 1285.415 1691.902 1288.486 C1690.251 1306.975 1688.601 1325.465 1686.95 1343.954 C1682.399 1394.916 1677.851 1445.878 1673.303 1496.841 C1670.949 1523.226 1668.595 1549.61 1666.24 1575.995 C1666.136 1577.162 1666.032 1578.328 1665.924 1579.53 C1664.882 1591.207 1663.84 1602.884 1662.797 1614.561 C1662.283 1620.322 1661.769 1626.082 1661.255 1631.843 C1661.153 1632.976 1661.052 1634.11 1660.948 1635.278 C1659.333 1653.371 1657.719 1671.464 1656.105 1689.558 C1654.501 1707.547 1652.895 1725.536 1651.289 1743.525 C1650.334 1754.217 1649.38 1764.91 1648.427 1775.603 C1647.789 1782.753 1647.151 1789.903 1646.512 1797.053 C1646.147 1801.131 1645.784 1805.208 1645.421 1809.285 C1645.091 1812.993 1644.76 1816.701 1644.427 1820.409 C1644.252 1822.371 1644.078 1824.334 1643.904 1826.296 C1643.372 1832.215 1642.789 1838.11 1642 1844 C1641.11 1844.245 1640.22 1844.49 1639.303 1844.743 C1596.336 1856.578 1553.376 1868.437 1510.438 1880.375 C1480.256 1888.766 1450.07 1897.137 1419.876 1905.483 C1391.497 1913.328 1363.119 1921.179 1334.75 1929.062 C1334.037 1929.261 1333.325 1929.459 1332.59 1929.663 C1322.989 1932.331 1313.388 1935 1303.787 1937.669 C1287.65 1942.156 1271.513 1946.641 1255.375 1951.125 C1254.435 1951.386 1253.494 1951.648 1252.525 1951.917 C1221.372 1960.573 1190.211 1969.202 1159.046 1977.816 C1128.437 1986.277 1097.834 1994.762 1067.237 2003.268 C1033.15 2012.744 999.054 2022.186 964.952 2031.608 C962.085 2032.4 959.217 2033.193 956.35 2033.985 C952.735 2034.985 949.12 2035.982 945.504 2036.978 C938.012 2039.044 930.526 2041.124 923.063 2043.292 C921.901 2043.627 920.739 2043.962 919.542 2044.308 C917.493 2044.901 915.446 2045.503 913.403 2046.116 C912.524 2046.371 911.646 2046.625 910.74 2046.886 C910.008 2047.104 909.276 2047.322 908.522 2047.546 C902.081 2048.706 896.477 2047.903 890.258 2046.102 C889.154 2045.795 889.154 2045.795 888.027 2045.483 C885.58 2044.802 883.138 2044.106 880.695 2043.41 C878.938 2042.918 877.18 2042.426 875.422 2041.936 C871.642 2040.879 867.864 2039.816 864.087 2038.747 C858.035 2037.035 851.978 2035.338 845.921 2033.642 C838.531 2031.573 831.142 2029.5 823.754 2027.423 C805.438 2022.274 787.106 2017.181 768.773 2012.095 C763.193 2010.547 757.615 2008.997 752.036 2007.447 C726.155 2000.256 700.266 1993.092 674.375 1985.937 C641.324 1976.802 608.282 1967.638 575.25 1958.438 C574.244 1958.157 573.237 1957.877 572.2 1957.588 C567.133 1956.177 562.065 1954.765 556.998 1953.354 C555.998 1953.075 554.999 1952.797 553.969 1952.51 C551.955 1951.949 549.94 1951.388 547.925 1950.827 C525.661 1944.625 503.394 1938.435 481.125 1932.25 C479.732 1931.863 479.732 1931.863 478.312 1931.469 C449.002 1923.327 419.689 1915.2 390.373 1907.08 C359.672 1898.575 328.975 1890.055 298.281 1881.525 C296.897 1881.14 296.897 1881.14 295.485 1880.748 C294.56 1880.491 293.635 1880.234 292.682 1879.969 C291.291 1879.582 291.291 1879.582 289.873 1879.188 C287.996 1878.667 286.12 1878.145 284.243 1877.624 C270.111 1873.697 255.978 1869.773 241.845 1865.852 C235.589 1864.117 229.333 1862.38 223.077 1860.644 C217.105 1858.986 211.133 1857.33 205.16 1855.674 C201.472 1854.651 197.784 1853.627 194.096 1852.603 C192.393 1852.131 190.69 1851.658 188.986 1851.186 C180.633 1848.872 172.289 1846.54 164 1844 C162.404 1832.014 161.208 1820.019 160.147 1807.975 C159.969 1805.982 159.791 1803.99 159.613 1801.997 C159.124 1796.532 158.64 1791.066 158.156 1785.601 C157.627 1779.635 157.094 1773.67 156.563 1767.705 C155.628 1757.224 154.697 1746.744 153.766 1736.264 C152.764 1724.977 151.76 1713.691 150.755 1702.405 C150.692 1701.689 150.628 1700.974 150.562 1700.236 C150.237 1696.582 149.912 1692.929 149.586 1689.275 C147.291 1663.502 144.998 1637.73 142.707 1611.957 C140.257 1584.397 137.806 1556.838 135.352 1529.278 C135.278 1528.439 135.203 1527.6 135.126 1526.736 C134.136 1515.608 133.145 1504.481 132.154 1493.354 C130.986 1480.234 129.819 1467.114 128.651 1453.995 C128.256 1449.557 127.861 1445.12 127.466 1440.682 C125.28 1416.127 123.094 1391.573 120.909 1367.018 C112.487 1272.381 104.058 1177.745 91.461 1036.484 C91.287 1034.539 91.114 1032.594 90.94 1030.648 C87.902 996.582 84.864 962.516 81.826 928.45 C76.902 873.245 71.98 818.04 67.058 762.836 C66.546 757.086 66.033 751.336 65.52 745.586 C65.35 743.675 65.18 741.763 65.009 739.852 C64.925 738.906 64.841 737.961 64.754 736.987 C63.4 721.8 62.046 706.613 60.692 691.427 C60.44 688.6 60.188 685.773 59.936 682.946 C59.184 674.507 58.432 666.068 57.679 657.628 C55.302 630.957 52.924 604.286 50.546 577.615 C50.466 576.721 50.386 575.827 50.304 574.905 C45.024 515.686 39.74 456.467 34.452 397.248 C33.826 390.23 33.199 383.212 32.573 376.195 C32.504 375.431 32.436 374.667 32.366 373.88 C30.306 350.81 28.247 327.74 26.189 304.67 C26.126 303.96 26.062 303.25 25.997 302.518 C24.747 288.51 23.498 274.502 22.249 260.494 C21.586 253.06 20.923 245.625 20.26 238.191 C20.201 237.531 20.142 236.87 20.081 236.19 C18.161 214.665 16.238 193.14 14.314 171.616 C12.497 151.29 10.682 130.964 8.872 110.638 C7.82 98.836 6.766 87.033 5.708 75.232 C5.013 67.464 4.32 59.696 3.63 51.927 C3.239 47.534 2.847 43.14 2.452 38.747 C2.094 34.77 1.739 30.793 1.389 26.815 C1.262 25.391 1.134 23.967 1.005 22.544 C0.829 20.609 0.659 18.673 0.49 16.737 C0.395 15.669 0.299 14.601 0.201 13.5 C-0.057 9.007 0 4.501 0 0 Z " fill="#264DE4" transform="translate(121,0)"/>
<path d="M0 0 C373.56 0 747.12 0 1132 0 C1132 6.536 1131.985 12.531 1131.377 18.95 C1131.276 20.032 1131.276 20.032 1131.174 21.137 C1130.953 23.511 1130.724 25.884 1130.496 28.258 C1130.336 29.969 1130.175 31.681 1130.016 33.393 C1129.674 37.054 1129.329 40.715 1128.982 44.376 C1128.048 54.227 1127.134 64.08 1126.219 73.934 C1126.078 75.445 1126.078 75.445 1125.935 76.987 C1124.085 96.881 1122.348 116.783 1120.651 136.69 C1118.299 164.254 1115.846 191.806 1113.281 219.351 C1110.919 244.726 1108.672 270.108 1106.5 295.5 C1104.216 322.196 1101.849 348.883 1099.375 375.562 C1099.226 377.174 1099.076 378.786 1098.927 380.398 C1098.633 383.571 1098.338 386.743 1098.044 389.915 C1097.973 390.685 1097.901 391.455 1097.828 392.248 C1097.685 393.786 1097.543 395.324 1097.4 396.862 C1096.095 410.927 1094.816 424.993 1093.562 439.062 C1093.467 440.135 1093.371 441.207 1093.273 442.311 C1091.97 456.941 1090.686 471.572 1089.406 486.204 C1088.733 493.898 1088.059 501.591 1087.385 509.285 C1087.212 511.262 1087.038 513.239 1086.865 515.216 C1084.391 543.467 1081.848 571.711 1079.221 599.949 C1076.823 625.738 1074.552 651.537 1072.346 677.343 C1069.925 705.654 1067.371 733.95 1064.745 762.243 C1062.212 789.55 1059.773 816.863 1057.438 844.188 C1055.152 870.92 1052.768 897.642 1050.281 924.356 C1047.862 950.334 1045.571 976.32 1043.349 1002.315 C1040.587 1034.61 1037.658 1066.889 1034.664 1099.163 C1034.421 1101.786 1034.178 1104.409 1033.935 1107.033 C1033.779 1108.71 1033.623 1110.388 1033.468 1112.066 C1032.264 1125.04 1031.101 1138.017 1030 1151 C1025.539 1152.701 1021.115 1154.343 1016.531 1155.684 C1015.556 1155.969 1014.581 1156.255 1013.577 1156.549 C1012.561 1156.842 1011.546 1157.136 1010.5 1157.438 C1009.437 1157.746 1008.374 1158.055 1007.279 1158.373 C1000.166 1160.42 993.036 1162.297 985.844 1164.043 C979.285 1165.676 972.788 1167.528 966.282 1169.359 C962.524 1170.415 958.762 1171.457 955 1172.5 C953.5 1172.917 952 1173.333 950.5 1173.75 C923.5 1181.25 923.5 1181.25 921.251 1181.875 C919.747 1182.293 918.242 1182.711 916.737 1183.129 C913.063 1184.151 909.388 1185.169 905.711 1186.18 C897.074 1188.559 888.469 1191.031 879.875 1193.562 C871.947 1195.896 864.018 1198.031 855.984 1199.973 C850.403 1201.368 844.921 1203.106 839.421 1204.789 C833.666 1206.537 827.903 1208.062 822.054 1209.468 C816.872 1210.733 811.785 1212.243 806.688 1213.812 C797.533 1216.625 788.295 1219.025 779.015 1221.387 C771.233 1223.383 763.541 1225.578 755.863 1227.941 C750.297 1229.644 744.709 1231.109 739.051 1232.468 C733.87 1233.734 728.785 1235.244 723.688 1236.812 C714.533 1239.625 705.295 1242.025 696.015 1244.387 C688.233 1246.383 680.541 1248.578 672.863 1250.941 C667.297 1252.644 661.709 1254.109 656.051 1255.468 C650.87 1256.734 645.785 1258.244 640.688 1259.812 C631.532 1262.625 622.292 1265.027 613.011 1267.387 C606.096 1269.159 599.257 1271.081 592.438 1273.188 C590.053 1273.899 587.666 1274.604 585.279 1275.308 C583.772 1275.766 582.27 1276.244 580.775 1276.743 C566.569 1281.462 555.961 1278.515 542 1274 C539.364 1273.198 536.723 1272.412 534.082 1271.626 C532.408 1271.127 530.737 1270.622 529.067 1270.112 C524.075 1268.587 519.075 1267.219 514 1266 C507.056 1264.32 500.252 1262.301 493.422 1260.211 C488.308 1258.658 483.195 1257.257 478 1256 C471.93 1254.531 465.971 1252.827 460 1251 C454.111 1249.199 448.236 1247.509 442.25 1246.062 C435.582 1244.447 429.016 1242.574 422.438 1240.625 C413.293 1237.917 404.111 1235.427 394.873 1233.059 C389.033 1231.555 383.281 1229.887 377.535 1228.055 C372.702 1226.613 367.822 1225.376 362.938 1224.125 C354.58 1221.983 346.315 1219.64 338.068 1217.11 C333.075 1215.59 328.075 1214.219 323 1213 C316.056 1211.32 309.252 1209.301 302.422 1207.211 C297.308 1205.658 292.195 1204.257 287 1203 C280.056 1201.32 273.252 1199.301 266.422 1197.211 C261.308 1195.658 256.195 1194.257 251 1193 C244.056 1191.32 237.252 1189.301 230.422 1187.211 C225.308 1185.658 220.195 1184.257 215 1183 C208.056 1181.32 201.252 1179.301 194.422 1177.211 C189.308 1175.658 184.195 1174.257 179 1173 C172.056 1171.32 165.252 1169.301 158.422 1167.211 C152.037 1165.272 145.627 1163.636 139.141 1162.066 C133.428 1160.638 127.814 1158.874 122.185 1157.154 C115.832 1155.222 109.464 1153.523 103 1152 C101.68 1142.001 100.571 1132.007 99.736 1121.955 C99.546 1119.676 99.353 1117.397 99.159 1115.119 C98.876 1111.798 98.595 1108.477 98.315 1105.156 C97.55 1096.081 96.772 1087.007 95.992 1077.934 C95.911 1076.992 95.83 1076.05 95.747 1075.08 C94.001 1054.785 92.137 1034.501 90.253 1014.218 C87.489 984.477 84.826 954.73 82.29 924.969 C80.528 904.302 78.71 883.641 76.785 862.988 C76.692 861.99 76.599 860.992 76.503 859.963 C75.592 850.198 74.675 840.433 73.751 830.669 C73.413 827.102 73.077 823.535 72.741 819.967 C72.51 817.515 72.275 815.063 72.041 812.611 C71.902 811.133 71.762 809.655 71.623 808.177 C71.502 806.904 71.381 805.632 71.257 804.321 C71.04 801.524 70.98 798.802 71 796 C99.901 795.977 128.803 795.96 157.704 795.949 C161.113 795.948 164.521 795.946 167.93 795.945 C168.609 795.945 169.287 795.945 169.986 795.944 C180.988 795.94 191.991 795.932 202.993 795.923 C214.274 795.914 225.555 795.908 236.835 795.906 C243.175 795.905 249.515 795.902 255.855 795.894 C261.814 795.888 267.774 795.885 273.734 795.887 C275.928 795.887 278.122 795.885 280.317 795.881 C283.298 795.876 286.28 795.877 289.262 795.88 C290.142 795.877 291.023 795.874 291.93 795.871 C297.886 795.886 297.886 795.886 299 797 C299.209 798.421 299.356 799.851 299.477 801.283 C299.558 802.21 299.639 803.138 299.722 804.093 C299.808 805.122 299.893 806.151 299.98 807.211 C300.074 808.292 300.167 809.373 300.263 810.487 C300.467 812.859 300.669 815.232 300.869 817.604 C301.36 823.414 301.862 829.223 302.363 835.032 C302.541 837.096 302.719 839.16 302.896 841.225 C304.121 855.479 305.397 869.728 306.679 883.977 C307.062 888.243 307.444 892.509 307.825 896.775 C308.863 908.373 309.903 919.97 310.967 931.566 C311.351 935.752 311.732 939.938 312.112 944.124 C312.284 946.008 312.458 947.892 312.634 949.775 C313.483 958.866 314.3 967.857 314 977 C314.821 977.121 315.642 977.242 316.488 977.367 C320.451 978.081 324.304 979.076 328.188 980.125 C329.881 980.577 331.575 981.029 333.27 981.48 C334.186 981.725 335.102 981.969 336.045 982.22 C339.198 983.052 342.354 983.866 345.512 984.676 C356.631 987.528 367.713 990.446 378.733 993.662 C387.216 996.113 395.773 998.273 404.33 1000.451 C414.065 1002.933 423.72 1005.62 433.348 1008.494 C441.254 1010.833 449.22 1012.848 457.228 1014.806 C463.55 1016.36 469.814 1018.047 476.062 1019.875 C484.765 1022.42 493.526 1024.702 502.312 1026.938 C511.84 1029.363 521.322 1031.895 530.75 1034.688 C541.573 1037.884 541.573 1037.884 552.438 1040.938 C553.176 1041.149 553.915 1041.361 554.677 1041.579 C563.388 1043.922 570.873 1043.138 579.5 1040.812 C580.369 1040.587 581.239 1040.361 582.135 1040.129 C588.319 1038.505 594.452 1036.722 600.573 1034.874 C605.928 1033.272 611.32 1031.888 616.75 1030.562 C623.716 1028.861 630.615 1027.004 637.5 1025 C645.214 1022.754 652.957 1020.73 660.762 1018.824 C666.755 1017.347 672.66 1015.661 678.567 1013.875 C684.848 1011.996 691.192 1010.43 697.559 1008.875 C702.919 1007.553 708.216 1006.098 713.5 1004.5 C720.468 1002.392 727.488 1000.602 734.559 998.875 C739.919 997.553 745.216 996.098 750.5 994.5 C757.468 992.392 764.488 990.602 771.559 988.875 C777.609 987.383 783.571 985.691 789.533 983.884 C796.159 981.9 802.857 980.237 809.578 978.611 C810.386 978.415 811.195 978.218 812.027 978.016 C812.747 977.843 813.466 977.671 814.207 977.493 C816.082 977.04 816.082 977.04 818 976 C818.472 973.603 818.472 973.603 818.641 970.602 C818.787 968.76 818.787 968.76 818.937 966.881 C818.987 966.197 819.037 965.512 819.089 964.807 C819.381 960.852 819.708 956.899 820.027 952.945 C820.136 951.585 820.136 951.585 820.247 950.197 C821.224 938.05 822.332 925.914 823.427 913.777 C823.818 909.44 824.208 905.103 824.597 900.766 C824.729 899.289 824.862 897.813 824.994 896.336 C825.06 895.601 825.126 894.867 825.194 894.11 C825.462 891.118 825.731 888.127 826 885.136 C826.839 875.799 827.676 866.462 828.512 857.125 C828.573 856.437 828.635 855.75 828.698 855.041 C829.256 848.808 829.814 842.575 830.372 836.341 C830.745 832.17 831.119 827.999 831.492 823.828 C831.554 823.139 831.615 822.451 831.679 821.741 C832.509 812.469 833.342 803.197 834.176 793.925 C834.634 788.845 835.09 783.764 835.547 778.684 C835.866 775.13 836.186 771.576 836.506 768.022 C837.776 753.918 839.029 739.813 840.195 725.699 C840.287 724.596 840.378 723.493 840.473 722.357 C840.892 717.298 841.306 712.239 841.708 707.179 C841.852 705.42 841.996 703.661 842.141 701.902 C842.199 701.139 842.257 700.375 842.317 699.589 C842.796 693.866 843.853 688.733 845 683 C586.28 683 327.56 683 61 683 C55.274 624.593 55.274 624.593 53.562 605 C53.361 602.716 53.159 600.431 52.957 598.147 C52.638 594.537 52.319 590.928 52.001 587.318 C51.175 577.95 50.336 568.582 49.492 559.215 C44.995 509.262 44.995 509.262 42.888 484.689 C42.714 482.668 42.541 480.648 42.366 478.628 C42.13 475.89 41.896 473.152 41.664 470.414 C41.596 469.625 41.527 468.835 41.457 468.022 C41.146 464.32 41 460.723 41 457 C312.59 457 584.18 457 864 457 C864.33 451.39 864.66 445.78 865 440 C865.375 435.523 865.769 431.054 866.199 426.582 C866.438 424.04 866.677 421.497 866.916 418.955 C867.043 417.619 867.169 416.282 867.296 414.946 C867.981 407.721 868.654 400.495 869.324 393.27 C869.394 392.52 869.463 391.77 869.535 390.998 C871.111 374.006 872.562 357.004 874 340 C876.179 314.252 878.478 288.516 880.895 262.789 C881.081 260.812 881.266 258.834 881.451 256.857 C881.674 254.474 881.899 252.092 882.125 249.709 C882.865 241.808 883.434 233.921 884 226 C598.88 226 313.76 226 20 226 C15.71 178.15 11.42 130.3 7 81 C3.604 43.713 3.604 43.713 0.178 6.429 C0.021 4.291 0 2.144 0 0 Z " fill="#FEFEFE" transform="translate(457,377)"/>
<path d="M0 0 C243.54 0 487.08 0 738 0 C738 5.783 737.878 11.084 737.188 16.75 C736.061 26.649 735.283 36.57 734.5 46.5 C733.707 56.523 732.907 66.533 731.77 76.523 C730.818 85.165 730.186 93.835 729.5 102.5 C728.706 112.521 727.91 122.53 726.77 132.519 C725.64 142.76 724.926 153.046 724.141 163.318 C724.021 164.85 723.901 166.382 723.781 167.914 C723.732 168.575 723.683 169.236 723.633 169.918 C723.259 174.665 722.712 179.378 722.127 184.104 C720.641 196.496 719.599 208.932 718.494 221.363 C718.249 224.097 718.004 226.83 717.759 229.564 C717.166 236.18 716.576 242.796 715.986 249.412 C715.506 254.796 715.026 260.179 714.545 265.562 C714.441 266.717 714.441 266.717 714.336 267.895 C714.196 269.46 714.056 271.024 713.916 272.589 C712.609 287.216 711.304 301.844 710.001 316.472 C708.885 328.989 707.767 341.506 706.647 354.022 C705.342 368.602 704.039 383.182 702.739 397.763 C702.6 399.321 702.461 400.88 702.322 402.438 C702.219 403.588 702.219 403.588 702.114 404.761 C701.635 410.13 701.155 415.499 700.674 420.867 C700.088 427.421 699.503 433.975 698.92 440.53 C698.624 443.866 698.326 447.201 698.027 450.537 C696.92 462.878 695.829 475.204 695.202 487.579 C694.871 493.181 694.215 498.74 693.562 504.312 C692.488 513.867 691.63 523.407 691 533 C690.306 543.539 689.288 554.006 688.105 564.5 C687.204 572.658 686.539 580.81 686 589 C685.306 599.539 684.288 610.006 683.105 620.5 C682.204 628.658 681.539 636.81 681 645 C680.306 655.539 679.288 666.006 678.105 676.5 C677.076 685.813 676.386 695.127 675.772 704.476 C675.118 714.099 674.114 723.665 673.037 733.249 C672.201 740.793 671.621 748.292 671.264 755.871 C671.038 759.874 670.571 763.837 670.062 767.812 C669.021 776.309 668.346 784.812 667.738 793.348 C666.767 806.954 665.594 820.502 664.055 834.056 C663.036 843.192 662.373 852.331 661.769 861.503 C661.132 870.868 660.157 880.173 659.105 889.5 C658.204 897.658 657.539 905.81 657 914 C656.306 924.539 655.288 935.006 654.105 945.5 C653.204 953.658 652.539 961.81 652 970 C651.306 980.539 650.288 991.006 649.105 1001.5 C648.204 1009.658 647.539 1017.81 647 1026 C646.307 1036.522 645.294 1046.974 644.11 1057.452 C643.023 1067.266 642.278 1077.088 641.646 1086.941 C641.539 1088.591 641.539 1088.591 641.43 1090.273 C641.37 1091.237 641.311 1092.2 641.25 1093.193 C640.985 1096.165 640.503 1099.06 640 1102 C639.828 1104.394 639.684 1106.79 639.562 1109.188 C639.243 1114.876 638.765 1120.525 638.125 1126.188 C637.033 1135.941 636.273 1145.717 635.5 1155.5 C634.707 1165.523 633.907 1175.533 632.77 1185.523 C631.818 1194.165 631.186 1202.835 630.5 1211.5 C629.706 1221.523 628.907 1231.533 627.77 1241.523 C626.818 1250.165 626.186 1258.835 625.5 1267.5 C624.706 1277.521 623.91 1287.53 622.77 1297.519 C621.64 1307.76 620.926 1318.046 620.141 1328.318 C620.021 1329.85 619.901 1331.382 619.781 1332.914 C619.732 1333.575 619.683 1334.236 619.633 1334.918 C619.302 1339.11 618.854 1343.28 618.342 1347.454 C617.052 1358.035 616.074 1368.634 615.136 1379.251 C614.961 1381.221 614.785 1383.191 614.608 1385.16 C614.135 1390.458 613.665 1395.755 613.195 1401.052 C612.701 1406.625 612.204 1412.197 611.707 1417.769 C610.875 1427.118 610.043 1436.468 609.214 1445.817 C608.257 1456.596 607.298 1467.374 606.337 1478.153 C605.409 1488.566 604.482 1498.979 603.556 1509.393 C603.164 1513.805 602.771 1518.218 602.378 1522.63 C601.915 1527.831 601.453 1533.033 600.992 1538.234 C600.823 1540.133 600.654 1542.032 600.485 1543.93 C599.562 1554.281 598.692 1564.63 598 1575 C596.171 1575.504 596.171 1575.504 594.304 1576.019 C588.515 1577.615 582.726 1579.214 576.938 1580.812 C575.879 1581.105 574.82 1581.397 573.73 1581.699 C559.203 1585.713 544.688 1589.767 530.188 1593.875 C518.996 1597.044 507.796 1600.163 496.557 1603.16 C485.229 1606.189 473.927 1609.312 462.625 1612.438 C461.595 1612.722 460.566 1613.007 459.505 1613.3 C446.436 1616.916 433.384 1620.583 420.353 1624.335 C412.297 1626.648 404.214 1628.846 396.115 1631.008 C384.602 1634.089 373.113 1637.261 361.625 1640.438 C360.596 1640.722 359.568 1641.006 358.508 1641.299 C345.452 1644.912 332.412 1648.572 319.395 1652.324 C310.884 1654.769 302.34 1657.077 293.784 1659.357 C285.83 1661.485 277.912 1663.721 270 1666 C261.187 1668.537 252.361 1671.01 243.5 1673.375 C233.191 1676.127 222.904 1678.951 212.625 1681.812 C211.862 1682.025 211.099 1682.237 210.312 1682.456 C206.412 1683.542 202.513 1684.628 198.613 1685.715 C191.305 1687.751 183.996 1689.782 176.688 1691.812 C175.964 1692.014 175.24 1692.215 174.494 1692.422 C160.15 1696.408 145.802 1700.376 131.453 1704.342 C119.345 1707.69 107.238 1711.042 95.134 1714.407 C33.641 1731.503 33.641 1731.503 12.188 1737.312 C10.624 1737.738 10.624 1737.738 9.029 1738.173 C7.644 1738.545 7.644 1738.545 6.23 1738.926 C5.451 1739.136 4.671 1739.347 3.868 1739.564 C2 1740 2 1740 0 1740 C0 1662.45 0 1584.9 0 1505 C7.26 1503.02 14.52 1501.04 22 1499 C26.772 1497.69 31.543 1496.379 36.312 1495.062 C37.528 1494.728 38.743 1494.393 39.995 1494.047 C46.924 1492.134 53.848 1490.202 60.767 1488.251 C70.877 1485.401 81.009 1482.676 91.181 1480.058 C97.006 1478.549 102.746 1476.877 108.48 1475.051 C113.226 1473.634 118.016 1472.417 122.812 1471.188 C130.923 1469.107 138.973 1466.88 147 1464.5 C155.999 1461.832 165.037 1459.389 174.129 1457.059 C178.96 1455.814 183.745 1454.514 188.5 1453 C194.22 1451.178 200 1449.677 205.812 1448.188 C213.923 1446.107 221.973 1443.88 230 1441.5 C238.999 1438.832 248.037 1436.389 257.129 1434.059 C261.96 1432.814 266.745 1431.514 271.5 1430 C277.22 1428.178 283 1426.677 288.812 1425.188 C296.923 1423.107 304.973 1420.88 313 1418.5 C321.999 1415.832 331.037 1413.389 340.129 1411.059 C345.959 1409.557 351.701 1407.893 357.438 1406.062 C362.424 1404.575 367.46 1403.295 372.5 1402 C379.578 1400.18 386.584 1398.264 393.551 1396.051 C399.024 1394.383 404.551 1392.917 410.073 1391.424 C418.277 1389.204 426.463 1386.923 434.646 1384.624 C440.895 1382.868 447.148 1381.123 453.403 1379.387 C454.647 1379.041 454.647 1379.041 455.917 1378.689 C457.944 1378.126 459.972 1377.563 462 1377 C463.691 1358.521 465.378 1340.042 467.062 1321.562 C467.125 1320.873 467.188 1320.183 467.253 1319.473 C470.497 1283.884 473.71 1248.294 476.75 1212.688 C478.972 1186.661 481.299 1160.646 483.72 1134.637 C486.06 1109.495 488.287 1084.346 490.438 1059.188 C492.851 1030.948 495.381 1002.721 498 974.5 C500.598 946.508 503.107 918.51 505.5 890.5 C507.914 862.24 510.445 833.992 513.062 805.75 C515.487 779.589 517.867 753.426 520.125 727.25 C520.247 725.834 520.369 724.419 520.492 723.003 C520.674 720.894 520.856 718.785 521.038 716.676 C521.218 714.589 521.398 712.502 521.578 710.414 C521.637 709.73 521.696 709.046 521.757 708.341 C523.102 692.767 524.481 677.195 525.875 661.625 C525.935 660.949 525.996 660.274 526.058 659.578 C527.648 641.815 529.267 624.055 530.91 606.297 C531.077 604.496 531.243 602.694 531.41 600.893 C531.493 599.994 531.576 599.095 531.662 598.169 C532.002 594.496 532.341 590.822 532.681 587.149 C532.852 585.3 533.023 583.451 533.194 581.602 C535.924 552.084 538.535 522.557 541.062 493.02 C543.072 469.529 545.171 446.048 547.367 422.573 C549.475 400.015 551.441 377.449 553.375 354.875 C557.095 311.903 561.05 268.952 565 226 C191.44 226 -182.12 226 -567 226 C-567 225.67 -567 225.34 -567 225 C-379.89 225 -192.78 225 0 225 C0 150.75 0 76.5 0 0 Z " fill="#2965F0" transform="translate(1024,151)"/>
<path d="M0 0 C28.901 -0.023 57.803 -0.04 86.704 -0.051 C90.113 -0.052 93.521 -0.054 96.93 -0.055 C97.609 -0.055 98.287 -0.055 98.986 -0.056 C109.988 -0.06 120.991 -0.068 131.993 -0.077 C143.274 -0.086 154.555 -0.092 165.835 -0.094 C172.175 -0.095 178.515 -0.098 184.855 -0.106 C190.814 -0.112 196.774 -0.115 202.734 -0.113 C204.928 -0.113 207.122 -0.115 209.317 -0.119 C212.298 -0.124 215.28 -0.123 218.262 -0.12 C219.142 -0.123 220.023 -0.126 220.93 -0.129 C226.886 -0.114 226.886 -0.114 228 1 C228.209 2.421 228.356 3.851 228.477 5.283 C228.558 6.21 228.639 7.138 228.722 8.093 C228.808 9.122 228.893 10.151 228.98 11.211 C229.074 12.292 229.167 13.373 229.263 14.487 C229.467 16.859 229.669 19.232 229.869 21.604 C230.36 27.414 230.862 33.223 231.363 39.032 C231.541 41.096 231.719 43.16 231.896 45.225 C233.121 59.479 234.397 73.728 235.679 87.977 C236.062 92.243 236.444 96.509 236.825 100.775 C237.863 112.373 238.903 123.97 239.967 135.566 C240.351 139.752 240.732 143.938 241.112 148.124 C241.284 150.008 241.458 151.892 241.634 153.775 C242.483 162.866 243.3 171.857 243 181 C243.821 181.121 244.642 181.242 245.488 181.367 C249.451 182.081 253.304 183.076 257.188 184.125 C258.881 184.577 260.575 185.029 262.27 185.48 C263.186 185.725 264.102 185.969 265.045 186.22 C268.198 187.052 271.354 187.866 274.512 188.676 C285.631 191.528 296.713 194.446 307.733 197.662 C316.216 200.113 324.773 202.273 333.33 204.451 C343.065 206.933 352.72 209.62 362.348 212.494 C370.254 214.833 378.22 216.848 386.228 218.806 C392.55 220.36 398.814 222.047 405.062 223.875 C413.765 226.42 422.526 228.702 431.312 230.938 C441.826 233.614 452.267 236.469 462.669 239.553 C468.946 241.411 475.236 243.195 481.562 244.875 C482.318 245.078 483.074 245.282 483.853 245.491 C488.224 246.636 492.515 247.446 497 248 C496.34 248.33 495.68 248.66 495 249 C495.33 326.55 495.66 404.1 496 484 C479.954 480.562 479.954 480.562 473.25 478.625 C471.714 478.19 470.177 477.755 468.641 477.32 C467.489 476.992 467.489 476.992 466.314 476.657 C462.548 475.588 458.774 474.545 455 473.5 C453.5 473.083 452 472.667 450.5 472.25 C449.386 471.941 449.386 471.941 448.25 471.625 C428 466 407.75 460.375 387.5 454.75 C386.386 454.441 386.386 454.441 385.25 454.125 C383.751 453.709 382.251 453.292 380.752 452.875 C376.991 451.829 373.229 450.787 369.465 449.75 C362.226 447.753 355.006 445.716 347.812 443.562 C340.002 441.228 332.122 439.19 324.228 437.16 C318.27 435.62 312.398 433.924 306.535 432.055 C301.702 430.613 296.822 429.376 291.938 428.125 C283.58 425.983 275.315 423.64 267.068 421.11 C262.075 419.59 257.075 418.219 252 417 C245.056 415.32 238.252 413.301 231.422 411.211 C226.308 409.658 221.195 408.257 216 407 C209.056 405.32 202.252 403.301 195.422 401.211 C190.308 399.658 185.195 398.257 180 397 C173.056 395.32 166.252 393.301 159.422 391.211 C154.308 389.658 149.195 388.257 144 387 C137.056 385.32 130.252 383.301 123.422 381.211 C118.308 379.658 113.195 378.257 108 377 C101.056 375.32 94.252 373.301 87.422 371.211 C81.037 369.272 74.627 367.636 68.141 366.066 C62.428 364.638 56.814 362.874 51.185 361.154 C44.832 359.222 38.464 357.523 32 356 C30.68 346.001 29.571 336.007 28.736 325.955 C28.546 323.676 28.353 321.397 28.159 319.119 C27.876 315.798 27.595 312.477 27.315 309.156 C26.55 300.081 25.772 291.007 24.992 281.934 C24.911 280.992 24.83 280.05 24.747 279.08 C23.001 258.785 21.137 238.501 19.253 218.218 C16.489 188.477 13.826 158.73 11.29 128.969 C9.528 108.302 7.71 87.641 5.785 66.988 C5.692 65.99 5.599 64.992 5.503 63.963 C4.592 54.198 3.675 44.433 2.751 34.669 C2.413 31.102 2.077 27.535 1.741 23.967 C1.51 21.515 1.275 19.063 1.041 16.611 C0.902 15.133 0.762 13.655 0.623 12.177 C0.502 10.904 0.381 9.632 0.257 8.321 C0.04 5.524 -0.02 2.802 0 0 Z " fill="#EAEAEA" transform="translate(528,1173)"/>
<path d="M0 0 C186.78 0 373.56 0 566 0 C566 74.58 566 149.16 566 226 C385.82 226 205.64 226 20 226 C15.71 178.15 11.42 130.3 7 81 C3.604 43.713 3.604 43.713 0.178 6.429 C0.021 4.291 0 2.144 0 0 Z " fill="#EAEAEA" transform="translate(457,377)"/>
<path d="M0 0 C271.59 0 543.18 0 823 0 C823 0.33 823 0.66 823 1 C724.66 1 626.32 1 525 1 C525 75.25 525 149.5 525 226 C358.35 226 191.7 226 20 226 C14.274 167.593 14.274 167.593 12.562 148 C12.361 145.716 12.159 143.431 11.957 141.147 C11.638 137.537 11.319 133.928 11.001 130.318 C10.175 120.95 9.336 111.582 8.492 102.215 C3.995 52.262 3.995 52.262 1.888 27.689 C1.714 25.668 1.541 23.648 1.366 21.628 C1.13 18.89 0.896 16.152 0.664 13.414 C0.596 12.625 0.527 11.835 0.457 11.022 C0.146 7.32 0 3.723 0 0 Z " fill="#EAEAEB" transform="translate(498,834)"/>
<path d="M0 0 C258.72 0 517.44 0 784 0 C783.67 3.3 783.34 6.6 783 10 C782.806 12.074 782.616 14.148 782.431 16.222 C782.33 17.349 782.229 18.477 782.125 19.638 C782.018 20.839 781.911 22.04 781.801 23.277 C781.624 25.257 781.447 27.237 781.27 29.217 C781.081 31.329 780.892 33.441 780.704 35.552 C780.305 40.022 779.906 44.491 779.506 48.961 C779.018 54.422 778.53 59.882 778.042 65.343 C777.189 74.886 776.335 84.43 775.48 93.973 C775.419 94.657 775.358 95.341 775.295 96.046 C774.986 99.487 774.678 102.929 774.37 106.37 C773.809 112.631 773.248 118.892 772.688 125.153 C772.375 128.643 772.063 132.134 771.75 135.625 C771.625 137.021 771.5 138.417 771.375 139.812 C770.625 148.188 770.625 148.188 770.437 150.281 C770.313 151.677 770.188 153.073 770.063 154.468 C769.75 157.96 769.437 161.453 769.124 164.945 C768.564 171.196 768.005 177.447 767.446 183.698 C767.137 187.147 766.828 190.597 766.52 194.047 C766.428 195.074 766.428 195.074 766.334 196.121 C765.475 205.713 764.613 215.304 763.747 224.895 C763.26 230.285 762.775 235.675 762.29 241.065 C761.896 245.438 761.501 249.811 761.105 254.184 C760.919 256.238 760.734 258.293 760.549 260.347 C760.325 262.83 760.101 265.313 759.875 267.796 C759.774 268.922 759.673 270.049 759.569 271.21 C759.421 272.852 759.421 272.852 759.269 274.526 C759.073 277.062 758.919 279.58 758.809 282.119 C758.759 283.149 758.759 283.149 758.708 284.199 C758.617 286.135 758.543 288.071 758.47 290.007 C758.315 290.995 758.16 291.983 758 293 C755.345 294.77 754.042 295.384 751.07 296.078 C750.287 296.266 749.503 296.454 748.696 296.648 C747.848 296.846 746.999 297.045 746.125 297.25 C739.095 298.949 732.128 300.778 725.188 302.812 C716.256 305.419 707.265 307.764 698.25 310.062 C689.41 312.317 680.603 314.62 671.874 317.278 C665.782 319.114 659.618 320.616 653.439 322.126 C648.079 323.447 642.783 324.902 637.5 326.5 C631.373 328.353 625.218 329.981 619 331.5 C612.865 332.999 606.793 334.602 600.75 336.438 C592.858 338.831 584.881 340.803 576.873 342.767 C570.266 344.4 563.741 346.199 557.23 348.176 C551.027 350.04 544.759 351.585 538.467 353.116 C532.155 354.668 525.928 356.429 519.73 358.389 C515.021 359.84 511.046 360.369 506 361 C506 242.2 506 123.4 506 1 C339.02 1 172.04 1 0 1 C0 0.67 0 0.34 0 0 Z " fill="#2965F0" transform="translate(518,1060)"/>
<path d="M0 0 C104.61 0 209.22 0 317 0 C317 15.748 317 15.748 316.453 21.455 C316.271 23.401 316.271 23.401 316.086 25.386 C315.951 26.768 315.815 28.15 315.68 29.531 C315.539 31.022 315.398 32.513 315.258 34.005 C314.96 37.18 314.657 40.356 314.352 43.531 C313.614 51.201 312.897 58.874 312.18 66.546 C312.015 68.304 311.85 70.063 311.685 71.821 C310.069 89.053 308.573 106.294 307.119 123.541 C305.126 147.146 303.059 170.744 300.887 194.333 C300.689 196.482 300.492 198.63 300.296 200.778 C299.933 204.738 299.567 208.697 299.199 212.656 C299.039 214.409 299.039 214.409 298.875 216.197 C298.774 217.275 298.673 218.352 298.569 219.463 C298.44 220.858 298.44 220.858 298.308 222.282 C297.977 225.202 297.483 228.101 297 231 C198.99 231 100.98 231 0 231 C0 154.77 0 78.54 0 0 Z " fill="#2965F1" transform="translate(1024,603)"/>
</svg>