
<!-- Generator: visioncortex VTracer 0.6.4 -->
<svg version="1.1" xmlns="http://www.w3.org/2000/svg" viewBox="0 0 192 192" preserveAspectRatio="xMidYMid meet">
<path d="M0 0 C9.422 7.395 15.56 19.036 18.074 30.633 C19.578 48.335 16.701 62.843 5.266 76.848 C-4.856 87.811 -19.163 93.362 -33.926 94.133 C-50.299 93.303 -63.761 86.511 -74.926 74.633 C-85.315 61.581 -87.545 46.845 -85.926 30.633 C-83.172 16.383 -74.642 4.771 -62.977 -3.469 C-42.534 -16.19 -19.151 -13.596 0 0 Z " fill="#FDFDFC" transform="translate(129.92578125,25.3671875)"/>
<path d="M0 0 C1.747 -0.004 1.747 -0.004 3.529 -0.009 C5.979 -0.011 8.43 -0.005 10.881 0.007 C14.614 0.023 18.345 0.007 22.078 -0.012 C24.469 -0.01 26.859 -0.006 29.25 0 C30.91 -0.009 30.91 -0.009 32.603 -0.018 C42.256 0.068 49.811 1.654 56.895 8.469 C62.522 14.744 63.334 20.61 63.074 28.984 C62.238 35.343 59.457 39.984 54.75 44.273 C46.87 49.632 40.56 49.866 31.168 49.867 C29.87 49.875 28.572 49.882 27.234 49.89 C24.493 49.904 21.752 49.905 19.011 49.899 C15.525 49.894 12.039 49.924 8.553 49.965 C5.195 49.997 1.838 49.992 -1.52 49.992 C-3.378 50.017 -3.378 50.017 -5.274 50.042 C-13.822 49.974 -20.903 48.585 -27.313 42.584 C-33.175 36.257 -33.839 30.301 -33.68 21.844 C-33.001 14.168 -29.451 9.979 -23.863 4.941 C-16.347 0.281 -8.645 -0.047 0 0 Z " fill="#1AD1A5" transform="translate(81.375,124.6015625)"/>
<path d="M0 0 C4.752 3.108 8.055 6.742 10.125 12.062 C11.198 18.859 10.993 25.421 7.383 31.418 C2.959 37.202 -2.808 40.254 -9.883 41.383 C-15.268 41.7 -19.493 40.159 -23.875 37.062 C-28.421 32.819 -31.463 28.534 -32.211 22.23 C-32.297 15.692 -32.09 10.304 -27.875 5.062 C-20.032 -2.149 -10.038 -4.968 0 0 Z " fill="#FF9A05" transform="translate(106.875,46.9375)"/>
<path d="M0 0 C9.422 7.395 15.56 19.036 18.074 30.633 C19.578 48.335 16.701 62.843 5.266 76.848 C-4.856 87.811 -19.163 93.362 -33.926 94.133 C-50.299 93.303 -63.761 86.511 -74.926 74.633 C-85.315 61.581 -87.545 46.845 -85.926 30.633 C-83.172 16.383 -74.642 4.771 -62.977 -3.469 C-42.534 -16.19 -19.151 -13.596 0 0 Z M-68.926 6.633 C-79.55 19.433 -83.244 31.973 -82.153 48.484 C-81.643 53.305 -80.153 57.364 -77.926 61.633 C-77.478 62.503 -77.031 63.373 -76.57 64.27 C-69.239 77.419 -58.15 84.327 -43.926 88.633 C-32.319 91.364 -19.798 88.939 -9.398 83.258 C2.54 75.412 10.607 64.517 14.074 50.633 C14.48 47.514 14.552 44.463 14.512 41.32 C14.504 40.493 14.497 39.665 14.489 38.813 C14.194 27.794 10.664 19.377 4.074 10.633 C3.497 9.767 2.919 8.9 2.324 8.008 C-5.882 -0.655 -17.495 -6.919 -29.449 -7.555 C-44.755 -7.799 -57.713 -4.404 -68.926 6.633 Z " fill="#030303" transform="translate(129.92578125,25.3671875)"/>
</svg>