
<!-- Generator: visioncortex VTracer 0.6.4 -->
<svg version="1.1" xmlns="http://www.w3.org/2000/svg" viewBox="0 0 2048 2048" preserveAspectRatio="xMidYMid meet">
<path d="M0 0 C1.001 0.248 1.001 0.248 2.023 0.5 C86.412 21.432 171.905 53.751 246.195 99.296 C249.351 101.213 252.534 103.083 255.723 104.945 C268.487 112.409 281.081 120.074 293.393 128.268 C296.291 130.193 299.2 132.103 302.109 134.012 C311.543 140.224 320.889 146.426 329.742 153.449 C333.885 156.731 338.171 159.819 342.438 162.938 C363.992 178.755 384.757 195.764 404.523 213.77 C406.552 215.596 408.6 217.392 410.661 219.18 C414.821 222.819 418.878 226.553 422.898 230.344 C423.627 231.031 424.356 231.717 425.107 232.425 C432.673 239.588 440.068 246.917 447.424 254.294 C449.655 256.53 451.892 258.762 454.129 260.992 C455.578 262.442 457.028 263.893 458.477 265.344 C459.131 265.996 459.785 266.648 460.459 267.32 C464.262 271.142 467.884 275.071 471.398 279.16 C474.13 282.298 477.013 285.293 479.875 288.312 C484.795 293.539 489.454 298.859 493.934 304.469 C496.001 307.001 498.161 309.407 500.375 311.812 C504.888 316.771 508.995 321.988 513.102 327.281 C515.578 330.473 518.102 333.624 520.639 336.768 C525.968 343.374 531.072 350.088 536 357 C537.557 359.158 539.118 361.313 540.679 363.468 C542.931 366.581 545.177 369.697 547.423 372.813 C548.415 374.189 549.407 375.563 550.401 376.937 C603.932 450.939 644.27 534.237 725 880 C725.042 880.669 725.085 881.337 725.128 882.026 C726.278 900.505 726.187 919.009 726.185 937.516 C726.185 941.187 726.192 944.858 726.206 948.529 C726.322 980.079 725.56 1011.542 722.188 1042.938 C722.103 1043.746 722.019 1044.554 721.932 1045.387 C721.319 1051.262 720.671 1057.132 720 1063 C719.91 1063.787 719.82 1064.574 719.728 1065.385 C709.974 1150.212 689.229 1233.543 603.405 1426.552 C601.677 1429.563 600.017 1432.608 598.36 1435.659 C591.416 1448.41 583.7 1460.696 576 1473 C575.354 1474.034 574.707 1475.069 574.041 1476.134 C567.656 1486.327 561.219 1496.374 554 1506 C552.504 1508.062 551.016 1510.13 549.529 1512.199 C528.467 1541.497 506.494 1569.85 482.195 1596.559 C480.382 1598.575 478.599 1600.611 476.822 1602.659 C473.183 1606.819 469.447 1610.877 465.656 1614.898 C464.969 1615.627 464.283 1616.356 463.575 1617.107 C456.412 1624.673 449.083 1632.068 441.706 1639.424 C439.47 1641.655 437.238 1643.892 435.008 1646.129 C433.558 1647.578 432.107 1649.028 430.656 1650.477 C430.004 1651.131 429.352 1651.785 428.68 1652.459 C424.859 1656.261 420.932 1659.882 416.843 1663.395 C413.682 1666.148 410.666 1669.054 407.625 1671.938 C402.686 1676.588 397.674 1680.998 392.309 1685.156 C389.857 1687.115 387.559 1689.187 385.25 1691.312 C380.261 1695.857 375.016 1699.993 369.688 1704.125 C366.639 1706.49 363.634 1708.904 360.638 1711.334 C352.092 1718.253 343.288 1724.791 334.396 1731.256 C332.068 1732.951 329.744 1734.653 327.422 1736.355 C317.139 1743.87 306.673 1751.053 296 1758 C295.052 1758.618 294.104 1759.236 293.127 1759.872 C278.632 1769.294 263.963 1778.34 249 1787 C248.135 1787.505 247.269 1788.01 246.377 1788.53 C232.8 1796.449 219.004 1803.865 205 1811 C203.777 1811.625 202.553 1812.251 201.33 1812.876 C122.491 1853.124 37.601 1882.422 -559.555 1869.12 C-574.849 1864.136 -589.978 1858.751 -605 1853 C-605.697 1852.734 -606.393 1852.468 -607.111 1852.193 C-652.341 1834.871 -697.218 1814.582 -738.647 1789.409 C-742.154 1787.309 -745.731 1785.344 -749.312 1783.375 C-757.646 1778.747 -765.668 1773.64 -773.685 1768.488 C-775.857 1767.092 -778.033 1765.704 -780.211 1764.316 C-798.616 1752.549 -816.545 1740.134 -834 1727 C-834.855 1726.359 -835.71 1725.718 -836.59 1725.058 C-848.024 1716.475 -859.224 1707.672 -870.193 1698.503 C-872.754 1696.373 -875.347 1694.282 -877.938 1692.188 C-882.304 1688.622 -886.508 1684.905 -890.676 1681.109 C-892.72 1679.254 -894.788 1677.432 -896.875 1675.625 C-901.208 1671.847 -905.441 1667.963 -909.667 1664.066 C-911.721 1662.174 -913.782 1660.291 -915.849 1658.414 C-924.521 1650.524 -932.846 1642.308 -941.123 1634.008 C-943.389 1631.736 -945.661 1629.469 -947.934 1627.203 C-949.401 1625.735 -950.869 1624.266 -952.336 1622.797 C-953.003 1622.132 -953.67 1621.467 -954.357 1620.782 C-958.195 1616.925 -961.857 1612.963 -965.403 1608.835 C-968.133 1605.698 -971.015 1602.705 -973.875 1599.688 C-978.795 1594.461 -983.454 1589.141 -987.934 1583.531 C-990.001 1580.999 -992.161 1578.593 -994.375 1576.188 C-998.888 1571.229 -1002.995 1566.012 -1007.102 1560.719 C-1009.578 1557.527 -1012.102 1554.376 -1014.639 1551.232 C-1019.968 1544.626 -1025.072 1537.912 -1030 1531 C-1031.557 1528.842 -1033.118 1526.687 -1034.679 1524.532 C-1036.931 1521.419 -1039.177 1518.303 -1041.423 1515.187 C-1042.415 1513.811 -1043.407 1512.437 -1044.401 1511.063 C-1097.42 1437.769 -1138.193 1355.09 -1215.688 1048.688 C-1215.79 1047.736 -1215.893 1046.784 -1215.999 1045.804 C-1219.434 1013.723 -1220.344 981.575 -1220.261 949.332 C-1220.249 944.889 -1220.256 940.447 -1220.268 936.004 C-1220.338 903.781 -1219.19 871.68 -1215.75 839.625 C-1215.643 838.608 -1215.537 837.592 -1215.427 836.544 C-1210.188 786.852 -1201.476 737.392 -1189 689 C-1188.717 687.902 -1188.717 687.902 -1188.429 686.782 C-1175.251 635.807 -1157.725 585.958 -1136 538 C-1135.473 536.834 -1134.947 535.668 -1134.404 534.467 C-1123.172 509.695 -1111.222 485.358 -1097.609 461.803 C-1095.969 458.947 -1094.358 456.076 -1092.754 453.199 C-1085.52 440.234 -1077.924 427.554 -1070 415 C-1068.784 413.061 -1067.568 411.122 -1066.352 409.184 C-1060.507 399.898 -1054.585 390.781 -1048 382 C-1046.504 379.938 -1045.016 377.87 -1043.529 375.801 C-1022.467 346.503 -1000.494 318.15 -976.195 291.441 C-974.382 289.425 -972.599 287.389 -970.822 285.341 C-967.183 281.181 -963.447 277.123 -959.656 273.102 C-958.969 272.373 -958.283 271.644 -957.575 270.893 C-950.412 263.327 -943.083 255.932 -935.706 248.576 C-933.47 246.345 -931.238 244.108 -929.008 241.871 C-927.558 240.422 -926.107 238.972 -924.656 237.523 C-924.004 236.869 -923.352 236.215 -922.68 235.541 C-918.858 231.738 -914.929 228.116 -910.84 224.602 C-907.702 221.87 -904.707 218.986 -901.688 216.125 C-896.551 211.295 -891.323 206.681 -885.812 202.277 C-882.461 199.564 -879.2 196.756 -875.938 193.938 C-870.389 189.161 -864.766 184.514 -859 180 C-858.377 179.508 -857.753 179.016 -857.111 178.509 C-846.635 170.242 -835.978 162.287 -825.121 154.527 C-822.453 152.606 -819.812 150.65 -817.171 148.69 C-809.29 142.848 -801.215 137.36 -793 132 C-792.023 131.359 -792.023 131.359 -791.025 130.705 C-770.769 117.422 -750.088 104.919 -729 93 C-728.343 92.627 -727.686 92.255 -727.01 91.871 C-715.118 85.139 -703.045 78.838 -690.812 72.75 C-689.899 72.295 -688.986 71.84 -688.045 71.371 C-609.103 32.098 -524.661 3.798 -356 -24 C-355.304 -24.07 -354.609 -24.141 -353.892 -24.214 C-260.285 -33.6 -164.543 -30.839 0 0 Z " fill="#EDEDEE" transform="translate(1271,112)"/>
<path d="M0 0 C1.882 0.001 1.882 0.001 3.802 0.002 C24.436 0.029 44.936 0.478 65.5 2.188 C66.224 2.246 66.948 2.304 67.693 2.365 C89.246 4.113 110.617 6.933 132 10.125 C133.655 10.37 133.655 10.37 135.344 10.619 C149.743 12.762 163.945 15.407 178.137 18.65 C181.143 19.334 184.155 19.985 187.168 20.637 C217.527 27.376 247.177 36.324 276.542 46.509 C278.372 47.143 280.202 47.773 282.033 48.402 C330.534 65.128 377.897 87.157 421.861 113.607 C424.35 115.098 426.853 116.563 429.363 118.02 C456.933 134.121 483.32 152.588 508.5 172.188 C509.136 172.682 509.772 173.176 510.427 173.685 C525.727 185.59 540.689 197.9 555.023 210.957 C557.117 212.843 559.231 214.7 561.355 216.551 C572.866 226.61 583.745 237.332 594.562 248.125 C595.103 248.663 595.643 249.201 596.2 249.755 C601.626 255.16 606.984 260.58 611.964 266.406 C614.508 269.357 617.202 272.166 619.875 275 C624.602 280.047 629.075 285.221 633.398 290.621 C635.48 293.163 637.65 295.583 639.875 298 C644.948 303.575 649.553 309.477 654.153 315.442 C655.407 317.067 656.668 318.686 657.93 320.305 C674.36 341.476 690.299 363.19 704.222 386.103 C705.63 388.4 707.065 390.679 708.504 392.957 C716.389 405.482 723.722 418.264 730.863 431.226 C732.375 433.962 733.905 436.688 735.441 439.41 C741.842 450.798 747.621 462.415 753.134 474.256 C754.472 477.128 755.825 479.992 757.18 482.855 C778.312 527.876 794.977 575.08 807.5 623.188 C807.795 624.312 808.089 625.436 808.393 626.594 C820.167 671.976 827.301 718.531 831.5 765.188 C831.62 766.499 831.74 767.811 831.864 769.163 C833.545 788.472 833.678 807.753 833.688 827.125 C833.689 828.322 833.69 829.52 833.691 830.753 C833.688 855.502 832.832 880.145 830.812 904.812 C830.728 905.855 830.643 906.897 830.556 907.97 C828.896 928.101 826.249 947.976 822.886 967.888 C822.503 970.17 822.129 972.453 821.757 974.736 C818.545 994.448 814.551 1013.854 809.5 1033.188 C809.223 1034.252 809.223 1034.252 808.941 1035.338 C793.759 1093.674 773.99 1150.395 746.535 1204.172 C745.007 1207.166 743.526 1210.179 742.059 1213.203 C735.692 1226.259 728.664 1238.804 721.225 1251.276 C719.6 1254.018 718.006 1256.774 716.422 1259.539 C699.352 1289.19 679.396 1317.138 658.5 1344.188 C657.975 1344.87 657.45 1345.553 656.909 1346.256 C651.41 1353.396 645.736 1360.345 639.832 1367.155 C636.874 1370.568 634.003 1374.029 631.188 1377.562 C626.718 1383.077 621.881 1388.216 616.991 1393.355 C616.383 1393.995 615.775 1394.634 615.148 1395.293 C614.614 1395.851 614.079 1396.41 613.529 1396.985 C611.744 1398.923 610.023 1400.897 608.303 1402.892 C604.383 1407.385 600.225 1411.607 596.004 1415.816 C595.212 1416.61 594.419 1417.403 593.603 1418.22 C591.937 1419.886 590.271 1421.551 588.603 1423.215 C586.07 1425.743 583.541 1428.276 581.014 1430.811 C579.386 1432.438 577.757 1434.065 576.129 1435.691 C575.383 1436.44 574.637 1437.188 573.868 1437.958 C569.784 1442.025 565.614 1445.928 561.242 1449.684 C558.661 1451.912 556.182 1454.239 553.688 1456.562 C549.04 1460.856 544.256 1464.923 539.324 1468.891 C536.838 1470.913 534.397 1472.979 531.968 1475.07 C524.436 1481.538 516.596 1487.553 508.676 1493.535 C506.554 1495.147 504.445 1496.775 502.34 1498.41 C475.784 1519.009 447.508 1537.251 418.5 1554.188 C417.578 1554.728 416.655 1555.268 415.705 1555.825 C372.614 1580.958 327.255 1601.325 280.438 1618.438 C279.464 1618.796 278.49 1619.155 277.486 1619.525 C263.269 1624.607 247.511 1627.094 233.074 1621.441 C223.766 1616.907 215.739 1609.269 212.062 1599.5 C209.679 1592.285 209.361 1585.45 209.4 1577.922 C209.401 1576.89 209.402 1575.858 209.404 1574.794 C209.409 1571.336 209.422 1567.877 209.434 1564.419 C209.439 1561.938 209.444 1559.457 209.448 1556.976 C209.458 1551.63 209.471 1546.284 209.486 1540.938 C209.509 1532.462 209.522 1523.986 209.534 1515.509 C209.538 1512.603 209.542 1509.697 209.546 1506.791 C209.547 1506.064 209.548 1505.338 209.549 1504.589 C209.561 1496.322 209.575 1488.055 209.589 1479.788 C209.591 1479.033 209.592 1478.277 209.593 1477.499 C209.616 1465.308 209.645 1453.117 209.677 1440.926 C209.71 1428.372 209.731 1415.817 209.742 1403.262 C209.749 1395.543 209.765 1387.824 209.794 1380.105 C209.816 1374.156 209.821 1368.207 209.821 1362.257 C209.823 1359.843 209.831 1357.429 209.844 1355.014 C210.121 1302.483 198.772 1244.895 160.5 1206.188 C159.393 1205.248 158.273 1204.323 157.141 1203.414 C156.269 1202.679 155.398 1201.945 154.5 1201.188 C154.5 1200.527 154.5 1199.868 154.5 1199.188 C155.471 1199.082 156.442 1198.977 157.443 1198.868 C161.136 1198.465 164.828 1198.055 168.52 1197.643 C170.101 1197.468 171.682 1197.294 173.264 1197.123 C184.44 1195.91 195.455 1194.271 206.5 1192.188 C207.939 1191.921 209.379 1191.655 210.819 1191.389 C279.038 1178.724 349.845 1157.822 404.5 1113.188 C405.449 1112.43 406.398 1111.672 407.375 1110.891 C414.704 1104.987 421.964 1098.91 428.5 1092.125 C430.5 1090.188 430.5 1090.188 432.5 1090.188 C432.726 1089.632 432.951 1089.076 433.184 1088.504 C434.889 1085.503 437.067 1083.508 439.562 1081.125 C444.992 1075.811 449.875 1070.221 454.5 1064.188 C455.279 1063.174 455.279 1063.174 456.075 1062.14 C500.018 1004.649 521.028 935.464 529.243 864.371 C529.484 862.326 529.741 860.283 530 858.241 C532.629 837.176 532.812 816.085 532.868 794.889 C532.875 792.663 532.887 790.437 532.899 788.211 C533.013 764.721 531.78 741.592 526.75 718.562 C526.494 717.364 526.238 716.166 525.974 714.932 C517.161 674.793 501.22 635.873 477.5 602.188 C476.725 601.063 475.95 599.938 475.176 598.812 C467.771 588.155 459.489 578.357 450.742 568.773 C449.5 567.188 449.5 567.188 448.5 564.188 C449.315 561.403 450.203 558.724 451.188 556 C460.959 527.846 464.725 498.697 464.75 469 C464.751 468.172 464.752 467.344 464.753 466.49 C464.741 451.551 463.799 436.97 461.5 422.188 C461.291 420.832 461.291 420.832 461.078 419.45 C457.299 395.86 450.508 373.004 442.329 350.6 C441.598 348.474 441.003 346.377 440.5 344.188 C375.825 337.554 311.275 368.888 257.221 401.547 C254.525 403.172 251.817 404.776 249.105 406.375 C232.883 415.674 232.883 415.674 217.78 426.626 C214.632 429.184 213.295 430.221 209.117 430.047 C207.882 429.681 206.647 429.315 205.375 428.938 C203.856 428.521 202.336 428.105 200.816 427.691 C199.974 427.451 199.131 427.21 198.262 426.961 C152.459 414.128 104.864 407.559 57.5 404.188 C56.312 404.09 55.124 403.993 53.9 403.893 C39.661 402.858 25.379 403.036 11.111 403.057 C7.294 403.063 3.476 403.059 -0.341 403.054 C-24.23 403.023 -48.018 403.377 -71.804 405.807 C-74.332 406.064 -76.86 406.308 -79.389 406.551 C-90.413 407.632 -101.345 409.112 -112.286 410.839 C-114.264 411.15 -116.244 411.451 -118.223 411.75 C-134.195 414.169 -149.973 417.234 -165.75 420.688 C-166.602 420.873 -167.455 421.058 -168.333 421.249 C-179.517 423.69 -179.517 423.69 -190.576 426.635 C-191.804 426.992 -191.804 426.992 -193.057 427.356 C-194.61 427.814 -196.159 428.285 -197.704 428.77 C-201.664 429.951 -204.299 430.621 -208.062 428.688 C-209.565 427.551 -211.041 426.379 -212.5 425.188 C-214.966 423.51 -217.487 421.919 -220 420.312 C-220.712 419.848 -221.425 419.383 -222.159 418.905 C-237.742 408.756 -253.813 399.252 -270.188 390.434 C-271.789 389.571 -273.388 388.701 -274.984 387.828 C-307.715 369.949 -342.967 355.192 -379.5 347.188 C-380.178 347.028 -380.857 346.869 -381.556 346.705 C-398.536 342.829 -416.2 343.905 -433.5 344.188 C-433.672 344.777 -433.843 345.366 -434.02 345.973 C-435.673 351.573 -437.465 357.108 -439.354 362.632 C-451.259 397.536 -457.691 433.277 -457.812 470.188 C-457.815 470.958 -457.818 471.729 -457.82 472.524 C-457.83 500.327 -453.119 527.166 -444.867 553.664 C-444.641 554.423 -444.414 555.182 -444.181 555.964 C-443.729 557.44 -443.24 558.906 -442.716 560.359 C-442.035 562.434 -442.035 562.434 -441.5 566.188 C-443.254 568.996 -443.254 568.996 -446.062 571.625 C-447.103 572.657 -448.136 573.695 -449.164 574.738 C-449.712 575.291 -450.26 575.843 -450.825 576.413 C-489.058 616.93 -511.972 675.175 -521.5 729.188 C-521.698 730.24 -521.895 731.292 -522.099 732.376 C-529.659 774.081 -526.991 819.233 -522.5 861.188 C-522.388 862.305 -522.276 863.423 -522.16 864.574 C-513.174 952.99 -480.254 1034.493 -406.938 1106 C-405.136 1107.41 -403.322 1108.804 -401.5 1110.188 C-400.325 1111.103 -399.151 1112.018 -397.977 1112.934 C-342.678 1155.626 -275.688 1178.851 -207.42 1190.681 C-204.845 1191.128 -202.271 1191.587 -199.699 1192.055 C-195.637 1192.791 -191.571 1193.5 -187.5 1194.188 C-186.754 1194.314 -186.008 1194.44 -185.239 1194.57 C-175.554 1196.191 -165.896 1197.598 -156.11 1198.453 C-150.714 1198.974 -150.714 1198.974 -148.5 1201.188 C-148.973 1201.565 -149.446 1201.943 -149.934 1202.332 C-177.577 1225.342 -191.901 1263.402 -198.641 1297.723 C-198.793 1298.444 -198.945 1299.165 -199.103 1299.908 C-199.554 1302.229 -199.554 1302.229 -199.64 1304.784 C-199.892 1307.612 -200.239 1309.636 -201.5 1312.188 C-205.106 1314.812 -209.034 1316.068 -213.25 1317.438 C-214.42 1317.85 -215.59 1318.262 -216.795 1318.686 C-238.466 1326.166 -261.449 1332.745 -284.5 1333.188 C-285.549 1333.213 -286.598 1333.239 -287.679 1333.266 C-302.539 1333.591 -317.006 1333.744 -331.5 1330.188 C-332.324 1329.989 -333.147 1329.79 -333.996 1329.585 C-362.514 1322.514 -386.818 1308.864 -408.052 1288.568 C-409.437 1287.247 -410.839 1285.943 -412.242 1284.641 C-424.668 1272.755 -434.086 1258.585 -443.252 1244.136 C-452.967 1228.966 -464.071 1215.19 -476.5 1202.188 C-477.136 1201.511 -477.771 1200.834 -478.426 1200.137 C-501.26 1176.431 -533.617 1159.135 -566.875 1157.984 C-588.623 1157.611 -588.623 1157.611 -607.5 1167 C-609.325 1170.992 -609.095 1174.279 -607.797 1178.441 C-601.03 1194.171 -584.318 1204.096 -570.125 1212.375 C-555.114 1221.217 -543.17 1234.564 -532.838 1248.396 C-531.501 1250.186 -530.148 1251.962 -528.793 1253.738 C-509.48 1279.302 -492.82 1308.272 -481.312 1338.188 C-474.539 1355.614 -464.42 1370.709 -451.5 1384.188 C-450.755 1384.996 -450.01 1385.804 -449.242 1386.637 C-423.333 1413.872 -385.674 1426.895 -349.5 1433.188 C-347.669 1433.51 -347.669 1433.51 -345.801 1433.84 C-329.641 1436.411 -313.079 1436.423 -296.75 1436.438 C-295.869 1436.439 -294.988 1436.44 -294.08 1436.442 C-277.382 1436.436 -261.073 1435.272 -244.5 1433.188 C-243.415 1433.054 -242.33 1432.921 -241.212 1432.783 C-235.675 1432.097 -230.145 1431.367 -224.617 1430.604 C-220.8 1430.094 -216.978 1429.616 -213.156 1429.141 C-212.418 1429.049 -211.679 1428.957 -210.919 1428.862 C-209.113 1428.637 -207.306 1428.412 -205.5 1428.188 C-205.367 1441.927 -205.236 1455.666 -205.109 1469.406 C-205.05 1475.792 -204.989 1482.178 -204.927 1488.564 C-204.796 1502.135 -204.677 1515.706 -204.584 1529.277 C-204.533 1536.532 -204.46 1543.787 -204.369 1551.041 C-204.316 1555.633 -204.279 1560.225 -204.247 1564.817 C-204.228 1566.952 -204.203 1569.088 -204.17 1571.223 C-203.946 1585.847 -203.781 1599.895 -214.5 1611.188 C-215.075 1611.802 -215.65 1612.417 -216.242 1613.051 C-225.619 1622.136 -237.657 1624.568 -250.352 1624.562 C-258.512 1624.348 -265.878 1621.902 -273.5 1619.188 C-274.594 1618.8 -275.689 1618.413 -276.816 1618.015 C-313.22 1605.008 -349.354 1589.756 -383.354 1571.34 C-385.427 1570.227 -387.511 1569.138 -389.602 1568.059 C-435.261 1544.422 -479.192 1515.314 -518.824 1482.564 C-521.068 1480.721 -523.345 1478.923 -525.625 1477.125 C-535.568 1469.191 -545.086 1460.737 -554.5 1452.188 C-556.062 1450.792 -557.625 1449.396 -559.188 1448 C-560.961 1446.398 -562.731 1444.794 -564.5 1443.188 C-564.989 1442.745 -565.479 1442.302 -565.983 1441.846 C-575.248 1433.432 -584.143 1424.651 -593 1415.812 C-593.566 1415.249 -594.133 1414.685 -594.716 1414.104 C-600.319 1408.521 -605.876 1402.938 -611.015 1396.918 C-613.383 1394.158 -615.887 1391.527 -618.375 1388.875 C-622.835 1384.081 -627.063 1379.162 -631.164 1374.055 C-633.839 1370.772 -636.602 1367.575 -639.375 1364.375 C-644.747 1358.142 -649.893 1351.766 -654.913 1345.247 C-656.049 1343.773 -657.188 1342.301 -658.329 1340.831 C-667.205 1329.391 -675.739 1317.8 -683.781 1305.758 C-685.647 1302.967 -687.527 1300.185 -689.406 1297.402 C-703.032 1277.173 -715.742 1256.558 -727.5 1235.188 C-728.394 1233.565 -728.394 1233.565 -729.305 1231.91 C-770.297 1157.166 -800.3 1075.576 -829.4 882.362 C-829.472 880.786 -829.548 879.21 -829.625 877.634 C-830.391 861.939 -830.703 846.275 -830.688 830.562 C-830.687 829.416 -830.686 828.27 -830.686 827.089 C-830.619 780.27 -826.233 734.346 -818.5 688.188 C-818.287 686.913 -818.075 685.638 -817.855 684.325 C-815.08 667.954 -811.426 651.859 -807.385 635.758 C-806.536 632.334 -805.722 628.904 -804.918 625.469 C-789.13 558.83 -762.5 492.542 -729.018 432.896 C-727.463 430.121 -725.924 427.339 -724.387 424.555 C-709.117 397.055 -691.899 370.69 -673.5 345.188 C-672.948 344.422 -672.397 343.656 -671.829 342.868 C-664.162 332.259 -656.214 321.953 -647.876 311.864 C-646.034 309.62 -644.235 307.342 -642.438 305.062 C-635.199 295.991 -627.544 287.242 -619.73 278.664 C-617.845 276.57 -615.987 274.457 -614.137 272.332 C-604.078 260.821 -593.356 249.942 -582.562 239.125 C-582.025 238.585 -581.487 238.044 -580.933 237.487 C-575.527 232.061 -570.107 226.704 -564.281 221.724 C-561.331 219.179 -558.521 216.486 -555.688 213.812 C-550.641 209.086 -545.467 204.612 -540.066 200.289 C-537.524 198.207 -535.105 196.037 -532.688 193.812 C-527.192 188.818 -521.376 184.278 -515.504 179.741 C-513.36 178.079 -511.226 176.404 -509.094 174.727 C-500.731 168.161 -492.311 161.733 -483.59 155.648 C-481.117 153.92 -478.653 152.178 -476.188 150.438 C-465.046 142.598 -453.814 134.984 -442.206 127.851 C-440.259 126.654 -438.314 125.452 -436.372 124.247 C-420.737 114.55 -404.932 105.373 -388.626 96.833 C-385.6 95.24 -382.59 93.62 -379.582 91.992 C-362.305 82.722 -344.472 74.821 -326.485 67.047 C-324.698 66.273 -322.914 65.494 -321.129 64.715 C-239.201 28.984 -149.851 8.509 -49.747 1.321 C-48.239 1.232 -46.731 1.139 -45.223 1.044 C-30.152 0.105 -15.097 -0.013 0 0 Z " fill="#6A2786" transform="translate(1022.5,191.8125)"/>
<path d="M0 0 C1.001 0.248 1.001 0.248 2.023 0.5 C86.412 21.432 171.905 53.751 246.195 99.296 C249.351 101.213 252.534 103.083 255.723 104.945 C268.487 112.409 281.081 120.074 293.393 128.268 C296.291 130.193 299.2 132.103 302.109 134.012 C311.543 140.224 320.889 146.426 329.742 153.449 C333.885 156.731 338.171 159.819 342.438 162.938 C363.992 178.755 384.757 195.764 404.523 213.77 C406.552 215.596 408.6 217.392 410.661 219.18 C414.821 222.819 418.878 226.553 422.898 230.344 C423.627 231.031 424.356 231.717 425.107 232.425 C432.673 239.588 440.068 246.917 447.424 254.294 C449.655 256.53 451.892 258.762 454.129 260.992 C455.578 262.442 457.028 263.893 458.477 265.344 C459.131 265.996 459.785 266.648 460.459 267.32 C464.262 271.142 467.884 275.071 471.398 279.16 C474.13 282.298 477.013 285.293 479.875 288.312 C484.795 293.539 489.454 298.859 493.934 304.469 C496.001 307.001 498.161 309.407 500.375 311.812 C504.888 316.771 508.995 321.988 513.102 327.281 C515.578 330.473 518.102 333.624 520.639 336.768 C525.968 343.374 531.072 350.088 536 357 C537.557 359.158 539.118 361.313 540.679 363.468 C542.931 366.581 545.177 369.697 547.423 372.813 C548.415 374.189 549.407 375.563 550.401 376.937 C603.932 450.939 644.27 534.237 725 880 C725.042 880.669 725.085 881.337 725.128 882.026 C726.278 900.505 726.187 919.009 726.185 937.516 C726.185 941.187 726.192 944.858 726.206 948.529 C726.322 980.079 725.56 1011.542 722.188 1042.938 C722.103 1043.746 722.019 1044.554 721.932 1045.387 C721.319 1051.262 720.671 1057.132 720 1063 C719.91 1063.787 719.82 1064.574 719.728 1065.385 C709.974 1150.212 689.229 1233.543 603.405 1426.552 C601.677 1429.563 600.017 1432.608 598.36 1435.659 C591.416 1448.41 583.7 1460.696 576 1473 C575.354 1474.034 574.707 1475.069 574.041 1476.134 C567.656 1486.327 561.219 1496.374 554 1506 C552.504 1508.062 551.016 1510.13 549.529 1512.199 C528.467 1541.497 506.494 1569.85 482.195 1596.559 C480.382 1598.575 478.599 1600.611 476.822 1602.659 C473.183 1606.819 469.447 1610.877 465.656 1614.898 C464.969 1615.627 464.283 1616.356 463.575 1617.107 C456.412 1624.673 449.083 1632.068 441.706 1639.424 C439.47 1641.655 437.238 1643.892 435.008 1646.129 C433.558 1647.578 432.107 1649.028 430.656 1650.477 C430.004 1651.131 429.352 1651.785 428.68 1652.459 C424.859 1656.261 420.932 1659.882 416.843 1663.395 C413.682 1666.148 410.666 1669.054 407.625 1671.938 C402.686 1676.588 397.674 1680.998 392.309 1685.156 C389.857 1687.115 387.559 1689.187 385.25 1691.312 C380.261 1695.857 375.016 1699.993 369.688 1704.125 C366.639 1706.49 363.634 1708.904 360.638 1711.334 C352.092 1718.253 343.288 1724.791 334.396 1731.256 C332.068 1732.951 329.744 1734.653 327.422 1736.355 C317.139 1743.87 306.673 1751.053 296 1758 C295.052 1758.618 294.104 1759.236 293.127 1759.872 C278.632 1769.294 263.963 1778.34 249 1787 C248.135 1787.505 247.269 1788.01 246.377 1788.53 C232.8 1796.449 219.004 1803.865 205 1811 C203.777 1811.625 202.553 1812.251 201.33 1812.876 C122.491 1853.124 37.601 1882.422 -559.555 1869.12 C-574.849 1864.136 -589.978 1858.751 -605 1853 C-605.697 1852.734 -606.393 1852.468 -607.111 1852.193 C-652.341 1834.871 -697.218 1814.582 -738.647 1789.409 C-742.154 1787.309 -745.731 1785.344 -749.312 1783.375 C-757.646 1778.747 -765.668 1773.64 -773.685 1768.488 C-775.857 1767.092 -778.033 1765.704 -780.211 1764.316 C-798.616 1752.549 -816.545 1740.134 -834 1727 C-834.855 1726.359 -835.71 1725.718 -836.59 1725.058 C-848.024 1716.475 -859.224 1707.672 -870.193 1698.503 C-872.754 1696.373 -875.347 1694.282 -877.938 1692.188 C-882.304 1688.622 -886.508 1684.905 -890.676 1681.109 C-892.72 1679.254 -894.788 1677.432 -896.875 1675.625 C-901.208 1671.847 -905.441 1667.963 -909.667 1664.066 C-911.721 1662.174 -913.782 1660.291 -915.849 1658.414 C-924.521 1650.524 -932.846 1642.308 -941.123 1634.008 C-943.389 1631.736 -945.661 1629.469 -947.934 1627.203 C-949.401 1625.735 -950.869 1624.266 -952.336 1622.797 C-953.003 1622.132 -953.67 1621.467 -954.357 1620.782 C-958.195 1616.925 -961.857 1612.963 -965.403 1608.835 C-968.133 1605.698 -971.015 1602.705 -973.875 1599.688 C-978.795 1594.461 -983.454 1589.141 -987.934 1583.531 C-990.001 1580.999 -992.161 1578.593 -994.375 1576.188 C-998.888 1571.229 -1002.995 1566.012 -1007.102 1560.719 C-1009.578 1557.527 -1012.102 1554.376 -1014.639 1551.232 C-1019.968 1544.626 -1025.072 1537.912 -1030 1531 C-1031.557 1528.842 -1033.118 1526.687 -1034.679 1524.532 C-1036.931 1521.419 -1039.177 1518.303 -1041.423 1515.187 C-1042.415 1513.811 -1043.407 1512.437 -1044.401 1511.063 C-1097.42 1437.769 -1138.193 1355.09 -1215.688 1048.688 C-1215.79 1047.736 -1215.893 1046.784 -1215.999 1045.804 C-1219.434 1013.723 -1220.344 981.575 -1220.261 949.332 C-1220.249 944.889 -1220.256 940.447 -1220.268 936.004 C-1220.338 903.781 -1219.19 871.68 -1215.75 839.625 C-1215.643 838.608 -1215.537 837.592 -1215.427 836.544 C-1210.188 786.852 -1201.476 737.392 -1189 689 C-1188.717 687.902 -1188.717 687.902 -1188.429 686.782 C-1175.251 635.807 -1157.725 585.958 -1136 538 C-1135.473 536.834 -1134.947 535.668 -1134.404 534.467 C-1123.172 509.695 -1111.222 485.358 -1097.609 461.803 C-1095.969 458.947 -1094.358 456.076 -1092.754 453.199 C-1085.52 440.234 -1077.924 427.554 -1070 415 C-1068.784 413.061 -1067.568 411.122 -1066.352 409.184 C-1060.507 399.898 -1054.585 390.781 -1048 382 C-1046.504 379.938 -1045.016 377.87 -1043.529 375.801 C-1022.467 346.503 -1000.494 318.15 -976.195 291.441 C-974.382 289.425 -972.599 287.389 -970.822 285.341 C-967.183 281.181 -963.447 277.123 -959.656 273.102 C-958.969 272.373 -958.283 271.644 -957.575 270.893 C-950.412 263.327 -943.083 255.932 -935.706 248.576 C-933.47 246.345 -931.238 244.108 -929.008 241.871 C-927.558 240.422 -926.107 238.972 -924.656 237.523 C-924.004 236.869 -923.352 236.215 -922.68 235.541 C-918.858 231.738 -914.929 228.116 -910.84 224.602 C-907.702 221.87 -904.707 218.986 -901.688 216.125 C-896.551 211.295 -891.323 206.681 -885.812 202.277 C-882.461 199.564 -879.2 196.756 -875.938 193.938 C-870.389 189.161 -864.766 184.514 -859 180 C-858.377 179.508 -857.753 179.016 -857.111 178.509 C-846.635 170.242 -835.978 162.287 -825.121 154.527 C-822.453 152.606 -819.812 150.65 -817.171 148.69 C-809.29 142.848 -801.215 137.36 -793 132 C-792.023 131.359 -792.023 131.359 -791.025 130.705 C-770.769 117.422 -750.088 104.919 -729 93 C-728.343 92.627 -727.686 92.255 -727.01 91.871 C-715.118 85.139 -703.045 78.838 -690.812 72.75 C-689.899 72.295 -688.986 71.84 -688.045 71.371 C-609.103 32.098 -524.661 3.798 -356 -24 C-355.304 -24.07 -354.609 -24.141 -353.892 -24.214 C-260.285 -33.6 -164.543 -30.839 0 0 Z M-328.543 2.744 C-331.161 3.017 -333.779 3.277 -336.398 3.536 C-401.264 10.006 -464.931 23.052 -527 43 C-528.439 43.46 -529.878 43.92 -531.317 44.379 C-550.509 50.529 -569.354 57.329 -588 65 C-589.104 65.454 -590.208 65.907 -591.346 66.375 C-607.074 72.87 -622.593 79.78 -638 87 C-638.998 87.465 -639.996 87.93 -641.025 88.409 C-666.508 100.303 -691.03 113.701 -715.081 128.238 C-717.593 129.754 -720.112 131.256 -722.637 132.75 C-764.351 157.611 -803.383 187.11 -840.309 218.563 C-841.993 219.994 -843.683 221.417 -845.375 222.84 C-853.2 229.448 -860.72 236.332 -868.156 243.375 C-870.448 245.545 -872.752 247.697 -875.094 249.812 C-882.573 256.571 -889.74 263.632 -896.875 270.75 C-897.374 271.246 -897.872 271.742 -898.386 272.253 C-903.561 277.406 -908.642 282.597 -913.395 288.146 C-916.169 291.351 -919.093 294.416 -922 297.5 C-926.767 302.586 -931.469 307.701 -936 313 C-936.898 314.033 -937.796 315.065 -938.695 316.098 C-944.232 322.478 -949.612 328.945 -954.791 335.619 C-957.7 339.364 -960.67 343.051 -963.686 346.711 C-971.5 356.205 -978.809 366.028 -986 376 C-986.493 376.681 -986.986 377.362 -987.494 378.063 C-1011.97 411.954 -1033.89 447.614 -1053.631 484.451 C-1054.916 486.843 -1056.213 489.229 -1057.512 491.613 C-1064.982 505.437 -1071.503 519.701 -1078 534 C-1078.519 535.136 -1079.038 536.271 -1079.572 537.441 C-1087.308 554.407 -1094.386 571.567 -1101 589 C-1101.458 590.2 -1101.915 591.4 -1102.387 592.636 C-1129.95 665.221 -1147.075 741.476 -1155.188 818.625 C-1155.266 819.358 -1155.345 820.091 -1155.426 820.846 C-1158.537 850.097 -1159.379 879.319 -1159.318 908.711 C-1159.312 911.419 -1159.31 914.127 -1159.308 916.835 C-1159.277 942.568 -1158.889 968.161 -1156.228 993.778 C-1155.995 996.045 -1155.777 998.313 -1155.562 1000.581 C-1149.272 1066.579 -1135.649 1132.001 -1115 1195 C-1114.774 1195.69 -1114.548 1196.38 -1114.316 1197.091 C-1107.895 1216.665 -1100.799 1235.929 -1093 1255 C-1092.557 1256.084 -1092.114 1257.169 -1091.657 1258.286 C-1077.386 1293.011 -1061.218 1327.088 -1042.39 1359.583 C-1040.797 1362.353 -1039.253 1365.149 -1037.715 1367.951 C-1025.469 1390.142 -1011.408 1411.178 -997 1432 C-996.423 1432.839 -995.845 1433.678 -995.25 1434.542 C-986.899 1446.663 -978 1458.355 -969 1470 C-968.204 1471.032 -968.204 1471.032 -967.393 1472.084 C-961.649 1479.519 -955.725 1486.769 -949.621 1493.91 C-947.177 1496.776 -944.803 1499.694 -942.438 1502.625 C-938.561 1507.39 -934.485 1511.936 -930.328 1516.457 C-928.393 1518.571 -926.498 1520.707 -924.625 1522.875 C-916.666 1532.003 -908.372 1540.77 -899.72 1549.243 C-896.567 1552.348 -893.752 1555.526 -891 1559 C-889.927 1559.993 -888.821 1560.952 -887.688 1561.875 C-883.396 1565.531 -879.462 1569.496 -875.5 1573.5 C-871.145 1577.893 -866.805 1582.215 -862.074 1586.207 C-859.789 1588.182 -857.586 1590.232 -855.379 1592.294 C-850.005 1597.315 -844.538 1602.123 -838.801 1606.73 C-836.273 1608.779 -833.79 1610.868 -831.318 1612.981 C-824.669 1618.665 -817.866 1624.117 -810.956 1629.479 C-808.833 1631.13 -806.719 1632.791 -804.605 1634.453 C-796.187 1641.061 -787.703 1647.517 -778.93 1653.647 C-776.779 1655.155 -774.637 1656.677 -772.496 1658.199 C-734.23 1685.317 -693.868 1708.914 -652 1730 C-651.39 1730.308 -650.779 1730.616 -650.15 1730.934 C-577.379 1767.619 -498.708 1793.448 -338.938 1820.25 C-338.211 1820.327 -337.484 1820.404 -336.735 1820.484 C-308.945 1823.392 -281.226 1824.354 -253.305 1824.258 C-250.83 1824.25 -248.355 1824.245 -245.88 1824.241 C-222.946 1824.195 -200.04 1824.091 -177.171 1822.18 C-174.863 1821.989 -172.555 1821.807 -170.247 1821.625 C-102.711 1816.233 -35.381 1803.158 29 1782 C30.433 1781.535 31.866 1781.07 33.299 1780.605 C112.564 1754.9 187.882 1718.842 257.25 1672.625 C257.936 1672.169 258.621 1671.712 259.327 1671.242 C280.15 1657.358 300.485 1642.675 320 1627 C320.635 1626.491 321.27 1625.982 321.924 1625.458 C334.166 1615.632 346.16 1605.551 357.785 1595 C359.774 1593.204 361.786 1591.44 363.812 1589.688 C372.677 1581.945 381.196 1573.891 389.462 1565.516 C392.34 1562.614 395.254 1559.833 398.375 1557.188 C401.532 1554.501 404.147 1551.594 406.82 1548.434 C409.754 1545.158 412.874 1542.09 416 1539 C420.238 1534.801 424.381 1530.599 428.238 1526.043 C430.091 1523.895 432.008 1521.814 433.938 1519.735 C438.704 1514.6 443.244 1509.352 447.637 1503.891 C449.793 1501.253 452.002 1498.678 454.24 1496.11 C460.347 1489.093 466.049 1481.833 471.652 1474.41 C474.449 1470.707 477.307 1467.058 480.183 1463.416 C505.156 1431.703 527.1 1397.079 547 1362 C547.403 1361.294 547.805 1360.588 548.22 1359.861 C593.988 1279.421 626.624 1191.979 665.318 914.209 C665.312 911.577 665.31 908.946 665.307 906.314 C665.269 879.775 664.724 853.419 662 827 C661.821 825.215 661.643 823.429 661.464 821.644 C653.049 738.706 633.842 656.99 571 507 C570.399 505.776 570.399 505.776 569.786 504.526 C567.563 499.997 565.298 495.492 563 491 C562.42 489.859 562.42 489.859 561.829 488.695 C554.413 474.146 546.359 460.026 538 446 C537.439 445.054 536.879 444.108 536.301 443.133 C523.225 421.108 509.038 399.736 494 379 C493.444 378.233 492.887 377.465 492.314 376.674 C484.756 366.278 477.052 356.019 469 346 C468.486 345.36 467.972 344.719 467.442 344.06 C460.536 335.476 453.531 326.984 446.373 318.611 C444.967 316.961 443.571 315.303 442.176 313.645 C435.007 305.154 427.497 297.031 419.854 288.967 C418.102 287.108 416.366 285.236 414.637 283.355 C407.786 275.915 400.766 268.663 393.625 261.5 C392.793 260.663 391.96 259.826 391.103 258.964 C386.783 254.655 382.4 250.493 377.753 246.539 C375.921 244.93 374.207 243.241 372.5 241.5 C369.511 238.464 366.383 235.655 363.156 232.875 C360.8 230.826 358.495 228.728 356.188 226.625 C351.871 222.73 347.426 219.031 342.906 215.375 C340.346 213.283 337.823 211.158 335.31 209.011 C328.58 203.262 321.698 197.738 314.701 192.319 C313.084 191.065 311.471 189.804 309.859 188.543 C300.745 181.456 291.404 174.696 282 168 C281.196 167.427 280.392 166.854 279.564 166.264 C247.145 143.213 213.081 122.727 178 104 C176.92 103.422 175.84 102.845 174.727 102.25 C101.785 63.413 22.411 35.407 -177.48 1.797 C-178.276 1.73 -179.072 1.664 -179.892 1.596 C-194.654 0.415 -209.377 -0.165 -224.184 -0.203 C-225.879 -0.21 -227.575 -0.217 -229.271 -0.224 C-234.66 -0.244 -240.049 -0.249 -245.438 -0.25 C-246.356 -0.25 -247.275 -0.251 -248.221 -0.251 C-275.082 -0.258 -301.802 -0.067 -328.543 2.744 Z " fill="#000000" transform="translate(1271,112)"/>
<path d="M0 0 C2.705 0.005 5.411 0.008 8.116 0.01 C34.187 0.041 60.123 0.458 86.083 3.09 C88.38 3.321 90.678 3.54 92.977 3.756 C176.113 11.637 258.607 31.171 440.959 110.983 C443.201 112.235 445.453 113.465 447.712 114.685 C483.878 134.299 518.661 157.358 551.349 182.318 C552.359 183.084 553.37 183.849 554.411 184.638 C562.593 190.861 570.575 197.318 578.528 203.83 C580.121 205.132 581.719 206.429 583.317 207.724 C594.059 216.444 604.513 225.456 614.665 234.853 C616.965 236.966 619.295 239.029 621.661 241.068 C624.752 243.744 627.627 246.573 630.489 249.49 C632.217 251.189 633.996 252.757 635.845 254.322 C640.917 258.734 645.653 263.472 650.394 268.233 C651.908 269.753 653.428 271.267 654.948 272.781 C659.76 277.59 664.479 282.436 668.878 287.633 C670.46 289.446 672.13 291.133 673.849 292.818 C676.884 295.807 679.694 298.935 682.474 302.162 C684.522 304.517 686.621 306.823 688.724 309.13 C692.619 313.447 696.317 317.892 699.974 322.412 C702.065 324.971 704.189 327.494 706.336 330.006 C712.553 337.284 718.499 344.743 724.349 352.318 C724.954 353.097 725.559 353.876 726.182 354.679 C734.617 365.552 742.723 376.565 750.407 387.982 C752.575 391.2 754.803 394.362 757.091 397.494 C764.352 407.437 770.85 417.868 777.349 428.318 C778.018 429.394 778.688 430.47 779.378 431.579 C792.97 453.497 805.957 475.814 817.22 499.029 C818.599 501.826 820.021 504.601 821.442 507.376 C860.224 583.391 887.425 666.71 904.349 765.318 C904.572 766.694 904.796 768.069 905.019 769.445 C907.701 786.057 909.836 802.702 911.536 819.443 C911.654 820.587 911.654 820.587 911.775 821.755 C912.372 827.604 912.882 833.457 913.349 839.318 C913.437 840.424 913.526 841.53 913.617 842.669 C915.254 863.805 915.666 884.851 915.609 906.044 C915.598 910.328 915.605 914.611 915.616 918.895 C915.681 947.48 914.654 975.942 911.599 1004.38 C911.474 1005.56 911.474 1005.56 911.348 1006.763 C904.453 1071.879 890.993 1136.153 870.349 1198.318 C870.095 1199.084 869.841 1199.85 869.579 1200.639 C851.25 1255.747 827.909 1309.664 798.727 1359.924 C797.484 1362.083 796.269 1364.254 795.071 1366.439 C765.48 1420.408 727.66 1471.586 686.349 1517.103 C684.553 1519.092 682.789 1521.103 681.036 1523.13 C673.496 1531.765 665.668 1540.091 657.507 1548.138 C654.744 1550.875 652.114 1553.665 649.599 1556.63 C646.907 1559.784 644.009 1562.399 640.849 1565.072 C637.38 1568.188 634.127 1571.504 630.849 1574.818 C626.451 1579.255 622.066 1583.624 617.29 1587.658 C614.814 1589.775 612.432 1591.986 610.036 1594.193 C605.493 1598.34 600.807 1602.25 596.02 1606.111 C593.45 1608.234 590.989 1610.436 588.536 1612.693 C583.035 1617.693 577.212 1622.237 571.335 1626.777 C569.243 1628.4 567.162 1630.035 565.083 1631.673 C554.699 1639.837 544.123 1647.679 533.349 1655.318 C532.552 1655.885 531.755 1656.452 530.934 1657.037 C499.095 1679.678 465.778 1699.878 431.349 1718.318 C430.452 1718.798 429.556 1719.279 428.632 1719.774 C359.635 1756.611 285.71 1784.167 138.728 1814.832 C136.161 1815.201 133.604 1815.596 131.046 1816.016 C119.736 1817.874 108.445 1819.302 97.036 1820.38 C96.149 1820.464 95.262 1820.548 94.348 1820.635 C88.018 1821.228 81.684 1821.784 75.349 1822.318 C74.231 1822.414 74.231 1822.414 73.09 1822.511 C23.382 1826.712 -28.571 1826.682 -78.192 1821.571 C-80.756 1821.307 -83.321 1821.052 -85.886 1820.798 C-153.846 1813.967 -220.858 1799.989 -285.651 1778.318 C-286.347 1778.086 -287.042 1777.854 -287.758 1777.615 C-341.887 1759.495 -394.907 1736.412 -444.276 1707.689 C-447.113 1706.051 -449.977 1704.466 -452.846 1702.885 C-469.278 1693.798 -484.969 1683.531 -500.589 1673.13 C-501.283 1672.669 -501.976 1672.208 -502.691 1671.733 C-512.144 1665.44 -521.456 1658.98 -530.651 1652.318 C-531.525 1651.685 -532.399 1651.052 -533.3 1650.4 C-556.894 1633.231 -579.809 1614.978 -601.409 1595.345 C-603.364 1593.578 -605.342 1591.849 -607.339 1590.13 C-617.294 1581.442 -626.828 1572.285 -636.066 1562.841 C-638.534 1560.332 -638.534 1560.332 -641.05 1558.482 C-643.981 1556.044 -646.296 1553.349 -648.769 1550.458 C-651.892 1546.908 -655.277 1543.628 -658.651 1540.318 C-663.307 1535.752 -667.783 1531.122 -672.039 1526.18 C-674.306 1523.561 -676.666 1521.04 -679.026 1518.505 C-683.297 1513.884 -687.334 1509.124 -691.28 1504.22 C-693.97 1500.928 -696.743 1497.718 -699.526 1494.505 C-705.466 1487.614 -711.102 1480.525 -716.651 1473.318 C-717.549 1472.159 -717.549 1472.159 -718.464 1470.978 C-728.243 1458.345 -737.669 1445.529 -746.651 1432.318 C-747.048 1431.735 -747.444 1431.153 -747.853 1430.553 C-772.601 1394.16 -794.846 1356.643 -814.651 1317.318 C-814.96 1316.707 -815.268 1316.097 -815.585 1315.468 C-852.277 1242.685 -878.132 1163.986 -904.901 1004.818 C-904.979 1004.065 -905.056 1003.313 -905.135 1002.537 C-905.714 996.803 -906.201 991.064 -906.651 985.318 C-906.739 984.22 -906.826 983.123 -906.916 981.992 C-908.619 959.9 -909.016 937.887 -908.97 915.736 C-908.964 913.024 -908.961 910.311 -908.958 907.598 C-908.921 880.736 -908.425 854.057 -905.651 827.318 C-905.473 825.535 -905.294 823.753 -905.115 821.97 C-897.168 743.648 -879.825 665.986 -821.987 522.172 C-820.804 519.644 -819.633 517.112 -818.468 514.576 C-813.569 503.954 -808.216 493.605 -802.651 483.318 C-802.063 482.229 -801.475 481.139 -800.868 480.017 C-791.923 463.491 -782.623 447.252 -772.651 431.318 C-772.087 430.41 -771.524 429.503 -770.942 428.567 C-761.976 414.154 -752.48 400.156 -742.651 386.318 C-742.054 385.476 -741.456 384.635 -740.84 383.768 C-733.974 374.128 -726.948 364.637 -719.651 355.318 C-718.736 354.143 -717.821 352.969 -716.905 351.794 C-705.624 337.349 -694.024 323.15 -681.698 309.58 C-679.826 307.511 -677.983 305.422 -676.151 303.318 C-663.654 289.002 -650.633 275.208 -637.214 261.755 C-636.291 260.828 -635.368 259.9 -634.416 258.944 C-629.919 254.456 -625.37 250.106 -620.548 245.969 C-617.214 243.066 -614.041 239.99 -610.839 236.943 C-605.437 231.837 -599.963 226.981 -594.148 222.349 C-591.624 220.296 -589.232 218.146 -586.839 215.943 C-582.464 211.961 -577.906 208.3 -573.235 204.679 C-569.418 201.717 -565.659 198.698 -561.931 195.625 C-552.442 187.812 -542.62 180.506 -532.651 173.318 C-531.971 172.825 -531.29 172.332 -530.588 171.824 C-496.889 147.486 -461.55 125.49 -424.836 106.008 C-422.673 104.86 -420.512 103.707 -418.354 102.549 C-398.228 91.773 -377.632 82.307 -356.651 73.318 C-355.982 73.031 -355.314 72.744 -354.624 72.449 C-336.844 64.84 -318.892 57.747 -300.651 51.318 C-300.003 51.089 -299.355 50.861 -298.686 50.625 C-234.55 28.077 -168.174 13.077 -100.651 5.318 C-99.643 5.201 -99.643 5.201 -98.614 5.082 C-65.766 1.3 -33.036 -0.069 0 0 Z M-78.255 19.068 C-80.766 19.33 -83.278 19.577 -85.791 19.822 C-125.78 23.756 -165.473 30.388 -204.538 39.809 C-206.644 40.316 -208.752 40.818 -210.86 41.319 C-257.546 52.481 -303.58 67.566 -347.514 86.936 C-350.763 88.367 -354.022 89.776 -357.28 91.185 C-386.482 103.932 -415.205 118.123 -442.651 134.318 C-444.878 135.615 -447.104 136.912 -449.331 138.208 C-463.019 146.204 -476.487 154.484 -489.651 163.318 C-490.987 164.213 -490.987 164.213 -492.349 165.126 C-514.442 179.974 -535.981 195.537 -556.651 212.318 C-557.874 213.302 -559.097 214.287 -560.319 215.271 C-572.238 224.884 -583.914 234.724 -595.194 245.08 C-597.381 247.071 -599.597 249.015 -601.839 250.943 C-605.193 253.853 -608.318 256.937 -611.401 260.13 C-613.26 261.937 -615.148 263.609 -617.116 265.291 C-622.505 269.973 -627.517 275.033 -632.552 280.088 C-634.211 281.752 -635.875 283.411 -637.54 285.07 C-642.608 290.135 -647.604 295.204 -652.228 300.686 C-653.748 302.429 -655.359 304.029 -657.026 305.63 C-660.746 309.284 -663.933 313.302 -667.198 317.361 C-669.756 320.444 -672.422 323.387 -675.151 326.318 C-680.236 331.795 -684.969 337.495 -689.651 343.318 C-690.624 344.5 -691.598 345.681 -692.573 346.861 C-701.28 357.425 -709.534 368.297 -717.651 379.318 C-718.208 380.073 -718.765 380.829 -719.339 381.607 C-748.737 421.606 -774.495 463.934 -797.032 508.146 C-798.495 511.011 -799.972 513.868 -801.452 516.724 C-814.522 542.144 -825.533 568.605 -835.651 595.318 C-836.089 596.454 -836.526 597.591 -836.977 598.762 C-866.662 676.039 -883.673 757.946 -890.651 840.318 C-890.742 841.361 -890.742 841.361 -890.835 842.425 C-895.076 891.43 -894.512 942.233 -889.854 991.168 C-889.659 993.234 -889.475 995.3 -889.295 997.368 C-882.84 1070.836 -866.013 1142.801 -841.651 1212.318 C-841.416 1212.99 -841.181 1213.662 -840.939 1214.354 C-834.525 1232.634 -827.435 1250.576 -819.651 1268.318 C-819.278 1269.174 -818.905 1270.031 -818.521 1270.913 C-804.381 1303.295 -788.53 1335.127 -770.375 1365.44 C-768.695 1368.245 -767.028 1371.059 -765.362 1373.873 C-749.623 1400.262 -732.276 1425.88 -713.651 1450.318 C-712.667 1451.624 -711.682 1452.93 -710.698 1454.236 C-702.947 1464.488 -694.901 1474.463 -686.651 1484.318 C-686.143 1484.927 -685.635 1485.536 -685.111 1486.163 C-679.755 1492.571 -674.307 1498.881 -668.691 1505.064 C-666.861 1507.087 -665.063 1509.132 -663.276 1511.193 C-656.342 1519.139 -649.205 1526.84 -641.694 1534.244 C-639.78 1536.187 -637.988 1538.184 -636.214 1540.255 C-630.257 1547.177 -623.717 1553.48 -616.78 1559.408 C-614.137 1561.78 -611.645 1564.291 -609.151 1566.818 C-605.47 1570.544 -601.718 1574.116 -597.733 1577.517 C-595.22 1579.691 -592.784 1581.942 -590.339 1584.193 C-585.853 1588.283 -581.246 1592.166 -576.523 1595.978 C-573.974 1598.055 -571.464 1600.167 -568.965 1602.303 C-561.687 1608.522 -554.229 1614.47 -546.651 1620.318 C-545.878 1620.918 -545.104 1621.517 -544.307 1622.135 C-531.677 1631.912 -518.855 1641.331 -505.651 1650.318 C-504.1 1651.374 -504.1 1651.374 -502.517 1652.452 C-481.107 1666.994 -459.152 1680.525 -436.651 1693.318 C-435.959 1693.714 -435.267 1694.109 -434.553 1694.517 C-375.771 1728.036 -312.626 1754.469 -247.651 1773.318 C-246.779 1773.572 -245.906 1773.826 -245.006 1774.088 C-182.079 1792.224 -117.038 1803.533 -51.651 1807.318 C-50.932 1807.36 -50.212 1807.403 -49.471 1807.446 C-32.764 1808.4 -16.07 1808.52 0.661 1808.505 C1.693 1808.505 1.693 1808.505 2.746 1808.505 C82.863 1808.466 163.08 1799.079 240.349 1777.318 C241.261 1777.064 242.174 1776.809 243.114 1776.547 C291.255 1763.066 338.166 1745.723 383.349 1724.318 C384.351 1723.847 385.354 1723.376 386.387 1722.89 C409.745 1711.904 432.499 1700.09 454.687 1686.895 C457.069 1685.483 459.459 1684.089 461.856 1682.705 C479.179 1672.683 495.976 1661.821 512.349 1650.318 C513.795 1649.307 515.242 1648.297 516.688 1647.287 C525.026 1641.448 533.252 1635.489 541.349 1629.318 C542.654 1628.333 543.96 1627.349 545.267 1626.365 C555.519 1618.613 565.494 1610.567 575.349 1602.318 C575.957 1601.809 576.566 1601.301 577.194 1600.777 C583.602 1595.421 589.912 1589.974 596.095 1584.357 C598.117 1582.527 600.162 1580.729 602.224 1578.943 C609.889 1572.255 617.366 1565.386 624.501 1558.134 C626.327 1556.339 628.215 1554.669 630.161 1553.005 C637.478 1546.697 644.21 1539.759 650.474 1532.412 C652.832 1529.778 655.333 1527.3 657.849 1524.818 C661.575 1521.136 665.147 1517.385 668.548 1513.4 C670.722 1510.886 672.972 1508.45 675.224 1506.005 C679.314 1501.52 683.197 1496.912 687.009 1492.189 C689.086 1489.64 691.199 1487.13 693.335 1484.63 C699.086 1477.9 704.609 1471.017 710.03 1464.019 C711.284 1462.401 712.544 1460.789 713.806 1459.177 C720.893 1450.063 727.654 1440.723 734.349 1431.318 C734.932 1430.498 735.516 1429.678 736.117 1428.833 C744.156 1417.511 751.942 1406.065 759.349 1394.318 C759.841 1393.539 760.334 1392.761 760.842 1391.958 C806.002 1320.454 841.815 1242.913 864.754 1161.429 C865.166 1159.966 865.579 1158.505 865.994 1157.043 C873.281 1131.344 879.45 1105.577 884.349 1079.318 C884.503 1078.498 884.657 1077.679 884.816 1076.834 C891.684 1040.297 896.308 1003.448 898.349 966.318 C898.435 964.975 898.522 963.633 898.61 962.291 C899.63 945.648 899.549 928.984 899.536 912.318 C899.536 911.539 899.536 910.761 899.535 909.959 C899.525 886.693 899.399 863.508 897.349 840.318 C897.285 839.58 897.222 838.841 897.157 838.081 C890.071 755.293 872.108 673.37 806.349 513.318 C805.855 512.301 805.36 511.284 804.851 510.237 C797.559 495.271 789.714 480.71 781.349 466.318 C780.816 465.398 780.284 464.477 779.735 463.529 C771.637 449.557 763.135 435.867 754.349 422.318 C753.633 421.214 752.918 420.111 752.181 418.974 C738.205 397.757 723.206 377.165 707.349 357.318 C706.642 356.428 705.936 355.539 705.208 354.623 C703.263 352.181 701.309 349.747 699.349 347.318 C698.665 346.471 697.982 345.624 697.278 344.751 C688.512 333.958 679.483 323.417 670.017 313.232 C667.965 310.991 665.955 308.731 663.962 306.439 C653.906 294.91 643.149 284.019 632.349 273.193 C631.86 272.702 631.372 272.211 630.869 271.706 C625.739 266.554 620.585 261.498 615.035 256.796 C613.277 255.255 611.655 253.629 610.036 251.943 C606.382 248.223 602.364 245.036 598.306 241.771 C595.222 239.213 592.279 236.547 589.349 233.818 C583.876 228.733 578.172 223.998 572.349 219.318 C570.661 217.923 568.973 216.527 567.286 215.13 C554.335 204.553 541.028 194.489 527.409 184.789 C525.513 183.435 523.625 182.072 521.739 180.705 C486.19 154.973 448.079 131.581 408.575 112.416 C405.945 111.119 403.336 109.782 400.727 108.443 C373.03 94.286 344.422 82.336 315.349 71.318 C314.18 70.875 313.011 70.432 311.807 69.976 C242.272 43.887 168.631 27.526 94.786 20.068 C94.029 19.991 93.272 19.913 92.492 19.834 C86.782 19.261 81.068 18.774 75.349 18.318 C74.285 18.231 73.221 18.143 72.124 18.054 C50.332 16.313 28.628 15.954 6.776 16 C4.056 16.005 1.336 16.008 -1.383 16.011 C-27.09 16.047 -52.667 16.369 -78.255 19.068 Z " fill="#A3A3A3" transform="translate(1020.6514511108398,111.68214416503906)"/>
</svg>