
<!-- Generator: visioncortex VTracer 0.6.4 -->
<svg version="1.1" xmlns="http://www.w3.org/2000/svg" viewBox="0 0 2048 2048" preserveAspectRatio="xMidYMid meet">
<path d="M0 0 C595.32 0 1190.64 0 1804 0 C1804 6.562 1803.977 12.636 1803.4 19.094 C1803.334 19.837 1803.269 20.58 1803.202 21.345 C1802.985 23.814 1802.761 26.281 1802.537 28.748 C1802.376 30.554 1802.216 32.359 1802.057 34.164 C1801.616 39.132 1801.17 44.1 1800.723 49.067 C1800.236 54.483 1799.755 59.9 1799.273 65.316 C1798.425 74.837 1797.574 84.358 1796.721 93.879 C1795.446 108.098 1794.176 122.318 1792.908 136.539 C1790.755 160.685 1788.597 184.831 1786.437 208.977 C1784.257 233.344 1782.08 257.712 1779.905 282.079 C1779.836 282.845 1779.768 283.611 1779.697 284.401 C1778.861 293.775 1778.024 303.149 1777.187 312.523 C1775.905 326.898 1774.622 341.272 1773.339 355.646 C1773.194 357.265 1773.049 358.884 1772.905 360.504 C1770.684 385.38 1768.463 410.256 1766.241 435.132 C1765.862 439.37 1765.484 443.609 1765.105 447.847 C1764.992 449.109 1764.992 449.109 1764.877 450.396 C1757.36 534.543 1749.854 618.691 1740.997 718.093 C1740.542 723.195 1740.088 728.297 1739.633 733.399 C1736.964 763.359 1734.294 793.319 1731.625 823.279 C1727.249 872.391 1722.873 921.502 1718.496 970.613 C1718.419 971.47 1718.343 972.327 1718.264 973.209 C1716.33 994.91 1714.396 1016.61 1712.462 1038.31 C1711.377 1050.478 1710.293 1062.646 1709.208 1074.813 C1708.898 1078.291 1708.588 1081.769 1708.278 1085.246 C1708.202 1086.108 1708.125 1086.969 1708.046 1087.856 C1700.034 1177.741 1692.022 1267.625 1641 1840 C1639.736 1840.48 1638.472 1840.958 1637.208 1841.436 C1636.504 1841.702 1635.8 1841.969 1635.075 1842.243 C1632.201 1843.291 1629.289 1844.136 1626.344 1844.963 C1625.723 1845.139 1625.102 1845.314 1624.462 1845.495 C1622.404 1846.075 1620.345 1846.651 1618.285 1847.227 C1616.793 1847.646 1615.301 1848.066 1613.81 1848.487 C1609.748 1849.63 1605.686 1850.769 1601.623 1851.907 C1597.284 1853.124 1592.947 1854.344 1588.609 1855.564 C1580.265 1857.91 1571.919 1860.253 1563.573 1862.594 C1554.16 1865.235 1544.748 1867.88 1535.335 1870.525 C1523.125 1873.956 1510.914 1877.386 1498.703 1880.814 C1475.82 1887.239 1452.939 1893.676 1430.062 1900.125 C1403.841 1907.517 1377.611 1914.881 1351.379 1922.235 C1326.748 1929.139 1302.121 1936.059 1277.5 1943 C1252.006 1950.187 1226.505 1957.35 1201 1964.5 C1175.641 1971.609 1150.286 1978.73 1124.938 1985.875 C1098.504 1993.326 1072.066 2000.762 1045.625 2008.188 C1044.244 2008.575 1044.244 2008.575 1042.835 2008.971 C1032.482 2011.879 1022.129 2014.786 1011.775 2017.693 C994.305 2022.599 976.835 2027.506 959.365 2032.413 C953.436 2034.078 947.508 2035.743 941.58 2037.407 C937.919 2038.435 934.259 2039.463 930.599 2040.491 C928.904 2040.967 927.209 2041.443 925.514 2041.919 C923.193 2042.571 920.873 2043.223 918.552 2043.875 C917.551 2044.156 917.551 2044.156 916.53 2044.443 C913.432 2045.313 910.342 2046.196 907.258 2047.112 C898.873 2049.397 891.904 2047.143 883.797 2044.758 C881.915 2044.219 880.033 2043.68 878.151 2043.141 C876.11 2042.554 874.072 2041.963 872.034 2041.37 C867.639 2040.091 863.24 2038.828 858.84 2037.567 C854.043 2036.192 849.247 2034.816 844.452 2033.436 C826.436 2028.251 808.393 2023.16 790.35 2018.07 C781.521 2015.58 772.694 2013.085 763.866 2010.59 C758.878 2009.181 753.891 2007.772 748.903 2006.363 C737.236 2003.067 725.569 1999.77 713.902 1996.473 C712.484 1996.072 712.484 1996.072 711.036 1995.663 C706.266 1994.314 701.495 1992.966 696.725 1991.618 C688.109 1989.183 679.493 1986.748 670.877 1984.313 C666.084 1982.959 661.292 1981.604 656.5 1980.25 C654.583 1979.708 652.667 1979.167 650.75 1978.625 C508.438 1938.406 508.438 1938.406 363.25 1897.375 C362.301 1897.107 361.352 1896.839 360.375 1896.562 C358.458 1896.021 356.542 1895.479 354.626 1894.938 C349.83 1893.583 345.035 1892.227 340.24 1890.872 C331.656 1888.446 323.073 1886.021 314.489 1883.595 C309.752 1882.256 305.015 1880.917 300.277 1879.578 C299.337 1879.312 298.397 1879.047 297.428 1878.773 C284.263 1875.052 271.097 1871.332 257.93 1867.612 C250.533 1865.523 243.135 1863.432 235.738 1861.342 C230.704 1859.92 225.669 1858.498 220.635 1857.076 C210.931 1854.335 201.226 1851.592 191.524 1848.845 C186.949 1847.55 182.373 1846.261 177.796 1844.975 C175.853 1844.426 173.909 1843.877 171.965 1843.328 C171.13 1843.095 170.295 1842.862 169.435 1842.622 C164.114 1841.114 164.114 1841.114 163 1840 C162.642 1836.998 162.345 1834.009 162.085 1830.998 C161.998 1830.035 161.911 1829.072 161.821 1828.08 C161.526 1824.805 161.238 1821.528 160.95 1818.252 C160.739 1815.89 160.527 1813.527 160.315 1811.164 C159.851 1805.985 159.39 1800.805 158.932 1795.626 C158.245 1787.869 157.553 1780.113 156.861 1772.357 C155.68 1759.138 154.504 1745.919 153.329 1732.7 C152.14 1719.302 150.948 1705.905 149.753 1692.507 C149.678 1691.663 149.603 1690.818 149.525 1689.948 C149.141 1685.643 148.757 1681.337 148.373 1677.032 C145.588 1645.79 142.807 1614.548 140.028 1583.305 C137.255 1552.133 134.481 1520.962 131.704 1489.791 C131.617 1488.818 131.53 1487.846 131.441 1486.844 C130.561 1476.97 129.682 1467.096 128.802 1457.222 C126.925 1436.152 125.048 1415.083 123.171 1394.014 C123.037 1392.508 123.037 1392.508 122.9 1390.972 C120.052 1359 117.205 1327.027 114.359 1295.054 C114.221 1293.501 114.221 1293.501 114.08 1291.918 C113.148 1281.452 112.216 1270.985 111.285 1260.519 C105.026 1190.205 98.764 1119.892 92.497 1049.579 C92.367 1048.125 92.367 1048.125 92.235 1046.641 C89.813 1019.462 87.39 992.284 84.967 965.106 C84.025 954.533 83.082 943.961 82.14 933.388 C82.055 932.439 81.971 931.49 81.884 930.512 C80.099 910.494 78.315 890.477 76.531 870.459 C76.193 866.675 75.856 862.892 75.519 859.108 C70.449 802.238 65.382 745.368 60.316 688.498 C59.909 683.925 59.502 679.353 59.095 674.78 C57.486 656.726 55.878 638.672 54.27 620.618 C54.192 619.735 54.113 618.851 54.032 617.941 C53.164 608.2 52.296 598.458 51.429 588.717 C49.281 564.6 47.132 540.482 44.984 516.365 C44.91 515.532 44.835 514.698 44.759 513.84 C39.229 451.768 33.69 389.697 28.147 327.626 C26.364 307.658 24.581 287.689 22.8 267.721 C22.687 266.457 22.574 265.193 22.458 263.891 C21.351 251.488 20.245 239.086 19.139 226.683 C16.873 201.28 14.605 175.876 12.332 150.474 C10.754 132.837 9.179 115.201 7.608 97.564 C6.703 87.402 5.795 77.24 4.883 67.078 C4.285 60.418 3.691 53.757 3.1 47.095 C2.766 43.34 2.431 39.584 2.092 35.829 C1.729 31.812 1.373 27.794 1.019 23.776 C0.914 22.629 0.809 21.482 0.701 20.3 C0.607 19.227 0.514 18.153 0.417 17.047 C0.336 16.138 0.255 15.228 0.171 14.291 C-0.076 9.533 0 4.764 0 0 Z " fill="#E34F26" transform="translate(120,0)"/>
<path d="M0 0 C373.56 0 747.12 0 1132 0 C1132 6.803 1131.954 13.464 1131.52 20.23 C1131.467 21.083 1131.414 21.935 1131.359 22.813 C1131.183 25.605 1130.999 28.396 1130.812 31.188 C1130.748 32.161 1130.684 33.135 1130.618 34.139 C1129.25 54.572 1127.166 74.909 1124.943 95.264 C1123.744 106.267 1122.657 117.281 1121.574 128.296 C1120.77 136.468 1119.938 144.634 1119.012 152.793 C1117.858 162.994 1116.929 173.214 1116 183.438 C1115.75 186.188 1115.499 188.939 1115.246 191.69 C1115.091 193.377 1114.937 195.065 1114.785 196.753 C1113.951 205.847 1112.956 214.915 1112 224 C826.88 224 541.76 224 248 224 C248.66 229.61 249.32 235.22 250 241 C250.452 245.595 250.889 250.187 251.297 254.785 C251.411 256.051 251.525 257.318 251.642 258.622 C251.95 262.052 252.255 265.482 252.559 268.913 C252.753 271.094 252.947 273.275 253.142 275.457 C255.313 299.788 257.366 324.127 259.368 348.473 C260.757 365.361 262.183 382.245 263.711 399.121 C263.781 399.899 263.852 400.677 263.924 401.478 C264.602 408.968 265.283 416.458 265.978 423.947 C266.168 426.006 266.357 428.066 266.545 430.125 C266.772 432.618 267.003 435.111 267.238 437.603 C267.339 438.714 267.44 439.826 267.544 440.97 C267.633 441.924 267.721 442.877 267.813 443.859 C268.054 447.899 268 451.952 268 456 C539.92 456 811.84 456 1092 456 C1089.69 476.788 1089.69 476.788 1088.746 484.332 C1088.64 485.183 1088.535 486.033 1088.426 486.909 C1088.207 488.664 1087.988 490.419 1087.768 492.173 C1087.432 494.855 1087.1 497.538 1086.768 500.221 C1086.552 501.945 1086.337 503.67 1086.121 505.395 C1085.974 506.584 1085.974 506.584 1085.824 507.797 C1085.461 510.678 1085.097 513.538 1084.501 516.382 C1083.96 519.209 1083.682 521.979 1083.447 524.847 C1083.3 526.606 1083.3 526.606 1083.151 528.4 C1083.047 529.68 1082.943 530.959 1082.836 532.277 C1082.722 533.647 1082.609 535.016 1082.495 536.385 C1082.249 539.342 1082.004 542.299 1081.761 545.256 C1081.096 553.326 1080.42 561.396 1079.742 569.465 C1079.672 570.305 1079.601 571.146 1079.528 572.012 C1078 590.201 1076.369 608.38 1074.721 626.559 C1072.397 652.199 1070.143 677.844 1068 703.5 C1065.856 729.167 1063.598 754.822 1061.276 780.474 C1059.104 804.476 1057.006 828.483 1055 852.5 C1052.856 878.167 1050.598 903.822 1048.276 929.474 C1046.169 952.751 1044.129 976.033 1042.182 999.324 C1040.055 1024.763 1037.865 1050.196 1035.598 1075.623 C1035.381 1078.062 1035.165 1080.501 1034.95 1082.94 C1032.913 1105.992 1030.566 1129 1028 1152 C1025.949 1152.632 1023.899 1153.264 1021.848 1153.895 C1020.706 1154.247 1019.564 1154.599 1018.388 1154.961 C1003.573 1159.503 988.678 1163.666 973.668 1167.51 C965.106 1169.704 956.584 1172.014 948.079 1174.416 C945.97 1175.009 943.858 1175.592 941.746 1176.172 C934.33 1178.212 926.935 1180.307 919.56 1182.489 C908.647 1185.714 897.69 1188.688 886.667 1191.511 C878.105 1193.704 869.584 1196.014 861.079 1198.416 C858.97 1199.009 856.858 1199.592 854.746 1200.172 C847.33 1202.212 839.935 1204.307 832.56 1206.489 C821.647 1209.714 810.69 1212.688 799.667 1215.511 C791.105 1217.704 782.584 1220.014 774.079 1222.416 C771.97 1223.009 769.858 1223.592 767.746 1224.172 C760.33 1226.212 752.935 1228.307 745.56 1230.489 C734.647 1233.714 723.69 1236.688 712.667 1239.511 C704.105 1241.704 695.584 1244.014 687.079 1246.416 C684.97 1247.009 682.858 1247.592 680.746 1248.172 C673.33 1250.212 665.935 1252.307 658.56 1254.489 C647.647 1257.714 636.69 1260.688 625.667 1263.511 C617.124 1265.699 608.622 1268.002 600.136 1270.398 C596.281 1271.484 592.421 1272.554 588.562 1273.625 C587.439 1273.938 587.439 1273.938 586.293 1274.257 C581.163 1275.685 576.023 1277.073 570.871 1278.422 C569.006 1278.839 569.006 1278.839 568 1280 C556.908 1279.648 546.423 1275.916 535.867 1272.77 C534.516 1272.367 533.164 1271.965 531.812 1271.562 C530.789 1271.257 530.789 1271.257 529.746 1270.946 C522.737 1268.88 515.667 1267.06 508.593 1265.233 C497.633 1262.399 486.719 1259.419 475.873 1256.178 C467.492 1253.674 459.061 1251.42 450.593 1249.233 C439.633 1246.399 428.719 1243.419 417.873 1240.178 C409.492 1237.674 401.061 1235.42 392.593 1233.233 C381.633 1230.399 370.719 1227.419 359.873 1224.178 C351.492 1221.674 343.061 1219.42 334.593 1217.233 C323.633 1214.399 312.719 1211.419 301.873 1208.178 C293.492 1205.674 285.061 1203.42 276.593 1201.233 C265.633 1198.399 254.719 1195.419 243.873 1192.178 C235.492 1189.674 227.061 1187.42 218.593 1185.233 C207.633 1182.399 196.719 1179.419 185.873 1176.178 C177.492 1173.674 169.061 1171.42 160.593 1169.233 C148.085 1165.999 135.664 1162.515 123.288 1158.813 C117.538 1157.113 111.745 1155.637 105.912 1154.256 C101.101 1153.101 101.101 1153.101 100 1152 C99.742 1150.147 99.549 1148.285 99.38 1146.422 C99.268 1145.193 99.155 1143.964 99.04 1142.697 C98.918 1141.307 98.797 1139.917 98.676 1138.527 C98.612 1137.81 98.548 1137.093 98.483 1136.354 C96.704 1116.352 95.215 1096.327 93.698 1076.304 C92.82 1064.704 91.932 1053.104 91.043 1041.504 C90.955 1040.349 90.866 1039.194 90.775 1038.004 C89.242 1017.998 87.644 997.997 86 978 C83.141 943.193 80.466 908.373 77.803 873.551 C77.559 870.362 77.315 867.173 77.071 863.984 C76.913 861.912 76.754 859.84 76.596 857.767 C75.775 847.028 74.948 836.289 74.095 825.553 C74.024 824.654 73.953 823.756 73.879 822.83 C73.546 818.634 73.21 814.437 72.873 810.241 C72.756 808.78 72.639 807.318 72.522 805.856 C72.421 804.597 72.319 803.337 72.215 802.039 C72.073 800.03 72 798.014 72 796 C145.92 796 219.84 796 296 796 C297.111 799.332 297.366 802.242 297.661 805.745 C297.72 806.432 297.779 807.119 297.839 807.828 C298.036 810.127 298.227 812.427 298.418 814.727 C298.557 816.361 298.696 817.996 298.835 819.631 C299.134 823.132 299.43 826.634 299.725 830.135 C300.503 839.375 301.294 848.613 302.086 857.852 C302.166 858.785 302.246 859.719 302.328 860.681 C304.131 881.729 306.067 902.763 308.046 923.795 C308.277 926.259 308.508 928.723 308.738 931.188 C308.902 932.934 308.902 932.934 309.069 934.715 C309.913 943.824 310.659 952.939 311.338 962.061 C311.696 966.758 312.109 971.367 313 976 C313.617 976.15 314.234 976.301 314.87 976.456 C325.651 979.092 336.409 981.758 347.062 984.875 C355.828 987.438 364.652 989.743 373.5 992 C383.139 994.46 392.741 997.008 402.294 999.783 C418.049 1004.351 433.927 1008.478 449.812 1012.562 C458.494 1014.795 467.123 1017.15 475.728 1019.66 C483.61 1021.937 491.551 1023.972 499.5 1026 C508.303 1028.247 517.086 1030.533 525.812 1033.062 C527.024 1033.41 527.024 1033.41 528.259 1033.764 C531.923 1034.815 535.582 1035.875 539.233 1036.968 C542.691 1038.001 546.157 1039.002 549.625 1040 C551.226 1040.491 551.226 1040.491 552.859 1040.992 C560.292 1043.097 565.582 1042.975 573 1041 C574.115 1040.731 575.23 1040.463 576.379 1040.186 C580.158 1039.265 583.924 1038.296 587.688 1037.312 C588.363 1037.137 589.039 1036.962 589.735 1036.782 C599.663 1034.208 609.518 1031.44 619.346 1028.507 C627.253 1026.167 635.219 1024.152 643.228 1022.194 C649.55 1020.64 655.814 1018.953 662.062 1017.125 C670.828 1014.562 679.652 1012.257 688.5 1010 C698.139 1007.54 707.741 1004.992 717.294 1002.217 C734.177 997.322 751.2 992.934 768.223 988.562 C776.078 986.531 783.877 984.343 791.666 982.072 C799.713 979.747 807.83 977.841 816 976 C816.072 975.015 816.072 975.015 816.146 974.01 C817.354 957.651 818.772 941.325 820.375 925 C820.597 922.723 820.818 920.445 821.039 918.168 C821.483 913.594 821.928 909.019 822.374 904.445 C823.183 896.134 823.974 887.822 824.762 879.509 C826.308 863.213 827.87 846.919 829.438 830.625 C829.542 829.538 829.647 828.451 829.754 827.331 C830.61 818.436 831.467 809.541 832.323 800.646 C834.855 774.349 837.383 748.051 839.883 721.75 C840.03 720.206 840.177 718.662 840.325 717.117 C840.731 712.853 841.131 708.589 841.522 704.324 C841.654 702.898 841.654 702.898 841.789 701.443 C841.959 699.608 842.127 697.772 842.293 695.936 C842.371 695.103 842.449 694.27 842.529 693.412 C842.596 692.68 842.663 691.947 842.732 691.193 C843.027 688.776 843.523 686.387 844 684 C585.28 684 326.56 684 60 684 C56.555 651.846 56.555 651.846 55.605 640.965 C55.433 639.025 55.26 637.084 55.087 635.144 C54.908 633.127 54.731 631.11 54.553 629.093 C54.173 624.774 53.79 620.455 53.406 616.136 C52.935 610.834 52.465 605.532 51.995 600.23 C51.177 590.981 50.352 581.732 49.523 572.484 C49.463 571.814 49.403 571.143 49.341 570.452 C49.037 567.061 48.733 563.67 48.429 560.28 C48.059 556.148 47.689 552.016 47.319 547.884 C44.663 518.225 42.001 488.566 39.338 458.907 C38.307 447.424 37.277 435.94 36.246 424.457 C36.174 423.654 36.102 422.851 36.028 422.023 C35.664 417.97 35.3 413.917 34.936 409.864 C34.281 402.555 33.625 395.247 32.969 387.938 C32.604 383.875 32.24 379.813 31.875 375.75 C31.729 374.125 31.583 372.5 31.438 370.875 C28.812 341.625 26.188 312.375 23.562 283.125 C23.49 282.321 23.418 281.516 23.344 280.687 C23.198 279.063 23.052 277.438 22.906 275.813 C22.542 271.75 22.177 267.687 21.812 263.624 C21.157 256.317 20.501 249.009 19.845 241.702 C19.482 237.646 19.118 233.591 18.754 229.535 C18.646 228.33 18.646 228.33 18.536 227.101 C17.506 215.622 16.473 204.143 15.438 192.664 C14.771 185.255 14.104 177.846 13.438 170.438 C13.365 169.634 13.293 168.83 13.218 168.002 C10.746 140.505 8.328 113.003 5.953 85.498 C5.723 82.832 5.492 80.166 5.262 77.5 C5.153 76.236 5.043 74.971 4.931 73.669 C4.278 66.124 3.599 58.583 2.902 51.043 C2.114 42.472 1.439 33.901 0.875 25.312 C0.789 24.073 0.702 22.834 0.613 21.557 C0.532 20.338 0.451 19.119 0.367 17.863 C0.296 16.804 0.225 15.745 0.152 14.654 C-0.051 9.773 0 4.885 0 0 Z " fill="#FEFEFE" transform="translate(456,376)"/>
<path d="M0 0 C242.88 0 485.76 0 736 0 C734.85 17.248 733.657 34.293 731.789 51.445 C730.915 59.664 730.162 67.892 729.438 76.125 C729.374 76.848 729.31 77.571 729.244 78.316 C728.432 87.58 727.709 96.848 727.062 106.125 C726.244 117.805 725.069 129.437 723.865 141.082 C722.164 157.613 720.809 174.164 719.571 190.737 C718.624 203.216 717.453 215.663 716.184 228.113 C713.694 252.553 711.54 277.021 709.388 301.492 C709.058 305.236 708.728 308.98 708.397 312.724 C705.664 343.64 702.953 374.558 700.533 405.501 C699.458 419.144 698.13 432.749 696.694 446.359 C695.86 454.275 695.124 462.195 694.438 470.125 C694.311 471.565 694.185 473.005 694.058 474.445 C693.313 483 692.659 491.558 692.062 500.125 C691.244 511.805 690.069 523.437 688.865 535.082 C687.164 551.613 685.809 568.164 684.571 584.737 C683.624 597.216 682.453 609.663 681.184 622.113 C678.694 646.553 676.54 671.021 674.388 695.492 C674.058 699.236 673.728 702.98 673.397 706.724 C670.664 737.64 667.953 768.558 665.533 799.501 C664.456 813.177 663.124 826.814 661.685 840.456 C660.902 847.881 660.204 855.311 659.562 862.75 C659.442 864.125 659.322 865.501 659.201 866.876 C658.443 875.581 657.729 884.29 657.027 893 C656.944 894.04 656.86 895.08 656.773 896.152 C656.257 902.56 656.257 902.56 655.741 908.969 C654.659 922.389 653.475 935.785 652.072 949.175 C651.069 958.898 650.302 968.63 649.562 978.375 C648.603 990.978 647.487 1003.552 646.188 1016.125 C644.264 1034.776 642.582 1053.447 640.938 1072.125 C640.872 1072.867 640.807 1073.609 640.739 1074.374 C639.049 1093.579 637.386 1112.787 635.937 1132.012 C635.295 1140.488 634.563 1148.951 633.784 1157.415 C633.178 1164.005 632.598 1170.597 632.035 1177.191 C631.955 1178.126 631.875 1179.061 631.793 1180.024 C631.469 1183.805 631.145 1187.586 630.825 1191.367 C629.865 1202.718 628.797 1214.048 627.59 1225.375 C626.337 1237.217 625.273 1249.068 624.281 1260.934 C624.172 1262.24 624.172 1262.24 624.061 1263.573 C623.537 1269.861 623.018 1276.149 622.5 1282.438 C621.909 1289.603 621.317 1296.769 620.719 1303.934 C620.61 1305.234 620.61 1305.234 620.5 1306.562 C619.452 1319.1 618.278 1331.619 616.993 1344.135 C616.104 1352.817 615.354 1361.5 614.721 1370.205 C613.746 1383.534 612.562 1396.831 611.188 1410.125 C609.264 1428.776 607.582 1447.447 605.938 1466.125 C605.872 1466.867 605.807 1467.609 605.739 1468.374 C603.916 1489.085 602.18 1509.801 600.582 1530.531 C599.408 1545.735 598.036 1560.885 596 1576 C582.37 1580.351 568.655 1584.211 554.812 1587.812 C542.829 1590.933 530.863 1594.1 518.938 1597.438 C516.008 1598.257 513.078 1599.076 510.148 1599.895 C509.339 1600.121 508.531 1600.347 507.697 1600.58 C493.924 1604.423 480.134 1608.203 466.347 1611.996 C460.497 1613.606 454.647 1615.216 448.797 1616.826 C447.37 1617.219 445.943 1617.611 444.516 1618.004 C431.241 1621.657 417.968 1625.318 404.696 1628.98 C393.234 1632.143 381.771 1635.303 370.308 1638.461 C368.838 1638.866 367.367 1639.271 365.897 1639.676 C349.277 1644.256 332.656 1648.829 316.023 1653.359 C314.778 1653.699 313.533 1654.038 312.25 1654.387 C306.467 1655.962 300.683 1657.534 294.899 1659.104 C285.54 1661.646 276.191 1664.214 266.871 1666.898 C254.531 1670.451 242.138 1673.808 229.747 1677.175 C223.241 1678.943 216.737 1680.715 210.233 1682.487 C207.986 1683.099 205.739 1683.711 203.493 1684.323 C189.051 1688.256 174.612 1692.202 160.176 1696.158 C157.555 1696.875 154.935 1697.593 152.314 1698.309 C140.77 1701.468 129.227 1704.627 117.727 1707.941 C104.307 1711.806 90.822 1715.439 77.346 1719.101 C71.495 1720.691 65.644 1722.285 59.794 1723.878 C58.34 1724.274 56.886 1724.67 55.432 1725.065 C46.228 1727.571 37.025 1730.087 27.828 1732.621 C26.87 1732.885 25.912 1733.149 24.924 1733.421 C20.602 1734.613 16.281 1735.807 11.96 1737.003 C10.482 1737.411 9.005 1737.819 7.527 1738.227 C5.652 1738.746 5.652 1738.746 3.738 1739.276 C1 1740 1 1740 0 1740 C0 1663.11 0 1586.22 0 1507 C4.986 1505.13 9.484 1503.501 14.562 1502.188 C15.181 1502.026 15.8 1501.864 16.437 1501.697 C18.623 1501.127 20.812 1500.563 23 1500 C39.356 1495.827 39.356 1495.827 55.543 1491.055 C67.934 1487.274 80.522 1484.114 93.062 1480.875 C99.948 1479.095 106.762 1477.205 113.543 1475.055 C125.934 1471.274 138.522 1468.114 151.062 1464.875 C157.948 1463.095 164.762 1461.205 171.543 1459.055 C183.934 1455.274 196.522 1452.114 209.062 1448.875 C215.948 1447.095 222.762 1445.205 229.543 1443.055 C241.934 1439.274 254.522 1436.114 267.062 1432.875 C273.948 1431.095 280.762 1429.205 287.543 1427.055 C299.934 1423.274 312.522 1420.114 325.062 1416.875 C331.948 1415.095 338.762 1413.205 345.543 1411.055 C357.934 1407.274 370.522 1404.114 383.062 1400.875 C389.948 1399.095 396.762 1397.205 403.543 1395.055 C422.153 1389.377 441.124 1384.707 460 1380 C460.048 1379.019 460.097 1378.037 460.146 1377.026 C460.708 1366.274 461.671 1355.589 462.754 1344.878 C465.409 1318.484 467.648 1292.057 469.875 1265.625 C470.567 1257.418 471.259 1249.211 471.953 1241.004 C472.082 1239.479 472.082 1239.479 472.214 1237.923 C473.946 1217.463 475.771 1197.012 477.625 1176.562 C479.898 1151.486 482.086 1126.405 484.183 1101.313 C486.267 1076.375 488.468 1051.449 490.724 1026.526 C492.896 1002.524 494.994 978.517 497 954.5 C499.075 929.658 501.253 904.827 503.5 880 C506.242 849.711 508.863 819.414 511.397 789.107 C511.729 785.148 512.062 781.189 512.395 777.229 C512.779 772.658 513.156 768.086 513.525 763.513 C514.398 752.859 515.507 742.299 517.117 731.731 C517.68 728.034 518.221 724.333 518.762 720.633 C518.869 719.901 518.976 719.17 519.087 718.417 C520.249 710.421 521.202 702.403 522.099 694.374 C522.206 693.436 522.312 692.498 522.422 691.531 C522.51 690.722 522.599 689.913 522.69 689.08 C523 687 523 687 524 684 C252.08 684 -19.84 684 -300 684 C-302.311 660.31 -304.619 636.648 -306.536 612.927 C-306.674 611.229 -306.813 609.531 -306.951 607.832 C-307.02 606.98 -307.09 606.128 -307.161 605.249 C-307.832 597.024 -308.514 588.799 -309.195 580.574 C-309.271 579.662 -309.346 578.75 -309.424 577.81 C-310.955 559.345 -312.582 540.89 -314.25 522.438 C-314.376 521.043 -314.502 519.649 -314.628 518.255 C-315.102 513.003 -315.577 507.751 -316.052 502.5 C-316.946 492.62 -317.828 482.739 -318.682 472.856 C-318.808 471.4 -318.935 469.945 -319.062 468.49 C-319.228 466.59 -319.392 464.689 -319.555 462.789 C-319.686 461.269 -319.686 461.269 -319.82 459.717 C-319.99 457.15 -320 454.573 -320 452 C-34.88 452 250.24 452 544 452 C544.33 445.73 544.66 439.46 545 433 C545.346 428.564 545.709 424.14 546.121 419.711 C546.226 418.557 546.331 417.404 546.439 416.215 C546.658 413.811 546.879 411.406 547.102 409.002 C547.438 405.374 547.767 401.746 548.096 398.117 C549.102 387.094 550.177 376.092 551.52 365.104 C552.501 356.92 553.221 348.705 554 340.5 C554.928 330.719 555.857 320.942 557.035 311.188 C560.369 283.566 561.971 255.728 564 228 C377.88 228 191.76 228 0 228 C0 152.76 0 77.52 0 0 Z " fill="#EF652A" transform="translate(1024,148)"/>
<path d="M0 0 C373.56 0 747.12 0 1132 0 C1132 6.803 1131.954 13.464 1131.52 20.23 C1131.467 21.083 1131.414 21.935 1131.359 22.813 C1131.183 25.605 1130.999 28.396 1130.812 31.188 C1130.748 32.161 1130.684 33.135 1130.618 34.139 C1129.25 54.572 1127.166 74.909 1124.943 95.264 C1123.744 106.267 1122.657 117.281 1121.574 128.296 C1120.77 136.468 1119.938 144.634 1119.012 152.793 C1117.858 162.994 1116.929 173.214 1116 183.438 C1115.75 186.188 1115.499 188.939 1115.246 191.69 C1115.091 193.377 1114.937 195.065 1114.785 196.753 C1113.951 205.847 1112.956 214.915 1112 224 C826.88 224 541.76 224 248 224 C248.66 229.61 249.32 235.22 250 241 C250.452 245.595 250.889 250.187 251.297 254.785 C251.411 256.051 251.525 257.318 251.642 258.622 C251.95 262.052 252.255 265.482 252.559 268.913 C252.753 271.094 252.947 273.275 253.142 275.457 C255.313 299.788 257.366 324.127 259.368 348.473 C260.757 365.361 262.183 382.245 263.711 399.121 C263.781 399.899 263.852 400.677 263.924 401.478 C264.602 408.968 265.283 416.458 265.978 423.947 C266.168 426.006 266.357 428.066 266.545 430.125 C266.772 432.618 267.003 435.111 267.238 437.603 C267.339 438.714 267.44 439.826 267.544 440.97 C267.633 441.924 267.721 442.877 267.813 443.859 C268.054 447.899 268 451.952 268 456 C365.68 456 463.36 456 564 456 C564 531.24 564 606.48 564 684 C397.68 684 231.36 684 60 684 C56.555 651.846 56.555 651.846 55.605 640.965 C55.433 639.025 55.26 637.084 55.087 635.144 C54.908 633.127 54.731 631.11 54.553 629.093 C54.173 624.774 53.79 620.455 53.406 616.136 C52.935 610.834 52.465 605.532 51.995 600.23 C51.177 590.981 50.352 581.732 49.523 572.484 C49.463 571.814 49.403 571.143 49.341 570.452 C49.037 567.061 48.733 563.67 48.429 560.28 C48.059 556.148 47.689 552.016 47.319 547.884 C44.663 518.225 42.001 488.566 39.338 458.907 C38.307 447.424 37.277 435.94 36.246 424.457 C36.174 423.654 36.102 422.851 36.028 422.023 C35.664 417.97 35.3 413.917 34.936 409.864 C34.281 402.555 33.625 395.247 32.969 387.938 C32.604 383.875 32.24 379.813 31.875 375.75 C31.729 374.125 31.583 372.5 31.438 370.875 C28.812 341.625 26.188 312.375 23.562 283.125 C23.49 282.321 23.418 281.516 23.344 280.687 C23.198 279.063 23.052 277.438 22.906 275.813 C22.542 271.75 22.177 267.687 21.812 263.624 C21.157 256.317 20.501 249.009 19.845 241.702 C19.482 237.646 19.118 233.591 18.754 229.535 C18.646 228.33 18.646 228.33 18.536 227.101 C17.506 215.622 16.473 204.143 15.438 192.664 C14.771 185.255 14.104 177.846 13.438 170.438 C13.365 169.634 13.293 168.83 13.218 168.002 C10.746 140.505 8.328 113.003 5.953 85.498 C5.723 82.832 5.492 80.166 5.262 77.5 C5.153 76.236 5.043 74.971 4.931 73.669 C4.278 66.124 3.599 58.583 2.902 51.043 C2.114 42.472 1.439 33.901 0.875 25.312 C0.789 24.073 0.702 22.834 0.613 21.557 C0.532 20.338 0.451 19.119 0.367 17.863 C0.296 16.804 0.225 15.745 0.152 14.654 C-0.051 9.773 0 4.885 0 0 Z " fill="#EAEAEA" transform="translate(456,376)"/>
<path d="M0 0 C73.92 0 147.84 0 224 0 C225.111 3.332 225.366 6.242 225.661 9.745 C225.72 10.432 225.779 11.119 225.839 11.828 C226.036 14.127 226.227 16.427 226.418 18.727 C226.557 20.361 226.696 21.996 226.835 23.631 C227.134 27.132 227.43 30.634 227.725 34.135 C228.503 43.375 229.294 52.613 230.086 61.852 C230.166 62.785 230.246 63.719 230.328 64.681 C232.131 85.729 234.067 106.763 236.046 127.795 C236.277 130.259 236.508 132.723 236.738 135.188 C236.847 136.352 236.956 137.516 237.069 138.715 C237.913 147.824 238.659 156.939 239.338 166.061 C239.696 170.758 240.109 175.367 241 180 C241.926 180.226 241.926 180.226 242.87 180.456 C253.651 183.092 264.409 185.758 275.062 188.875 C283.828 191.438 292.652 193.743 301.5 196 C311.139 198.46 320.741 201.008 330.294 203.783 C346.049 208.351 361.927 212.478 377.812 216.562 C386.494 218.795 395.123 221.15 403.728 223.66 C411.61 225.937 419.551 227.972 427.5 230 C437.121 232.456 446.707 234.99 456.24 237.77 C464.674 240.223 473.159 242.482 481.65 244.729 C482.708 245.01 483.765 245.292 484.855 245.582 C485.801 245.832 486.746 246.082 487.719 246.339 C490 247 490 247 492 248 C492 325.88 492 403.76 492 484 C472.762 479.473 472.762 479.473 463.375 476.625 C455.326 474.229 447.258 471.968 439.125 469.875 C427.318 466.835 415.555 463.669 403.873 460.178 C395.492 457.674 387.061 455.42 378.593 453.233 C367.633 450.399 356.719 447.419 345.873 444.178 C337.492 441.674 329.061 439.42 320.593 437.233 C309.633 434.399 298.719 431.419 287.873 428.178 C279.492 425.674 271.061 423.42 262.593 421.233 C251.633 418.399 240.719 415.419 229.873 412.178 C221.492 409.674 213.061 407.42 204.593 405.233 C193.633 402.399 182.719 399.419 171.873 396.178 C163.492 393.674 155.061 391.42 146.593 389.233 C135.633 386.399 124.719 383.419 113.873 380.178 C105.492 377.674 97.061 375.42 88.593 373.233 C76.085 369.999 63.664 366.515 51.288 362.813 C45.538 361.113 39.745 359.637 33.912 358.256 C29.101 357.101 29.101 357.101 28 356 C27.742 354.147 27.549 352.285 27.38 350.422 C27.268 349.193 27.155 347.964 27.04 346.697 C26.918 345.307 26.797 343.917 26.676 342.527 C26.612 341.81 26.548 341.093 26.483 340.354 C24.704 320.352 23.215 300.327 21.698 280.304 C20.82 268.704 19.932 257.104 19.043 245.504 C18.955 244.349 18.866 243.194 18.775 242.004 C17.242 221.998 15.644 201.997 14 182 C11.141 147.193 8.466 112.373 5.803 77.551 C5.559 74.362 5.315 71.173 5.071 67.984 C4.913 65.912 4.754 63.84 4.596 61.767 C3.775 51.028 2.948 40.289 2.095 29.553 C2.024 28.654 1.953 27.756 1.879 26.83 C1.546 22.634 1.21 18.437 0.873 14.241 C0.756 12.78 0.639 11.318 0.522 9.856 C0.421 8.597 0.319 7.337 0.215 6.039 C0.073 4.03 0 2.014 0 0 Z " fill="#EAEAEA" transform="translate(528,1172)"/>
<path d="M0 0 C187.44 0 374.88 0 568 0 C568 6.803 567.954 13.464 567.52 20.23 C567.467 21.083 567.414 21.935 567.359 22.813 C567.183 25.605 566.999 28.396 566.812 31.188 C566.716 32.648 566.716 32.648 566.618 34.139 C565.25 54.572 563.166 74.909 560.943 95.264 C559.744 106.267 558.657 117.281 557.574 128.296 C556.77 136.468 555.938 144.634 555.012 152.793 C553.858 162.994 552.929 173.214 552 183.438 C551.75 186.188 551.499 188.939 551.246 191.69 C551.091 193.377 550.937 195.065 550.785 196.753 C549.951 205.847 548.956 214.915 548 224 C367.16 224 186.32 224 0 224 C0 150.08 0 76.16 0 0 Z " fill="#FEFEFE" transform="translate(1020,376)"/>
<path d="M0 0 C91.08 0 182.16 0 276 0 C273.695 29.965 273.695 29.965 272.403 43.057 C271.989 47.271 271.577 51.485 271.167 55.698 C270.82 59.276 270.473 62.853 270.124 66.429 C269.196 75.965 268.277 85.502 267.363 95.039 C267.293 95.771 267.223 96.503 267.151 97.258 C266.789 101.029 266.428 104.801 266.067 108.573 C265.396 115.583 264.724 122.592 264.051 129.602 C263.824 131.978 263.596 134.353 263.368 136.729 C262.389 146.94 261.41 157.151 260.43 167.362 C260.207 169.682 259.985 172.002 259.762 174.322 C259.689 175.086 259.615 175.85 259.54 176.636 C259.392 178.174 259.245 179.712 259.097 181.25 C258.732 185.054 258.367 188.858 258.002 192.662 C256.482 208.488 254.967 224.313 253.476 240.142 C253.264 242.388 253.052 244.634 252.84 246.881 C252.737 247.97 252.737 247.97 252.632 249.082 C252.495 250.527 252.359 251.972 252.222 253.417 C251.829 257.577 251.439 261.737 251.05 265.897 C250.757 269.031 250.46 272.164 250.164 275.297 C250.06 276.417 249.956 277.537 249.849 278.692 C249.752 279.72 249.654 280.748 249.553 281.808 C249.47 282.696 249.387 283.583 249.301 284.498 C248.996 287.035 248.534 289.502 248 292 C234.876 295.967 221.659 299.553 208.413 303.088 C202.856 304.573 197.303 306.067 191.75 307.562 C190.668 307.854 189.586 308.145 188.471 308.445 C181.644 310.283 174.82 312.136 168 314 C156.78 317.067 145.548 320.09 134.314 323.109 C128.876 324.571 123.438 326.036 118 327.5 C115.833 328.083 113.667 328.667 111.5 329.25 C110.428 329.539 109.355 329.827 108.25 330.125 C98.5 332.75 98.5 332.75 95.249 333.625 C93.086 334.208 90.922 334.79 88.759 335.373 C83.293 336.845 77.826 338.316 72.359 339.785 C62.235 342.507 52.113 345.236 42 348 C33.649 350.281 25.295 352.553 16.938 354.812 C15.824 355.115 14.711 355.417 13.564 355.729 C12.521 356.01 11.477 356.292 10.402 356.582 C9.479 356.832 8.556 357.082 7.605 357.339 C5.09 357.977 2.544 358.491 0 359 C0 240.53 0 122.06 0 0 Z " fill="#EF652A" transform="translate(1024,1060)"/>
<path d="M0 0 C105.6 0 211.2 0 320 0 C320 76.56 320 153.12 320 232 C221 232 122 232 20 232 C17.689 208.31 15.381 184.648 13.464 160.927 C13.326 159.229 13.187 157.531 13.049 155.832 C12.98 154.98 12.91 154.128 12.839 153.249 C12.168 145.024 11.486 136.799 10.805 128.574 C10.729 127.662 10.654 126.75 10.576 125.81 C9.045 107.345 7.418 88.89 5.75 70.438 C5.624 69.043 5.498 67.649 5.372 66.255 C4.898 61.003 4.423 55.751 3.948 50.5 C3.054 40.62 2.172 30.739 1.318 20.856 C1.192 19.4 1.065 17.945 0.938 16.49 C0.772 14.59 0.608 12.689 0.445 10.789 C0.358 9.775 0.27 8.762 0.18 7.717 C0.01 5.15 0 2.573 0 0 Z " fill="#E34F26" transform="translate(704,600)"/>
</svg>