
<!-- Generator: visioncortex VTracer 0.6.4 -->
<svg version="1.1" xmlns="http://www.w3.org/2000/svg" viewBox="0 0 220 234" preserveAspectRatio="xMidYMid meet">
<path d="M0 0 C0.757 0.004 1.515 0.008 2.295 0.012 C3.141 0.014 3.988 0.016 4.86 0.018 C5.747 0.031 6.635 0.043 7.549 0.055 C8.402 0.056 9.255 0.057 10.133 0.057 C12.796 0.075 15.451 0.15 18.112 0.243 C19.025 0.262 19.938 0.281 20.878 0.301 C27.994 0.653 32.918 2.674 38.987 6.305 C40.271 7.045 40.271 7.045 41.581 7.799 C44.104 9.26 46.609 10.749 49.112 12.243 C50.504 13.056 51.898 13.869 53.291 14.68 C59.632 18.438 59.632 18.438 62.112 20.243 C62.112 20.903 62.112 21.563 62.112 22.243 C63.762 22.573 65.412 22.903 67.112 23.243 C67.112 23.903 67.112 24.563 67.112 25.243 C67.895 25.367 68.679 25.49 69.487 25.618 C72.112 26.243 72.112 26.243 74.112 28.243 C75.44 28.594 76.774 28.925 78.112 29.243 C81.034 30.645 83.81 32.301 86.612 33.93 C87.371 34.353 88.13 34.775 88.912 35.21 C93.658 37.965 96.298 40.406 99.112 45.243 C100.234 46.473 101.378 47.684 102.549 48.868 C109.834 56.999 112.248 67.217 112.289 77.856 C112.295 78.607 112.302 79.357 112.308 80.13 C112.328 82.605 112.34 85.08 112.35 87.555 C112.354 88.406 112.358 89.257 112.362 90.133 C112.383 94.642 112.397 99.15 112.407 103.658 C112.418 108.284 112.452 112.908 112.492 117.533 C112.518 121.116 112.526 124.699 112.53 128.282 C112.535 129.985 112.546 131.688 112.565 133.391 C112.693 145.821 112.189 158.217 103.987 168.305 C101.221 171.71 101.221 171.71 99.057 175.489 C98.112 177.243 98.112 177.243 95.112 178.243 C94.153 179.233 94.153 179.233 93.174 180.243 C90.969 182.381 89.994 182.592 87.112 183.243 C86.09 184.22 85.092 185.224 84.112 186.243 C81.74 187.824 79.77 189.088 76.987 189.743 C75.04 190.088 75.04 190.088 73.842 191.566 C71.625 193.715 69.236 195.042 66.553 196.571 C65.444 197.207 64.335 197.842 63.192 198.497 C62.019 199.162 60.847 199.828 59.674 200.493 C57.404 201.79 55.135 203.086 52.865 204.384 C51.747 205.02 50.628 205.656 49.475 206.311 C45.169 208.784 40.906 211.328 36.65 213.886 C34.394 215.092 32.564 215.649 30.112 216.243 C29.452 216.903 28.792 217.563 28.112 218.243 C22.826 220.597 17.9 220.479 12.237 220.368 C11.357 220.359 10.478 220.35 9.573 220.341 C7.419 220.317 5.265 220.281 3.112 220.243 C3.112 219.583 3.112 218.923 3.112 218.243 C1.132 218.243 -0.848 218.243 -2.888 218.243 C-2.888 217.583 -2.888 216.923 -2.888 216.243 C-3.565 216.327 -4.242 216.41 -4.939 216.497 C-8.966 216.15 -11.729 214.278 -15.076 212.18 C-16.593 211.258 -18.111 210.338 -19.631 209.419 C-20.881 208.658 -20.881 208.658 -22.157 207.882 C-27.293 204.8 -32.504 201.847 -37.701 198.868 C-41.028 196.948 -44.352 195.025 -47.677 193.1 C-49.769 191.89 -51.863 190.683 -53.96 189.479 C-56.756 187.871 -59.542 186.247 -62.326 184.618 C-63.154 184.146 -63.982 183.673 -64.835 183.187 C-69.099 180.669 -71.648 178.81 -73.888 174.243 C-75.551 172.905 -77.218 171.571 -78.888 170.243 C-79.881 168.466 -79.881 168.466 -80.888 166.243 C-81.509 164.928 -81.509 164.928 -82.142 163.587 C-82.574 162.648 -83.006 161.71 -83.451 160.743 C-83.885 159.804 -84.32 158.866 -84.767 157.899 C-86.836 152.997 -87.051 148.572 -87.081 143.284 C-87.089 142.485 -87.098 141.686 -87.106 140.863 C-87.131 138.22 -87.147 135.577 -87.162 132.934 C-87.167 132.027 -87.173 131.121 -87.178 130.186 C-87.205 125.38 -87.224 120.573 -87.239 115.767 C-87.252 111.808 -87.28 107.851 -87.321 103.893 C-87.37 99.096 -87.395 94.3 -87.402 89.504 C-87.408 87.686 -87.424 85.869 -87.448 84.052 C-87.596 72.218 -87.356 60.69 -79.537 50.962 C-78.787 50.229 -78.036 49.497 -77.263 48.743 C-74.934 46.422 -73.025 44.477 -71.361 41.634 C-69.778 39.064 -68.523 38.013 -65.951 36.493 C-65.282 36.086 -64.613 35.678 -63.924 35.259 C-61.888 34.243 -61.888 34.243 -59.947 33.852 C-57.698 33.327 -57.698 33.327 -55.592 31.405 C-53.005 29.336 -50.438 27.69 -47.572 26.036 C-46.559 25.449 -45.547 24.862 -44.504 24.257 C-43.455 23.654 -42.406 23.051 -41.326 22.43 C-40.304 21.839 -39.283 21.248 -38.23 20.639 C-36.166 19.445 -34.1 18.254 -32.032 17.065 C-29.872 15.813 -27.721 14.547 -25.576 13.269 C-24.515 12.638 -23.454 12.006 -22.361 11.356 C-21.406 10.783 -20.451 10.21 -19.467 9.619 C-16.888 8.243 -16.888 8.243 -14.609 7.673 C-13.757 7.46 -13.757 7.46 -12.888 7.243 C-12.558 6.583 -12.228 5.923 -11.888 5.243 C-9.89 4.903 -7.89 4.57 -5.888 4.243 C-5.228 3.583 -4.568 2.923 -3.888 2.243 C-1.888 0.243 -1.888 0.243 0 0 Z " fill="#FDFEFE" transform="translate(97.888427734375,7.757080078125)"/>
<path d="M0 0 C3.553 0.137 7.074 0.084 10.627 -0.022 C31.19 -0.53 31.19 -0.53 37.664 4.793 C41.624 9.526 44.222 14.741 46.352 20.51 C47.141 22.776 47.141 22.776 48.298 24.863 C49.189 26.758 49.189 26.758 49.189 29.758 C43.249 30.088 37.309 30.418 31.189 30.758 C32.571 33.233 33.953 35.708 35.377 38.258 C35.823 39.059 36.269 39.86 36.729 40.685 C38.797 44.374 40.928 47.951 43.314 51.446 C45.189 54.758 45.189 54.758 44.99 57.12 C44.078 60.123 42.813 62.558 41.248 65.278 C40.373 66.81 40.373 66.81 39.48 68.374 C38.869 69.429 38.257 70.484 37.627 71.571 C36.703 73.182 36.703 73.182 35.761 74.827 C34.244 77.474 32.717 80.117 31.189 82.758 C37.459 83.088 43.729 83.418 50.189 83.758 C45.502 93.426 45.502 93.426 44.442 95.392 C43.473 97.222 42.582 99.095 41.725 100.98 C37.087 110.069 37.087 110.069 32.038 111.903 C28.194 112.262 24.471 112.225 20.627 112.028 C19.226 112.004 17.825 111.985 16.424 111.972 C12.758 111.923 9.099 111.795 5.435 111.651 C1.689 111.517 -2.059 111.458 -5.807 111.393 C-13.145 111.254 -20.477 111.033 -27.811 110.758 C-28.27 109.827 -28.73 108.895 -29.204 107.935 C-32.223 101.839 -35.232 95.775 -38.748 89.946 C-41.811 84.851 -41.811 84.851 -41.811 83.758 C-35.541 83.428 -29.271 83.098 -22.811 82.758 C-23.738 81.156 -24.664 79.554 -25.619 77.903 C-26.829 75.792 -28.039 73.682 -29.248 71.571 C-29.86 70.516 -30.472 69.461 -31.102 68.374 C-31.685 67.352 -32.268 66.33 -32.869 65.278 C-33.409 64.34 -33.948 63.403 -34.504 62.437 C-35.808 59.765 -36.568 57.719 -36.811 54.758 C-36.086 52.757 -36.086 52.757 -34.897 50.833 C-34.465 50.118 -34.033 49.403 -33.588 48.667 C-33.125 47.934 -32.663 47.201 -32.186 46.446 C-31.526 45.364 -31.526 45.364 -30.854 44.26 C-29.522 42.083 -28.169 39.92 -26.811 37.758 C-25.161 35.118 -23.511 32.478 -21.811 29.758 C-28.081 29.758 -34.351 29.758 -40.811 29.758 C-35.983 5.621 -23.113 -0.898 0 0 Z " fill="#03B7E1" transform="translate(105.810791015625,60.24169921875)"/>
<path d="M0 0 C0.757 0.004 1.515 0.008 2.295 0.012 C3.141 0.014 3.988 0.016 4.86 0.018 C5.747 0.031 6.635 0.043 7.549 0.055 C8.402 0.056 9.255 0.057 10.133 0.057 C12.796 0.075 15.451 0.15 18.112 0.243 C19.025 0.262 19.938 0.281 20.878 0.301 C27.994 0.653 32.918 2.674 38.987 6.305 C40.271 7.045 40.271 7.045 41.581 7.799 C44.104 9.26 46.609 10.749 49.112 12.243 C50.504 13.056 51.898 13.869 53.291 14.68 C59.632 18.438 59.632 18.438 62.112 20.243 C62.112 20.903 62.112 21.563 62.112 22.243 C63.762 22.573 65.412 22.903 67.112 23.243 C67.112 23.903 67.112 24.563 67.112 25.243 C67.895 25.367 68.679 25.49 69.487 25.618 C72.112 26.243 72.112 26.243 74.112 28.243 C75.44 28.594 76.774 28.925 78.112 29.243 C81.034 30.645 83.81 32.301 86.612 33.93 C87.371 34.353 88.13 34.775 88.912 35.21 C93.658 37.965 96.298 40.406 99.112 45.243 C100.234 46.473 101.378 47.684 102.549 48.868 C109.834 56.999 112.248 67.217 112.289 77.856 C112.295 78.607 112.302 79.357 112.308 80.13 C112.328 82.605 112.34 85.08 112.35 87.555 C112.354 88.406 112.358 89.257 112.362 90.133 C112.383 94.642 112.397 99.15 112.407 103.658 C112.418 108.284 112.452 112.908 112.492 117.533 C112.518 121.116 112.526 124.699 112.53 128.282 C112.535 129.985 112.546 131.688 112.565 133.391 C112.693 145.821 112.189 158.217 103.987 168.305 C101.221 171.71 101.221 171.71 99.057 175.489 C98.112 177.243 98.112 177.243 95.112 178.243 C94.153 179.233 94.153 179.233 93.174 180.243 C90.969 182.381 89.994 182.592 87.112 183.243 C86.09 184.22 85.092 185.224 84.112 186.243 C81.74 187.824 79.77 189.088 76.987 189.743 C75.04 190.088 75.04 190.088 73.842 191.566 C71.625 193.715 69.236 195.042 66.553 196.571 C65.444 197.207 64.335 197.842 63.192 198.497 C62.019 199.162 60.847 199.828 59.674 200.493 C57.404 201.79 55.135 203.086 52.865 204.384 C51.747 205.02 50.628 205.656 49.475 206.311 C45.169 208.784 40.906 211.328 36.65 213.886 C34.394 215.092 32.564 215.649 30.112 216.243 C29.452 216.903 28.792 217.563 28.112 218.243 C22.826 220.597 17.9 220.479 12.237 220.368 C11.357 220.359 10.478 220.35 9.573 220.341 C7.419 220.317 5.265 220.281 3.112 220.243 C3.112 219.583 3.112 218.923 3.112 218.243 C1.132 218.243 -0.848 218.243 -2.888 218.243 C-2.888 217.583 -2.888 216.923 -2.888 216.243 C-3.565 216.327 -4.242 216.41 -4.939 216.497 C-8.966 216.15 -11.729 214.278 -15.076 212.18 C-16.593 211.258 -18.111 210.338 -19.631 209.419 C-20.881 208.658 -20.881 208.658 -22.157 207.882 C-27.293 204.8 -32.504 201.847 -37.701 198.868 C-41.028 196.948 -44.352 195.025 -47.677 193.1 C-49.769 191.89 -51.863 190.683 -53.96 189.479 C-56.756 187.871 -59.542 186.247 -62.326 184.618 C-63.154 184.146 -63.982 183.673 -64.835 183.187 C-69.099 180.669 -71.648 178.81 -73.888 174.243 C-75.551 172.905 -77.218 171.571 -78.888 170.243 C-79.881 168.466 -79.881 168.466 -80.888 166.243 C-81.509 164.928 -81.509 164.928 -82.142 163.587 C-82.574 162.648 -83.006 161.71 -83.451 160.743 C-83.885 159.804 -84.32 158.866 -84.767 157.899 C-86.836 152.997 -87.051 148.572 -87.081 143.284 C-87.089 142.485 -87.098 141.686 -87.106 140.863 C-87.131 138.22 -87.147 135.577 -87.162 132.934 C-87.167 132.027 -87.173 131.121 -87.178 130.186 C-87.205 125.38 -87.224 120.573 -87.239 115.767 C-87.252 111.808 -87.28 107.851 -87.321 103.893 C-87.37 99.096 -87.395 94.3 -87.402 89.504 C-87.408 87.686 -87.424 85.869 -87.448 84.052 C-87.596 72.218 -87.356 60.69 -79.537 50.962 C-78.787 50.229 -78.036 49.497 -77.263 48.743 C-74.934 46.422 -73.025 44.477 -71.361 41.634 C-69.778 39.064 -68.523 38.013 -65.951 36.493 C-65.282 36.086 -64.613 35.678 -63.924 35.259 C-61.888 34.243 -61.888 34.243 -59.947 33.852 C-57.698 33.327 -57.698 33.327 -55.592 31.405 C-53.005 29.336 -50.438 27.69 -47.572 26.036 C-46.559 25.449 -45.547 24.862 -44.504 24.257 C-43.455 23.654 -42.406 23.051 -41.326 22.43 C-40.304 21.839 -39.283 21.248 -38.23 20.639 C-36.166 19.445 -34.1 18.254 -32.032 17.065 C-29.872 15.813 -27.721 14.547 -25.576 13.269 C-24.515 12.638 -23.454 12.006 -22.361 11.356 C-21.406 10.783 -20.451 10.21 -19.467 9.619 C-16.888 8.243 -16.888 8.243 -14.609 7.673 C-13.757 7.46 -13.757 7.46 -12.888 7.243 C-12.558 6.583 -12.228 5.923 -11.888 5.243 C-9.89 4.903 -7.89 4.57 -5.888 4.243 C-5.228 3.583 -4.568 2.923 -3.888 2.243 C-1.888 0.243 -1.888 0.243 0 0 Z M-17.076 18.118 C-18.781 19.118 -20.487 20.118 -22.193 21.118 C-23.939 22.143 -25.682 23.173 -27.426 24.203 C-30.783 26.185 -34.154 28.142 -37.529 30.094 C-39.628 31.311 -41.727 32.527 -43.826 33.743 C-44.777 34.293 -45.728 34.843 -46.708 35.41 C-67.698 47.179 -67.698 47.179 -79.888 67.243 C-80.095 70.003 -80.203 72.663 -80.211 75.423 C-80.221 76.233 -80.231 77.044 -80.241 77.879 C-80.27 80.554 -80.284 83.228 -80.295 85.903 C-80.3 86.821 -80.306 87.739 -80.312 88.686 C-80.342 93.549 -80.36 98.413 -80.369 103.277 C-80.38 108.275 -80.428 113.271 -80.485 118.269 C-80.522 122.134 -80.533 125.998 -80.536 129.864 C-80.542 131.704 -80.557 133.545 -80.584 135.385 C-80.759 148.513 -79.395 158.238 -70.349 168.489 C-65.035 173.367 -58.76 176.784 -52.513 180.305 C-51.231 181.04 -49.949 181.777 -48.667 182.514 C-46.04 184.023 -43.41 185.526 -40.776 187.024 C-37.068 189.135 -33.38 191.279 -29.697 193.434 C-24.338 196.567 -18.954 199.653 -13.552 202.713 C-11.284 204.016 -9.052 205.359 -6.826 206.731 C-0.352 210.47 5.226 211.896 12.612 212.118 C13.347 212.151 14.082 212.184 14.84 212.217 C26.954 211.976 39.034 202.677 49.049 196.618 C51.397 195.207 53.748 193.8 56.1 192.395 C56.685 192.045 57.271 191.696 57.874 191.335 C64.666 187.292 71.572 183.448 78.514 179.668 C90.099 173.252 99.53 166.023 104.112 153.243 C105.175 149.033 105.272 144.915 105.289 140.598 C105.298 139.468 105.298 139.468 105.308 138.314 C105.328 135.83 105.34 133.345 105.35 130.86 C105.356 129.58 105.356 129.58 105.362 128.274 C105.383 123.755 105.397 119.237 105.407 114.718 C105.418 110.074 105.452 105.431 105.492 100.788 C105.518 97.197 105.526 93.606 105.53 90.014 C105.535 88.304 105.546 86.594 105.565 84.884 C105.685 73.162 105.506 61.982 96.924 52.93 C96.229 52.171 95.534 51.412 94.819 50.63 C87.751 44.398 79.323 39.954 71.174 35.305 C69.462 34.325 67.75 33.344 66.038 32.363 C64.859 31.687 63.679 31.011 62.499 30.336 C58.304 27.933 54.123 25.507 49.948 23.071 C48.78 22.391 47.611 21.711 46.443 21.032 C44.237 19.747 42.031 18.459 39.829 17.167 C26.968 9.64 26.968 9.64 12.549 6.93 C11.599 6.893 10.649 6.856 9.67 6.817 C-0.224 8.001 -8.654 13.106 -17.076 18.118 Z " fill="#275C87" transform="translate(97.888427734375,7.757080078125)"/>
<path d="M0 0 C6.93 0 13.86 0 21 0 C25 7 25 7 25 9 C28.63 9 32.26 9 36 9 C36.66 7.35 37.32 5.7 38 4 C38.66 2.68 39.32 1.36 40 0 C43.96 0 47.92 0 52 0 C56 6.75 56 6.75 56 9 C59.63 9 63.26 9 67 9 C67.66 7.35 68.32 5.7 69 4 C69.66 2.68 70.32 1.36 71 0 C77.93 0 84.86 0 92 0 C87.312 9.668 87.312 9.668 86.253 11.633 C85.284 13.464 84.393 15.336 83.536 17.222 C78.898 26.31 78.898 26.31 73.848 28.145 C70.005 28.504 66.282 28.466 62.438 28.27 C61.037 28.245 59.635 28.227 58.234 28.214 C54.569 28.164 50.909 28.037 47.246 27.893 C43.5 27.759 39.752 27.7 36.004 27.635 C28.666 27.496 21.334 27.274 14 27 C13.54 26.068 13.081 25.137 12.607 24.177 C9.588 18.081 6.579 12.016 3.062 6.188 C0 1.092 0 1.092 0 0 Z " fill="#505151" transform="translate(64,144)"/>
<path d="M0 0 C3.553 0.137 7.074 0.084 10.627 -0.022 C31.19 -0.53 31.19 -0.53 37.664 4.793 C41.624 9.526 44.222 14.741 46.352 20.51 C47.141 22.776 47.141 22.776 48.298 24.863 C49.189 26.758 49.189 26.758 49.189 29.758 C42.589 29.758 35.989 29.758 29.189 29.758 C27.869 27.118 26.549 24.478 25.189 21.758 C22.424 20.593 22.424 20.593 19.439 20.758 C18.454 20.738 17.47 20.717 16.455 20.696 C15.333 20.727 15.333 20.727 14.189 20.758 C13.756 21.872 13.756 21.872 13.314 23.008 C12.375 25.303 11.298 27.541 10.189 29.758 C6.229 29.758 2.269 29.758 -1.811 29.758 C-2.244 28.459 -2.677 27.16 -3.123 25.821 C-4.097 23.545 -4.097 23.545 -5.811 21.758 C-9.49 20.737 -13.008 20.653 -16.811 20.758 C-17.079 21.501 -17.347 22.243 -17.623 23.008 C-19.786 28.017 -19.786 28.017 -21.811 29.758 C-25.051 30.256 -28.23 30.133 -31.498 30.008 C-32.391 29.99 -33.284 29.972 -34.203 29.954 C-36.407 29.906 -38.608 29.841 -40.811 29.758 C-36.534 5.564 -22.726 -0.882 0 0 Z " fill="#505151" transform="translate(105.810791015625,60.24169921875)"/>
<path d="M0 0 C0.66 0.33 1.32 0.66 2 1 C8.27 1.33 14.54 1.66 21 2 C21 19.82 21 37.64 21 56 C-2.007 57.15 -2.007 57.15 -10.25 56.562 C-11.114 56.51 -11.977 56.458 -12.867 56.404 C-14.912 56.279 -16.956 56.141 -19 56 C-17.987 53.892 -16.967 51.788 -15.938 49.688 C-15.472 48.738 -15.472 48.738 -14.998 47.77 C-12.457 42.687 -9.495 38.029 -6.188 33.402 C-4.82 31.1 -4.82 31.1 -5.043 28.68 C-6.384 24.924 -8.295 21.618 -10.312 18.188 C-11.102 16.828 -11.89 15.467 -12.676 14.105 C-13.2 13.211 -13.2 13.211 -13.736 12.298 C-15.594 8.92 -17.276 5.448 -19 2 C-12.73 2 -6.46 2 0 2 C0 1.34 0 0.68 0 0 Z " fill="#CBCCCC" transform="translate(155,88)"/>
<path d="M0 0 C2.824 -0.032 5.365 0.174 8.133 0.715 C10.627 3.529 12.251 6.034 13.133 9.715 C11.602 14.51 8.882 18.537 6.133 22.715 C4.784 24.872 3.45 27.038 2.133 29.215 C1.535 30.153 0.937 31.092 0.32 32.059 C-1.126 35.293 -0.839 36.358 0.133 39.715 C1.511 42.296 1.511 42.296 3.25 44.883 C3.856 45.859 4.462 46.836 5.086 47.842 C6.365 49.879 7.67 51.9 9 53.904 C10.801 56.864 12.221 59.368 13.133 62.715 C12.122 66.806 10.54 69.156 8.133 72.715 C4.503 72.715 0.873 72.715 -2.867 72.715 C-3.331 71.898 -3.795 71.081 -4.272 70.24 C-6.008 67.186 -7.745 64.133 -9.483 61.082 C-10.233 59.765 -10.982 58.448 -11.729 57.13 C-12.81 55.228 -13.893 53.327 -14.977 51.426 C-15.626 50.284 -16.275 49.143 -16.944 47.966 C-18.82 44.665 -18.82 44.665 -21.173 41.608 C-22.867 38.715 -22.867 38.715 -22.772 36.131 C-21.827 33.607 -20.748 31.384 -19.391 29.055 C-18.888 28.184 -18.386 27.312 -17.869 26.415 C-17.332 25.503 -16.795 24.592 -16.242 23.652 C-11.839 16.286 -11.839 16.286 -7.902 8.668 C-4.17 1.04 -4.17 1.04 0 0 Z " fill="#03B6E0" transform="translate(91.8671875,80.28515625)"/>
<path d="M0 0 C6.605 -0.274 6.605 -0.274 9.402 2.164 C11.055 4.592 12.374 7.1 13.73 9.707 C14.523 11.039 15.323 12.367 16.129 13.691 C16.977 15.112 17.823 16.534 18.668 17.957 C19.29 18.985 19.29 18.985 19.924 20.033 C20.302 20.694 20.681 21.354 21.07 22.035 C21.586 22.915 21.586 22.915 22.113 23.813 C23.276 27.381 22.021 30.107 20.439 33.37 C19.906 34.301 19.373 35.232 18.824 36.191 C18.245 37.208 17.667 38.226 17.07 39.273 C16.463 40.324 15.856 41.375 15.23 42.457 C14.623 43.523 14.016 44.589 13.391 45.688 C8.326 54.542 8.326 54.542 5.727 55.262 C2.678 55.643 0.678 55.634 -2.27 54.707 C-5.293 51.345 -7.295 47.587 -9.31 43.577 C-10.264 41.717 -11.291 39.924 -12.355 38.125 C-17.358 29.474 -17.358 29.474 -16.991 26.309 C-16.248 23.631 -15.275 21.596 -13.871 19.203 C-13.392 18.38 -12.912 17.557 -12.418 16.709 C-11.915 15.863 -11.412 15.016 -10.895 14.145 C-10.4 13.294 -9.905 12.444 -9.395 11.568 C-3.191 0.994 -3.191 0.994 0 0 Z " fill="#D2D4D5" transform="translate(107.26953125,89.29296875)"/>
<path d="M0 0 C0.33 0.66 0.66 1.32 1 2 C7.27 2 13.54 2 20 2 C18.524 5.689 17.234 8.42 15.145 11.688 C14.605 12.551 14.066 13.415 13.51 14.305 C12.375 16.107 11.232 17.904 10.08 19.695 C9.544 20.559 9.009 21.423 8.457 22.312 C7.962 23.092 7.467 23.872 6.956 24.676 C5.733 27.65 6.003 28.964 7 32 C7.914 33.862 8.901 35.689 9.941 37.484 C10.525 38.501 11.108 39.519 11.709 40.566 C12.321 41.617 12.932 42.668 13.562 43.75 C14.774 45.848 15.984 47.947 17.191 50.047 C17.73 50.973 18.268 51.9 18.823 52.854 C20 55 20 55 20 56 C9.605 56.495 9.605 56.495 -1 57 C-1.846 55.247 -2.691 53.494 -3.562 51.688 C-6.198 46.384 -9.16 41.467 -12.484 36.57 C-14.195 33.669 -15.247 31.293 -16 28 C-14.974 25.179 -14.974 25.179 -13.203 22.305 C-12.574 21.259 -11.945 20.214 -11.297 19.137 C-10.621 18.06 -9.946 16.984 -9.25 15.875 C-7.942 13.727 -6.635 11.578 -5.328 9.43 C-4.739 8.483 -4.151 7.537 -3.544 6.562 C-2.247 4.41 -1.08 2.266 0 0 Z " fill="#D9DADA" transform="translate(64,88)"/>
<path d="M0 0 C2.824 -0.032 5.365 0.174 8.133 0.715 C7.671 1.517 7.21 2.318 6.734 3.145 C2.793 10.014 -1.095 16.91 -4.93 23.84 C-6.573 26.8 -8.219 29.758 -9.867 32.715 C-10.408 33.689 -10.408 33.689 -10.96 34.684 C-11.921 36.407 -12.894 38.124 -13.867 39.84 C-14.403 40.791 -14.94 41.743 -15.492 42.723 C-15.946 43.38 -16.4 44.037 -16.867 44.715 C-17.527 44.715 -18.187 44.715 -18.867 44.715 C-22.96 39.686 -22.96 39.686 -22.635 36.299 C-21.835 33.605 -20.804 31.481 -19.391 29.055 C-18.888 28.184 -18.386 27.312 -17.869 26.415 C-17.332 25.503 -16.795 24.592 -16.242 23.652 C-11.839 16.286 -11.839 16.286 -7.902 8.668 C-4.17 1.04 -4.17 1.04 0 0 Z " fill="#058BAA" transform="translate(91.8671875,80.28515625)"/>
<path d="M0 0 C4.091 -1.353 6.948 -1.573 11 0 C15.225 4.78 17.925 10.795 20.733 16.476 C22.696 20.387 24.846 24.192 27 28 C26.34 28 25.68 28 25 28 C24.34 29.98 23.68 31.96 23 34 C21.68 34 20.36 34 19 34 C18.42 32.961 17.84 31.922 17.242 30.852 C12.079 21.61 12.079 21.61 6.688 12.5 C4.214 8.435 2.064 4.287 0 0 Z " fill="#34C3E6" transform="translate(120,81)"/>
<path d="M0 0 C3.3 0 6.6 0 10 0 C9.127 3.492 8.249 5.585 6.488 8.633 C5.977 9.522 5.466 10.412 4.939 11.328 C4.403 12.251 3.866 13.174 3.312 14.125 C2.795 15.025 2.277 15.925 1.744 16.852 C-1.769 22.942 -5.364 28.982 -9 35 C-5.7 35 -2.4 35 1 35 C1 35.33 1 35.66 1 36 C-2.63 36 -6.26 36 -10 36 C-12.574 32.379 -14.081 30.25 -15 26 C-13.459 20.94 -10.688 16.758 -7.812 12.375 C-7.063 11.17 -6.318 9.963 -5.576 8.754 C-3.759 5.809 -1.894 2.897 0 0 Z " fill="#058CAB" transform="translate(130,117)"/>
<path d="M0 0 C3.919 4.61 6.847 10.07 9.938 15.25 C10.578 16.262 11.218 17.274 11.877 18.316 C16.257 25.746 16.257 25.746 15.485 29.518 C14.477 31.538 13.423 33.252 12 35 C11.01 35 10.02 35 9 35 C8.524 34.105 8.524 34.105 8.039 33.191 C4.736 27.05 1.286 21.01 -2.25 15 C-2.686 14.258 -3.122 13.516 -3.572 12.752 C-5.324 9.785 -7.087 6.869 -9 4 C-9 3.01 -9 2.02 -9 1 C-7.567 0.724 -6.128 0.48 -4.688 0.25 C-3.887 0.111 -3.086 -0.028 -2.262 -0.172 C-1.515 -0.115 -0.769 -0.058 0 0 Z " fill="#35C5E7" transform="translate(89,116)"/>
<path d="M0 0 C0.33 0 0.66 0 1 0 C1 27.72 1 55.44 1 84 C0.67 84 0.34 84 0 84 C0 56.28 0 28.56 0 0 Z " fill="#373E89" transform="translate(9,75)"/>
<path d="M0 0 C0.33 0 0.66 0 1 0 C1 26.07 1 52.14 1 79 C0.67 79 0.34 79 0 79 C0 52.93 0 26.86 0 0 Z " fill="#384185" transform="translate(211,78)"/>
<path d="M0 0 C2.104 -0.054 4.208 -0.093 6.312 -0.125 C8.07 -0.16 8.07 -0.16 9.863 -0.195 C13 0 13 0 16 2 C10.72 1.67 5.44 1.34 0 1 C0 0.67 0 0.34 0 0 Z " fill="#0750A7" transform="translate(104,6)"/>
<path d="M0 0 C0.66 0.33 1.32 0.66 2 1 C-0.97 3.475 -0.97 3.475 -4 6 C-2.848 3.532 -1.952 1.952 0 0 Z " fill="#002ED0" transform="translate(24,50)"/>
<path d="M0 0 C0.33 0.66 0.66 1.32 1 2 C0.01 3.485 0.01 3.485 -1 5 C-0.67 3.35 -0.34 1.7 0 0 Z " fill="#004EB1" transform="translate(12,67)"/>
<path d="M0 0 C0.33 0 0.66 0 1 0 C1 1.65 1 3.3 1 5 C0.67 5 0.34 5 0 5 C0 3.35 0 1.7 0 0 Z " fill="#1933B2" transform="translate(210,157)"/>
<path d="M0 0 C0.33 0 0.66 0 1 0 C1 1.65 1 3.3 1 5 C0.67 5 0.34 5 0 5 C0 3.35 0 1.7 0 0 Z " fill="#0C51A1" transform="translate(210,73)"/>
<path d="M0 0 C4 1 4 1 4 1 Z " fill="#20409F" transform="translate(100,7)"/>
<path d="M0 0 C3 1 3 1 3 1 Z " fill="#2A2AAA" transform="translate(98,226)"/>
<path d="" fill="#0047B8" transform="translate(0,0)"/>
<path d="" fill="#0047B8" transform="translate(0,0)"/>
<path d="" fill="#1531B8" transform="translate(0,0)"/>
<path d="" fill="#1531B8" transform="translate(0,0)"/>
<path d="" fill="#155C8E" transform="translate(0,0)"/>
<path d="" fill="#1540AA" transform="translate(0,0)"/>
<path d="" fill="#0047B8" transform="translate(0,0)"/>
<path d="M0 0 C3 1 3 1 3 1 Z " fill="#0047B8" transform="translate(121,8)"/>
<path d="M0 0 C2 1 2 1 2 1 Z " fill="#006A95" transform="translate(93,224)"/>
<path d="M0 0 C2 1 2 1 2 1 Z " fill="#006A95" transform="translate(128,223)"/>
<path d="M0 0 C2 1 2 1 2 1 Z " fill="#008080" transform="translate(173,197)"/>
<path d="M0 0 C2 1 2 1 2 1 Z " fill="#008080" transform="translate(185,190)"/>
<path d="" fill="#002AD4" transform="translate(0,0)"/>
<path d="" fill="#0040BF" transform="translate(0,0)"/>
<path d="" fill="#002AD4" transform="translate(0,0)"/>
<path d="" fill="#002AD4" transform="translate(0,0)"/>
<path d="" fill="#008080" transform="translate(0,0)"/>
<path d="" fill="#002AD4" transform="translate(0,0)"/>
<path d="" fill="#206080" transform="translate(0,0)"/>
<path d="" fill="#2020BF" transform="translate(0,0)"/>
<path d="" fill="#002AD4" transform="translate(0,0)"/>
<path d="" fill="#008080" transform="translate(0,0)"/>
<path d="" fill="#002AD4" transform="translate(0,0)"/>
<path d="" fill="#002AD4" transform="translate(0,0)"/>
<path d="M0 0 C2 1 2 1 2 1 Z " fill="#006A95" transform="translate(38,41)"/>
<path d="M0 0 C2 1 2 1 2 1 Z " fill="#002AD4" transform="translate(172,36)"/>
<path d="M0 0 C2 1 2 1 2 1 Z " fill="#008080" transform="translate(165,32)"/>
<path d="M0 0 C2 1 2 1 2 1 Z " fill="#002AD4" transform="translate(160,29)"/>
<path d="M0 0 C2 1 2 1 2 1 Z " fill="#006A95" transform="translate(83,15)"/>
<path d="M0 0 C2 1 2 1 2 1 Z " fill="#008080" transform="translate(88,12)"/>
<path d="M0 0 C2 1 2 1 2 1 Z " fill="#008080" transform="translate(90,11)"/>
<path d="M0 0 C2 1 2 1 2 1 Z " fill="#006A95" transform="translate(92,10)"/>
<path d="" fill="#0055AA" transform="translate(0,0)"/>
<path d="" fill="#008080" transform="translate(0,0)"/>
<path d="" fill="#0055AA" transform="translate(0,0)"/>
<path d="" fill="#008080" transform="translate(0,0)"/>
<path d="" fill="#0055AA" transform="translate(0,0)"/>
<path d="" fill="#008080" transform="translate(0,0)"/>
<path d="" fill="#0055AA" transform="translate(0,0)"/>
<path d="" fill="#008080" transform="translate(0,0)"/>
<path d="" fill="#0055AA" transform="translate(0,0)"/>
<path d="" fill="#0000FF" transform="translate(0,0)"/>
<path d="" fill="#0055AA" transform="translate(0,0)"/>
<path d="" fill="#008080" transform="translate(0,0)"/>
<path d="" fill="#0055AA" transform="translate(0,0)"/>
<path d="" fill="#008080" transform="translate(0,0)"/>
<path d="" fill="#0055AA" transform="translate(0,0)"/>
<path d="" fill="#008080" transform="translate(0,0)"/>
<path d="" fill="#008080" transform="translate(0,0)"/>
<path d="" fill="#0055AA" transform="translate(0,0)"/>
<path d="" fill="#0055AA" transform="translate(0,0)"/>
<path d="" fill="#0055AA" transform="translate(0,0)"/>
<path d="" fill="#0055AA" transform="translate(0,0)"/>
<path d="" fill="#0055AA" transform="translate(0,0)"/>
<path d="" fill="#008080" transform="translate(0,0)"/>
<path d="" fill="#0000FF" transform="translate(0,0)"/>
<path d="" fill="#0055AA" transform="translate(0,0)"/>
<path d="" fill="#0055AA" transform="translate(0,0)"/>
<path d="" fill="#404080" transform="translate(0,0)"/>
<path d="" fill="#0055AA" transform="translate(0,0)"/>
<path d="" fill="#0055AA" transform="translate(0,0)"/>
<path d="" fill="#404080" transform="translate(0,0)"/>
<path d="" fill="#0055AA" transform="translate(0,0)"/>
<path d="" fill="#0055AA" transform="translate(0,0)"/>
<path d="" fill="#0055AA" transform="translate(0,0)"/>
<path d="" fill="#0055AA" transform="translate(0,0)"/>
</svg>