<?xml version="1.0" encoding="UTF-8" standalone="no"?><!-- Generator: Gravit.io --><svg xmlns="http://www.w3.org/2000/svg" xmlns:xlink="http://www.w3.org/1999/xlink" style="isolation:isolate" viewBox="0 0 752 752" width="752pt" height="752pt"><defs><clipPath id="_clipPath_dfuq3eGzz98cz8wVVZZbdGA1ni6iOg5h"><rect width="752" height="752"/></clipPath></defs><g clip-path="url(#_clipPath_dfuq3eGzz98cz8wVVZZbdGA1ni6iOg5h)"><defs><filter id="FMp5uYuCGyV32gjFQWtvNK3K9tgte2kY" x="-200%" y="-200%" width="400%" height="400%" filterUnits="objectBoundingBox" color-interpolation-filters="sRGB"><feGaussianBlur xmlns="http://www.w3.org/2000/svg" stdDeviation="12.880827188517085"/></filter></defs><g filter="url(#FMp5uYuCGyV32gjFQWtvNK3K9tgte2kY)"><linearGradient id="_lgradient_2" x1="0" y1="0.5000008238962355" x2="1" y2="0.5000008238962355" gradientTransform="matrix(394,0,0,413.762,199,213)" gradientUnits="userSpaceOnUse"><stop offset="0%" stop-opacity="1" style="stop-color:rgb(45,255,249)"/><stop offset="50.83333333333333%" stop-opacity="1" style="stop-color:rgb(45,197,255)"/><stop offset="98.75%" stop-opacity="1" style="stop-color:rgb(147,0,255)"/></linearGradient><path d=" M 199 237.702 C 218.63 221.31 273.398 213.088 363.27 213 C 448.278 215.022 497.695 223.269 511.483 237.702 C 485.854 277.071 219.071 279.233 199 237.702 Z  M 200.235 257.464 L 201.47 325.395 C 235.745 352.259 475.047 352.876 509.013 322.925 L 509.013 258.699 C 475.973 280.931 243.155 288.342 200.235 257.464 Z  M 200.853 339.901 L 202.088 407.832 C 236.362 434.696 475.665 435.314 509.63 405.362 L 509.63 341.136 C 476.591 363.368 243.773 370.779 200.853 339.901 Z  M 393.533 522.469 C 316.239 526.004 225.455 521.08 200.235 502.936 L 201.47 570.867 C 222.845 587.621 323.962 594.166 405.284 589.455 C 399.705 580.136 388.281 556.978 393.533 522.469 Z  M 452.522 435.453 C 370.887 445.256 233.453 443.509 201.47 420.498 L 202.705 488.429 C 223.09 504.406 315.991 511.099 395.088 507.6 C 404.337 485.65 411.13 459.713 452.522 435.453 Z  M 413.909 537.216 C 413.909 487.795 454.033 447.671 503.455 447.671 C 552.876 447.671 593 487.795 593 537.216 C 593 586.638 552.876 626.762 503.455 626.762 C 454.033 626.762 413.909 586.638 413.909 537.216 Z  M 499.683 525.327 L 499.683 555.414 L 491.307 555.414 L 503.404 571.544 L 512.089 555.414 L 505.265 555.414 L 505.265 525.327 L 499.683 525.327 Z  M 475.178 576.816 C 439.198 578.988 436.097 534.632 464.943 525.327 C 480.637 495.457 526.941 500.723 533.801 516.337 C 575.881 517.263 565.753 578.222 531.01 575.885 L 475.178 576.816 Z " fill-rule="evenodd" fill="url(#_lgradient_2)" fill-opacity="0.7"/></g><linearGradient id="_lgradient_3" x1="0" y1="0.5000008238962355" x2="1" y2="0.5000008238962355" gradientTransform="matrix(394,0,0,413.762,199,213)" gradientUnits="userSpaceOnUse"><stop offset="0%" stop-opacity="1" style="stop-color:rgb(45,255,249)"/><stop offset="50.83333333333333%" stop-opacity="1" style="stop-color:rgb(45,197,255)"/><stop offset="98.75%" stop-opacity="1" style="stop-color:rgb(147,0,255)"/></linearGradient><path d=" M 199 237.702 C 218.63 221.31 273.398 213.088 363.27 213 C 448.278 215.022 497.695 223.269 511.483 237.702 C 485.854 277.071 219.071 279.233 199 237.702 Z  M 200.235 257.464 L 201.47 325.395 C 235.745 352.259 475.047 352.876 509.013 322.925 L 509.013 258.699 C 475.973 280.931 243.155 288.342 200.235 257.464 Z  M 200.853 339.901 L 202.088 407.832 C 236.362 434.696 475.665 435.314 509.63 405.362 L 509.63 341.136 C 476.591 363.368 243.773 370.779 200.853 339.901 Z  M 393.533 522.469 C 316.239 526.004 225.455 521.08 200.235 502.936 L 201.47 570.867 C 222.845 587.621 323.962 594.166 405.284 589.455 C 399.705 580.136 388.281 556.978 393.533 522.469 Z  M 452.522 435.453 C 370.887 445.256 233.453 443.509 201.47 420.498 L 202.705 488.429 C 223.09 504.406 315.991 511.099 395.088 507.6 C 404.337 485.65 411.13 459.713 452.522 435.453 Z  M 413.909 537.216 C 413.909 487.795 454.033 447.671 503.455 447.671 C 552.876 447.671 593 487.795 593 537.216 C 593 586.638 552.876 626.762 503.455 626.762 C 454.033 626.762 413.909 586.638 413.909 537.216 Z  M 499.683 525.327 L 499.683 555.414 L 491.307 555.414 L 503.404 571.544 L 512.089 555.414 L 505.265 555.414 L 505.265 525.327 L 499.683 525.327 Z  M 475.178 576.816 C 439.198 578.988 436.097 534.632 464.943 525.327 C 480.637 495.457 526.941 500.723 533.801 516.337 C 575.881 517.263 565.753 578.222 531.01 575.885 L 475.178 576.816 Z " fill-rule="evenodd" fill="url(#_lgradient_3)"/></g></svg>