
<!-- Generator: visioncortex VTracer 0.6.4 -->
<svg version="1.1" xmlns="http://www.w3.org/2000/svg" viewBox="0 0 129 125" preserveAspectRatio="xMidYMid meet">
<path d="M0 0 C3.404 2.377 6.217 5.237 8.941 8.355 C9.436 7.634 9.931 6.912 10.441 6.168 C14.955 1.09 20.534 -2.374 27.383 -2.918 C37.11 -3.259 44.426 -2.562 51.996 4.188 C59.836 12.434 60.401 20.791 60.375 31.727 C60.38 33.003 60.385 34.28 60.391 35.596 C60.397 38.288 60.397 40.98 60.387 43.672 C60.376 47.099 60.396 50.526 60.425 53.953 C60.448 57.252 60.441 60.552 60.438 63.852 C60.449 65.071 60.46 66.29 60.472 67.546 C60.402 76.069 58.686 81.816 54.316 89.043 C46.861 96.303 39.266 98.736 29.113 98.637 C21.517 97.963 15.285 94.699 9.941 89.355 C9.941 88.695 9.941 88.035 9.941 87.355 C9.312 87.898 8.683 88.441 8.035 89 C-0.262 95.935 -6.092 99.03 -17.035 98.699 C-25.541 97.732 -32.439 93.767 -38.059 87.355 C-41.851 81.573 -43.168 75.953 -43.22 69.065 C-43.229 68.034 -43.239 67.002 -43.249 65.939 C-43.253 64.834 -43.257 63.729 -43.262 62.59 C-43.267 61.442 -43.273 60.294 -43.279 59.111 C-43.288 56.684 -43.295 54.256 -43.299 51.829 C-43.309 48.133 -43.34 44.438 -43.371 40.742 C-43.378 38.379 -43.383 36.016 -43.387 33.652 C-43.405 32.007 -43.405 32.007 -43.424 30.328 C-43.396 20.528 -41.589 11.983 -34.492 4.762 C-25.086 -3.824 -11.636 -6.116 0 0 Z " fill="#141936" transform="translate(56.05859375,16.64453125)"/>
<path d="M0 0 C3.404 2.377 6.217 5.237 8.941 8.355 C9.436 7.634 9.931 6.912 10.441 6.168 C15.048 0.985 20.651 -2.401 27.629 -2.918 C29.066 -2.958 30.504 -2.991 31.941 -3.02 C32.666 -3.057 33.39 -3.094 34.137 -3.133 C36.254 -3.168 36.254 -3.168 39.941 -2.645 C41.957 -0.228 42.941 1.189 42.941 4.355 C41.456 4.303 41.456 4.303 39.941 4.25 C27.238 3.886 27.238 3.886 16.504 10.168 C12.396 15.311 12.959 22.065 12.941 28.355 C13.426 27.931 13.911 27.507 14.41 27.07 C15.821 25.836 17.235 24.606 18.652 23.379 C20.144 22.061 21.609 20.713 23.043 19.332 C28.111 14.538 28.111 14.538 32.066 13.668 C36.694 14.775 39.73 16.894 42.754 20.543 C43.922 23.309 44.039 24.801 44.129 27.73 C44.349 30.863 44.701 32.076 46.777 34.492 C48.757 36.204 50.844 37.79 52.941 39.355 C52.941 32.755 52.941 26.155 52.941 19.355 C53.271 19.355 53.601 19.355 53.941 19.355 C53.941 26.285 53.941 33.215 53.941 40.355 C52.456 40.85 52.456 40.85 50.941 41.355 C50.446 42.345 50.446 42.345 49.941 43.355 C50.601 43.355 51.261 43.355 51.941 43.355 C51.941 44.015 51.941 44.675 51.941 45.355 C51.281 45.355 50.621 45.355 49.941 45.355 C49.446 46.345 49.446 46.345 48.941 47.355 C47.935 46.403 46.937 45.444 45.941 44.48 C45.385 43.947 44.828 43.413 44.254 42.863 C42.941 41.355 42.941 41.355 42.941 39.355 C42.281 39.355 41.621 39.355 40.941 39.355 C40.281 38.365 39.621 37.375 38.941 36.355 C34.286 36.821 32.366 38.485 29.184 41.828 C28.311 42.727 27.438 43.626 26.539 44.553 C25.641 45.498 24.742 46.444 23.816 47.418 C22.029 49.29 20.235 51.157 18.434 53.016 C17.643 53.847 16.853 54.679 16.039 55.535 C13.941 57.355 13.941 57.355 10.941 57.355 C10.941 64.615 10.941 71.875 10.941 79.355 C8.961 79.85 8.961 79.85 6.941 80.355 C5.862 73.742 5.972 67.324 6.199 60.648 C6.261 57.387 6.261 57.387 4.434 55.531 C3.941 55.143 3.449 54.755 2.941 54.355 C2.941 53.695 2.941 53.035 2.941 52.355 C2.343 52.129 1.745 51.902 1.129 51.668 C-1.63 50.013 -2.552 48.154 -4.059 45.355 C-5.077 44.174 -5.077 44.174 -7.059 43.793 C-9.059 42.355 -9.059 42.355 -9.543 40.445 C-9.786 38.423 -9.927 36.388 -10.059 34.355 C-11.379 34.355 -12.699 34.355 -14.059 34.355 C-14.059 33.695 -14.059 33.035 -14.059 32.355 C-14.719 32.355 -15.379 32.355 -16.059 32.355 C-16.059 33.015 -16.059 33.675 -16.059 34.355 C-16.719 34.355 -17.379 34.355 -18.059 34.355 C-18.389 33.365 -18.719 32.375 -19.059 31.355 C-19.719 31.355 -20.379 31.355 -21.059 31.355 C-21.059 32.015 -21.059 32.675 -21.059 33.355 C-21.719 33.355 -22.379 33.355 -23.059 33.355 C-23.059 34.345 -23.059 35.335 -23.059 36.355 C-23.966 36.108 -24.874 35.86 -25.809 35.605 C-29.147 34.973 -29.147 34.973 -31.434 37.293 C-31.97 37.974 -32.506 38.654 -33.059 39.355 C-34.049 39.025 -35.039 38.695 -36.059 38.355 C-36.176 35.168 -36.246 31.982 -36.309 28.793 C-36.359 27.45 -36.359 27.45 -36.41 26.08 C-36.5 19.926 -35.589 16.422 -32.059 11.355 C-33.049 11.355 -34.039 11.355 -35.059 11.355 C-35.059 12.675 -35.059 13.995 -35.059 15.355 C-35.719 15.355 -36.379 15.355 -37.059 15.355 C-37.024 16.632 -36.989 17.908 -36.953 19.223 C-36.925 20.892 -36.898 22.561 -36.871 24.23 C-36.833 25.493 -36.833 25.493 -36.795 26.781 C-36.785 27.587 -36.776 28.393 -36.766 29.223 C-36.75 29.966 -36.734 30.71 -36.718 31.476 C-36.83 32.096 -36.943 32.716 -37.059 33.355 C-38.049 34.015 -39.039 34.675 -40.059 35.355 C-40.119 34.319 -40.18 33.283 -40.242 32.215 C-40.327 30.845 -40.411 29.475 -40.496 28.105 C-40.535 27.424 -40.575 26.742 -40.615 26.039 C-40.862 22.041 -40.862 22.041 -41.715 18.141 C-42.354 14.82 -40.362 12.447 -38.711 9.672 C-29.863 -2.732 -13.913 -7.313 0 0 Z " fill="#161D3D" transform="translate(56.05859375,16.64453125)"/>
<path d="M0 0 C0.436 0.41 0.871 0.82 1.32 1.242 C5.044 4.611 8.008 6.782 13 8 C13 6.35 13 4.7 13 3 C17.527 3.478 19.417 4.971 22.5 8.25 C23.279 9.063 24.057 9.877 24.859 10.715 C25.919 11.846 25.919 11.846 27 13 C29.517 15.574 31.933 17.947 34.75 20.188 C37 22 37 22 38 24 C38.516 30.085 37.97 34.216 34 39 C26.974 44.449 20.657 44.727 12 44 C6.031 42.339 2.473 39.005 -1 34 C-3.913 27.996 -3.33 21.852 -3.312 15.312 C-3.337 13.44 -3.337 13.44 -3.361 11.529 C-3.362 10.34 -3.363 9.151 -3.363 7.926 C-3.366 6.837 -3.369 5.748 -3.372 4.626 C-3.249 3.76 -3.127 2.893 -3 2 C-2.01 1.34 -1.02 0.68 0 0 Z " fill="#F98601" transform="translate(23,64)"/>
<path d="M0 0 C1.073 -0.049 1.073 -0.049 2.168 -0.1 C4.258 -0.121 4.258 -0.121 7.875 0.438 C9.879 2.854 10.875 4.277 10.875 7.438 C9.39 7.385 9.39 7.385 7.875 7.332 C-4.828 6.968 -4.828 6.968 -15.562 13.25 C-19.67 18.393 -19.108 25.147 -19.125 31.438 C-18.64 31.013 -18.156 30.589 -17.656 30.152 C-16.246 28.918 -14.831 27.688 -13.414 26.461 C-11.923 25.143 -10.457 23.795 -9.023 22.414 C-3.956 17.62 -3.956 17.62 0 16.75 C4.627 17.857 7.664 19.976 10.688 23.625 C11.855 26.391 11.973 27.883 12.062 30.812 C12.283 33.945 12.635 35.158 14.711 37.574 C16.69 39.286 18.777 40.873 20.875 42.438 C20.875 35.837 20.875 29.237 20.875 22.438 C21.205 22.438 21.535 22.438 21.875 22.438 C21.875 29.367 21.875 36.297 21.875 43.438 C20.885 43.767 19.895 44.097 18.875 44.438 C18.38 45.427 18.38 45.427 17.875 46.438 C18.535 46.438 19.195 46.438 19.875 46.438 C19.875 47.097 19.875 47.758 19.875 48.438 C19.215 48.438 18.555 48.438 17.875 48.438 C17.38 49.427 17.38 49.427 16.875 50.438 C15.869 49.485 14.87 48.526 13.875 47.562 C13.318 47.029 12.761 46.495 12.188 45.945 C10.875 44.438 10.875 44.438 10.875 42.438 C10.215 42.438 9.555 42.438 8.875 42.438 C8.215 41.447 7.555 40.458 6.875 39.438 C2.219 39.903 0.3 41.567 -2.883 44.91 C-3.756 45.809 -4.628 46.708 -5.527 47.635 C-6.426 48.58 -7.324 49.526 -8.25 50.5 C-10.037 52.373 -11.831 54.239 -13.633 56.098 C-14.818 57.345 -14.818 57.345 -16.028 58.617 C-18.125 60.438 -18.125 60.438 -21.125 60.438 C-21.125 67.698 -21.125 74.957 -21.125 82.438 C-23.105 82.933 -23.105 82.933 -25.125 83.438 C-26.205 76.824 -26.095 70.406 -25.867 63.73 C-25.805 60.469 -25.805 60.469 -27.633 58.613 C-28.125 58.225 -28.618 57.837 -29.125 57.438 C-29.125 56.778 -29.125 56.118 -29.125 55.438 C-29.723 55.211 -30.321 54.984 -30.938 54.75 C-33.696 53.095 -34.618 51.236 -36.125 48.438 C-37.143 47.256 -37.143 47.256 -39.125 46.875 C-41.125 45.438 -41.125 45.438 -41.609 43.527 C-41.852 41.505 -41.994 39.47 -42.125 37.438 C-36.837 41.806 -32.177 46.486 -27.555 51.559 C-25.335 53.684 -25.335 53.684 -22.834 53.38 C-19.222 52.123 -16.987 49.892 -14.352 47.23 C-13.824 46.709 -13.296 46.187 -12.752 45.649 C-11.642 44.547 -10.538 43.44 -9.439 42.328 C-7.75 40.625 -6.039 38.948 -4.324 37.271 C-3.249 36.197 -2.174 35.121 -1.102 34.043 C-0.587 33.542 -0.073 33.041 0.457 32.524 C2.047 30.95 2.047 30.95 3.875 28.438 C3.835 26.134 3.835 26.134 2.875 24.438 C0.027 23.88 -1.359 23.708 -4.125 24.438 C-7.786 27.112 -10.942 30.218 -14.125 33.438 C-14.87 34.1 -15.615 34.763 -16.383 35.445 C-18.431 37.788 -18.664 38.997 -18.812 42.062 C-19.059 46.306 -19.059 46.306 -20.125 48.438 C-22.125 48.48 -24.125 48.478 -26.125 48.438 C-27.75 46.813 -27.442 44.862 -27.625 42.625 C-27.887 39.454 -28.267 36.504 -29.125 33.438 C-27.805 33.438 -26.485 33.438 -25.125 33.438 C-25.62 24.032 -25.62 24.032 -26.125 14.438 C-24.805 14.108 -23.485 13.777 -22.125 13.438 C-22.125 12.736 -22.125 12.035 -22.125 11.312 C-20.353 6.219 -15.528 3.66 -10.867 1.289 C-7.244 0.164 -3.759 0.031 0 0 Z " fill="#0C1236" transform="translate(88.125,13.5625)"/>
<path d="M0 0 C0.99 0 1.98 0 3 0 C1.125 4.75 1.125 4.75 0 7 C-0.084 8.521 -0.107 10.047 -0.098 11.57 C-0.094 12.466 -0.091 13.362 -0.088 14.285 C-0.08 15.222 -0.071 16.159 -0.062 17.125 C-0.058 18.07 -0.053 19.015 -0.049 19.988 C-0.037 22.326 -0.021 24.663 0 27 C2.468 25.848 4.048 24.952 6 23 C8.263 23.354 9.951 23.975 12 25 C12 24.01 12 23.02 12 22 C12.66 22 13.32 22 14 22 C14 21.34 14 20.68 14 20 C14.99 19.67 15.98 19.34 17 19 C17 20.32 17 21.64 17 23 C17.66 23 18.32 23 19 23 C19 22.34 19 21.68 19 21 C19.66 21 20.32 21 21 21 C21 21.66 21 22.32 21 23 C22.32 23 23.64 23 25 23 C26 26 27 29 28 32 C29.65 32.33 31.3 32.66 33 33 C32.505 33.99 32.505 33.99 32 35 C34.1 37.723 36.164 40.153 38.688 42.5 C42.145 46.238 42.13 49.924 42.098 54.863 C42.094 55.75 42.091 56.636 42.088 57.549 C42.075 58.917 42.075 58.917 42.062 60.312 C42.058 61.244 42.053 62.175 42.049 63.135 C42.037 65.423 42.021 67.712 42 70 C41.34 70 40.68 70 40 70 C39.752 70.784 39.505 71.567 39.25 72.375 C37.813 75.392 36.953 75.716 34 77 C34.361 76.466 34.722 75.933 35.094 75.383 C38.81 69.416 39.655 64.97 39 58 C38.08 57.567 38.08 57.567 37.141 57.125 C34.571 55.775 32.905 54.178 31 52 C31 51.34 31 50.68 31 50 C30.422 49.754 29.845 49.508 29.25 49.254 C25.871 47.371 23.608 44.594 21 41.777 C18.931 39.938 17.702 39.392 15 39 C15 40.65 15 42.3 15 44 C12.938 44.438 12.938 44.438 10 44 C7.427 41.879 5.207 39.494 3 37 C1.515 37.495 1.515 37.495 0 38 C-0.117 42.333 -0.188 46.666 -0.25 51 C-0.284 52.221 -0.317 53.441 -0.352 54.699 C-0.43 61.971 -0.089 66.896 4 73 C5.797 74.89 5.797 74.89 7.75 76 C8.822 76.66 9.895 77.32 11 78 C8.758 79.361 7.522 80.061 4.875 79.75 C2.414 78.766 1.27 77.6 0.184 75.188 C-1.767 69.468 -2.635 64.026 -3 58 C-3.33 58.66 -3.66 59.32 -4 60 C-4.66 60 -5.32 60 -6 60 C-6.33 60.66 -6.66 61.32 -7 62 C-7.051 54.507 -7.086 47.014 -7.11 39.521 C-7.12 36.971 -7.134 34.42 -7.151 31.87 C-7.175 28.209 -7.186 24.548 -7.195 20.887 C-7.206 19.743 -7.216 18.599 -7.227 17.421 C-7.227 15.829 -7.227 15.829 -7.227 14.206 C-7.231 13.271 -7.236 12.336 -7.241 11.373 C-7 9 -7 9 -5 6 C-4.67 11.61 -4.34 17.22 -4 23 C-2.486 21.486 -2.787 20.075 -2.684 17.965 C-2.642 17.156 -2.6 16.347 -2.557 15.514 C-2.498 14.238 -2.498 14.238 -2.438 12.938 C-2.373 11.656 -2.373 11.656 -2.307 10.35 C-2.2 8.233 -2.1 6.117 -2 4 C-1.34 4 -0.68 4 0 4 C0 2.68 0 1.36 0 0 Z " fill="#070B28" transform="translate(21,28)"/>
<path d="M0 0 C1.074 0.368 1.074 0.368 2.169 0.744 C2.499 1.734 2.829 2.724 3.169 3.744 C3.829 3.744 4.489 3.744 5.169 3.744 C6.895 5.424 6.895 5.424 8.794 7.619 C9.425 8.338 10.057 9.058 10.708 9.799 C12.169 11.744 12.169 11.744 12.169 13.744 C10.294 15.869 10.294 15.869 8.169 17.744 C7.509 17.744 6.849 17.744 6.169 17.744 C6.169 18.404 6.169 19.064 6.169 19.744 C5.241 19.868 5.241 19.868 4.294 19.994 C2.023 20.518 2.023 20.518 1.281 22.529 C-0.045 25.169 -1.669 26.841 -3.753 28.932 C-4.921 30.103 -4.921 30.103 -6.113 31.299 C-6.927 32.106 -7.742 32.913 -8.581 33.744 C-9.381 34.551 -10.18 35.358 -11.003 36.189 C-15.049 40.222 -18.911 43.824 -23.831 46.744 C-27.42 39.567 -27.193 29.2 -24.831 21.744 C-21.797 17.001 -18.197 13.129 -14.144 9.244 C-13.639 8.754 -13.134 8.264 -12.614 7.76 C-4.084 -0.369 -4.084 -0.369 0 0 Z " fill="#F5981A" transform="translate(93.831298828125,52.255859375)"/>
<path d="M0 0 C1.55 6.834 2.325 13.259 0 20 C-3.171 24.798 -6.905 28.794 -11 32.812 C-11.516 33.331 -12.032 33.85 -12.564 34.385 C-20.758 42.501 -20.758 42.501 -25.377 43.529 C-29.586 43.188 -32.556 41.329 -35.5 38.438 C-36.505 37.477 -36.505 37.477 -37.531 36.496 C-38.016 36.002 -38.501 35.509 -39 35 C-36.783 31.951 -34.424 29.426 -31.562 27 C-25.86 22.137 -20.667 16.753 -15.407 11.423 C-14.943 10.953 -14.478 10.484 -14 10 C-13.487 9.445 -12.975 8.891 -12.447 8.319 C-11 7 -11 7 -9 7 C-9 6.34 -9 5.68 -9 5 C-8.34 5 -7.68 5 -7 5 C-6.711 4.361 -6.422 3.721 -6.125 3.062 C-4.451 -0.006 -3.476 0 0 0 Z " fill="#07E977" transform="translate(109,65)"/>
<path d="M0 0 C4.797 1.954 8.656 4.815 11.566 9.148 C12.677 12.206 12.565 14.883 12.5 18.125 C12.482 19.295 12.464 20.466 12.445 21.672 C12.422 22.564 12.399 23.456 12.375 24.375 C7.774 22.451 4.97 19.03 1.594 15.469 C-1.36 12.681 -3.502 11.546 -7.5 10.938 C-10.809 11.401 -12.893 12.241 -15.395 14.492 C-17.545 17.783 -17.485 21.578 -17.926 25.414 C-19.029 30.086 -21.899 32.545 -25.625 35.375 C-26.615 35.045 -27.605 34.715 -28.625 34.375 C-29.811 13.282 -29.811 13.282 -24.484 7.004 C-16.669 0.157 -10.21 -1.76 0 0 Z " fill="#F50E63" transform="translate(48.625,20.625)"/>
<path d="M0 0 C4.25 2.974 6.594 6.634 8.238 11.566 C8.32 13.194 8.346 14.824 8.336 16.453 C8.333 17.391 8.329 18.329 8.326 19.295 C8.314 20.76 8.314 20.76 8.301 22.254 C8.296 23.242 8.292 24.23 8.287 25.248 C8.275 27.688 8.259 30.127 8.238 32.566 C4.403 30.743 1.907 28.956 -0.762 25.566 C-1.189 23.296 -1.327 21.09 -1.465 18.785 C-1.93 15.309 -3.523 13.189 -5.762 10.566 C-8.041 8.895 -9.738 8.571 -12.512 8.004 C-18.79 9.091 -22.826 14.598 -27.137 19.004 C-29.762 21.566 -29.762 21.566 -31.762 21.566 C-32.966 7.96 -32.966 7.96 -28.762 2.879 C-20.273 -5.081 -9.967 -5.441 0 0 Z " fill="#1785E9" transform="translate(100.76171875,23.43359375)"/>
<path d="M0 0 C4.83 0.475 6.42 1.982 9.812 5.375 C11.151 7.038 12.484 8.704 13.812 10.375 C14.699 10.932 15.586 11.489 16.5 12.062 C20.036 15.598 19.711 19.547 19.812 24.375 C21.793 24.705 23.773 25.035 25.812 25.375 C25.745 24.72 25.678 24.065 25.609 23.391 C25.524 18.361 26.101 14.868 29.445 11.043 C39.62 0.529 39.62 0.529 45.375 0.125 C48.812 0.375 48.812 0.375 50.812 2.375 C50.718 6.722 47.295 9.379 44.422 12.27 C43.609 13.097 43.609 13.097 42.781 13.941 C41.635 15.102 40.484 16.259 39.331 17.413 C37.567 19.183 35.828 20.976 34.09 22.771 C32.973 23.897 31.854 25.022 30.734 26.145 C30.216 26.684 29.699 27.223 29.165 27.779 C26.895 30.007 25.512 31.339 22.267 31.504 C19.036 30.018 17.094 28.089 14.617 25.535 C14.143 25.053 13.669 24.571 13.18 24.074 C11.673 22.538 10.18 20.988 8.688 19.438 C7.185 17.893 5.681 16.351 4.173 14.812 C2.808 13.415 1.45 12.01 0.093 10.606 C-2.175 8.25 -2.175 8.25 -5.188 6.375 C-4.13 0.486 -4.13 0.486 0 0 Z " fill="#B41AD7" transform="translate(42.1875,36.625)"/>
<path d="M0 0 C1.073 -0.049 1.073 -0.049 2.168 -0.1 C4.258 -0.121 4.258 -0.121 7.875 0.438 C9.879 2.854 10.875 4.277 10.875 7.438 C9.39 7.385 9.39 7.385 7.875 7.332 C-4.828 6.968 -4.828 6.968 -15.562 13.25 C-19.67 18.393 -19.108 25.147 -19.125 31.438 C-18.64 31.013 -18.156 30.589 -17.656 30.152 C-16.246 28.918 -14.831 27.688 -13.414 26.461 C-11.923 25.143 -10.457 23.795 -9.023 22.414 C-3.929 17.595 -3.929 17.595 0.062 16.812 C3.168 17.503 5.285 18.61 7.875 20.438 C5.895 21.428 5.895 21.428 3.875 22.438 C3.875 23.427 3.875 24.418 3.875 25.438 C3.545 25.108 3.215 24.778 2.875 24.438 C-0.044 23.816 -1.309 23.637 -4.125 24.438 C-7.782 27.118 -10.942 30.217 -14.125 33.438 C-14.87 34.1 -15.615 34.763 -16.383 35.445 C-18.431 37.788 -18.664 38.997 -18.812 42.062 C-19.059 46.306 -19.059 46.306 -20.125 48.438 C-22.125 48.48 -24.125 48.478 -26.125 48.438 C-27.75 46.813 -27.442 44.862 -27.625 42.625 C-27.887 39.454 -28.267 36.504 -29.125 33.438 C-27.805 33.438 -26.485 33.438 -25.125 33.438 C-25.455 27.168 -25.785 20.898 -26.125 14.438 C-24.805 14.108 -23.485 13.777 -22.125 13.438 C-22.125 12.736 -22.125 12.035 -22.125 11.312 C-20.353 6.219 -15.528 3.66 -10.867 1.289 C-7.244 0.164 -3.759 0.031 0 0 Z " fill="#0F1339" transform="translate(88.125,13.5625)"/>
<path d="M0 0 C0.33 0 0.66 0 1 0 C1.33 16.5 1.66 33 2 50 C2.33 49.34 2.66 48.68 3 48 C3.66 48 4.32 48 5 48 C5.182 48.857 5.364 49.714 5.551 50.598 C7.403 59.612 7.403 59.612 11 68 C19.373 71.02 32.852 70.338 41.062 67.312 C44.7 65.525 46.176 63.649 48 60 C49.65 59.34 51.3 58.68 53 58 C53.33 50.74 53.66 43.48 54 36 C54.66 36 55.32 36 56 36 C56 45.24 56 54.48 56 64 C57.32 64.66 58.64 65.32 60 66 C60.99 66.66 61.98 67.32 63 68 C63 69.32 63 70.64 63 72 C63.99 72.33 64.98 72.66 66 73 C66 73.66 66 74.32 66 75 C67.485 75.495 67.485 75.495 69 76 C63.016 75.693 58.483 72.794 54 69 C53.67 68.01 53.34 67.02 53 66 C52.371 66.543 51.742 67.085 51.094 67.645 C42.796 74.58 36.966 77.675 26.023 77.344 C17.517 76.377 10.62 72.412 5 66 C1.17 60.161 -0.13 54.523 -0.114 47.567 C-0.113 46.506 -0.113 45.446 -0.113 44.353 C-0.108 43.219 -0.103 42.086 -0.098 40.918 C-0.096 39.749 -0.095 38.579 -0.093 37.375 C-0.088 33.646 -0.075 29.917 -0.062 26.188 C-0.057 23.657 -0.053 21.126 -0.049 18.596 C-0.038 12.397 -0.021 6.199 0 0 Z " fill="#21171F" transform="translate(13,38)"/>
<path d="M0 0 C4.979 1.625 8.332 5.554 12.018 9.149 C13.463 10.541 14.955 11.883 16.448 13.224 C20.53 17.187 23.353 19.967 24.303 25.701 C24.305 29.154 24.128 32.451 23.668 35.871 C23.338 35.211 23.008 34.551 22.668 33.871 C22.07 33.582 21.472 33.293 20.856 32.996 C18.25 31.655 16.592 30.069 14.668 27.871 C14.668 27.211 14.668 26.551 14.668 25.871 C14.091 25.624 13.513 25.378 12.918 25.125 C9.54 23.242 7.277 20.465 4.668 17.648 C2.599 15.809 1.37 15.263 -1.332 14.871 C-1.332 16.521 -1.332 18.171 -1.332 19.871 C-3.394 20.308 -3.394 20.308 -6.332 19.871 C-8.904 17.75 -11.124 15.364 -13.332 12.871 C-11.801 9.311 -9.695 6.842 -7.019 4.058 C-6.26 3.247 -5.501 2.436 -4.718 1.601 C-2.332 -0.129 -2.332 -0.129 0 0 Z " fill="#38E56C" transform="translate(37.33154296875,52.12939453125)"/>
<path d="M0 0 C5.288 4.368 9.948 9.049 14.57 14.121 C16.838 16.307 16.838 16.307 19.637 15.805 C20.417 15.539 21.196 15.274 22 15 C22.887 14.897 23.774 14.794 24.688 14.688 C27.142 14.241 27.142 14.241 28.125 12.125 C28.414 11.424 28.703 10.722 29 10 C30.5 8.25 30.5 8.25 32 7 C32.66 7 33.32 7 34 7 C34 7.66 34 8.32 34 9 C34.99 9.33 35.98 9.66 37 10 C34.905 12.176 32.8 14.341 30.688 16.5 C30.093 17.12 29.498 17.74 28.885 18.379 C28.308 18.965 27.731 19.552 27.137 20.156 C26.608 20.701 26.079 21.246 25.534 21.807 C24 23 24 23 21 23 C21 30.26 21 37.52 21 45 C19.02 45.495 19.02 45.495 17 46 C15.92 39.386 16.03 32.969 16.258 26.293 C16.32 23.031 16.32 23.031 14.492 21.176 C14 20.788 13.507 20.4 13 20 C13 19.34 13 18.68 13 18 C12.402 17.773 11.804 17.546 11.188 17.312 C8.429 15.657 7.507 13.798 6 11 C4.982 9.819 4.982 9.819 3 9.438 C1 8 1 8 0.516 6.09 C0.273 4.067 0.131 2.033 0 0 Z " fill="#0C1437" transform="translate(46,51)"/>
<path d="M0 0 C2.86 2.86 2.748 6.023 3.188 9.875 C3.282 10.596 3.377 11.316 3.475 12.059 C3.9 15.583 4.246 18.625 3 22 C1.68 22 0.36 22 -1 22 C-1.33 22.66 -1.66 23.32 -2 24 C-5.885 20.837 -9.502 17.598 -13 14 C-14.184 12.584 -14.184 12.584 -17.562 12.938 C-19.264 12.968 -19.264 12.968 -21 13 C-21.33 14.65 -21.66 16.3 -22 18 C-19.36 20.31 -16.72 22.62 -14 25 C-15.32 25.33 -16.64 25.66 -18 26 C-18 25.34 -18 24.68 -18 24 C-18.66 24 -19.32 24 -20 24 C-20 24.66 -20 25.32 -20 26 C-20.66 26 -21.32 26 -22 26 C-22.33 25.01 -22.66 24.02 -23 23 C-23.66 23 -24.32 23 -25 23 C-25 23.66 -25 24.32 -25 25 C-25.66 25 -26.32 25 -27 25 C-27 25.99 -27 26.98 -27 28 C-29.475 27.01 -29.475 27.01 -32 26 C-31.67 25.34 -31.34 24.68 -31 24 C-30.788 22.084 -30.58 20.167 -30.375 18.25 C-29.678 13.921 -29.022 11.248 -25.75 8.25 C-23.322 6.551 -21.899 5.979 -18.938 5.375 C-11.948 6.862 -7.74 12.1 -2.953 17.074 C-1.144 19.057 -1.144 19.057 1 20 C0.885 17.937 0.758 15.875 0.625 13.812 C0.521 12.09 0.521 12.09 0.414 10.332 C0.025 7.2 -0.681 4.847 -2 2 C-1.34 2 -0.68 2 0 2 C0 1.34 0 0.68 0 0 Z " fill="#240F33" transform="translate(60,25)"/>
<path d="M0 0 C4.527 0.478 6.417 1.971 9.5 5.25 C10.279 6.063 11.057 6.877 11.859 7.715 C12.919 8.846 12.919 8.846 14 10 C16.517 12.574 18.933 14.947 21.75 17.188 C24 19 24 19 25 21 C25.232 28.304 25.232 28.304 24 32 C20.091 30.416 17.476 27.734 14.578 24.773 C14.073 24.266 13.568 23.758 13.048 23.235 C11.444 21.62 9.847 19.997 8.25 18.375 C7.161 17.276 6.071 16.177 4.98 15.078 C2.315 12.391 -0.344 9.697 -3 7 C-2.67 6.34 -2.34 5.68 -2 5 C-1.34 5 -0.68 5 0 5 C0 3.35 0 1.7 0 0 Z " fill="#F7F202" transform="translate(36,67)"/>
<path d="M0 0 C0.99 0.33 1.98 0.66 3 1 C1.749 5.608 0.266 8.218 -3.188 11.5 C-4.392 12.652 -4.392 12.652 -5.621 13.828 C-8.182 16.166 -10.784 18.44 -13.441 20.668 C-17.43 24.077 -20.801 27.854 -24 32 C-23.209 34 -23.209 34 -22 36 C-21.01 36.33 -20.02 36.66 -19 37 C-19.312 38.938 -19.312 38.938 -20 41 C-23 42 -23 42 -24.938 41.363 C-31.786 37.874 -31.786 37.874 -34 34 C-32.656 30.922 -31.29 29.163 -28.688 27.062 C-22.922 22.198 -17.701 16.788 -12.407 11.423 C-11.943 10.953 -11.478 10.484 -11 10 C-10.487 9.445 -9.975 8.891 -9.447 8.319 C-8 7 -8 7 -6 7 C-6 6.34 -6 5.68 -6 5 C-5.34 5 -4.68 5 -4 5 C-3.711 4.361 -3.422 3.721 -3.125 3.062 C-2 1 -2 1 0 0 Z " fill="#09BA64" transform="translate(106,65)"/>
<path d="M0 0 C0 1.65 0 3.3 0 5 C0.66 5.33 1.32 5.66 2 6 C0.536 9.37 -1.336 11.593 -3.922 14.188 C-4.7 14.969 -5.479 15.75 -6.281 16.555 C-7.096 17.362 -7.911 18.169 -8.75 19 C-9.549 19.807 -10.348 20.614 -11.172 21.445 C-15.218 25.478 -19.08 29.08 -24 32 C-25.861 28.279 -26.01 24.941 -25 21 C-22.451 17.388 -19.463 14.374 -16.248 11.349 C-14.744 9.932 -13.279 8.483 -11.816 7.025 C-4.576 0 -4.576 0 0 0 Z " fill="#F8F008" transform="translate(94,67)"/>
<path d="M0 0 C0.66 0.66 1.32 1.32 2 2 C1.866 6.225 -1.254 8.653 -4.094 11.422 C-4.854 12.179 -4.854 12.179 -5.629 12.952 C-6.698 14.014 -7.771 15.073 -8.847 16.128 C-10.501 17.751 -12.144 19.384 -13.785 21.02 C-14.825 22.05 -15.865 23.08 -16.906 24.109 C-17.401 24.6 -17.896 25.09 -18.406 25.596 C-21.883 29 -21.883 29 -23 29 C-23.483 22.194 -23.923 15.852 -19.367 10.402 C-13.644 4.432 -8.693 -0.632 0 0 Z " fill="#0678FC" transform="translate(91,37)"/>
<path d="M0 0 C4.562 3.168 6.783 6.627 8.051 11.992 C8.113 12.838 8.175 13.683 8.238 14.555 C7.248 14.225 6.258 13.895 5.238 13.555 C5.238 11.905 5.238 10.255 5.238 8.555 C4.578 8.555 3.918 8.555 3.238 8.555 C1.53 6.93 -0.137 5.262 -1.762 3.555 C-3.376 1.94 -5.094 2.23 -7.324 2.117 C-13.458 2.204 -16.382 4.503 -20.762 8.555 C-21.647 9.347 -22.533 10.14 -23.445 10.957 C-25.228 12.557 -26.999 14.17 -28.758 15.797 C-30.762 17.555 -30.762 17.555 -31.762 17.555 C-32.333 13.13 -32.672 9.223 -30.484 5.215 C-22.324 -4.722 -11.057 -6.087 0 0 Z " fill="#55D4E9" transform="translate(100.76171875,23.4453125)"/>
<path d="M0 0 C0.33 0 0.66 0 1 0 C1.33 16.5 1.66 33 2 50 C2.33 49.34 2.66 48.68 3 48 C3.66 48 4.32 48 5 48 C5.182 48.857 5.364 49.714 5.551 50.598 C7.403 59.612 7.403 59.612 11 68 C13.78 68.979 16.624 69.239 19.547 69.535 C20.391 69.622 21.236 69.709 22.105 69.799 C22.978 69.886 23.851 69.973 24.75 70.062 C25.638 70.153 26.526 70.244 27.441 70.338 C29.627 70.561 31.814 70.782 34 71 C33.67 71.66 33.34 72.32 33 73 C33.33 73.99 33.66 74.98 34 76 C24.024 76.718 16.966 76.749 9 70 C3.344 64.659 0.236 58.132 -0.12 50.387 C-0.118 49.456 -0.116 48.526 -0.114 47.567 C-0.113 46.506 -0.113 45.446 -0.113 44.353 C-0.108 43.219 -0.103 42.086 -0.098 40.918 C-0.096 39.749 -0.095 38.579 -0.093 37.375 C-0.088 33.646 -0.075 29.917 -0.062 26.188 C-0.057 23.657 -0.053 21.126 -0.049 18.596 C-0.038 12.397 -0.021 6.199 0 0 Z " fill="#131B34" transform="translate(13,38)"/>
<path d="M0 0 C4.408 0.49 6.011 1.824 9 5 C9.748 5.425 10.496 5.849 11.266 6.286 C14.518 8.325 17.07 10.819 19.738 13.543 C20.264 14.071 20.79 14.6 21.331 15.144 C22.996 16.821 24.654 18.504 26.312 20.188 C27.445 21.331 28.579 22.473 29.713 23.615 C32.481 26.405 35.242 29.201 38 32 C35.375 36.875 35.375 36.875 32 38 C31.814 37.161 31.629 36.322 31.438 35.457 C29.514 30.83 26.583 28.109 23 24.688 C22.358 24.055 21.716 23.423 21.055 22.771 C17.817 19.492 17.817 19.492 14 17 C14 16.34 14 15.68 14 15 C13.34 15 12.68 15 12 15 C9.375 12.625 9.375 12.625 7 10 C7 9.34 7 8.68 7 8 C6.361 7.732 5.721 7.464 5.062 7.188 C3 6 3 6 2 3 C1.34 3 0.68 3 0 3 C0 2.01 0 1.02 0 0 Z " fill="#F07001" transform="translate(21,67)"/>
<path d="M0 0 C0.33 0 0.66 0 1 0 C1.313 4.561 1.568 9.123 1.812 13.688 C1.902 14.981 1.992 16.275 2.084 17.607 C2.145 18.855 2.206 20.102 2.27 21.387 C2.338 22.534 2.406 23.68 2.476 24.862 C1.847 29.007 0.13 30.323 -3 33 C-3.784 33.866 -4.567 34.733 -5.375 35.625 C-9.622 39.467 -13.741 41.167 -19.438 41.188 C-21.201 41.095 -21.201 41.095 -23 41 C-19.856 37.143 -16.741 33.676 -12.949 30.449 C-3.248 22.193 -3.248 22.193 0.469 10.452 C0.513 6.926 0.358 3.511 0 0 Z " fill="#0A5ABD" transform="translate(109,67)"/>
<path d="M0 0 C3.568 1.514 5.837 3.605 8.547 6.352 C9.391 7.202 10.236 8.053 11.105 8.93 C11.978 9.819 12.851 10.709 13.75 11.625 C14.638 12.522 15.526 13.419 16.441 14.344 C18.632 16.558 20.818 18.777 23 21 C22.505 22.485 22.505 22.485 22 24 C18.7 20.7 15.4 17.4 12 14 C12.66 15.32 13.32 16.64 14 18 C11 18 11 18 9 17 C9.33 16.34 9.66 15.68 10 15 C8.68 15 7.36 15 6 15 C6.33 13.68 6.66 12.36 7 11 C5.02 11.33 3.04 11.66 1 12 C0.67 10.02 0.34 8.04 0 6 C-0.619 6.495 -1.237 6.99 -1.875 7.5 C-4 9 -4 9 -6 9 C-6 9.66 -6 10.32 -6 11 C-4.35 10.34 -2.7 9.68 -1 9 C0.534 12.069 -0.45 14.701 -1 18 C-3.188 18.312 -3.188 18.312 -6 18 C-8.813 15.5 -8.813 15.5 -11 13 C-9.436 9.162 -6.975 6.833 -4 4 C-3.237 3.237 -2.474 2.474 -1.688 1.688 C-1.131 1.131 -0.574 0.574 0 0 Z " fill="#2CE37A" transform="translate(36,53)"/>
<path d="M0 0 C5.605 4.667 10.795 9.643 15.938 14.812 C16.717 15.588 17.496 16.363 18.299 17.162 C19.034 17.899 19.77 18.636 20.527 19.395 C21.195 20.063 21.863 20.732 22.551 21.421 C24 23 24 23 24 24 C17.401 24.55 12.479 23.888 7 20 C3.016 16.309 0.157 12.21 -0.113 6.688 C-0.124 4.454 -0.073 2.232 0 0 Z " fill="#EE2124" transform="translate(20,84)"/>
<path d="M0 0 C18.277 -0.867 18.277 -0.867 26.062 5.754 C30.538 10.076 30.538 10.076 32 13 C28.144 14.483 25.727 13.565 22 12 C20.989 11.319 19.979 10.639 18.938 9.938 C15.959 7.973 14.494 7.325 11 7 C10.012 6.888 10.012 6.888 9.004 6.773 C2.462 6.343 -1.595 8.514 -7 12 C-7.99 12.495 -7.99 12.495 -9 13 C-8.67 11.35 -8.34 9.7 -8 8 C-4.535 7.505 -4.535 7.505 -1 7 C-1 6.34 -1 5.68 -1 5 C4.94 4.505 4.94 4.505 11 4 C11 3.67 11 3.34 11 3 C7.37 3 3.74 3 0 3 C0 2.01 0 1.02 0 0 Z " fill="#181C37" transform="translate(34,14)"/>
<path d="M0 0 C2 0 2 0 4.625 2.375 C7 5 7 5 7 7 C7.639 7.268 8.279 7.536 8.938 7.812 C11 9 11 9 12 12 C12.66 12 13.32 12 14 12 C14 12.66 14 13.32 14 14 C14.589 14.266 15.178 14.533 15.784 14.807 C19.518 16.817 22.258 19.848 25.25 22.812 C25.9 23.429 26.549 24.046 27.219 24.682 C31.901 29.31 31.901 29.31 32.422 32.949 C32.283 33.626 32.143 34.303 32 35 C28.535 35.495 28.535 35.495 25 36 C25 35.34 25 34.68 25 34 C24.34 34 23.68 34 23 34 C21.938 32.312 21.938 32.312 21 30 C21.309 28.793 21.309 28.793 21.625 27.562 C22.302 24.858 22.302 24.858 20.375 22.375 C18.105 19.908 18.105 19.908 15.25 18.375 C14.508 17.921 13.765 17.468 13 17 C13 16.01 13 15.02 13 14 C12.111 13.843 12.111 13.843 11.203 13.684 C8.676 12.899 7.577 11.949 5.75 10.062 C5.229 9.538 4.708 9.013 4.172 8.473 C3 7 3 7 3 5 C2.01 5 1.02 5 0 5 C0 3.35 0 1.7 0 0 Z " fill="#FCA00C" transform="translate(21,70)"/>
<path d="M0 0 C0.33 1.32 0.66 2.64 1 4 C1.66 4 2.32 4 3 4 C3 3.34 3 2.68 3 2 C3.66 2 4.32 2 5 2 C5 2.66 5 3.32 5 4 C6.32 4 7.64 4 9 4 C10 7 11 10 12 13 C14.475 13.495 14.475 13.495 17 14 C16.67 14.66 16.34 15.32 16 16 C18.1 18.723 20.164 21.153 22.688 23.5 C26.145 27.238 26.13 30.924 26.098 35.863 C26.094 36.75 26.091 37.636 26.088 38.549 C26.075 39.917 26.075 39.917 26.062 41.312 C26.058 42.244 26.053 43.175 26.049 44.135 C26.037 46.423 26.021 48.712 26 51 C25.34 51 24.68 51 24 51 C23.752 51.784 23.505 52.567 23.25 53.375 C21.813 56.392 20.953 56.716 18 58 C18.342 57.469 18.684 56.938 19.037 56.392 C24.099 48.025 25.681 39.72 24.053 30.013 C21.915 23.896 17.382 19.482 12.812 15.062 C12.332 14.594 11.852 14.126 11.357 13.643 C6.965 9.447 6.965 9.447 2 6 C-3.053 6.212 -5.52 9.042 -8.812 12.562 C-9.315 13.083 -9.817 13.603 -10.334 14.139 C-11.565 15.417 -12.784 16.707 -14 18 C-14 15 -14 15 -12.066 12.844 C-11.24 12.07 -10.414 11.297 -9.562 10.5 C-6.005 7.26 -6.005 7.26 -4 3 C-3.34 3 -2.68 3 -2 3 C-2 2.34 -2 1.68 -2 1 C-1.34 0.67 -0.68 0.34 0 0 Z " fill="#091429" transform="translate(37,47)"/>
<path d="M0 0 C3.106 0.69 5.223 1.797 7.812 3.625 C5.832 4.615 5.832 4.615 3.812 5.625 C3.812 6.615 3.812 7.605 3.812 8.625 C3.483 8.295 3.153 7.965 2.812 7.625 C-0.107 7.004 -1.372 6.825 -4.188 7.625 C-7.844 10.306 -11.005 13.405 -14.188 16.625 C-14.931 17.285 -15.675 17.945 -16.441 18.625 C-18.506 20.99 -18.755 22.281 -18.938 25.375 C-18.994 26.174 -19.051 26.973 -19.109 27.797 C-19.135 28.4 -19.161 29.003 -19.188 29.625 C-19.517 29.625 -19.847 29.625 -20.188 29.625 C-20.188 26.985 -20.188 24.345 -20.188 21.625 C-21.507 21.955 -22.828 22.285 -24.188 22.625 C-24.188 21.635 -24.188 20.645 -24.188 19.625 C-23.528 19.625 -22.868 19.625 -22.188 19.625 C-21.528 14.015 -20.868 8.405 -20.188 2.625 C-19.858 2.625 -19.528 2.625 -19.188 2.625 C-19.188 6.585 -19.188 10.545 -19.188 14.625 C-18.032 13.614 -16.877 12.604 -15.688 11.562 C-14.958 10.931 -14.228 10.299 -13.477 9.648 C-11.985 8.33 -10.52 6.982 -9.086 5.602 C-3.992 0.783 -3.992 0.783 0 0 Z " fill="#051541" transform="translate(88.1875,30.375)"/>
<path d="M0 0 C4.561 2.016 7.714 4.231 11 8 C11 10 11 10 9.125 12.125 C7 14 7 14 5 14 C5 14.66 5 15.32 5 16 C3.02 16.33 1.04 16.66 -1 17 C-2.125 13.25 -2.125 13.25 -1 11 C-3.64 10.67 -6.28 10.34 -9 10 C-8.064 8.894 -7.126 7.791 -6.188 6.688 C-5.665 6.073 -5.143 5.458 -4.605 4.824 C-3.128 3.146 -1.6 1.561 0 0 Z " fill="#F39F02" transform="translate(95,56)"/>
<path d="M0 0 C1.074 0.387 1.074 0.387 2.169 0.781 C-2.93 6.945 -8.478 12.577 -14.144 18.219 C-15.521 19.602 -15.521 19.602 -16.927 21.014 C-17.799 21.885 -18.671 22.755 -19.57 23.653 C-20.364 24.446 -21.159 25.239 -21.977 26.057 C-23.831 27.781 -23.831 27.781 -24.831 27.781 C-25.25 23.942 -25.172 22.259 -22.891 19.065 C-22.001 18.168 -21.111 17.272 -20.195 16.348 C-19.718 15.866 -19.242 15.384 -18.751 14.887 C-17.743 13.875 -16.728 12.871 -15.707 11.875 C-14.145 10.345 -12.618 8.786 -11.091 7.221 C-10.107 6.241 -9.12 5.262 -8.132 4.285 C-7.237 3.397 -6.341 2.508 -5.418 1.592 C-2.831 -0.219 -2.831 -0.219 0 0 Z " fill="#DD2317" transform="translate(93.831298828125,52.218505859375)"/>
<path d="M0 0 C0.459 0.398 0.918 0.797 1.391 1.207 C4.523 3.911 7.639 6.58 11 9 C6.59 8.51 5.026 7.123 2 4 C-0.066 3.357 -0.066 3.357 -2 3 C-2.5 12.898 -2.5 12.898 0.895 21.891 C3.163 24.103 5.492 26.067 8 28 C9.039 29.003 10.063 30.02 11.062 31.062 C11.702 31.702 12.341 32.341 13 33 C15.993 32.002 16.948 31.248 19 29 C19.66 29.99 20.32 30.98 21 32 C20.697 33.341 20.362 34.674 20 36 C20.379 38.187 20.379 38.187 21 40 C21.66 40 22.32 40 23 40 C23 40.66 23 41.32 23 42 C26.465 41.505 26.465 41.505 30 41 C27.114 43.886 25.03 43.9 21 44 C16.267 41.152 12.448 37.093 8.562 33.188 C8.013 32.645 7.463 32.103 6.897 31.544 C-4.328 20.305 -4.328 20.305 -4.819 11.97 C-4.616 8.353 -4.191 5.447 -3 2 C-2.01 1.34 -1.02 0.68 0 0 Z " fill="#F5831A" transform="translate(23,64)"/>
<path d="M0 0 C0.33 0 0.66 0 1 0 C2.074 17.057 2.074 17.057 -0.559 21.82 C-2.294 23.489 -3.906 24.82 -6 26 C-6.124 25.402 -6.248 24.804 -6.375 24.188 C-7.412 20.557 -8.882 19.079 -12 17 C-10.542 15.374 -9.084 13.75 -7.625 12.125 C-6.813 11.22 -6.001 10.315 -5.164 9.383 C-3.809 7.891 -2.425 6.425 -1 5 C-0.352 2.429 -0.352 2.429 0 0 Z " fill="#3CE787" transform="translate(108,66)"/>
<path d="M0 0 C6.881 1.678 11.076 5.569 15.375 11 C17.051 14.094 17.668 16.517 18 20 C17.34 20 16.68 20 16 20 C15.34 18.35 14.68 16.7 14 15 C14 15.99 14 16.98 14 18 C13.34 18 12.68 18 12 18 C11.67 18.66 11.34 19.32 11 20 C10.505 18.783 10.01 17.566 9.5 16.312 C7.119 11.456 3.723 9.385 -1 7 C-0.649 6.402 -0.299 5.804 0.062 5.188 C1.333 2.892 1.333 2.892 0 0 Z " fill="#051B37" transform="translate(97,15)"/>
<path d="M0 0 C2.64 0 5.28 0 8 0 C8 5.94 8 11.88 8 18 C3.911 15.956 1.764 14.608 -1 11 C-1.591 7.206 -1.739 3.477 0 0 Z " fill="#B124DA" transform="translate(101,38)"/>
<path d="M0 0 C0.557 0.743 1.114 1.485 1.688 2.25 C4.974 6.158 7.898 9.082 13 10 C14.977 10.092 16.958 10.13 18.938 10.125 C19.957 10.128 20.977 10.13 22.027 10.133 C24.796 10.009 27.305 9.625 30 9 C29.34 10.32 28.68 11.64 28 13 C26.68 13 25.36 13 24 13 C24 14.32 24 15.64 24 17 C22.229 17.027 20.458 17.046 18.688 17.062 C17.701 17.074 16.715 17.086 15.699 17.098 C12.681 16.988 10.718 16.558 8.312 14.688 C7 13 7 13 7 9 C6.103 8.567 6.103 8.567 5.188 8.125 C3 7 3 7 0 5 C-0.188 2.375 -0.188 2.375 0 0 Z " fill="#08182B" transform="translate(69,97)"/>
<path d="M0 0 C2.86 2.86 2.748 6.023 3.188 9.875 C3.282 10.596 3.377 11.316 3.475 12.059 C3.9 15.583 4.246 18.625 3 22 C1.68 22 0.36 22 -1 22 C-1.33 22.66 -1.66 23.32 -2 24 C-12.118 15.765 -12.118 15.765 -14 12 C-13.34 12 -12.68 12 -12 12 C-12 11.34 -12 10.68 -12 10 C-12.66 10 -13.32 10 -14 10 C-14 9.34 -14 8.68 -14 8 C-10.349 9.526 -8.099 11.725 -5.375 14.562 C-2.489 17.69 -2.489 17.69 1 20 C0.885 17.937 0.758 15.875 0.625 13.812 C0.555 12.664 0.486 11.515 0.414 10.332 C0.025 7.2 -0.681 4.847 -2 2 C-1.34 2 -0.68 2 0 2 C0 1.34 0 0.68 0 0 Z " fill="#250B34" transform="translate(60,25)"/>
<path d="M0 0 C1.123 3.37 0.998 3.813 -0.438 6.875 C-2.938 11.525 -6.122 14.042 -11 16 C-14.007 16.625 -16.932 16.922 -20 17 C-16.47 12.24 -13.388 9.429 -7.969 7.043 C-4.671 5.296 -2.495 2.745 0 0 Z " fill="#0969F3" transform="translate(108,91)"/>
<path d="M0 0 C0.33 0 0.66 0 1 0 C1.33 16.5 1.66 33 2 50 C2.33 49.34 2.66 48.68 3 48 C3.66 48 4.32 48 5 48 C5.48 50.062 5.959 52.125 6.438 54.188 C6.704 55.336 6.971 56.485 7.246 57.668 C7.873 60.439 8.459 63.211 9 66 C8.34 65.67 7.68 65.34 7 65 C7 64.01 7 63.02 7 62 C6.34 62 5.68 62 5 62 C4.67 60.68 4.34 59.36 4 58 C3.01 58 2.02 58 1 58 C0.192 54.458 -0.122 51.198 -0.114 47.567 C-0.113 46.506 -0.113 45.446 -0.113 44.353 C-0.108 43.219 -0.103 42.086 -0.098 40.918 C-0.096 39.749 -0.095 38.579 -0.093 37.375 C-0.088 33.646 -0.075 29.917 -0.062 26.188 C-0.057 23.657 -0.053 21.126 -0.049 18.596 C-0.038 12.397 -0.021 6.199 0 0 Z " fill="#74788B" transform="translate(13,38)"/>
<path d="M0 0 C0.99 0.33 1.98 0.66 3 1 C1.811 5.36 0.729 8.307 -3 11 C-3.937 10.944 -4.874 10.888 -5.839 10.83 C-9.996 11.053 -11.007 12.345 -13.82 15.34 C-15.118 16.687 -15.118 16.687 -16.441 18.061 C-17.327 19.01 -18.213 19.959 -19.125 20.938 C-20.892 22.807 -22.665 24.671 -24.445 26.527 C-25.224 27.36 -26.003 28.193 -26.805 29.051 C-28.979 30.981 -30.161 31.635 -33 32 C-25.667 24.667 -18.333 17.333 -11 10 C-10.467 9.426 -9.934 8.852 -9.385 8.26 C-8 7 -8 7 -6 7 C-6 6.34 -6 5.68 -6 5 C-5.34 5 -4.68 5 -4 5 C-3.711 4.361 -3.422 3.721 -3.125 3.062 C-2 1 -2 1 0 0 Z " fill="#34B754" transform="translate(106,65)"/>
<path d="M0 0 C2.598 1.299 2.94 2.32 4 5 C4.52 8.723 4.564 12.281 4 16 C1.688 18.688 1.688 18.688 -1 20 C-1.99 20 -2.98 20 -4 20 C-4.054 18.209 -4.093 16.417 -4.125 14.625 C-4.148 13.627 -4.171 12.63 -4.195 11.602 C-4 9 -4 9 -2 7 C-1.281 4.682 -0.609 2.349 0 0 Z " fill="#FC055E" transform="translate(25,33)"/>
<path d="M0 0 C0.33 0 0.66 0 1 0 C1 6.93 1 13.86 1 21 C0.01 21.33 -0.98 21.66 -2 22 C-2.33 22.66 -2.66 23.32 -3 24 C-2.34 24 -1.68 24 -1 24 C-1 24.66 -1 25.32 -1 26 C-1.66 26 -2.32 26 -3 26 C-3.33 26.66 -3.66 27.32 -4 28 C-5.006 27.048 -6.005 26.088 -7 25.125 C-7.557 24.591 -8.114 24.058 -8.688 23.508 C-10 22 -10 22 -10 20 C-10.66 20 -11.32 20 -12 20 C-12.66 19.01 -13.32 18.02 -14 17 C-16.584 16.75 -16.584 16.75 -19 17 C-19 16.34 -19 15.68 -19 15 C-16.69 14.34 -14.38 13.68 -12 13 C-10.667 14.333 -9.333 15.667 -8 17 C-6.335 17.342 -4.668 17.674 -3 18 C-2.01 18.66 -1.02 19.32 0 20 C0 13.4 0 6.8 0 0 Z " fill="#2D1721" transform="translate(109,36)"/>
<path d="M0 0 C0.99 0.33 1.98 0.66 3 1 C3.043 3 3.041 5 3 7 C2.67 7.33 2.34 7.66 2 8 C2.99 8.33 3.98 8.66 5 9 C5 12.3 5 15.6 5 19 C3 19.043 1 19.041 -1 19 C-2.625 17.375 -2.317 15.425 -2.5 13.188 C-2.762 10.017 -3.142 7.067 -4 4 C-2.68 4 -1.36 4 0 4 C0 2.68 0 1.36 0 0 Z " fill="#0A1636" transform="translate(63,43)"/>
<path d="M0 0 C0.66 0.33 1.32 0.66 2 1 C0.35 2.65 -1.3 4.3 -3 6 C-1.68 7.65 -0.36 9.3 1 11 C4.143 9.952 4.733 9.421 6.688 6.938 C7.451 5.968 8.214 4.999 9 4 C9.99 4.33 10.98 4.66 12 5 C9.871 7.391 7.692 9.73 5.5 12.062 C4.899 12.739 4.299 13.415 3.68 14.111 C-0.803 18.808 -0.803 18.808 -4.096 19.336 C-8.506 18.957 -11.396 17.486 -14.5 14.438 C-15.17 13.797 -15.841 13.156 -16.531 12.496 C-17.016 12.002 -17.501 11.509 -18 11 C-17.01 10.01 -16.02 9.02 -15 8 C-14.938 8.866 -14.938 8.866 -14.875 9.75 C-13.527 13.215 -11.177 14.228 -8 16 C-5.272 16.782 -5.272 16.782 -3 17 C-2.34 15.68 -1.68 14.36 -1 13 C-1.619 12.938 -2.237 12.876 -2.875 12.812 C-5 12 -5 12 -6.25 9.438 C-6.498 8.633 -6.745 7.829 -7 7 C-4.69 4.69 -2.38 2.38 0 0 Z " fill="#3DDE8C" transform="translate(88,89)"/>
<path d="M0 0 C4.797 1.954 8.656 4.815 11.566 9.148 C12.677 12.206 12.565 14.883 12.5 18.125 C12.482 19.295 12.464 20.466 12.445 21.672 C12.422 22.564 12.399 23.456 12.375 24.375 C9.049 22.849 7.419 21.442 5.375 18.375 C6.695 19.035 8.015 19.695 9.375 20.375 C10.092 13.346 10.092 13.346 6.938 7.312 C6.092 6.673 5.246 6.034 4.375 5.375 C4.045 5.045 3.715 4.715 3.375 4.375 C1.891 4.149 0.397 3.981 -1.098 3.84 C-1.997 3.753 -2.896 3.666 -3.822 3.576 C-4.768 3.489 -5.713 3.402 -6.688 3.312 C-7.637 3.222 -8.586 3.131 -9.564 3.037 C-11.918 2.812 -14.271 2.592 -16.625 2.375 C-11.435 -2.065 -6.424 -1.108 0 0 Z " fill="#D9357F" transform="translate(48.625,20.625)"/>
<path d="M0 0 C6.411 5.271 12.186 11.091 18 17 C15.375 21.875 15.375 21.875 12 23 C11.664 21.681 11.664 21.681 11.32 20.336 C9.78 16.444 7.897 14.492 4.875 11.625 C3.965 10.751 3.055 9.877 2.117 8.977 C1.069 7.998 1.069 7.998 0 7 C3.106 7 4.353 7.539 7 9 C6.495 8.518 5.989 8.036 5.469 7.539 C4.494 6.592 4.494 6.592 3.5 5.625 C2.85 4.999 2.201 4.372 1.531 3.727 C0 2 0 2 0 0 Z " fill="#EC7001" transform="translate(41,82)"/>
<path d="M0 0 C0 0.66 0 1.32 0 2 C0.99 2.33 1.98 2.66 3 3 C-1.29 7.29 -5.58 11.58 -10 16 C-10.66 14.68 -11.32 13.36 -12 12 C-15.562 11.181 -15.562 11.181 -19 11 C-18.67 10.01 -18.34 9.02 -18 8 C-17.216 8.206 -16.432 8.412 -15.625 8.625 C-14.759 8.749 -13.892 8.873 -13 9 C-12.34 8.34 -11.68 7.68 -11 7 C-9.68 7 -8.36 7 -7 7 C-6.732 6.402 -6.464 5.804 -6.188 5.188 C-3.371 0 -3.371 0 0 0 Z " fill="#0B1438" transform="translate(80,58)"/>
<path d="M0 0 C4.979 1.625 8.332 5.554 12.018 9.149 C13.463 10.541 14.955 11.883 16.448 13.224 C20.53 17.187 23.353 19.967 24.303 25.701 C24.305 29.154 24.128 32.451 23.668 35.871 C23.338 35.871 23.008 35.871 22.668 35.871 C22.642 34.986 22.615 34.102 22.587 33.19 C21.761 22.667 18.274 17.897 10.543 10.996 C9.599 10.105 8.654 9.214 7.68 8.296 C5.368 6.124 3.033 3.985 0.668 1.871 C-2.418 3.235 -3.512 4.088 -5.769 6.808 C-8.169 9.677 -10.046 11.181 -13.332 12.871 C-11.801 9.311 -9.695 6.842 -7.019 4.058 C-6.26 3.247 -5.501 2.436 -4.718 1.601 C-2.332 -0.129 -2.332 -0.129 0 0 Z " fill="#49AC80" transform="translate(37.33154296875,52.12939453125)"/>
<path d="M0 0 C0.99 0 1.98 0 3 0 C1.522 3.42 -0.406 5.664 -3.027 8.293 C-3.819 9.088 -4.612 9.882 -5.428 10.701 C-6.256 11.522 -7.084 12.342 -7.938 13.188 C-8.762 14.02 -9.586 14.852 -10.436 15.709 C-11.229 16.5 -12.022 17.291 -12.84 18.105 C-13.566 18.829 -14.291 19.552 -15.039 20.298 C-17 22 -17 22 -20 23 C-20 22.01 -20 21.02 -20 20 C-18.68 19.67 -17.36 19.34 -16 19 C-16 18.01 -16 17.02 -16 16 C-15.01 16 -14.02 16 -13 16 C-12.598 14.391 -12.598 14.391 -12.188 12.75 C-10.455 7.28 -10.455 7.28 -8 5 C-4.812 4.25 -4.812 4.25 -2 4 C-2 3.34 -2 2.68 -2 2 C-1.34 2 -0.68 2 0 2 C0 1.34 0 0.68 0 0 Z " fill="#F3F212" transform="translate(93,73)"/>
<path d="M0 0 C-3.445 2.296 -5.938 2.54 -10 3 C-10 3.66 -10 4.32 -10 5 C-10.66 5 -11.32 5 -12 5 C-12.66 6.32 -13.32 7.64 -14 9 C-14.33 8.01 -14.66 7.02 -15 6 C-15.66 6 -16.32 6 -17 6 C-17 6.66 -17 7.32 -17 8 C-17.66 8 -18.32 8 -19 8 C-19 8.66 -19 9.32 -19 10 C-18.34 10 -17.68 10 -17 10 C-18 13 -18 13 -20.062 14.188 C-20.702 14.456 -21.341 14.724 -22 15 C-22.445 11.956 -22.477 9.8 -20.875 7.113 C-15.004 -0.18 -8.886 -0.316 0 0 Z " fill="#06E5EA" transform="translate(93,22)"/>
<path d="M0 0 C0 3 0 3 -2 6 C-1.01 6.66 -0.02 7.32 1 8 C1.33 8.66 1.66 9.32 2 10 C2.557 8.824 2.557 8.824 3.125 7.625 C5.433 4.394 7.216 3.925 11 3 C6.316 8.644 1.379 14.006 -4 19 C-4.33 19 -4.66 19 -5 19 C-4.94 16.581 -4.853 14.168 -4.75 11.75 C-4.736 11.068 -4.722 10.386 -4.707 9.684 C-4.534 6.129 -4.245 4.298 -1.953 1.516 C-1.309 1.015 -0.664 0.515 0 0 Z " fill="#267EF1" transform="translate(73,47)"/>
<path d="M0 0 C5.28 0 10.56 0 16 0 C18 5 18 5 18 6 C12.39 5.67 6.78 5.34 1 5 C0.67 3.35 0.34 1.7 0 0 Z " fill="#0A1030" transform="translate(81,15)"/>
<path d="M0 0 C1.65 0.66 3.3 1.32 5 2 C0.859 6.969 -3.722 9.424 -10 11 C-14.028 11.299 -17.971 11.249 -22 11 C-22 10.67 -22 10.34 -22 10 C-18.37 10 -14.74 10 -11 10 C-11.33 8.68 -11.66 7.36 -12 6 C-11.216 5.897 -10.433 5.794 -9.625 5.688 C-6.67 5.224 -6.67 5.224 -5 2 C-4.34 2.33 -3.68 2.66 -3 3 C-2.01 2.01 -1.02 1.02 0 0 Z " fill="#373B51" transform="translate(104,104)"/>
<path d="M0 0 C0.33 0 0.66 0 1 0 C1.009 0.776 1.019 1.552 1.028 2.352 C1.082 5.902 1.166 9.45 1.25 13 C1.264 14.221 1.278 15.441 1.293 16.699 C1.508 24.65 1.948 31.047 7.922 36.875 C8.525 37.246 9.128 37.618 9.75 38 C10.822 38.66 11.895 39.32 13 40 C10.758 41.361 9.522 42.061 6.875 41.75 C3.478 40.391 2.867 38.698 1.387 35.348 C-0.78 28.542 -0.32 21.492 -0.188 14.438 C-0.172 13.033 -0.159 11.629 -0.146 10.225 C-0.111 6.816 -0.062 3.408 0 0 Z " fill="#2C0E2E" transform="translate(19,66)"/>
<path d="M0 0 C0.33 0.99 0.66 1.98 1 3 C-0.662 5.003 -2.329 7.003 -4 9 C-4 10.32 -4 11.64 -4 13 C-5.65 13 -7.3 13 -9 13 C-9.33 15.31 -9.66 17.62 -10 20 C-10.99 20 -11.98 20 -13 20 C-13 19.34 -13 18.68 -13 18 C-13.969 18.784 -14.939 19.567 -15.938 20.375 C-16.483 20.816 -17.028 21.257 -17.59 21.711 C-19.133 22.967 -19.133 22.967 -20 25 C-20.99 24.67 -21.98 24.34 -23 24 C-22.339 23.344 -21.678 22.688 -20.996 22.012 C-18.547 19.58 -16.101 17.146 -13.656 14.71 C-12.596 13.656 -11.536 12.603 -10.475 11.55 C-8.951 10.038 -7.43 8.523 -5.91 7.008 C-4.994 6.097 -4.077 5.185 -3.133 4.247 C-0.974 2.192 -0.974 2.192 0 0 Z " fill="#061D4D" transform="translate(93,40)"/>
<path d="M0 0 C4.83 0.475 6.42 1.982 9.812 5.375 C11.151 7.038 12.484 8.704 13.812 10.375 C14.72 10.953 15.627 11.53 16.562 12.125 C18.812 14.375 18.812 14.375 19.129 16.625 C19.125 18.896 19.03 21.115 18.812 23.375 C18.483 23.375 18.153 23.375 17.812 23.375 C17.599 22.34 17.385 21.305 17.164 20.238 C15.954 16 13.402 13.454 10.188 10.562 C8.351 8.866 6.574 7.151 4.812 5.375 C4.812 4.715 4.812 4.055 4.812 3.375 C0.019 2.91 0.019 2.91 -4.125 4.875 C-4.476 5.37 -4.826 5.865 -5.188 6.375 C-4.13 0.486 -4.13 0.486 0 0 Z " fill="#6A0999" transform="translate(42.1875,36.625)"/>
<path d="M0 0 C1.316 0.953 2.628 1.913 3.938 2.875 C4.668 3.409 5.399 3.942 6.152 4.492 C8 6 8 6 9 8 C9.232 15.304 9.232 15.304 8 19 C4.848 17.607 2.738 15.975 0.328 13.523 C-0.668 12.518 -0.668 12.518 -1.684 11.492 C-2.366 10.794 -3.047 10.095 -3.75 9.375 C-4.447 8.669 -5.145 7.962 -5.863 7.234 C-7.58 5.494 -9.292 3.749 -11 2 C-8 2 -8 2 -6 3 C-6 3.66 -6 4.32 -6 5 C-5.34 5 -4.68 5 -4 5 C-3.422 5.763 -2.845 6.526 -2.25 7.312 C0.249 10.297 2.461 11.472 6 13 C5.67 13.99 5.34 14.98 5 16 C5.66 16 6.32 16 7 16 C7 13.03 7 10.06 7 7 C5.68 6.34 4.36 5.68 3 5 C1.25 3.5 1.25 3.5 0 2 C0 1.34 0 0.68 0 0 Z " fill="#EFE437" transform="translate(52,80)"/>
<path d="M0 0 C1.322 2.645 1.097 4.678 1.062 7.625 C1.053 8.628 1.044 9.631 1.035 10.664 C1.024 11.435 1.012 12.206 1 13 C-3.513 10.679 -6.101 8.093 -9 4 C-8.67 3.01 -8.34 2.02 -8 1 C-5.179 -0.07 -3.095 0 0 0 Z " fill="#FC0361" transform="translate(58,29)"/>
<path d="M0 0 C0.75 0.005 1.499 0.009 2.271 0.014 C4.119 0.025 5.966 0.043 7.812 0.062 C7.812 0.393 7.812 0.723 7.812 1.062 C3.192 1.393 -1.428 1.723 -6.188 2.062 C-6.188 3.383 -6.188 4.703 -6.188 6.062 C-5.528 6.392 -4.868 6.723 -4.188 7.062 C-7.521 7.062 -10.854 7.062 -14.188 7.062 C-17.305 7.709 -17.305 7.709 -18.188 10.062 C-19.177 10.062 -20.168 10.062 -21.188 10.062 C-19.796 6.68 -18.385 5.226 -15.25 3.375 C-14.56 2.959 -13.871 2.542 -13.16 2.113 C-8.811 -0.204 -4.791 -0.054 0 0 Z " fill="#2D364B" transform="translate(88.1875,13.9375)"/>
<path d="M0 0 C3.563 0.855 7.114 0.439 10.754 0.273 C11.972 0.401 11.972 0.401 13.215 0.531 C13.875 1.521 14.535 2.511 15.215 3.531 C10.265 3.531 5.315 3.531 0.215 3.531 C0.215 4.191 0.215 4.851 0.215 5.531 C-2.095 5.861 -4.405 6.191 -6.785 6.531 C-6.535 4.156 -6.535 4.156 -5.785 1.531 C-3.675 -0.069 -2.605 -0.684 0 0 Z " fill="#1D243D" transform="translate(32.78515625,15.46875)"/>
<path d="M0 0 C0.33 0.99 0.66 1.98 1 3 C-0.65 3.33 -2.3 3.66 -4 4 C-3.67 5.32 -3.34 6.64 -3 8 C-6.477 10.143 -9.212 10.213 -13.25 10.125 C-14.328 10.107 -15.405 10.089 -16.516 10.07 C-17.335 10.047 -18.155 10.024 -19 10 C-19 9.67 -19 9.34 -19 9 C-15.7 8.67 -12.4 8.34 -9 8 C-9 7.34 -9 6.68 -9 6 C-12.069 4.466 -15.296 4.611 -18.688 4.379 C-21 4 -21 4 -23 2 C-21.355 2.035 -21.355 2.035 -19.676 2.07 C-18.221 2.089 -16.767 2.107 -15.312 2.125 C-14.591 2.142 -13.87 2.159 -13.127 2.176 C-8.373 2.219 -4.412 0 0 0 Z " fill="#2D1023" transform="translate(55,105)"/>
<path d="M0 0 C0.66 0.33 1.32 0.66 2 1 C1.67 1.99 1.34 2.98 1 4 C0.01 4.33 -0.98 4.66 -2 5 C-3.006 6.328 -4.007 7.662 -5 9 C-5.66 9 -6.32 9 -7 9 C-8.039 13.427 -8.316 17.789 -8.562 22.312 C-8.606 23.053 -8.649 23.794 -8.693 24.557 C-8.799 26.371 -8.9 28.185 -9 30 C-8.237 29.505 -7.474 29.01 -6.688 28.5 C-4 27 -4 27 -1 27 C-2.98 28.98 -4.96 30.96 -7 33 C-7.99 32.67 -8.98 32.34 -10 32 C-11.17 11.199 -11.17 11.199 -5.703 4.559 C-3.889 2.898 -2 1.43 0 0 Z " fill="#D1316A" transform="translate(30,23)"/>
<path d="M0 0 C0 0.33 0 0.66 0 1 C-2.31 1.66 -4.62 2.32 -7 3 C-7.449 6.94 -7.449 6.94 -5.25 8.922 C-4.136 9.827 -4.136 9.827 -3 10.75 C-2.258 11.364 -1.515 11.977 -0.75 12.609 C-0.172 13.068 0.405 13.527 1 14 C-0.32 14.33 -1.64 14.66 -3 15 C-3 14.34 -3 13.68 -3 13 C-3.66 13 -4.32 13 -5 13 C-5 13.66 -5 14.32 -5 15 C-5.66 15 -6.32 15 -7 15 C-7 13.35 -7 11.7 -7 10 C-7.66 10 -8.32 10 -9 10 C-11.125 2.375 -11.125 2.375 -10 -1 C-6.063 -2.312 -3.875 -1.243 0 0 Z " fill="#1A1147" transform="translate(45,36)"/>
<path d="M0 0 C0.33 0 0.66 0 1 0 C1.182 0.927 1.364 1.854 1.551 2.809 C1.802 4.006 2.054 5.204 2.312 6.438 C2.556 7.632 2.8 8.827 3.051 10.059 C3.364 11.029 3.677 12 4 13 C4.99 13.33 5.98 13.66 7 14 C7.33 14.66 7.66 15.32 8 16 C9.454 16.433 9.454 16.433 10.938 16.875 C14 18 14 18 15.188 20 C15.456 20.66 15.724 21.32 16 22 C16.99 22.66 17.98 23.32 19 24 C12.569 23.732 8.558 21.548 4 17 C-0.022 11.638 -0.546 6.548 0 0 Z " fill="#E02165" transform="translate(20,84)"/>
<path d="M0 0 C8.559 5.761 8.559 5.761 11 10 C11.49 14.115 11.376 18.176 11.25 22.312 C11.232 23.435 11.214 24.557 11.195 25.713 C11.148 28.476 11.083 31.238 11 34 C10.34 34 9.68 34 9 34 C8.752 34.784 8.505 35.567 8.25 36.375 C6.813 39.392 5.953 39.716 3 41 C3.352 40.479 3.703 39.957 4.065 39.42 C7.918 33.216 8.897 28.185 8.812 20.938 C8.811 19.964 8.809 18.99 8.807 17.987 C8.614 12.408 8.205 8.791 4 4.75 C2.675 3.821 1.344 2.9 0 2 C0 1.34 0 0.68 0 0 Z " fill="#001A1F" transform="translate(52,64)"/>
<path d="M0 0 C0.99 0.33 1.98 0.66 3 1 C3.33 1.99 3.66 2.98 4 4 C4.866 3.536 4.866 3.536 5.75 3.062 C7.843 2.074 9.745 1.483 12 1 C11.216 1.742 10.432 2.485 9.625 3.25 C6.079 6.965 4.824 9.662 4.375 14.75 C4.3 15.549 4.225 16.348 4.148 17.172 C4.099 17.775 4.05 18.378 4 19 C3.67 19 3.34 19 3 19 C2.944 17.879 2.944 17.879 2.887 16.734 C2.788 15.257 2.788 15.257 2.688 13.75 C2.629 12.775 2.571 11.801 2.512 10.797 C1.954 7.747 1.036 6.293 -1 4 C-1.289 5.134 -1.578 6.269 -1.875 7.438 C-2.246 8.613 -2.617 9.789 -3 11 C-3.99 11.495 -3.99 11.495 -5 12 C-5.22 8.154 -4.767 5.442 -3 2 C-2.01 1.34 -1.02 0.68 0 0 Z " fill="#E61F64" transform="translate(26,30)"/>
<path d="M0 0 C3.568 1.514 5.837 3.605 8.547 6.352 C9.391 7.202 10.236 8.053 11.105 8.93 C11.978 9.819 12.851 10.709 13.75 11.625 C14.638 12.522 15.526 13.419 16.441 14.344 C18.632 16.558 20.818 18.777 23 21 C22.67 21.99 22.34 22.98 22 24 C15.667 17.667 9.333 11.333 3 5 C2.413 4.454 1.826 3.909 1.222 3.347 C0 2 0 2 0 0 Z " fill="#0AAD61" transform="translate(36,53)"/>
<path d="M0 0 C2.88 2.601 4.217 4.217 5 8 C5.66 8.33 6.32 8.66 7 9 C5.02 9 3.04 9 1 9 C1 9.66 1 10.32 1 11 C0.34 11 -0.32 11 -1 11 C-1.619 10.051 -2.237 9.102 -2.875 8.125 C-5.729 3.928 -7.372 3.313 -12.25 2.375 C-13.157 2.251 -14.065 2.128 -15 2 C-15 1.67 -15 1.34 -15 1 C-9.877 0.699 -7.263 1.199 -3 4 C-2.34 3.67 -1.68 3.34 -1 3 C-0.67 2.01 -0.34 1.02 0 0 Z " fill="#307CF3" transform="translate(100,29)"/>
<path d="M0 0 C0.33 0 0.66 0 1 0 C1 1.65 1 3.3 1 5 C1.99 5 2.98 5 4 5 C3 7 2 9 1 11 C-1.97 10.505 -1.97 10.505 -5 10 C-5 10.66 -5 11.32 -5 12 C-5.66 12 -6.32 12 -7 12 C-7.33 12.66 -7.66 13.32 -8 14 C-8.66 12.68 -9.32 11.36 -10 10 C-9.278 9.649 -8.556 9.299 -7.812 8.938 C-4.666 6.77 -3.081 4.582 -1.016 1.426 C-0.68 0.955 -0.345 0.485 0 0 Z " fill="#05173D" transform="translate(109,95)"/>
<path d="M0 0 C0.66 0 1.32 0 2 0 C2 5.61 2 11.22 2 17 C0.68 17.33 -0.64 17.66 -2 18 C-2.054 15.375 -2.094 12.751 -2.125 10.125 C-2.142 9.379 -2.159 8.632 -2.176 7.863 C-2.193 5.908 -2.103 3.953 -2 2 C-1.34 1.34 -0.68 0.68 0 0 Z " fill="#0F133B" transform="translate(65,79)"/>
<path d="M0 0 C0.33 0.66 0.66 1.32 1 2 C0.371 2.003 -0.258 2.005 -0.906 2.008 C-8.061 2.331 -11.758 4.263 -17 9 C-17.824 9.718 -18.647 10.436 -19.496 11.176 C-21.683 13.097 -23.849 15.038 -26 17 C-26 14 -26 14 -23.5 11.312 C-22.675 10.549 -21.85 9.786 -21 9 C-21.66 9 -22.32 9 -23 9 C-23 8.34 -23 7.68 -23 7 C-22.34 7 -21.68 7 -21 7 C-21 6.34 -21 5.68 -21 5 C-20.34 5 -19.68 5 -19 5 C-18.67 5.66 -18.34 6.32 -18 7 C-17.34 6.01 -16.68 5.02 -16 4 C-15.34 4 -14.68 4 -14 4 C-14 3.34 -14 2.68 -14 2 C-9.127 0.409 -5.192 -0.212 0 0 Z " fill="#41E2F9" transform="translate(97,23)"/>
<path d="M0 0 C0 1.32 0 2.64 0 4 C0.99 4 1.98 4 3 4 C3 4.99 3 5.98 3 7 C0.374 8.845 -1.951 9.984 -5 11 C-5.66 10.34 -6.32 9.68 -7 9 C-6.67 8.34 -6.34 7.68 -6 7 C-6.66 7 -7.32 7 -8 7 C-7.67 5.68 -7.34 4.36 -7 3 C-6.01 3 -5.02 3 -4 3 C-4 2.34 -4 1.68 -4 1 C-2 0 -2 0 0 0 Z " fill="#FD0265" transform="translate(35,24)"/>
<path d="M0 0 C0.66 0.33 1.32 0.66 2 1 C2.731 3.314 3.401 5.648 4 8 C6.97 8.495 6.97 8.495 10 9 C10 10.65 10 12.3 10 14 C7.832 14.809 7.832 14.809 5 15 C2.324 12.91 2.324 12.91 -0.312 10.062 C-1.196 9.125 -2.079 8.188 -2.988 7.223 C-3.652 6.489 -4.316 5.756 -5 5 C-4.01 5 -3.02 5 -2 5 C-1.34 5.66 -0.68 6.32 0 7 C0 4.69 0 2.38 0 0 Z " fill="#9B21C4" transform="translate(58,53)"/>
<path d="M0 0 C0.99 0.33 1.98 0.66 3 1 C3.33 1.99 3.66 2.98 4 4 C4.99 4.33 5.98 4.66 7 5 C6.688 6.938 6.688 6.938 6 9 C3 10 3 10 0.957 9.223 C0.249 8.84 -0.458 8.457 -1.188 8.062 C-1.903 7.682 -2.618 7.302 -3.355 6.91 C-4.17 6.46 -4.17 6.46 -5 6 C-3.865 2.596 -3.032 1.783 0 0 Z " fill="#0DE772" transform="translate(80,97)"/>
<path d="M0 0 C0.66 0 1.32 0 2 0 C2 0.66 2 1.32 2 2 C3.98 1.34 5.96 0.68 8 0 C9.534 3.069 8.55 5.701 8 9 C5.812 9.312 5.812 9.312 3 9 C0.188 6.5 0.188 6.5 -2 4 C-1.34 2.68 -0.68 1.36 0 0 Z " fill="#1BE877" transform="translate(27,62)"/>
<path d="M0 0 C0.66 0.33 1.32 0.66 2 1 C-0.475 3.504 -2.956 6.003 -5.438 8.5 C-6.498 9.573 -6.498 9.573 -7.58 10.668 C-8.254 11.345 -8.927 12.021 -9.621 12.719 C-10.244 13.347 -10.867 13.976 -11.51 14.623 C-13 16 -13 16 -14 16 C-14.438 13.438 -14.438 13.438 -14 10 C-11.913 7.38 -9.533 5.184 -7 3 C-6.34 3.33 -5.68 3.66 -5 4 C-3.35 2.68 -1.7 1.36 0 0 Z " fill="#EC9700" transform="translate(84,71)"/>
<path d="M0 0 C6.68 4.499 6.68 4.499 7.465 8.18 C7.438 10.375 7.438 10.375 7 14 C3.175 12.549 1.809 10.618 0 7 C0 6.34 0 5.68 0 5 C-0.66 5 -1.32 5 -2 5 C-2.33 4.01 -2.66 3.02 -3 2 C-2.01 1.34 -1.02 0.68 0 0 Z " fill="#29E874" transform="translate(53,72)"/>
<path d="M0 0 C8.799 -0.417 16.237 -0.712 24 4 C24 4.33 24 4.66 24 5 C18.25 5.125 18.25 5.125 16 4 C16 4.66 16 5.32 16 6 C15.34 6 14.68 6 14 6 C14 5.34 14 4.68 14 4 C10.851 2.95 8.612 2.899 5.312 2.938 C4.319 2.947 3.325 2.956 2.301 2.965 C1.542 2.976 0.782 2.988 0 3 C0 2.01 0 1.02 0 0 Z " fill="#282B41" transform="translate(34,14)"/>
<path d="M0 0 C2.117 0.395 2.117 0.395 4 1 C3.064 2.106 2.126 3.209 1.188 4.312 C0.404 5.235 0.404 5.235 -0.395 6.176 C-3.337 9.52 -3.337 9.52 -5 11 C-5.66 11 -6.32 11 -7 11 C-7 11.66 -7 12.32 -7 13 C-8.32 12.34 -9.64 11.68 -11 11 C-9.655 6.965 -7.519 6.277 -4 4 C-3.299 3.237 -2.597 2.474 -1.875 1.688 C-1.256 1.131 -0.638 0.574 0 0 Z " fill="#06B964" transform="translate(83,89)"/>
<path d="M0 0 C0.66 0 1.32 0 2 0 C2 0.66 2 1.32 2 2 C2.784 2.083 3.568 2.165 4.375 2.25 C7 3 7 3 8.312 4.688 C9.159 7.535 9.134 10.046 9 13 C3.872 10.019 1.247 6.966 -2 2 C-1.34 2 -0.68 2 0 2 C0 1.34 0 0.68 0 0 Z " fill="#B90EDF" transform="translate(50,48)"/>
<path d="M0 0 C0.99 0.33 1.98 0.66 3 1 C3 1.66 3 2.32 3 3 C3.99 3.33 4.98 3.66 6 4 C4 6 4 6 1.375 6.125 C0.591 6.084 -0.192 6.043 -1 6 C-1.041 6.557 -1.082 7.114 -1.125 7.688 C-2.469 11.24 -5.01 12.71 -8 15 C-8 12.69 -8 10.38 -8 8 C-5.509 6.755 -4.589 7.223 -2 8 C-2.34 7.134 -2.34 7.134 -2.688 6.25 C-3 4 -3 4 -1.562 1.75 C-1.047 1.172 -0.531 0.595 0 0 Z " fill="#101439" transform="translate(91,45)"/>
<path d="M0 0 C0.66 0.33 1.32 0.66 2 1 C1.67 2.32 1.34 3.64 1 5 C2.32 5.33 3.64 5.66 5 6 C3.824 6.619 3.824 6.619 2.625 7.25 C-0.059 9.039 -0.881 10.05 -2 13 C-2.99 12.67 -3.98 12.34 -5 12 C-4.34 12 -3.68 12 -3 12 C-3.743 11.35 -3.743 11.35 -4.5 10.688 C-6 9 -6 9 -6 6 C-3.562 3.375 -3.562 3.375 -1 1 C-0.67 0.67 -0.34 0.34 0 0 Z " fill="#0A71F4" transform="translate(77,45)"/>
<path d="M0 0 C0.99 0 1.98 0 3 0 C1.125 4.75 1.125 4.75 0 7 C-0.084 8.521 -0.107 10.047 -0.098 11.57 C-0.094 12.466 -0.091 13.362 -0.088 14.285 C-0.08 15.222 -0.071 16.159 -0.062 17.125 C-0.058 18.07 -0.053 19.015 -0.049 19.988 C-0.037 22.326 -0.021 24.663 0 27 C2.494 25.796 4.681 24.546 7 23 C6.01 26.465 6.01 26.465 5 30 C2.69 29.34 0.38 28.68 -2 28 C-2 20.08 -2 12.16 -2 4 C-1.34 4 -0.68 4 0 4 C0 2.68 0 1.36 0 0 Z " fill="#370831" transform="translate(21,28)"/>
<path d="M0 0 C2.438 0.75 2.438 0.75 5 2 C5.812 4.125 5.812 4.125 6 6 C7.32 6.33 8.64 6.66 10 7 C10.33 8.65 10.66 10.3 11 12 C9.02 11.34 7.04 10.68 5 10 C5 9.34 5 8.68 5 8 C3.68 7.67 2.36 7.34 1 7 C0.67 4.69 0.34 2.38 0 0 Z " fill="#FB0338" transform="translate(22,90)"/>
<path d="M0 0 C2 2 2 2 2 5 C1.34 5 0.68 5 0 5 C0 4.34 0 3.68 0 3 C-5.333 3.41 -7.393 4.16 -11 8 C-14.25 9.25 -14.25 9.25 -17 10 C-8.16 -0.756 -8.16 -0.756 0 0 Z " fill="#1962D7" transform="translate(91,37)"/>
<path d="M0 0 C2.813 3.18 3.819 5.741 4 10 C2.75 11.875 2.75 11.875 1 13 C0.01 13 -0.98 13 -2 13 C-2.054 11.209 -2.093 9.417 -2.125 7.625 C-2.148 6.627 -2.171 5.63 -2.195 4.602 C-2 2 -2 2 0 0 Z " fill="#FB0963" transform="translate(23,40)"/>
<path d="M0 0 C2.354 -0.055 4.708 -0.094 7.062 -0.125 C9.029 -0.16 9.029 -0.16 11.035 -0.195 C15.118 0.006 18.15 0.728 22 2 C22.33 3.32 22.66 4.64 23 6 C22.113 5.526 21.226 5.051 20.312 4.562 C14.801 1.963 9.054 1.09 3 2 C-0.203 3.38 -3.074 5.113 -6 7 C-6.99 7.495 -6.99 7.495 -8 8 C-7.67 6.35 -7.34 4.7 -7 3 C-3.535 2.505 -3.535 2.505 0 2 C0 1.34 0 0.68 0 0 Z " fill="#290831" transform="translate(33,19)"/>
<path d="M0 0 C0.66 0.33 1.32 0.66 2 1 C0.588 2.608 -0.83 4.211 -2.25 5.812 C-3.433 7.152 -3.433 7.152 -4.641 8.52 C-7 11 -7 11 -9.25 12.562 C-11.167 13.864 -11.167 13.864 -11.609 16.043 C-11.656 16.751 -11.702 17.458 -11.75 18.188 C-11.832 19.446 -11.915 20.704 -12 22 C-11.34 22.33 -10.68 22.66 -10 23 C-11.485 23.99 -11.485 23.99 -13 25 C-14.778 21.445 -14.758 17.864 -14 14 C-12.077 11.009 -9.649 8.787 -7 6.438 C-6.332 5.81 -5.665 5.183 -4.977 4.537 C-3.336 3.002 -1.679 1.492 0 0 Z " fill="#F8EA36" transform="translate(83,74)"/>
<path d="M0 0 C3.786 0.541 5.554 2.117 8 5 C8 5.66 8 6.32 8 7 C7.34 7 6.68 7 6 7 C6 7.99 6 8.98 6 10 C5.34 10 4.68 10 4 10 C3.67 9.01 3.34 8.02 3 7 C1.68 7.33 0.36 7.66 -1 8 C-1.33 6.35 -1.66 4.7 -2 3 C-1.34 3 -0.68 3 0 3 C0 2.01 0 1.02 0 0 Z " fill="#FBF005" transform="translate(38,70)"/>
<path d="M0 0 C2.335 0.173 3.692 0.702 5.379 2.332 C9 6.572 9 6.572 9 9 C7.02 9.33 5.04 9.66 3 10 C3 9.34 3 8.68 3 8 C2.34 8 1.68 8 1 8 C-0.429 5.646 -1.087 4.52 -0.625 1.75 C-0.419 1.172 -0.212 0.595 0 0 Z " fill="#F58602" transform="translate(43,96)"/>
<path d="M0 0 C4.649 0.461 6.547 2.131 9.688 5.5 C12.529 8.672 12.529 8.672 16 11 C16 11.66 16 12.32 16 13 C12.814 11.607 10.802 9.971 8.438 7.438 C6.166 5.004 5.232 4.077 2 3 C1.67 5.31 1.34 7.62 1 10 C-0.32 8.68 -1.64 7.36 -3 6 C-2.01 5.67 -1.02 5.34 0 5 C0 3.35 0 1.7 0 0 Z " fill="#D5F63C" transform="translate(36,67)"/>
<path d="M0 0 C0.66 0 1.32 0 2 0 C3.102 4.409 3.077 8.484 3 13 C-0.826 11.549 -2.223 9.642 -4 6 C-4 5.01 -4 4.02 -4 3 C-2.68 3 -1.36 3 0 3 C0 2.01 0 1.02 0 0 Z " fill="#C011C2" transform="translate(106,43)"/>
<path d="M0 0 C0.994 0.009 1.988 0.018 3.012 0.027 C4.151 0.045 4.151 0.045 5.312 0.062 C4.983 0.722 4.653 1.382 4.312 2.062 C4.642 3.052 4.972 4.043 5.312 5.062 C3.542 5.117 1.771 5.155 0 5.188 C-1.479 5.222 -1.479 5.222 -2.988 5.258 C-5.688 5.062 -5.688 5.062 -8.688 3.062 C-8.688 2.403 -8.688 1.743 -8.688 1.062 C-5.538 0.013 -3.299 -0.039 0 0 Z " fill="#131033" transform="translate(41.6875,108.9375)"/>
<path d="M0 0 C0.66 0.33 1.32 0.66 2 1 C0.688 2.5 0.688 2.5 -1 4 C-1.99 4 -2.98 4 -4 4 C-4 4.99 -4 5.98 -4 7 C-7.3 7 -10.6 7 -14 7 C-14 5.35 -14 3.7 -14 2 C-13.241 1.939 -12.481 1.879 -11.699 1.816 C-10.705 1.733 -9.711 1.649 -8.688 1.562 C-7.701 1.481 -6.715 1.4 -5.699 1.316 C-2.906 1.082 -2.906 1.082 0 0 Z " fill="#0C1536" transform="translate(97,106)"/>
<path d="M0 0 C0.33 0 0.66 0 1 0 C1 3.96 1 7.92 1 12 C1.66 12.33 2.32 12.66 3 13 C2.67 13.33 2.34 13.66 2 14 C2.66 14.66 3.32 15.32 4 16 C3.34 16.66 2.68 17.32 2 18 C1.54 20.203 1.54 20.203 1.375 22.625 C1.3 23.442 1.225 24.26 1.148 25.102 C1.099 25.728 1.05 26.355 1 27 C0.67 27 0.34 27 0 27 C0 24.36 0 21.72 0 19 C-1.32 19.33 -2.64 19.66 -4 20 C-4 19.01 -4 18.02 -4 17 C-3.34 17 -2.68 17 -2 17 C-1.34 11.39 -0.68 5.78 0 0 Z " fill="#062353" transform="translate(68,33)"/>
<path d="M0 0 C3.672 3.375 6.089 6.375 8 11 C8 11.99 8 12.98 8 14 C7.34 14 6.68 14 6 14 C5.34 12.35 4.68 10.7 4 9 C4 9.99 4 10.98 4 12 C3.34 12 2.68 12 2 12 C1.67 12.66 1.34 13.32 1 14 C1 11.69 1 9.38 1 7 C0.34 6.67 -0.32 6.34 -1 6 C-0.34 6 0.32 6 1 6 C0.67 4.02 0.34 2.04 0 0 Z " fill="#262D44" transform="translate(107,21)"/>
<path d="M0 0 C2.475 0.99 2.475 0.99 5 2 C4.67 4.64 4.34 7.28 4 10 C2.125 9.688 2.125 9.688 0 9 C-2 6 -2 6 -1.688 3.375 C-1 1 -1 1 0 0 Z " fill="#0EE978" transform="translate(103,77)"/>
<path d="M0 0 C0.66 1.65 1.32 3.3 2 5 C3.65 4.67 5.3 4.34 7 4 C7 7 7 7 6 9 C3.03 8.505 3.03 8.505 0 8 C0 9.65 0 11.3 0 13 C-1.65 13 -3.3 13 -5 13 C-3.68 12.67 -2.36 12.34 -1 12 C-1 9.36 -1 6.72 -1 4 C-2.65 4.33 -4.3 4.66 -6 5 C-6 4.34 -6 3.68 -6 3 C-2.538 0 -2.538 0 0 0 Z " fill="#38E46A" transform="translate(36,59)"/>
<path d="M0 0 C0.33 0 0.66 0 1 0 C1 6.93 1 13.86 1 21 C0.01 21.33 -0.98 21.66 -2 22 C-2.33 22.66 -2.66 23.32 -3 24 C-2.34 24 -1.68 24 -1 24 C-1 24.66 -1 25.32 -1 26 C-1.66 26 -2.32 26 -3 26 C-3.33 26.66 -3.66 27.32 -4 28 C-5.63 23.878 -6.263 21.293 -5 17 C-3.35 17.99 -1.7 18.98 0 20 C0 13.4 0 6.8 0 0 Z " fill="#3C1257" transform="translate(109,36)"/>
<path d="M0 0 C4.526 3.678 8.394 7.411 12 12 C10.35 12.33 8.7 12.66 7 13 C7 12.01 7 11.02 7 10 C5.35 9.67 3.7 9.34 2 9 C0 2.25 0 2.25 0 0 Z " fill="#230D44" transform="translate(46,51)"/>
<path d="M0 0 C2.31 0.66 4.62 1.32 7 2 C5.02 4.31 3.04 6.62 1 9 C0.34 7.68 -0.32 6.36 -1 5 C-4.562 4.181 -4.562 4.181 -8 4 C-7.67 3.01 -7.34 2.02 -7 1 C-5.824 1.309 -5.824 1.309 -4.625 1.625 C-3.759 1.749 -2.892 1.873 -2 2 C-1.34 1.34 -0.68 0.68 0 0 Z " fill="#270E2C" transform="translate(69,65)"/>
<path d="M0 0 C3.054 0.218 4.059 1.059 6.25 3.25 C9.345 8.159 8.297 14.445 8 20 C4.674 18.474 3.044 17.067 1 14 C2.32 14.66 3.64 15.32 5 16 C5.668 9.796 5.668 9.796 3.887 4 C2.385 2.183 2.385 2.183 0 0 Z " fill="#CF3670" transform="translate(53,25)"/>
<path d="M0 0 C0.375 2.75 0.375 2.75 0 6 C-2.812 8.438 -2.812 8.438 -6 10 C-6.99 9.67 -7.98 9.34 -9 9 C-9 8.01 -9 7.02 -9 6 C-7.68 5.34 -6.36 4.68 -5 4 C-5 3.34 -5 2.68 -5 2 C-2 0 -2 0 0 0 Z " fill="#1D213D" transform="translate(60,103)"/>
<path d="M0 0 C3.452 1.477 5.65 3.438 8.25 6.125 C8.956 6.849 9.663 7.574 10.391 8.32 C11.187 9.152 11.187 9.152 12 10 C10.266 10.684 10.266 10.684 8 11 C5.859 9.785 5.859 9.785 3.75 8.062 C3.044 7.497 2.337 6.931 1.609 6.348 C1.078 5.903 0.547 5.458 0 5 C0.66 4.67 1.32 4.34 2 4 C2 3.34 2 2.68 2 2 C1.34 2 0.68 2 0 2 C0 1.34 0 0.68 0 0 Z " fill="#2F0B38" transform="translate(46,33)"/>
<path d="M0 0 C0.794 -0.017 1.588 -0.034 2.406 -0.051 C3.097 0.069 3.788 0.189 4.5 0.312 C6.5 3.312 6.5 3.312 6.125 5.5 C5.919 6.098 5.713 6.696 5.5 7.312 C5.005 7.044 4.51 6.776 4 6.5 C0.576 4.874 -2.941 3.617 -6.5 2.312 C-4.075 -0.113 -3.328 0.016 0 0 Z " fill="#067CFC" transform="translate(93.5,26.6875)"/>
<path d="M0 0 C0.66 0.33 1.32 0.66 2 1 C1.34 3.97 0.68 6.94 0 10 C-2.31 9.67 -4.62 9.34 -7 9 C-5.445 5.183 -2.964 2.808 0 0 Z " fill="#21233C" transform="translate(25,18)"/>
<path d="M0 0 C0 3.96 0 7.92 0 12 C-0.99 12.495 -0.99 12.495 -2 13 C-2 12.34 -2 11.68 -2 11 C-2.66 11 -3.32 11 -4 11 C-5.414 8.171 -5.319 6.126 -5 3 C-1.9 0 -1.9 0 0 0 Z " fill="#091233" transform="translate(68,33)"/>
<path d="M0 0 C5.45 2.643 10.281 7.562 13 13 C8.123 12.068 4.487 9.471 1 6 C0 2.625 0 2.625 0 0 Z " fill="#F86C06" transform="translate(36,79)"/>
<path d="M0 0 C1.07 3.758 1.07 3.758 0.438 5.938 C-1.623 8.894 -4.163 10.78 -7 13 C-7.438 10.438 -7.438 10.438 -7 7 C-4.913 4.38 -2.533 2.184 0 0 Z " fill="#E02C18" transform="translate(76,67)"/>
<path d="M0 0 C-6.15 7.483 -6.15 7.483 -10 10 C-11 7 -11 7 -9.875 4.5 C-7.025 0.7 -4.732 -1.577 0 0 Z " fill="#EC220D" transform="translate(87,62)"/>
<path d="M0 0 C0.99 0 1.98 0 3 0 C5.296 3.445 5.54 5.938 6 10 C5.01 10.33 4.02 10.66 3 11 C1.5 10 1.5 10 0 8 C-0.273 5.282 -0.135 2.743 0 0 Z " fill="#F58D02" transform="translate(21,75)"/>
<path d="M0 0 C0.66 0.33 1.32 0.66 2 1 C1.67 1.33 1.34 1.66 1 2 C1.66 2.454 2.32 2.907 3 3.375 C3.66 3.911 4.32 4.448 5 5 C5 5.66 5 6.32 5 7 C5.66 7.33 6.32 7.66 7 8 C6.34 8 5.68 8 5 8 C5 9.32 5 10.64 5 12 C4.01 12 3.02 12 2 12 C2 10.02 2 8.04 2 6 C1.01 5.67 0.02 5.34 -1 5 C-3.677 6.372 -3.677 6.372 -6 8 C-4.769 4.306 -2.792 2.649 0 0 Z " fill="#1EE577" transform="translate(96,81)"/>
<path d="M0 0 C1.32 0 2.64 0 4 0 C4.125 5.75 4.125 5.75 3 8 C-1.75 7.125 -1.75 7.125 -4 6 C-2.848 3.532 -1.952 1.952 0 0 Z " fill="#FCEC16" transform="translate(90,67)"/>
<path d="M0 0 C1.32 0.99 2.64 1.98 4 3 C3.444 6.599 2.251 7.999 -0.562 10.25 C-1.203 10.771 -1.844 11.292 -2.504 11.828 C-2.998 12.215 -3.491 12.602 -4 13 C-2.5 10 -2.5 10 -1 7 C-2.32 7.33 -3.64 7.66 -5 8 C-4.34 6.68 -3.68 5.36 -3 4 C-2.34 4 -1.68 4 -1 4 C-0.67 2.68 -0.34 1.36 0 0 Z " fill="#FA9F12" transform="translate(99,58)"/>
<path d="M0 0 C1.98 0.66 3.96 1.32 6 2 C3.037 4.387 0.057 6.735 -3 9 C-3.33 8.01 -3.66 7.02 -4 6 C-6.015 5.267 -6.015 5.267 -8 5 C-6.68 5 -5.36 5 -4 5 C-3.67 4.01 -3.34 3.02 -3 2 C-2.01 2 -1.02 2 0 2 C0 1.34 0 0.68 0 0 Z " fill="#101F3E" transform="translate(74,19)"/>
<path d="M0 0 C0.33 2.31 0.66 4.62 1 7 C-0.32 7.33 -1.64 7.66 -3 8 C-3 8.99 -3 9.98 -3 11 C-3.66 11 -4.32 11 -5 11 C-5.367 3.534 -5.367 3.534 -3.625 1 C-2 0 -2 0 0 0 Z " fill="#F6F201" transform="translate(76,85)"/>
<path d="M0 0 C0.459 0.398 0.918 0.797 1.391 1.207 C4.523 3.911 7.639 6.58 11 9 C6.59 8.51 5.026 7.123 2 4 C0.68 3.67 -0.64 3.34 -2 3 C-2 8.61 -2 14.22 -2 20 C-2.33 20 -2.66 20 -3 20 C-3.081 17.041 -3.14 14.084 -3.188 11.125 C-3.213 10.283 -3.238 9.441 -3.264 8.574 C-3.273 7.769 -3.283 6.963 -3.293 6.133 C-3.309 5.389 -3.324 4.646 -3.341 3.879 C-3.228 3.259 -3.116 2.639 -3 2 C-2.01 1.34 -1.02 0.68 0 0 Z " fill="#BE8932" transform="translate(23,64)"/>
<path d="M0 0 C-3.445 2.296 -5.938 2.54 -10 3 C-10 3.66 -10 4.32 -10 5 C-11.32 5.33 -12.64 5.66 -14 6 C-14.66 4.68 -15.32 3.36 -16 2 C-10.605 -0.271 -5.738 -0.204 0 0 Z " fill="#22E3EA" transform="translate(93,22)"/>
<path d="M0 0 C1.98 0.99 3.96 1.98 6 3 C6 3.66 6 4.32 6 5 C5.34 5 4.68 5 4 5 C3.67 5.66 3.34 6.32 3 7 C1.062 7.688 1.062 7.688 -1 8 C-1.66 7.67 -2.32 7.34 -3 7 C-1.125 1.125 -1.125 1.125 0 0 Z " fill="#FBEE01" transform="translate(85,72)"/>
<path d="M0 0 C0 0.99 0 1.98 0 3 C-0.66 3.66 -1.32 4.32 -2 5 C-2.458 6.972 -2.458 6.972 -2.625 9.125 C-2.749 10.404 -2.873 11.683 -3 13 C-1.35 12.67 0.3 12.34 2 12 C1.024 13.17 0.044 14.336 -0.938 15.5 C-1.483 16.15 -2.028 16.799 -2.59 17.469 C-3.055 17.974 -3.521 18.479 -4 19 C-4.33 19 -4.66 19 -5 19 C-4.94 16.581 -4.853 14.168 -4.75 11.75 C-4.736 11.068 -4.722 10.386 -4.707 9.684 C-4.534 6.129 -4.245 4.298 -1.953 1.516 C-1.309 1.015 -0.664 0.515 0 0 Z " fill="#475BD3" transform="translate(73,47)"/>
<path d="M0 0 C1.32 0.66 2.64 1.32 4 2 C3.064 3.106 2.126 4.209 1.188 5.312 C0.404 6.235 0.404 6.235 -0.395 7.176 C-1.872 8.854 -3.4 10.439 -5 12 C-5.99 11.67 -6.98 11.34 -8 11 C-7.34 10.34 -6.68 9.68 -6 9 C-6 8.01 -6 7.02 -6 6 C-5.381 5.938 -4.762 5.876 -4.125 5.812 C-1.722 5.171 -1.722 5.171 -0.75 2.438 C-0.503 1.633 -0.255 0.829 0 0 Z " fill="#0E1638" transform="translate(28,51)"/>
<path d="M0 0 C0.99 0.66 1.98 1.32 3 2 C3 4 3 4 1.125 6.125 C-1 8 -1 8 -3 8 C-3 8.66 -3 9.32 -3 10 C-4.32 10.33 -5.64 10.66 -7 11 C-6.407 7.608 -5.233 5.789 -2.938 3.25 C-2.39 2.636 -1.842 2.023 -1.277 1.391 C-0.856 0.932 -0.434 0.473 0 0 Z " fill="#DB7D0F" transform="translate(103,62)"/>
<path d="M0 0 C-0.33 1.98 -0.66 3.96 -1 6 C-1.99 6 -2.98 6 -4 6 C-4 5.34 -4 4.68 -4 4 C-4.969 4.784 -5.939 5.568 -6.938 6.375 C-7.483 6.816 -8.028 7.257 -8.59 7.711 C-10.133 8.967 -10.133 8.967 -11 11 C-11.99 10.67 -12.98 10.34 -14 10 C-12.569 8.515 -11.13 7.037 -9.688 5.562 C-8.887 4.739 -8.086 3.915 -7.262 3.066 C-4.85 0.863 -3.294 0 0 0 Z " fill="#071441" transform="translate(84,54)"/>
<path d="M0 0 C0.33 0 0.66 0 1 0 C1.33 3.63 1.66 7.26 2 11 C2.66 10.67 3.32 10.34 4 10 C4.33 12.31 4.66 14.62 5 17 C3.35 17.33 1.7 17.66 0 18 C0 12.06 0 6.12 0 0 Z " fill="#0E1132" transform="translate(15,40)"/>
<path d="M0 0 C0.99 0.33 1.98 0.66 3 1 C3 2.32 3 3.64 3 5 C3.99 5.33 4.98 5.66 6 6 C6 6.66 6 7.32 6 8 C6.99 8.33 7.98 8.66 9 9 C3.719 8.485 0.428 6.745 -4 4 C-2.68 2.68 -1.36 1.36 0 0 Z " fill="#2B2D42" transform="translate(73,105)"/>
<path d="M0 0 C1.32 0.66 2.64 1.32 4 2 C3.688 3.875 3.688 3.875 3 6 C0 8 0 8 -3 8 C-3.33 7.01 -3.66 6.02 -4 5 C-2.062 2.312 -2.062 2.312 0 0 Z " fill="#F69403" transform="translate(95,56)"/>
<path d="M0 0 C3.497 0.648 6.071 1.996 9 4 C9.99 5.485 9.99 5.485 11 7 C5.627 6.824 5.627 6.824 3 6 C1 2.938 1 2.938 0 0 Z " fill="#F41531" transform="translate(33,101)"/>
<path d="M0 0 C0 3.96 0 7.92 0 12 C-0.33 11.34 -0.66 10.68 -1 10 C-1.33 10.66 -1.66 11.32 -2 12 C-2.66 12 -3.32 12 -4 12 C-4.081 10.563 -4.139 9.126 -4.188 7.688 C-4.222 6.887 -4.257 6.086 -4.293 5.262 C-3.984 2.879 -2.86 0 0 0 Z " fill="#0B1134" transform="translate(19,76)"/>
<path d="M0 0 C0.33 1.32 0.66 2.64 1 4 C1.99 3.67 2.98 3.34 4 3 C4.33 3.66 4.66 4.32 5 5 C4.01 5 3.02 5 2 5 C2 5.99 2 6.98 2 8 C3.32 8 4.64 8 6 8 C6 5.36 6 2.72 6 0 C6.33 0 6.66 0 7 0 C7 3.3 7 6.6 7 10 C5 10.043 3 10.041 1 10 C0 9 0 9 -0.098 6.934 C-0.086 6.11 -0.074 5.286 -0.062 4.438 C-0.053 3.611 -0.044 2.785 -0.035 1.934 C-0.024 1.296 -0.012 0.657 0 0 Z " fill="#180B42" transform="translate(61,52)"/>
<path d="M0 0 C3.449 0.414 5.345 1.331 8.125 3.375 C8.125 3.705 8.125 4.035 8.125 4.375 C6.475 4.375 4.825 4.375 3.125 4.375 C3.125 3.715 3.125 3.055 3.125 2.375 C-1.33 2.87 -1.33 2.87 -5.875 3.375 C-2.875 0.375 -2.875 0.375 0 0 Z M2.125 4.375 C3.115 5.035 4.105 5.695 5.125 6.375 C4.795 7.035 4.465 7.695 4.125 8.375 C2.145 7.715 0.165 7.055 -1.875 6.375 C-0.555 5.715 0.765 5.055 2.125 4.375 Z " fill="#032159" transform="translate(87.875,30.625)"/>
<path d="M0 0 C0.66 0.33 1.32 0.66 2 1 C1.67 1.99 1.34 2.98 1 4 C0.01 4.33 -0.98 4.66 -2 5 C-3.006 6.328 -4.007 7.662 -5 9 C-5.66 9 -6.32 9 -7 9 C-7.33 10.65 -7.66 12.3 -8 14 C-8.672 12.258 -8.672 12.258 -9 10 C-7.891 7.93 -7.891 7.93 -6.25 5.875 C-5.719 5.192 -5.188 4.509 -4.641 3.805 C-3 2 -3 2 0 0 Z " fill="#E03E85" transform="translate(30,23)"/>
<path d="M0 0 C4.96 1.269 7.806 2.96 11 7 C11.312 9.812 11.312 9.812 11 12 C6.125 7.375 6.125 7.375 5 4 C3.684 3.301 2.35 2.633 1 2 C0.67 1.34 0.34 0.68 0 0 Z " fill="#FDA30B" transform="translate(42,93)"/>
<path d="M0 0 C2.64 0 5.28 0 8 0 C8 1.32 8 2.64 8 4 C2.25 4.125 2.25 4.125 0 3 C-0.33 3.99 -0.66 4.98 -1 6 C-0.67 4.02 -0.34 2.04 0 0 Z " fill="#8E32EA" transform="translate(101,38)"/>
<path d="M0 0 C4.431 1.208 6.981 2.517 10 6 C8.02 6.66 6.04 7.32 4 8 C1.846 5.378 0.599 3.356 0 0 Z " fill="#36384C" transform="translate(97,15)"/>
<path d="M0 0 C0.66 0.33 1.32 0.66 2 1 C2 3.97 2 6.94 2 10 C1.34 10 0.68 10 0 10 C-0.248 10.784 -0.495 11.567 -0.75 12.375 C-2.187 15.392 -3.047 15.716 -6 17 C-5.651 16.443 -5.301 15.886 -4.941 15.312 C-1.814 10.067 -0.333 6.103 0 0 Z " fill="#1D1412" transform="translate(61,88)"/>
<path d="M0 0 C0.99 0.33 1.98 0.66 3 1 C3 3.97 3 6.94 3 10 C2.34 10 1.68 10 1 10 C1 9.34 1 8.68 1 8 C-0.292 6.627 -1.624 5.29 -3 4 C-2.01 2.68 -1.02 1.36 0 0 Z " fill="#F4F308" transform="translate(56,86)"/>
<path d="M0 0 C0.66 0 1.32 0 2 0 C2.33 1.32 2.66 2.64 3 4 C3.66 4 4.32 4 5 4 C6.058 5.631 7.053 7.303 8 9 C8.99 10.485 8.99 10.485 10 12 C9.01 12 8.02 12 7 12 C3.304 8.214 1.361 5.197 0 0 Z " fill="#2F3141" transform="translate(15,96)"/>
<path d="M0 0 C0.33 0 0.66 0 1 0 C1 2.97 1 5.94 1 9 C-0.32 9.33 -1.64 9.66 -3 10 C-3 7.03 -3 4.06 -3 1 C-2.67 1.66 -2.34 2.32 -2 3 C-1.34 3 -0.68 3 0 3 C0 2.01 0 1.02 0 0 Z " fill="#0B153C" transform="translate(66,87)"/>
<path d="M0 0 C0.99 0 1.98 0 3 0 C1.523 3.452 -0.438 5.65 -3.125 8.25 C-3.849 8.956 -4.574 9.663 -5.32 10.391 C-5.875 10.922 -6.429 11.453 -7 12 C-7.33 11.34 -7.66 10.68 -8 10 C-7.526 9.567 -7.051 9.134 -6.562 8.688 C-4.763 6.977 -4.763 6.977 -4 4 C-3.34 4 -2.68 4 -2 4 C-2 3.34 -2 2.68 -2 2 C-1.34 2 -0.68 2 0 2 C0 1.34 0 0.68 0 0 Z " fill="#E2F638" transform="translate(93,73)"/>
<path d="M0 0 C1.65 0 3.3 0 5 0 C5.33 0.99 5.66 1.98 6 3 C3.69 5.31 1.38 7.62 -1 10 C-2 6 -2 6 -1 4 C-0.01 3.34 0.98 2.68 2 2 C1.34 1.34 0.68 0.68 0 0 Z " fill="#2B7EF3" transform="translate(86,40)"/>
<path d="M0 0 C0.66 0 1.32 0 2 0 C2.289 0.784 2.578 1.567 2.875 2.375 C3.849 5.097 3.849 5.097 6 7 C5.01 7.66 4.02 8.32 3 9 C2.34 8.01 1.68 7.02 1 6 C-1.059 5.276 -1.059 5.276 -3 5 C-1.125 1.125 -1.125 1.125 0 0 Z " fill="#00EA72" transform="translate(91,88)"/>
<path d="M0 0 C0.66 0 1.32 0 2 0 C3.508 1.531 3.508 1.531 5.125 3.5 C5.664 4.15 6.203 4.799 6.758 5.469 C7.168 5.974 7.578 6.479 8 7 C7.01 8.485 7.01 8.485 6 10 C4.5 8.625 4.5 8.625 3 7 C3 6.34 3 5.68 3 5 C2.01 5 1.02 5 0 5 C0 3.35 0 1.7 0 0 Z " fill="#FDA112" transform="translate(21,70)"/>
<path d="M0 0 C0.66 0.66 1.32 1.32 2 2 C2.66 1.34 3.32 0.68 4 0 C5 1 5 1 5.098 2.848 C5.065 4.898 5.033 6.949 5 9 C3.68 9 2.36 9 1 9 C1 6 1 6 2 5 C1.34 5 0.68 5 0 5 C0 3.35 0 1.7 0 0 Z " fill="#0D1635" transform="translate(62,51)"/>
<path d="M0 0 C0.763 0.206 1.526 0.413 2.312 0.625 C2.312 1.285 2.312 1.945 2.312 2.625 C2.972 2.955 3.632 3.285 4.312 3.625 C2.332 3.625 0.353 3.625 -1.688 3.625 C-1.688 4.285 -1.688 4.945 -1.688 5.625 C-2.347 5.625 -3.007 5.625 -3.688 5.625 C-4.347 4.305 -5.007 2.985 -5.688 1.625 C-2.688 -0.375 -2.688 -0.375 0 0 Z " fill="#4059EE" transform="translate(102.6875,34.375)"/>
<path d="M0 0 C1 3 1 3 0.223 5.043 C-0.16 5.751 -0.543 6.458 -0.938 7.188 C-1.318 7.903 -1.698 8.618 -2.09 9.355 C-2.54 10.17 -2.54 10.17 -3 11 C-3.124 10.361 -3.248 9.721 -3.375 9.062 C-3.581 8.382 -3.787 7.701 -4 7 C-4.66 6.67 -5.32 6.34 -6 6 C-4.02 4.02 -2.04 2.04 0 0 Z " fill="#2D7DEC" transform="translate(108,91)"/>
<path d="M0 0 C0.66 0.33 1.32 0.66 2 1 C1.67 2.98 1.34 4.96 1 7 C-0.65 6.67 -2.3 6.34 -4 6 C-4 5.01 -4 4.02 -4 3 C-2 1.312 -2 1.312 0 0 Z " fill="#FB8603" transform="translate(39,91)"/>
<path d="M0 0 C1.65 1.32 3.3 2.64 5 4 C4.34 5.32 3.68 6.64 3 8 C1.68 8 0.36 8 -1 8 C-0.67 5.36 -0.34 2.72 0 0 Z " fill="#F88803" transform="translate(26,79)"/>
<path d="M0 0 C0.33 1.32 0.66 2.64 1 4 C1.66 4 2.32 4 3 4 C3.33 3.01 3.66 2.02 4 1 C4.99 2.65 5.98 4.3 7 6 C5.375 6.75 5.375 6.75 3 7 C-0.25 5.062 -0.25 5.062 -3 3 C-2.01 2.01 -1.02 1.02 0 0 Z " fill="#F9F212" transform="translate(41,76)"/>
<path d="M0 0 C1.98 0.495 1.98 0.495 4 1 C4 2.32 4 3.64 4 5 C2.515 5.99 2.515 5.99 1 7 C0.423 8.964 0.423 8.964 0.312 11.125 C0.209 12.404 0.106 13.683 0 15 C-0.33 15 -0.66 15 -1 15 C-1.027 13.25 -1.046 11.5 -1.062 9.75 C-1.074 8.775 -1.086 7.801 -1.098 6.797 C-1.012 4.342 -0.707 2.338 0 0 Z " fill="#071232" transform="translate(63,74)"/>
<path d="M0 0 C0.66 0 1.32 0 2 0 C2 0.66 2 1.32 2 2 C3.65 2.33 5.3 2.66 7 3 C6.01 3.33 5.02 3.66 4 4 C3.267 6.015 3.267 6.015 3 8 C1.35 6.02 -0.3 4.04 -2 2 C-1.34 2 -0.68 2 0 2 C0 1.34 0 0.68 0 0 Z " fill="#BA0BD9" transform="translate(50,48)"/>
<path d="M0 0 C1.65 0 3.3 0 5 0 C5 2.64 5 5.28 5 8 C2.5 6.812 2.5 6.812 0 5 C-0.312 2.312 -0.312 2.312 0 0 Z " fill="#FD0368" transform="translate(54,34)"/>
<path d="M0 0 C-0.33 0.66 -0.66 1.32 -1 2 C-0.34 2.66 0.32 3.32 1 4 C-2.285 5.095 -4.737 5.1 -8.188 5.062 C-9.818 5.049 -9.818 5.049 -11.48 5.035 C-12.312 5.024 -13.143 5.012 -14 5 C-14 4.67 -14 4.34 -14 4 C-10.7 3.67 -7.4 3.34 -4 3 C-4 2.34 -4 1.68 -4 1 C-4.66 0.67 -5.32 0.34 -6 0 C-3 -1 -3 -1 0 0 Z " fill="#515368" transform="translate(50,110)"/>
<path d="M0 0 C2.97 0.495 2.97 0.495 6 1 C0.719 5.527 -2.992 7.326 -10 7 C-6.775 5.263 -3.487 4.109 0 3 C0 2.01 0 1.02 0 0 Z " fill="#3176E6" transform="translate(98,101)"/>
<path d="M0 0 C1.65 0.33 3.3 0.66 5 1 C4.688 2.875 4.688 2.875 4 5 C2.515 5.99 2.515 5.99 1 7 C-0.062 5.188 -0.062 5.188 -1 3 C-0.67 2.01 -0.34 1.02 0 0 Z " fill="#FCF006" transform="translate(51,84)"/>
<path d="M0 0 C2.525 1.082 4.035 2.038 5.938 4.062 C8.308 6.29 9.817 6.646 13 7 C12.34 8.32 11.68 9.64 11 11 C6.864 7.619 3.187 4.334 0 0 Z " fill="#031224" transform="translate(41,54)"/>
<path d="M0 0 C1.32 0.33 2.64 0.66 4 1 C4.687 3.491 5 5.379 5 8 C4.01 7.34 3.02 6.68 2 6 C2 5.34 2 4.68 2 4 C0.02 4.99 0.02 4.99 -2 6 C-1.494 3.831 -1 2 0 0 Z " fill="#32344C" transform="translate(64,100)"/>
<path d="M0 0 C0.66 0 1.32 0 2 0 C5 3.462 5 3.462 5 6 C5.99 6.33 6.98 6.66 8 7 C6.312 7.812 6.312 7.812 4 8 C1.25 5.562 1.25 5.562 -1 3 C-0.67 2.01 -0.34 1.02 0 0 Z " fill="#1BB764" transform="translate(26,63)"/>
<path d="M0 0 C0.99 0.33 1.98 0.66 3 1 C2.301 4.147 1.239 7.026 0 10 C-0.33 10 -0.66 10 -1 10 C-2.25 3.375 -2.25 3.375 0 0 Z " fill="#131737" transform="translate(61,98)"/>
<path d="M0 0 C1.268 0.124 1.268 0.124 2.562 0.25 C3.222 1.24 3.883 2.23 4.562 3.25 C3.572 3.58 2.582 3.91 1.562 4.25 C1.233 4.91 0.903 5.57 0.562 6.25 C-0.758 4.6 -2.078 2.95 -3.438 1.25 C-2.438 0.25 -2.438 0.25 0 0 Z " fill="#16123D" transform="translate(56.4375,62.75)"/>
<path d="M0 0 C3.817 1.555 6.192 4.036 9 7 C8.67 7.99 8.34 8.98 8 10 C6.845 9.095 5.701 8.176 4.562 7.25 C3.605 6.484 3.605 6.484 2.629 5.703 C0.812 3.803 0.396 2.564 0 0 Z " fill="#08B05F" transform="translate(36,53)"/>
<path d="M0 0 C2.97 0.495 2.97 0.495 6 1 C4.02 3.31 2.04 5.62 0 8 C-0.925 4.298 -1.082 3.365 0 0 Z " fill="#201029" transform="translate(84,52)"/>
<path d="M0 0 C3.914 1.269 5.791 2.512 8 6 C6.68 6 5.36 6 4 6 C4 5.34 4 4.68 4 4 C3.34 4 2.68 4 2 4 C2 4.66 2 5.32 2 6 C1.34 6 0.68 6 0 6 C0 4.02 0 2.04 0 0 Z " fill="#210F45" transform="translate(38,45)"/>
<path d="M0 0 C0.66 1.32 1.32 2.64 2 4 C1.01 4.99 0.02 5.98 -1 7 C-2.32 6.34 -3.64 5.68 -5 5 C-4 2 -4 2 -1.938 0.812 C-1.298 0.544 -0.659 0.276 0 0 Z " fill="#FB085C" transform="translate(33,28)"/>
<path d="M0 0 C1.675 0.286 3.344 0.618 5 1 C3.848 3.468 2.952 5.048 1 7 C0.34 6.67 -0.32 6.34 -1 6 C-1.043 4.334 -1.041 2.666 -1 1 C-0.67 0.67 -0.34 0.34 0 0 Z " fill="#262A44" transform="translate(108,99)"/>
<path d="M0 0 C0.66 0 1.32 0 2 0 C2.625 1.875 2.625 1.875 3 4 C2.34 4.66 1.68 5.32 1 6 C0.357 8.069 0.357 8.069 0 10 C-0.66 10 -1.32 10 -2 10 C-2.179 6.053 -2.094 3.402 0 0 Z " fill="#192139" transform="translate(16,86)"/>
<path d="M0 0 C2.625 0.375 2.625 0.375 5 1 C2.472 3.799 0.796 5.458 -3 6 C-2.427 3.133 -2.139 2.139 0 0 Z " fill="#12BB67" transform="translate(97,75)"/>
<path d="M0 0 C1.32 0.66 2.64 1.32 4 2 C3.01 2 2.02 2 1 2 C1 2.66 1 3.32 1 4 C3.31 4 5.62 4 8 4 C5.241 5.804 4.11 6.013 0.75 5.625 C-0.157 5.419 -1.065 5.213 -2 5 C-1.34 3.35 -0.68 1.7 0 0 Z " fill="#20223B" transform="translate(32,108)"/>
<path d="M0 0 C0.99 0.33 1.98 0.66 3 1 C2.67 2.65 2.34 4.3 2 6 C0.35 5.67 -1.3 5.34 -3 5 C-1.125 1.125 -1.125 1.125 0 0 Z " fill="#15E77A" transform="translate(80,97)"/>
<path d="M0 0 C4.55 1.517 6.501 5.169 9 9 C7.68 8.67 6.36 8.34 5 8 C5 7.34 5 6.68 5 6 C3.68 5.67 2.36 5.34 1 5 C0.67 3.35 0.34 1.7 0 0 Z " fill="#FC0F59" transform="translate(22,92)"/>
<path d="M0 0 C0.99 0.33 1.98 0.66 3 1 C1.902 2.152 0.797 3.296 -0.312 4.438 C-0.927 5.076 -1.542 5.714 -2.176 6.371 C-4 8 -4 8 -7 9 C-7 8.01 -7 7.02 -7 6 C-5.68 5.67 -4.36 5.34 -3 5 C-3 4.01 -3 3.02 -3 2 C-2.01 2 -1.02 2 0 2 C0 1.34 0 0.68 0 0 Z " fill="#D4F13D" transform="translate(80,87)"/>
<path d="M0 0 C0.66 0.33 1.32 0.66 2 1 C1.67 3.64 1.34 6.28 1 9 C-0.562 7.812 -0.562 7.812 -2 6 C-1.579 1.579 -1.579 1.579 0 0 Z " fill="#00E976" transform="translate(103,77)"/>
<path d="M0 0 C-0.33 0.99 -0.66 1.98 -1 3 C-2.98 3.33 -4.96 3.66 -7 4 C-7.66 3.01 -8.32 2.02 -9 1 C-6.043 -0.478 -3.258 -0.06 0 0 Z " fill="#0B1234" transform="translate(91,33)"/>
<path d="M0 0 C0 0.99 0 1.98 0 3 C-2.31 3.33 -4.62 3.66 -7 4 C-6.67 2.68 -6.34 1.36 -6 0 C-2.25 -1.125 -2.25 -1.125 0 0 Z " fill="#0C1230" transform="translate(33,18)"/>
<path d="M0 0 C0.33 0.99 0.66 1.98 1 3 C-2.63 3 -6.26 3 -10 3 C-8.68 2.67 -7.36 2.34 -6 2 C-6 1.34 -6 0.68 -6 0 C-3 -1 -3 -1 0 0 Z " fill="#0A0B28" transform="translate(46,111)"/>
<path d="M0 0 C0.99 1.485 0.99 1.485 2 3 C3.324 4.674 4.656 6.342 6 8 C4.35 9.32 2.7 10.64 1 12 C0.67 8.04 0.34 4.08 0 0 Z " fill="#33E58F" transform="translate(100,80)"/>
<path d="M0 0 C0.99 0.33 1.98 0.66 3 1 C2.01 1.33 1.02 1.66 0 2 C0 2.66 0 3.32 0 4 C-2.312 6.188 -2.312 6.188 -5 8 C-5.99 7.67 -6.98 7.34 -8 7 C-7.34 7 -6.68 7 -6 7 C-6 6.34 -6 5.68 -6 5 C-5.34 5 -4.68 5 -4 5 C-3.567 4.041 -3.567 4.041 -3.125 3.062 C-2 1 -2 1 0 0 Z " fill="#65A95D" transform="translate(106,65)"/>
<path d="M0 0 C3.242 0.35 4.615 0.562 6.812 3.062 C7.204 3.702 7.596 4.341 8 5 C6.02 5 4.04 5 2 5 C2 4.34 2 3.68 2 3 C1.34 3 0.68 3 0 3 C0 2.01 0 1.02 0 0 Z " fill="#F37104" transform="translate(21,67)"/>
<path d="M0 0 C0.66 0 1.32 0 2 0 C2 0.66 2 1.32 2 2 C2.99 2.33 3.98 2.66 5 3 C2.69 4.98 0.38 6.96 -2 9 C-2 7.68 -2 6.36 -2 5 C-1.01 5 -0.02 5 1 5 C1 4.01 1 3.02 1 2 C0.34 1.67 -0.32 1.34 -1 1 C-0.67 0.67 -0.34 0.34 0 0 Z " fill="#2B0D28" transform="translate(78,58)"/>
<path d="M0 0 C0.66 0.33 1.32 0.66 2 1 C-1.3 5.139 -4.173 8.587 -9 11 C-7.592 7.785 -5.897 5.678 -3.375 3.25 C-2.743 2.636 -2.112 2.023 -1.461 1.391 C-0.979 0.932 -0.497 0.473 0 0 Z " fill="#4DC786" transform="translate(33,54)"/>
<path d="M0 0 C0.33 0 0.66 0 1 0 C1.037 0.603 1.075 1.207 1.113 1.828 C1.563 7.994 1.563 7.994 5 13 C3.68 13.33 2.36 13.66 1 14 C-1.029 10.685 -1.127 8.568 -0.625 4.75 C-0.514 3.858 -0.403 2.966 -0.289 2.047 C-0.146 1.034 -0.146 1.034 0 0 Z " fill="#2D1155" transform="translate(99,40)"/>
<path d="M0 0 C0.66 0.33 1.32 0.66 2 1 C0.625 3 0.625 3 -1 5 C-1.66 5 -2.32 5 -3 5 C-3 5.66 -3 6.32 -3 7 C-2.34 7 -1.68 7 -1 7 C-1 7.66 -1 8.32 -1 9 C-2.32 9 -3.64 9 -5 9 C-5.33 8.01 -5.66 7.02 -6 6 C-4.02 4.02 -2.04 2.04 0 0 Z " fill="#2379FD" transform="translate(83,41)"/>
<path d="M0 0 C0 3 0 3 -1.75 5.043 C-2.493 5.751 -3.235 6.458 -4 7.188 C-4.743 7.903 -5.485 8.618 -6.25 9.355 C-6.828 9.898 -7.405 10.441 -8 11 C-8.33 10.01 -8.66 9.02 -9 8 C-6.03 5.36 -3.06 2.72 0 0 Z " fill="#0086E8" transform="translate(79,32)"/>
<path d="M0 0 C2.97 0 5.94 0 9 0 C9 0.66 9 1.32 9 2 C9.66 2 10.32 2 11 2 C11 2.66 11 3.32 11 4 C10.505 3.856 10.01 3.711 9.5 3.562 C6.022 2.78 2.54 2.413 -1 2 C-0.67 1.34 -0.34 0.68 0 0 Z " fill="#0F1234" transform="translate(37,33)"/>
<path d="M0 0 C1.98 0.495 1.98 0.495 4 1 C4 2.32 4 3.64 4 5 C2.35 5.33 0.7 5.66 -1 6 C-0.67 4.02 -0.34 2.04 0 0 Z " fill="#151733" transform="translate(17,27)"/>
<path d="M0 0 C4.29 0 8.58 0 13 0 C13 0.33 13 0.66 13 1 C11.35 1.33 9.7 1.66 8 2 C8 2.33 8 2.66 8 3 C6.35 3 4.7 3 3 3 C3 2.34 3 1.68 3 1 C1.68 1.33 0.36 1.66 -1 2 C-0.67 1.34 -0.34 0.68 0 0 Z " fill="#FA146F" transform="translate(32,23)"/>
<path d="M0 0 C0.99 0.99 1.98 1.98 3 3 C1.719 4.707 0.382 6.374 -1 8 C-1.66 8 -2.32 8 -3 8 C-2.625 5.562 -2.625 5.562 -2 3 C-1.34 2.67 -0.68 2.34 0 2 C0 1.34 0 0.68 0 0 Z " fill="#E2831F" transform="translate(56,97)"/>
<path d="M0 0 C0.99 0.33 1.98 0.66 3 1 C-0.75 6.75 -0.75 6.75 -3 9 C-3.369 3.462 -3.369 3.462 -1.5 1.125 C-1.005 0.754 -0.51 0.382 0 0 Z " fill="#F4970D" transform="translate(73,78)"/>
<path d="M0 0 C3.21 1.382 5.049 2.924 7.25 5.625 C7.771 6.257 8.292 6.888 8.828 7.539 C9.408 8.262 9.408 8.262 10 9 C7.099 7.621 5.26 6.26 3 4 C0.9 2.824 0.9 2.824 -1 2 C-0.67 1.34 -0.34 0.68 0 0 Z " fill="#E27B00" transform="translate(31,73)"/>
<path d="M0 0 C2.31 1.98 4.62 3.96 7 6 C6.01 6.33 5.02 6.66 4 7 C4 6.34 4 5.68 4 5 C3.34 5 2.68 5 2 5 C2 5.66 2 6.32 2 7 C1.34 7 0.68 7 0 7 C0 4.69 0 2.38 0 0 Z " fill="#B11CD8" transform="translate(48,43)"/>
<path d="M0 0 C1.32 0 2.64 0 4 0 C4.688 1.75 4.688 1.75 5 4 C3.562 6.25 3.562 6.25 2 8 C0.743 5.094 0 3.204 0 0 Z " fill="#09142E" transform="translate(66,25)"/>
<path d="M0 0 C0.66 0.33 1.32 0.66 2 1 C0.918 2.52 0.918 2.52 -1 4 C-4.137 4.074 -4.137 4.074 -7.688 3.688 C-8.867 3.568 -10.046 3.448 -11.262 3.324 C-12.165 3.217 -13.069 3.11 -14 3 C-14 2.67 -14 2.34 -14 2 C-13.241 1.939 -12.481 1.879 -11.699 1.816 C-10.705 1.733 -9.711 1.649 -8.688 1.562 C-7.701 1.481 -6.715 1.4 -5.699 1.316 C-2.906 1.082 -2.906 1.082 0 0 Z " fill="#0A2557" transform="translate(97,106)"/>
<path d="M0 0 C-0.33 0.99 -0.66 1.98 -1 3 C-3.062 3.688 -3.062 3.688 -5 4 C-5.33 2.68 -5.66 1.36 -6 0 C-3.509 -1.245 -2.589 -0.777 0 0 Z " fill="#1E2742" transform="translate(57,109)"/>
<path d="M0 0 C0.99 0 1.98 0 3 0 C2.67 1.32 2.34 2.64 2 4 C1.01 3.67 0.02 3.34 -1 3 C-0.67 4.32 -0.34 5.64 0 7 C-1.32 6.34 -2.64 5.68 -4 5 C-2.188 2.5 -2.188 2.5 0 0 Z " fill="#F38C02" transform="translate(31,84)"/>
<path d="M0 0 C1.32 0.33 2.64 0.66 4 1 C4.66 3.31 5.32 5.62 6 8 C5.34 8 4.68 8 4 8 C4 7.34 4 6.68 4 6 C3.34 6 2.68 6 2 6 C1.34 4.02 0.68 2.04 0 0 Z " fill="#F27102" transform="translate(31,76)"/>
<path d="M0 0 C3 2 3 2 3.688 4.125 C3.791 4.744 3.894 5.362 4 6 C2.35 6.33 0.7 6.66 -1 7 C-1.043 5 -1.041 3 -1 1 C-0.67 0.67 -0.34 0.34 0 0 Z " fill="#2C6FFB" transform="translate(71,53)"/>
<path d="M0 0 C0.99 0.33 1.98 0.66 3 1 C3 1.66 3 2.32 3 3 C-0.462 6 -0.462 6 -3 6 C-3.33 6.66 -3.66 7.32 -4 8 C-3.401 4.644 -2.154 2.622 0 0 Z " fill="#05E774" transform="translate(33,56)"/>
<path d="M0 0 C2.784 1.392 2.979 3.156 4 6 C2.35 6.66 0.7 7.32 -1 8 C-1.042 5.667 -1.041 3.333 -1 1 C-0.67 0.67 -0.34 0.34 0 0 Z " fill="#FD045F" transform="translate(25,33)"/>
<path d="M0 0 C0.33 0 0.66 0 1 0 C1.33 3.96 1.66 7.92 2 12 C1.01 12 0.02 12 -1 12 C-0.67 8.04 -0.34 4.08 0 0 Z " fill="#111130" transform="translate(111,88)"/>
<path d="M0 0 C0.99 0.33 1.98 0.66 3 1 C3 2.98 3 4.96 3 7 C2.01 7.33 1.02 7.66 0 8 C0 5.36 0 2.72 0 0 Z " fill="#111135" transform="translate(15,71)"/>
<path d="M0 0 C0.66 0.99 1.32 1.98 2 3 C1.34 4.32 0.68 5.64 0 7 C-0.99 7 -1.98 7 -3 7 C-1.125 1.125 -1.125 1.125 0 0 Z " fill="#E82413" transform="translate(79,64)"/>
<path d="M0 0 C3.829 1.453 5.121 3.429 7 7 C5.35 6.67 3.7 6.34 2 6 C2.33 5.01 2.66 4.02 3 3 C1.68 3 0.36 3 -1 3 C-0.67 2.01 -0.34 1.02 0 0 Z " fill="#00E86F" transform="translate(43,65)"/>
<path d="M0 0 C1.262 2.525 1.099 4.312 1.062 7.125 C1.053 8.035 1.044 8.945 1.035 9.883 C1.024 10.581 1.012 11.28 1 12 C-1.141 9.39 -1.967 8.327 -2.312 4.875 C-2 2 -2 2 0 0 Z " fill="#10133A" transform="translate(18,58)"/>
<path d="M0 0 C0.66 0.66 1.32 1.32 2 2 C2.99 2 3.98 2 5 2 C5 3.65 5 5.3 5 7 C4.01 7 3.02 7 2 7 C0 4 0 4 0 0 Z " fill="#0B1434" transform="translate(99,51)"/>
<path d="M0 0 C1.98 0 3.96 0 6 0 C6.66 1.65 7.32 3.3 8 5 C7.34 5 6.68 5 6 5 C6 4.34 6 3.68 6 3 C5.01 3.33 4.02 3.66 3 4 C2.01 2.68 1.02 1.36 0 0 Z " fill="#0C1342" transform="translate(91,35)"/>
<path d="M0 0 C1.98 0.66 3.96 1.32 6 2 C3.688 4.062 3.688 4.062 1 6 C0.01 5.67 -0.98 5.34 -2 5 C-1.34 3.35 -0.68 1.7 0 0 Z " fill="#031F37" transform="translate(74,19)"/>
<path d="M0 0 C0.66 0.33 1.32 0.66 2 1 C1.67 1.99 1.34 2.98 1 4 C0.01 4.33 -0.98 4.66 -2 5 C-2.33 5.66 -2.66 6.32 -3 7 C-3.99 7 -4.98 7 -6 7 C-4.607 3.633 -3.021 2.014 0 0 Z " fill="#3E3C4F" transform="translate(73,17)"/>
<path d="M0 0 C2.475 0.99 2.475 0.99 5 2 C3.68 3.32 2.36 4.64 1 6 C0.01 5.67 -0.98 5.34 -2 5 C-1.34 3.35 -0.68 1.7 0 0 Z " fill="#252B45" transform="translate(104,104)"/>
<path d="M0 0 C0 1.32 0 2.64 0 4 C-1.65 4 -3.3 4 -5 4 C-5.33 3.01 -5.66 2.02 -6 1 C-3 0 -3 0 0 0 Z " fill="#0D122D" transform="translate(69,96)"/>
<path d="M0 0 C2.475 0.495 2.475 0.495 5 1 C5.33 1.99 5.66 2.98 6 4 C5.34 4.66 4.68 5.32 4 6 C4 5.34 4 4.68 4 4 C2.68 3.34 1.36 2.68 0 2 C0 1.34 0 0.68 0 0 Z " fill="#23E773" transform="translate(88,93)"/>
<path d="M0 0 C3.875 1.875 3.875 1.875 5 3 C5.041 4.666 5.043 6.334 5 8 C4.01 7.67 3.02 7.34 2 7 C2 5.35 2 3.7 2 2 C1.34 2 0.68 2 0 2 C0 1.34 0 0.68 0 0 Z " fill="#02E76D" transform="translate(54,76)"/>
<path d="M0 0 C0.33 0 0.66 0 1 0 C1 1.65 1 3.3 1 5 C-1.97 4.67 -4.94 4.34 -8 4 C-7.67 3.01 -7.34 2.02 -7 1 C-5.824 1.309 -5.824 1.309 -4.625 1.625 C-3.759 1.749 -2.892 1.873 -2 2 C-1.34 1.34 -0.68 0.68 0 0 Z " fill="#270C49" transform="translate(69,65)"/>
<path d="M0 0 C0.66 0.66 1.32 1.32 2 2 C2.66 2.33 3.32 2.66 4 3 C3.67 3.99 3.34 4.98 3 6 C1.68 5.67 0.36 5.34 -1 5 C-1.33 3.68 -1.66 2.36 -2 1 C-1.34 0.67 -0.68 0.34 0 0 Z " fill="#03E974" transform="translate(38,59)"/>
<path d="M0 0 C1.361 0.124 1.361 0.124 2.75 0.25 C0.75 3.25 0.75 3.25 -1.688 3.938 C-4.25 4.25 -4.25 4.25 -7.25 4.25 C-4.839 1.283 -3.903 0.3 0 0 Z " fill="#DE2918" transform="translate(87.25,58.75)"/>
<path d="M0 0 C1.562 1.188 1.562 1.188 3 3 C2.688 5.688 2.688 5.688 2 8 C1.01 7.67 0.02 7.34 -1 7 C-0.67 4.69 -0.34 2.38 0 0 Z " fill="#081537" transform="translate(110,29)"/>
<path d="M0 0 C1.32 1.32 2.64 2.64 4 4 C3.01 5.485 3.01 5.485 2 7 C0.438 5.75 0.438 5.75 -1 4 C-0.688 1.812 -0.688 1.812 0 0 Z " fill="#FC9C04" transform="translate(29,77)"/>
<path d="M0 0 C0.33 0 0.66 0 1 0 C1 2.64 1 5.28 1 8 C0.34 8 -0.32 8 -1 8 C-1.625 5.125 -1.625 5.125 -2 2 C-1.34 1.34 -0.68 0.68 0 0 Z " fill="#2DE078" transform="translate(107,71)"/>
<path d="M0 0 C1.65 0 3.3 0 5 0 C5.667 1.333 6.333 2.667 7 4 C6.34 4.66 5.68 5.32 5 6 C3.35 4.02 1.7 2.04 0 0 Z " fill="#44E46D" transform="translate(41,68)"/>
<path d="M0 0 C2 0.938 2 0.938 4 3 C4.365 6.025 4.229 8.967 4 12 C3.67 12 3.34 12 3 12 C1.829 8.019 0.743 4.084 0 0 Z " fill="#661694" transform="translate(57,48)"/>
<path d="M0 0 C0.66 0.33 1.32 0.66 2 1 C0.325 4.536 -0.493 5.791 -4.188 7.312 C-5.58 7.653 -5.58 7.653 -7 8 C-6.021 6.854 -5.042 5.708 -4.062 4.562 C-3.517 3.924 -2.972 3.286 -2.41 2.629 C-1.632 1.73 -0.841 0.841 0 0 Z " fill="#225DC3" transform="translate(81,39)"/>
<path d="M0 0 C2.475 0.495 2.475 0.495 5 1 C4 4 4 4 1.938 5.188 C1.298 5.456 0.659 5.724 0 6 C0 4.02 0 2.04 0 0 Z " fill="#0CE4E8" transform="translate(71,31)"/>
<path d="M0 0 C0.33 0.99 0.66 1.98 1 3 C1.99 3 2.98 3 4 3 C4 3.99 4 4.98 4 6 C2.68 6 1.36 6 0 6 C-0.66 4.68 -1.32 3.36 -2 2 C-1.34 1.34 -0.68 0.68 0 0 Z " fill="#FE0261" transform="translate(34,25)"/>
<path d="M0 0 C1.32 0.33 2.64 0.66 4 1 C2.377 2.709 0.707 4.374 -1 6 C-1.66 6 -2.32 6 -3 6 C-2.67 5.01 -2.34 4.02 -2 3 C-1.34 3 -0.68 3 0 3 C0 2.01 0 1.02 0 0 Z " fill="#F08F00" transform="translate(36,89)"/>
<path d="M0 0 C0.99 1.32 1.98 2.64 3 4 C2.01 4 1.02 4 0 4 C-0.33 5.32 -0.66 6.64 -1 8 C-1.66 7.67 -2.32 7.34 -3 7 C-3 6.01 -3 5.02 -3 4 C-2.34 3.67 -1.68 3.34 -1 3 C-0.67 2.01 -0.34 1.02 0 0 Z " fill="#F6F317" transform="translate(51,80)"/>
<path d="M0 0 C0.33 0.66 0.66 1.32 1 2 C0.062 4.625 0.062 4.625 -1 7 C-2.32 6.34 -3.64 5.68 -5 5 C-3.35 3.35 -1.7 1.7 0 0 Z " fill="#2A0C2C" transform="translate(27,51)"/>
<path d="M0 0 C0.33 0 0.66 0 1 0 C1.293 6.055 1.293 6.055 1 8 C-0.485 8.99 -0.485 8.99 -2 10 C-2.22 6.144 -1.604 3.508 0 0 Z " fill="#FB1571" transform="translate(23,32)"/>
<path d="M0 0 C1.134 0.021 2.269 0.041 3.438 0.062 C2.881 0.31 2.324 0.557 1.75 0.812 C-0.962 2.279 -3.198 4.092 -5.562 6.062 C-4.488 0.079 -4.488 0.079 0 0 Z " fill="#5F128D" transform="translate(42.5625,36.9375)"/>
<path d="M0 0 C3.3 0.33 6.6 0.66 10 1 C10.33 2.32 10.66 3.64 11 5 C10.113 4.526 9.226 4.051 8.312 3.562 C5.43 2.203 3.124 1.459 0 1 C0 0.67 0 0.34 0 0 Z " fill="#3B0936" transform="translate(45,20)"/>
<path d="M0 0 C2.875 -0.188 2.875 -0.188 6 0 C6.66 0.99 7.32 1.98 8 3 C5.03 2.67 2.06 2.34 -1 2 C-0.67 1.34 -0.34 0.68 0 0 Z " fill="#101538" transform="translate(40,16)"/>
<path d="M0 0 C2.475 0.99 2.475 0.99 5 2 C4.01 2.495 4.01 2.495 3 3 C3 3.66 3 4.32 3 5 C1.68 4.34 0.36 3.68 -1 3 C-0.67 2.01 -0.34 1.02 0 0 Z " fill="#17B65E" transform="translate(73,97)"/>
<path d="M0 0 C1.98 0.66 3.96 1.32 6 2 C6 3.65 6 5.3 6 7 C1.125 2.25 1.125 2.25 0 0 Z " fill="#FCA004" transform="translate(47,98)"/>
<path d="M0 0 C1.485 0.99 1.485 0.99 3 2 C2.67 3.98 2.34 5.96 2 8 C1.34 8 0.68 8 0 8 C0 5.36 0 2.72 0 0 Z " fill="#FCEE0E" transform="translate(71,88)"/>
<path d="M0 0 C1.65 0 3.3 0 5 0 C4.67 1.32 4.34 2.64 4 4 C2.68 4 1.36 4 0 4 C0 2.68 0 1.36 0 0 Z " fill="#FCF00A" transform="translate(76,85)"/>
<path d="M0 0 C2.5 1.375 2.5 1.375 5 3 C5 3.66 5 4.32 5 5 C4.34 5 3.68 5 3 5 C2.67 5.66 2.34 6.32 2 7 C0.539 4.353 0 3.106 0 0 Z " fill="#F76E02" transform="translate(36,79)"/>
<path d="M0 0 C4.294 1.074 4.747 1.508 7 5 C6.67 5.66 6.34 6.32 6 7 C4.02 4.69 2.04 2.38 0 0 Z " fill="#7406A2" transform="translate(51,45)"/>
<path d="M0 0 C2.884 1.293 4.872 2.659 7 5 C5.35 5.33 3.7 5.66 2 6 C1.34 4.02 0.68 2.04 0 0 Z " fill="#F51C6C" transform="translate(50,24)"/>
</svg>