
<!-- Generator: visioncortex VTracer 0.6.4 -->
<svg version="1.1" xmlns="http://www.w3.org/2000/svg" viewBox="0 0 217 232" preserveAspectRatio="xMidYMid meet">
<path d="M0 0 C0.808 0.285 1.615 0.57 2.447 0.863 C5.065 1.788 7.679 2.722 10.293 3.656 C12.109 4.3 13.926 4.943 15.742 5.585 C19.344 6.858 22.945 8.134 26.546 9.412 C32.824 11.635 39.119 13.805 45.418 15.969 C56.869 19.916 68.289 23.953 79.652 28.147 C81.623 28.85 83.611 29.508 85.61 30.13 C86.61 30.452 87.61 30.774 88.641 31.105 C89.546 31.381 90.451 31.656 91.383 31.94 C93.48 33.156 93.48 33.156 94.313 35.483 C94.477 38.103 94.371 40.378 93.992 42.973 C93.863 43.904 93.733 44.835 93.6 45.795 C93.457 46.76 93.315 47.725 93.168 48.719 C92.117 56.001 91.243 63.28 90.531 70.602 C89.584 80.346 88.473 90.066 87.303 99.785 C86.979 102.485 86.657 105.185 86.336 107.885 C85.414 115.604 84.471 123.317 83.418 131.02 C82.258 139.587 81.439 148.183 80.625 156.789 C80.283 160.25 79.886 163.702 79.48 167.156 C79.419 168.038 79.357 168.92 79.293 169.829 C78.854 173.472 78.348 175.425 75.487 177.837 C72.879 179.439 70.228 180.809 67.48 182.156 C65.805 183.079 64.133 184.009 62.465 184.945 C60.721 185.893 58.976 186.838 57.23 187.781 C55.293 188.833 53.355 189.885 51.418 190.938 C50.436 191.47 49.453 192.002 48.441 192.551 C43.701 195.121 38.965 197.7 34.23 200.281 C32.86 201.029 32.86 201.029 31.461 201.791 C25.705 204.932 19.962 208.096 14.23 211.281 C13.513 211.678 12.795 212.075 12.055 212.484 C8.191 214.626 4.354 216.806 0.539 219.035 C-0.683 219.74 -0.683 219.74 -1.931 220.458 C-3.493 221.36 -5.049 222.272 -6.597 223.198 C-11.74 226.144 -11.74 226.144 -15.035 226.195 C-18.672 224.674 -22.045 222.813 -25.457 220.844 C-27.075 219.927 -28.694 219.012 -30.312 218.098 C-31.162 217.616 -32.012 217.134 -32.888 216.637 C-37.324 214.141 -41.797 211.712 -46.27 209.281 C-48.132 208.267 -49.993 207.253 -51.855 206.238 C-54.698 204.691 -57.541 203.145 -60.384 201.599 C-104.899 177.398 -104.899 177.398 -106.52 174.156 C-106.831 171.343 -107.094 168.538 -107.332 165.719 C-108.216 155.911 -109.273 146.127 -110.395 136.344 C-110.48 135.595 -110.566 134.846 -110.654 134.074 C-111.875 123.447 -113.173 112.831 -114.52 102.219 C-115.899 91.319 -117.214 80.414 -118.443 69.497 C-118.615 67.97 -118.789 66.443 -118.964 64.916 C-120.134 54.674 -120.97 44.451 -121.52 34.156 C-115.405 31.336 -109.239 28.88 -102.887 26.652 C-101.984 26.333 -101.082 26.013 -100.152 25.683 C-97.234 24.65 -94.314 23.622 -91.395 22.594 C-89.366 21.877 -87.337 21.159 -85.309 20.442 C-81.262 19.01 -77.215 17.581 -73.167 16.152 C-67.555 14.171 -61.949 12.173 -56.344 10.171 C-50.835 8.204 -45.32 6.255 -39.801 4.314 C-37.632 3.549 -35.465 2.778 -33.301 2.002 C-30.379 0.956 -27.45 -0.071 -24.52 -1.094 C-23.282 -1.544 -23.282 -1.544 -22.02 -2.004 C-20.875 -2.397 -20.875 -2.397 -19.707 -2.797 C-19.061 -3.025 -18.415 -3.254 -17.75 -3.489 C-11.597 -4.467 -5.699 -2.054 0 0 Z " fill="#DD0635" transform="translate(121.51953125,3.84375)"/>
<path d="M0 0 C9 1.125 9 1.125 11.892 2.164 C12.549 2.396 13.207 2.627 13.884 2.866 C14.912 3.241 14.912 3.241 15.961 3.625 C16.7 3.888 17.44 4.15 18.202 4.421 C20.595 5.273 22.985 6.137 25.375 7 C27.044 7.596 28.714 8.192 30.384 8.786 C32.897 9.681 35.409 10.576 37.92 11.475 C44.846 13.953 51.793 16.363 58.75 18.75 C70.264 22.717 81.747 26.774 93.171 30.991 C95.143 31.694 97.131 32.352 99.129 32.974 C100.13 33.296 101.13 33.618 102.16 33.949 C103.065 34.225 103.97 34.5 104.903 34.784 C107 36 107 36 107.833 38.327 C107.997 40.947 107.89 43.222 107.512 45.816 C107.382 46.748 107.253 47.679 107.119 48.639 C106.977 49.604 106.834 50.568 106.688 51.562 C105.637 58.844 104.762 66.123 104.051 73.445 C103.103 83.19 101.992 92.909 100.823 102.629 C100.498 105.329 100.177 108.029 99.855 110.729 C98.934 118.448 97.991 126.161 96.938 133.863 C95.777 142.431 94.959 151.027 94.145 159.633 C93.802 163.094 93.405 166.546 93 170 C92.938 170.882 92.876 171.764 92.812 172.673 C92.374 176.316 91.868 178.268 89.007 180.681 C86.399 182.283 83.748 183.653 81 185 C79.325 185.923 77.653 186.853 75.984 187.789 C74.241 188.736 72.496 189.682 70.75 190.625 C68.812 191.677 66.875 192.729 64.938 193.781 C63.955 194.314 62.973 194.846 61.961 195.395 C50.491 201.614 39.032 207.853 27.625 214.188 C26.903 214.588 26.182 214.988 25.438 215.4 C21.755 217.449 18.086 219.519 14.434 221.621 C13.699 222.042 12.964 222.462 12.207 222.896 C10.813 223.695 9.423 224.499 8.036 225.309 C3.335 228 3.335 228 0 228 C0 215.46 0 202.92 0 190 C3.3 189.67 6.6 189.34 10 189 C12.831 187.347 12.831 187.347 14.812 184.938 C15.5 184.204 16.187 183.471 16.895 182.715 C17.937 181.371 17.937 181.371 19 180 C19.42 179.477 19.841 178.954 20.274 178.415 C24.611 172.4 24.76 167.012 24.734 159.758 C24.744 158.594 24.753 157.431 24.763 156.232 C24.775 153.779 24.775 151.327 24.762 148.875 C24.75 145.143 24.802 141.415 24.859 137.684 C24.863 135.292 24.863 132.9 24.859 130.508 C24.88 129.403 24.9 128.299 24.921 127.161 C24.813 119.811 23.139 115.666 18.501 109.943 C17 108 17 108 17 106 C15.02 106.99 15.02 106.99 13 108 C8.71 108 4.42 108 0 108 C0 72.36 0 36.72 0 0 Z " fill="#C40633" transform="translate(108,1)"/>
<path d="M0 0 C2.169 0.506 4 1 6 2 C9.974 2.242 13.957 2.185 17.938 2.188 C19.048 2.2 20.159 2.212 21.303 2.225 C22.367 2.227 23.431 2.228 24.527 2.23 C25.504 2.235 26.481 2.239 27.488 2.243 C30.248 2.175 30.248 2.175 33 0 C36 0 36 0 38.01 1.671 C46.13 11.763 45.18 23.026 44.988 35.427 C44.938 39.124 44.967 42.815 45.006 46.512 C44.997 48.885 44.983 51.259 44.965 53.633 C44.976 54.725 44.987 55.817 44.998 56.942 C44.799 65.147 42.228 69.79 37 76 C36.151 77.093 36.151 77.093 35.284 78.208 C32.926 81.164 31.044 82.731 27.345 83.684 C24.234 84.016 21.252 84.073 18.125 84 C17.049 83.986 15.973 83.972 14.864 83.957 C8.957 83.689 4.709 83.314 0.312 79 C-1.387 76.75 -1.387 76.75 -3 74 C-3.404 73.475 -3.808 72.95 -4.224 72.409 C-8.593 66.423 -8.774 61.078 -8.77 53.828 C-8.781 52.669 -8.793 51.511 -8.806 50.317 C-8.822 47.873 -8.826 45.428 -8.817 42.984 C-8.813 39.274 -8.878 35.569 -8.947 31.859 C-9.107 10.385 -9.107 10.385 -1.721 1.667 C-1.153 1.117 -0.585 0.567 0 0 Z " fill="#FEFEFE" transform="translate(89,107)"/>
<path d="M0 0 C4.29 0 8.58 0 13 0 C22 17.333 22 17.333 22 22 C22.81 21.909 23.621 21.818 24.456 21.725 C27.529 21.384 30.602 21.049 33.676 20.718 C35.634 20.506 37.592 20.286 39.549 20.066 C47.736 19.191 55.768 18.812 64 19 C63.375 24.699 62.394 30.176 61.062 35.75 C60.808 36.862 60.808 36.862 60.549 37.996 C58.877 45.08 58.877 45.08 57 48 C54.998 49.164 54.998 49.164 52.51 50.106 C51.578 50.467 50.646 50.827 49.686 51.198 C48.675 51.571 47.663 51.944 46.621 52.328 C45.059 52.919 45.059 52.919 43.466 53.522 C41.258 54.352 39.048 55.176 36.836 55.992 C33.467 57.239 30.111 58.516 26.756 59.797 C24.607 60.601 22.458 61.403 20.309 62.203 C18.813 62.775 18.813 62.775 17.287 63.358 C15.856 63.879 15.856 63.879 14.396 64.411 C13.57 64.719 12.743 65.027 11.891 65.344 C9 66 9 66 0 66 C0 44.22 0 22.44 0 0 Z " fill="#FDFAFB" transform="translate(109,40)"/>
<path d="M0 0 C4.29 0 8.58 0 13 0 C13 21.78 13 43.56 13 66 C4.003 66 4.003 66 -1.457 63.84 C-2.644 63.379 -3.831 62.919 -5.053 62.445 C-6.307 61.943 -7.56 61.441 -8.812 60.938 C-11.398 59.914 -13.986 58.896 -16.574 57.879 C-17.211 57.627 -17.847 57.375 -18.503 57.115 C-22.306 55.621 -26.125 54.264 -30.02 53.027 C-30.894 52.742 -31.769 52.456 -32.671 52.162 C-34.256 51.654 -35.85 51.172 -37.452 50.722 C-40.329 49.773 -42.512 48.84 -44.071 46.157 C-44.914 43.785 -45.488 41.465 -46 39 C-46.195 38.141 -46.391 37.281 -46.592 36.396 C-47.167 33.75 -47.686 31.098 -48.188 28.438 C-48.365 27.524 -48.542 26.611 -48.725 25.67 C-49.155 23.448 -49.58 21.224 -50 19 C-41.069 18.831 -32.215 19.365 -23.312 20 C-21.917 20.097 -20.522 20.193 -19.127 20.289 C-15.751 20.523 -12.375 20.761 -9 21 C-6.03 14.07 -3.06 7.14 0 0 Z " fill="#FEFBFB" transform="translate(92,40)"/>
<path d="M0 0 C8.512 2.331 13.813 4.454 19.688 11.25 C23.174 14.972 23.174 14.972 27.871 16.43 C30.356 16.155 32.615 15.741 35 15 C31.232 21.757 31.232 21.757 29.459 23.617 C27.397 26.984 27.521 30.21 27.488 34.047 C27.47 34.818 27.452 35.589 27.434 36.384 C27.38 38.839 27.346 41.294 27.312 43.75 C27.279 45.418 27.245 47.086 27.209 48.754 C27.124 52.836 27.057 56.918 27 61 C21.979 57.303 17.104 53.5 12.375 49.438 C11.3 48.519 10.224 47.601 9.148 46.684 C8.686 46.287 8.224 45.891 7.748 45.482 C5.835 43.802 5.835 43.802 2.84 41.896 C0.961 40.321 0.117 39.434 -0.524 37.05 C-0.694 34.671 -0.675 32.363 -0.586 29.98 C-0.577 29.122 -0.569 28.263 -0.56 27.379 C-0.527 24.647 -0.451 21.918 -0.375 19.188 C-0.345 17.331 -0.318 15.475 -0.293 13.619 C-0.227 9.078 -0.123 4.54 0 0 Z " fill="#FEFCFC" transform="translate(50,92)"/>
<path d="M0 0 C0.274 5.531 0.472 11.059 0.604 16.595 C0.659 18.475 0.734 20.354 0.83 22.231 C1.603 37.805 1.603 37.805 -2.251 43.083 C-5.054 45.368 -7.874 47.19 -11 49 C-12.299 50.05 -13.575 51.129 -14.812 52.25 C-15.35 52.713 -15.888 53.176 -16.441 53.652 C-17.514 54.58 -18.584 55.509 -19.652 56.441 C-22.104 58.545 -23.901 59.967 -27 61 C-26.994 59.997 -26.987 58.995 -26.981 57.962 C-26.966 54.191 -26.998 50.421 -27.043 46.651 C-27.056 45.028 -27.057 43.406 -27.045 41.783 C-26.975 31.028 -27.725 23.579 -35 15 C-34.279 15.2 -33.558 15.4 -32.815 15.606 C-29.559 16.424 -27.328 16.58 -24 16 C-21.155 13.702 -18.855 11.342 -16.435 8.627 C-12.032 3.75 -6.873 0 0 0 Z " fill="#FEFCFD" transform="translate(164,92)"/>
<path d="M0 0 C6.219 -1.103 12.673 -2.148 18.23 1.44 C22.929 5.397 27.467 9.954 31 15 C31 15.66 31 16.32 31 17 C22.977 17.9 15.07 18.115 7 18 C5.826 15.566 4.661 13.128 3.5 10.688 C3.166 9.997 2.832 9.307 2.488 8.596 C0 3.34 0 3.34 0 0 Z " fill="#FCF6F7" transform="translate(126,40)"/>
<path d="M0 0 C-1.348 4.36 -3.049 8.313 -5.125 12.375 C-5.664 13.435 -6.203 14.494 -6.758 15.586 C-7.168 16.383 -7.578 17.179 -8 18 C-16.071 18.105 -23.987 18.034 -32 17 C-32 16.34 -32 15.68 -32 15 C-30.496 13.555 -30.496 13.555 -28.438 11.875 C-25.32 9.313 -23.268 6.918 -21.062 3.562 C-16.061 -2.56 -7.108 -0.576 0 0 Z " fill="#FDF7F8" transform="translate(89,40)"/>
<path d="M0 0 C0.495 1.485 0.495 1.485 1 3 C-0.108 3.458 -0.108 3.458 -1.238 3.926 C-7.63 6.809 -12.038 9.755 -16.625 14.938 C-21.202 19.867 -21.202 19.867 -24.91 20.484 C-27.411 20.217 -29.62 19.8 -32 19 C-31.67 19.66 -31.34 20.32 -31 21 C-32.65 21 -34.3 21 -36 21 C-36.33 20.01 -36.66 19.02 -37 18 C-37.598 18.33 -38.196 18.66 -38.812 19 C-41 20 -41 20 -44 20 C-43.4 17.672 -43.4 17.672 -42 15 C-39.178 13.486 -39.178 13.486 -35.594 12.246 C-34.954 12.018 -34.315 11.791 -33.656 11.556 C-31.61 10.832 -29.556 10.134 -27.5 9.438 C-26.148 8.966 -24.796 8.493 -23.445 8.018 C-21.468 7.322 -19.49 6.629 -17.51 5.944 C-12.885 4.34 -8.348 2.583 -3.838 0.684 C-2 0 -2 0 0 0 Z " fill="#C40C33" transform="translate(162,89)"/>
<path d="M0 0 C1.035 5.862 2.034 11.878 -1.358 17.084 C-5.096 21.484 -9.374 25.537 -14 29 C-14.33 29 -14.66 29 -15 29 C-16.784 14.91 -16.784 14.91 -13.854 10.131 C-10.916 6.753 -4.722 0 0 0 Z " fill="#FDF7F8" transform="translate(152,146)"/>
<path d="M0 0 C5.834 2.764 11.067 5.782 15 11 C16.345 16.572 15.64 22.367 15 28 C13.353 26.593 11.71 25.18 10.09 23.742 C8.042 21.959 8.042 21.959 5.754 20.57 C3.253 18.85 1.672 17.553 0 15 C-0.679 9.906 -0.473 5.103 0 0 Z " fill="#FDF5F6" transform="translate(62,146)"/>
<path d="M0 0 C0.99 0.33 1.98 0.66 3 1 C3 18.82 3 36.64 3 55 C2.34 55 1.68 55 1 55 C0.67 55.99 0.34 56.98 0 58 C-0.037 56.796 -0.075 55.592 -0.113 54.352 C-0.179 52.776 -0.245 51.2 -0.312 49.625 C-0.346 48.434 -0.346 48.434 -0.381 47.219 C-0.478 45.138 -0.73 43.066 -1 41 C-1.99 40.34 -2.98 39.68 -4 39 C-3.67 38.01 -3.34 37.02 -3 36 C-2.34 36 -1.68 36 -1 36 C-1.005 34.945 -1.01 33.89 -1.016 32.803 C-1.034 28.902 -1.045 25.002 -1.055 21.101 C-1.06 19.411 -1.067 17.72 -1.075 16.029 C-1.088 13.604 -1.093 11.179 -1.098 8.754 C-1.103 7.993 -1.108 7.233 -1.113 6.45 C-1.113 4.633 -1.062 2.816 -1 1 C-0.67 0.67 -0.34 0.34 0 0 Z " fill="#E02748" transform="translate(78,117)"/>
<path d="M0 0 C2.188 0 2.188 0 5 1 C11.221 7.937 10.672 15.523 10.487 24.337 C10.437 26.758 10.426 29.177 10.42 31.598 C10.406 33.143 10.39 34.689 10.371 36.234 C10.366 36.954 10.36 37.674 10.355 38.416 C10.268 42.088 10.016 44.875 8 48 C8.66 48 9.32 48 10 48 C10 48.66 10 49.32 10 50 C9.34 50 8.68 50 8 50 C8 54.29 8 58.58 8 63 C7.67 63 7.34 63 7 63 C7.001 62.053 7.001 62.053 7.002 61.086 C7.005 54.483 6.965 47.881 6.902 41.278 C6.884 38.817 6.877 36.356 6.88 33.896 C6.883 30.348 6.847 26.802 6.805 23.254 C6.814 22.163 6.823 21.072 6.832 19.948 C6.705 13.157 5.498 9.112 1.284 3.733 C0 2 0 2 0 0 Z " fill="#C3032C" transform="translate(127,109)"/>
<path d="M0 0 C0.33 0 0.66 0 1 0 C1 21.78 1 43.56 1 66 C6.94 65.505 6.94 65.505 13 65 C12.01 66.32 11.02 67.64 10 69 C6.7 69 3.4 69 0 69 C0 46.23 0 23.46 0 0 Z " fill="#BF001B" transform="translate(108,40)"/>
<path d="M0 0 C0.33 0.66 0.66 1.32 1 2 C3.98 2.393 3.98 2.393 7.438 2.5 C13.778 2.778 13.778 2.778 16 5 C7.585 5.495 7.585 5.495 -1 6 C-1.33 5.01 -1.66 4.02 -2 3 C-1.34 2.01 -0.68 1.02 0 0 Z " fill="#C30B2F" transform="translate(132,56)"/>
<path d="M0 0 C-0.33 0.66 -0.66 1.32 -1 2 C-3.417 2.054 -5.833 2.094 -8.25 2.125 C-8.932 2.142 -9.614 2.159 -10.316 2.176 C-14.061 2.212 -16.824 2.079 -20 0 C-13.647 -1.694 -6.353 -1.694 0 0 Z " fill="#DD0B2E" transform="translate(81,59)"/>
<path d="M0 0 C0.66 1.32 1.32 2.64 2 4 C0.741 5.2 -0.533 6.384 -1.812 7.562 C-2.874 8.554 -2.874 8.554 -3.957 9.566 C-4.631 10.039 -5.305 10.513 -6 11 C-6.99 10.67 -7.98 10.34 -9 10 C-8.875 8.25 -8.875 8.25 -8 6 C-5.062 3.875 -5.062 3.875 -2 2 C-1.34 1.34 -0.68 0.68 0 0 Z " fill="#C30B2F" transform="translate(144,147)"/>
<path d="M0 0 C0.33 0.99 0.66 1.98 1 3 C1.66 3.33 2.32 3.66 3 4 C1.68 6.64 0.36 9.28 -1 12 C-2.65 12 -4.3 12 -6 12 C-5.34 11.34 -4.68 10.68 -4 10 C-5.32 9.34 -6.64 8.68 -8 8 C-7.237 7.979 -6.474 7.959 -5.688 7.938 C-2.586 7.203 -2.586 7.203 -1.188 3.438 C-0.796 2.303 -0.404 1.169 0 0 Z " fill="#DE1739" transform="translate(84,50)"/>
<path d="M0 0 C0.99 0 1.98 0 3 0 C1.633 3.987 -0.152 6.885 -3 10 C-3.66 10 -4.32 10 -5 10 C-4.499 5.62 -3.068 3.158 0 0 Z " fill="#DD092F" transform="translate(84,109)"/>
<path d="M0 0 C-1.774 2.246 -2.584 2.951 -5.48 3.293 C-6.82 3.241 -6.82 3.241 -8.188 3.188 C-9.539 3.147 -9.539 3.147 -10.918 3.105 C-11.605 3.071 -12.292 3.036 -13 3 C-13 2.01 -13 1.02 -13 0 C-11.397 -0.196 -9.792 -0.381 -8.188 -0.562 C-7.294 -0.667 -6.401 -0.771 -5.48 -0.879 C-3 -1 -3 -1 0 0 Z " fill="#C20029" transform="translate(121,106)"/>
<path d="M0 0 C2.834 3.203 3.521 5.781 4 10 C3.01 10.495 3.01 10.495 2 11 C-1.077 5.708 -1.077 5.708 -0.688 2.125 C-0.347 1.073 -0.347 1.073 0 0 Z " fill="#C2072A" transform="translate(128,48)"/>
<path d="M0 0 C3.653 1.25 4.781 1.671 7 5 C6.01 5.66 5.02 6.32 4 7 C2.35 5.68 0.7 4.36 -1 3 C-0.67 2.01 -0.34 1.02 0 0 Z " fill="#DE0F34" transform="translate(69,148)"/>
<path d="M0 0 C1 3 1 3 -0.438 6.188 C-1.211 7.58 -1.211 7.58 -2 9 C-2.66 9 -3.32 9 -4 9 C-3.688 5.625 -3.688 5.625 -3 2 C-2.01 1.34 -1.02 0.68 0 0 Z " fill="#DD0A30" transform="translate(89,44)"/>
<path d="M0 0 C4.75 0.75 4.75 0.75 7 3 C6.67 3.66 6.34 4.32 6 5 C1.25 4.25 1.25 4.25 -1 2 C-0.67 1.34 -0.34 0.68 0 0 Z " fill="#DD092E" transform="translate(57,91)"/>
<path d="M0 0 C0.33 0.99 0.66 1.98 1 3 C-0.98 3.66 -2.96 4.32 -5 5 C-5 4.34 -5 3.68 -5 3 C-5.66 2.67 -6.32 2.34 -7 2 C-2.25 0 -2.25 0 0 0 Z " fill="#C51A38" transform="translate(162,89)"/>
<path d="M0 0 C0.33 0.66 0.66 1.32 1 2 C2.65 2 4.3 2 6 2 C6 2.33 6 2.66 6 3 C4.35 3 2.7 3 1 3 C1 3.66 1 4.32 1 5 C2.65 5 4.3 5 6 5 C6 5.33 6 5.66 6 6 C3.69 6 1.38 6 -1 6 C-1.33 5.01 -1.66 4.02 -2 3 C-1.34 2.01 -0.68 1.02 0 0 Z " fill="#CF4761" transform="translate(132,56)"/>
<path d="M0 0 C1.812 1.438 1.812 1.438 3 3 C2.67 3.66 2.34 4.32 2 5 C0.35 5 -1.3 5 -3 5 C-2.34 4.34 -1.68 3.68 -1 3 C-2.32 2.34 -3.64 1.68 -5 1 C-2.688 0.312 -2.688 0.312 0 0 Z " fill="#E33E5C" transform="translate(81,57)"/>
<path d="M0 0 C0.66 1.32 1.32 2.64 2 4 C0.515 4.99 0.515 4.99 -1 6 C-1.66 5.67 -2.32 5.34 -3 5 C-2.625 3.062 -2.625 3.062 -2 1 C-1.34 0.67 -0.68 0.34 0 0 Z " fill="#C51339" transform="translate(138,152)"/>
<path d="M0 0 C0.66 0 1.32 0 2 0 C1.688 1.875 1.688 1.875 1 4 C-0.485 4.99 -0.485 4.99 -2 6 C-2 2 -2 2 0 0 Z " fill="#C10024" transform="translate(148,144)"/>
</svg>