
<!-- Generator: visioncortex VTracer 0.6.4 -->
<svg version="1.1" xmlns="http://www.w3.org/2000/svg" viewBox="0 0 216 233" preserveAspectRatio="xMidYMid meet">
<path d="M0 0 C1.552 0.562 1.552 0.562 3.136 1.135 C6.52 2.362 9.898 3.603 13.277 4.844 C16.823 6.134 20.37 7.42 23.918 8.707 C26.349 9.589 28.781 10.472 31.212 11.357 C39.576 14.399 47.957 17.393 56.352 20.352 C57.467 20.745 58.582 21.138 59.73 21.543 C64.036 23.059 68.342 24.575 72.649 26.086 C75.593 27.12 78.537 28.157 81.48 29.195 C82.357 29.502 83.234 29.808 84.137 30.124 C90.101 32.23 90.101 32.23 91.215 33.344 C91.203 35.779 91.113 38.167 90.966 40.596 C90.92 41.387 90.873 42.179 90.825 42.994 C90.065 54.788 88.71 66.533 87.418 78.278 C87.193 80.325 86.969 82.372 86.745 84.419 C86.042 90.844 85.334 97.27 84.621 103.695 C83.802 111.076 82.997 118.459 82.205 125.844 C81.588 131.587 80.958 137.329 80.317 143.07 C79.936 146.487 79.561 149.903 79.2 153.322 C78.796 157.117 78.37 160.909 77.938 164.701 C77.766 166.39 77.766 166.39 77.59 168.113 C77.468 169.145 77.346 170.176 77.221 171.238 C77.073 172.58 77.073 172.58 76.923 173.95 C75.78 177.813 73.246 179.695 69.923 181.785 C69.084 182.226 68.246 182.667 67.383 183.121 C66.432 183.628 65.48 184.134 64.5 184.656 C63.478 185.192 62.456 185.729 61.402 186.281 C59.215 187.446 57.029 188.613 54.844 189.781 C53.734 190.374 52.624 190.967 51.481 191.578 C46.558 194.239 41.699 197.006 36.84 199.781 C27.413 205.152 17.894 210.333 8.318 215.432 C3.717 217.887 -0.862 220.345 -5.328 223.039 C-6.293 223.619 -6.293 223.619 -7.277 224.21 C-8.878 225.185 -10.465 226.183 -12.051 227.184 C-15.655 228.713 -17.04 228.535 -20.785 227.344 C-24.218 225.655 -27.493 223.726 -30.785 221.781 C-40.127 216.377 -49.56 211.204 -59.098 206.156 C-61.662 204.797 -64.226 203.436 -66.789 202.074 C-67.4 201.749 -68.012 201.425 -68.642 201.09 C-80.487 194.787 -80.487 194.787 -85.253 191.944 C-88.884 189.819 -92.346 188.08 -96.351 186.774 C-101.612 184.856 -106.104 182.669 -109.785 178.344 C-113.638 169.639 -113.904 159.558 -114.639 150.164 C-114.951 146.401 -115.359 142.648 -115.756 138.894 C-116.492 131.788 -117.143 124.677 -117.762 117.56 C-118.469 109.489 -119.278 101.429 -120.092 93.369 C-121.357 80.815 -122.569 68.258 -123.694 55.691 C-123.806 54.468 -123.918 53.244 -124.033 51.983 C-124.581 45.741 -124.902 39.61 -124.785 33.344 C-117.566 30.389 -110.28 27.679 -102.93 25.07 C-101.805 24.669 -100.681 24.268 -99.523 23.855 C-93.998 21.886 -88.472 19.924 -82.945 17.962 C-79.782 16.839 -76.619 15.714 -73.457 14.59 C-72.83 14.367 -72.203 14.144 -71.557 13.915 C-63.261 10.964 -54.989 7.955 -46.738 4.879 C-44.097 3.902 -41.456 2.926 -38.814 1.95 C-37.185 1.343 -35.559 0.73 -33.935 0.11 C-31.705 -0.742 -29.467 -1.57 -27.227 -2.395 C-25.996 -2.859 -24.766 -3.323 -23.498 -3.802 C-15.117 -5.73 -7.846 -2.912 0 0 Z M-83.785 42.344 C-83.785 46.634 -83.785 50.924 -83.785 55.344 C-64.315 55.344 -44.845 55.344 -24.785 55.344 C-24.785 51.054 -24.785 46.764 -24.785 42.344 C-44.255 42.344 -63.725 42.344 -83.785 42.344 Z M-83.785 75.344 C-83.785 83.264 -83.785 91.184 -83.785 99.344 C-39.565 99.344 4.655 99.344 50.215 99.344 C50.215 91.424 50.215 83.504 50.215 75.344 C5.995 75.344 -38.225 75.344 -83.785 75.344 Z M-83.785 114.344 C-83.785 122.264 -83.785 130.184 -83.785 138.344 C-39.565 138.344 4.655 138.344 50.215 138.344 C50.215 130.424 50.215 122.504 50.215 114.344 C5.995 114.344 -38.225 114.344 -83.785 114.344 Z M-83.785 152.344 C-83.785 160.264 -83.785 168.184 -83.785 176.344 C-39.565 176.344 4.655 176.344 50.215 176.344 C50.215 168.424 50.215 160.504 50.215 152.344 C5.995 152.344 -38.225 152.344 -83.785 152.344 Z " fill="#B43134" transform="translate(124.78515625,4.65625)"/>
<path d="M0 0 C-0.99 0.33 -1.98 0.66 -3 1 C-3 26.74 -3 52.48 -3 79 C-25.11 79 -47.22 79 -70 79 C-70 87.25 -70 95.5 -70 104 C-25.78 104 18.44 104 64 104 C64 104.33 64 104.66 64 105 C41.89 105 19.78 105 -3 105 C-3 109.29 -3 113.58 -3 118 C19.11 118 41.22 118 64 118 C64 118.33 64 118.66 64 119 C19.78 119 -24.44 119 -70 119 C-70.33 127.58 -70.66 136.16 -71 145 C-48.56 145 -26.12 145 -3 145 C-3 148.96 -3 152.92 -3 157 C-25.11 157 -47.22 157 -70 157 C-70 164.92 -70 172.84 -70 181 C-25.78 181 18.44 181 64 181 C64 181.33 64 181.66 64 182 C41.89 182.33 19.78 182.66 -3 183 C-3 199.17 -3 215.34 -3 232 C-6.735 231.253 -8.691 230.842 -11.836 229.172 C-12.558 228.791 -13.281 228.41 -14.025 228.018 C-15.188 227.39 -15.188 227.39 -16.375 226.75 C-17.199 226.311 -18.024 225.872 -18.873 225.42 C-26.47 221.347 -33.96 217.088 -41.449 212.819 C-48.15 209.011 -54.921 205.374 -61.764 201.826 C-69.425 197.83 -76.932 193.569 -84.438 189.289 C-85.364 188.761 -86.291 188.232 -87.246 187.688 C-88.068 187.217 -88.889 186.746 -89.736 186.262 C-91.915 184.967 -91.915 184.967 -94.076 184.255 C-96 183 -96 183 -96.726 180.655 C-96.833 179.666 -96.94 178.676 -97.05 177.657 C-97.182 176.523 -97.314 175.389 -97.45 174.22 C-97.575 172.97 -97.701 171.72 -97.831 170.431 C-97.978 169.106 -98.126 167.78 -98.276 166.455 C-98.679 162.849 -99.059 159.24 -99.435 155.631 C-99.831 151.852 -100.249 148.074 -100.664 144.297 C-101.358 137.945 -102.039 131.592 -102.71 125.238 C-103.57 117.101 -104.451 108.966 -105.34 100.832 C-106.105 93.825 -106.862 86.818 -107.617 79.81 C-107.859 77.565 -108.101 75.321 -108.344 73.077 C-108.727 69.536 -109.104 65.994 -109.477 62.452 C-109.679 60.544 -109.886 58.636 -110.093 56.728 C-110.748 50.444 -111.142 44.318 -111 38 C-103.781 35.045 -96.495 32.335 -89.145 29.727 C-88.02 29.326 -86.896 28.925 -85.737 28.512 C-82.096 27.214 -78.454 25.919 -74.812 24.625 C-70.401 23.056 -65.99 21.487 -61.58 19.917 C-60.315 19.467 -59.05 19.017 -57.785 18.567 C-49.459 15.603 -41.147 12.607 -32.848 9.57 C-31.041 8.912 -29.235 8.253 -27.428 7.595 C-24.925 6.683 -22.423 5.768 -19.924 4.842 C-17.668 4.006 -15.409 3.181 -13.148 2.359 C-12.504 2.117 -11.86 1.874 -11.196 1.624 C-7.336 0.235 -4.093 -0.236 0 0 Z M-70 47 C-70 51.29 -70 55.58 -70 60 C-50.53 60 -31.06 60 -11 60 C-11 55.71 -11 51.42 -11 47 C-30.47 47 -49.94 47 -70 47 Z " fill="#E0363B" transform="translate(111,0)"/>
<path d="M0 0 C40.26 0 80.52 0 122 0 C122 4.29 122 8.58 122 13 C81.74 13 41.48 13 0 13 C0 8.71 0 4.42 0 0 Z " fill="#C25658" transform="translate(47,163)"/>
<path d="M0 0 C40.26 0 80.52 0 122 0 C122 3.96 122 7.92 122 12 C81.74 12 41.48 12 0 12 C0 8.04 0 4.08 0 0 Z " fill="#DA454A" transform="translate(47,125)"/>
<path d="M0 0 C40.26 0 80.52 0 122 0 C122 3.96 122 7.92 122 12 C81.74 12 41.48 12 0 12 C0 8.04 0 4.08 0 0 Z " fill="#E0454A" transform="translate(47,86)"/>
<path d="M0 0 C22.11 0 44.22 0 67 0 C66.67 0.66 66.34 1.32 66 2 C64.68 1.67 63.36 1.34 62 1 C61.67 2.65 61.34 4.3 61 6 C61.66 6 62.32 6 63 6 C63 6.66 63 7.32 63 8 C63.99 8 64.98 8 66 8 C65.67 8.66 65.34 9.32 65 10 C64.01 9.67 63.02 9.34 62 9 C62 9.66 62 10.32 62 11 C63.32 11.66 64.64 12.32 66 13 C44.22 13 22.44 13 0 13 C0 8.71 0 4.42 0 0 Z " fill="#AF2C2F" transform="translate(108,105)"/>
<path d="M0 0 C19.8 0 39.6 0 60 0 C60 3.63 60 7.26 60 11 C20.4 11 -19.2 11 -60 11 C-60 10.67 -60 10.34 -60 10 C-40.2 10 -20.4 10 0 10 C0 6.7 0 3.4 0 0 Z " fill="#B23234" transform="translate(108,87)"/>
<path d="M0 0 C19.8 0 39.6 0 60 0 C60 3.63 60 7.26 60 11 C40.2 11 20.4 11 0 11 C0 7.37 0 3.74 0 0 Z " fill="#AD2E31" transform="translate(108,125)"/>
<path d="M0 0 C1.117 0.002 2.234 0.004 3.385 0.007 C4.646 0.007 5.907 0.007 7.207 0.007 C8.593 0.012 9.98 0.017 11.367 0.023 C12.778 0.024 14.189 0.026 15.6 0.027 C19.32 0.031 23.041 0.041 26.761 0.052 C30.555 0.062 34.349 0.066 38.142 0.071 C45.591 0.082 53.039 0.099 60.488 0.12 C60.571 3.774 60.385 6.532 59.488 10.12 C37.708 10.12 15.928 10.12 -6.512 10.12 C-3.189 0.153 -3.189 0.153 0 0 Z " fill="#E33136" transform="translate(46.51197814941406,106.87974548339844)"/>
<path d="M0 0 C19.47 0 38.94 0 59 0 C59 2.97 59 5.94 59 9 C39.53 9 20.06 9 0 9 C0 6.03 0 3.06 0 0 Z " fill="#E13137" transform="translate(49,165)"/>
<path d="M0 0 C0.33 0 0.66 0 1 0 C1 7.92 1 15.84 1 24 C45.22 24 89.44 24 135 24 C135 24.33 135 24.66 135 25 C112.89 25 90.78 25 68 25 C68 29.29 68 33.58 68 38 C90.11 38 112.22 38 135 38 C135 38.33 135 38.66 135 39 C90.78 39 46.56 39 1 39 C1.33 38.34 1.66 37.68 2 37 C23.12 37 44.24 37 66 37 C65.67 36.01 65.34 35.02 65 34 C65.598 31.648 66.259 29.311 67 27 C65.785 27.003 65.785 27.003 64.546 27.007 C56.923 27.027 49.301 27.042 41.679 27.052 C37.76 27.057 33.841 27.064 29.922 27.075 C26.142 27.086 22.362 27.092 18.582 27.095 C17.137 27.097 15.693 27.1 14.249 27.106 C12.231 27.113 10.212 27.113 8.194 27.114 C6.468 27.117 6.468 27.117 4.708 27.12 C2 27 2 27 0 26 C0 17.42 0 8.84 0 0 Z " fill="#E07D7F" transform="translate(40,80)"/>
<path d="M0 0 C19.14 0 38.28 0 58 0 C57.67 1.32 57.34 2.64 57 4 C57 3.01 57 2.02 57 1 C49.525 1.067 42.05 1.157 34.576 1.262 C32.032 1.296 29.489 1.324 26.946 1.346 C23.292 1.38 19.638 1.432 15.984 1.488 C14.846 1.495 13.707 1.501 12.534 1.508 C11.473 1.527 10.412 1.547 9.319 1.568 C8.387 1.579 7.454 1.59 6.493 1.601 C3.586 2.066 2.183 3.072 0 5 C0 3.35 0 1.7 0 0 Z " fill="#BC2D2E" transform="translate(108,165)"/>
<path d="M0 0 C0.33 0 0.66 0 1 0 C1 4.95 1 9.9 1 15 C1.66 15 2.32 15 3 15 C3 20.61 3 26.22 3 32 C2.34 31.67 1.68 31.34 1 31 C0.514 28.312 0.152 25.711 -0.125 23 C-0.251 21.838 -0.251 21.838 -0.38 20.653 C-1.1 13.711 -1.767 6.849 0 0 Z " fill="#D4585D" transform="translate(8,97)"/>
<path d="M0 0 C0.33 0.99 0.66 1.98 1 3 C0.67 3.66 0.34 4.32 0 5 C0.598 4.835 1.196 4.67 1.812 4.5 C4 4 4 4 7 4 C7.33 5.65 7.66 7.3 8 9 C5 10 5 10 2.301 8.785 C1.315 8.217 0.329 7.648 -0.688 7.062 C-1.681 6.497 -2.675 5.931 -3.699 5.348 C-4.458 4.903 -5.218 4.458 -6 4 C-6 3.34 -6 2.68 -6 2 C-2.25 0 -2.25 0 0 0 Z " fill="#DB4D55" transform="translate(30,184)"/>
<path d="M0 0 C1.125 3.75 1.125 3.75 0 6 C0.99 6 1.98 6 3 6 C3 6.99 3 7.98 3 9 C-0.083 7.801 -3.063 6.523 -6 5 C-5.67 3.68 -5.34 2.36 -5 1 C-3.35 0.67 -1.7 0.34 0 0 Z " fill="#D94649" transform="translate(92,217)"/>
<path d="M0 0 C-0.33 0.99 -0.66 1.98 -1 3 C-1.99 3 -2.98 3 -4 3 C-4.33 3.99 -4.66 4.98 -5 6 C-7.73 7.268 -8.874 7.043 -11.75 6.062 C-12.492 5.712 -13.235 5.361 -14 5 C-11.566 3.377 -9.687 2.383 -7 1.375 C-6.319 1.115 -5.639 0.854 -4.938 0.586 C-3 0 -3 0 0 0 Z " fill="#DA5056" transform="translate(18,32)"/>
<path d="M0 0 C0.99 0 1.98 0 3 0 C2.67 5.94 2.34 11.88 2 18 C-0.17 13.661 -0.213 11.516 -0.125 6.75 C-0.107 5.487 -0.089 4.223 -0.07 2.922 C-0.047 1.958 -0.024 0.993 0 0 Z " fill="#B95D5E" transform="translate(213,38)"/>
<path d="M0 0 C0.99 0.33 1.98 0.66 3 1 C4.32 1 5.64 1 7 1 C7.33 2.98 7.66 4.96 8 7 C3.545 5.02 3.545 5.02 -1 3 C-0.67 2.01 -0.34 1.02 0 0 Z " fill="#DB4A50" transform="translate(54,201)"/>
<path d="M0 0 C0.66 0 1.32 0 2 0 C3 3 3 3 2.062 5.188 C1.537 6.085 1.537 6.085 1 7 C-1.915 5.926 -3.778 5.222 -6 3 C-5.196 2.691 -4.391 2.381 -3.562 2.062 C-1.109 1.237 -1.109 1.237 0 0 Z " fill="#DD454C" transform="translate(76,209)"/>
<path d="M0 0 C2.31 0 4.62 0 7 0 C7 0.66 7 1.32 7 2 C4.688 3.688 4.688 3.688 2 5 C1.01 4.67 0.02 4.34 -1 4 C-0.67 2.68 -0.34 1.36 0 0 Z " fill="#B54B4F" transform="translate(179,189)"/>
<path d="M0 0 C-0.99 0.33 -1.98 0.66 -3 1 C-3.33 2.65 -3.66 4.3 -4 6 C-4.99 5.67 -5.98 5.34 -7 5 C-7 4.01 -7 3.02 -7 2 C-7.66 1.67 -8.32 1.34 -9 1 C-5.804 -0.065 -3.343 -0.074 0 0 Z " fill="#DD595E" transform="translate(111,0)"/>
<path d="M0 0 C0.99 0.33 1.98 0.66 3 1 C2.67 1.99 2.34 2.98 2 4 C1.328 6.332 0.661 8.665 0 11 C-0.66 10.67 -1.32 10.34 -2 10 C-1.125 2.25 -1.125 2.25 0 0 Z " fill="#BD393F" transform="translate(212,37)"/>
<path d="M0 0 C0.33 0.99 0.66 1.98 1 3 C0.67 3.66 0.34 4.32 0 5 C-2.97 4.505 -2.97 4.505 -6 4 C-6 3.34 -6 2.68 -6 2 C-2.25 0 -2.25 0 0 0 Z " fill="#D84148" transform="translate(30,184)"/>
<path d="M0 0 C1.65 0 3.3 0 5 0 C4.67 1.32 4.34 2.64 4 4 C2.02 4.33 0.04 4.66 -2 5 C-1.34 4.67 -0.68 4.34 0 4 C0 2.68 0 1.36 0 0 Z " fill="#BB5352" transform="translate(108,228)"/>
<path d="M0 0 C0.66 0.33 1.32 0.66 2 1 C2 2.32 2 3.64 2 5 C0.35 5.66 -1.3 6.32 -3 7 C-1.125 1.125 -1.125 1.125 0 0 Z " fill="#E43138" transform="translate(44,107)"/>
<path d="M0 0 C2.31 0 4.62 0 7 0 C4.147 2.325 1.459 3.751 -2 5 C-1.34 3.35 -0.68 1.7 0 0 Z " fill="#B4585C" transform="translate(125,220)"/>
<path d="M0 0 C5.445 1.485 5.445 1.485 11 3 C10.01 3.66 9.02 4.32 8 5 C5.957 4.539 5.957 4.539 3.812 3.625 C3.097 3.329 2.382 3.032 1.645 2.727 C1.102 2.487 0.559 2.247 0 2 C0 1.34 0 0.68 0 0 Z " fill="#B75E61" transform="translate(159,18)"/>
<path d="M0 0 C1.32 0.33 2.64 0.66 4 1 C3.67 2.32 3.34 3.64 3 5 C0.525 4.01 0.525 4.01 -2 3 C-1.34 2.67 -0.68 2.34 0 2 C0 1.34 0 0.68 0 0 Z " fill="#DD4754" transform="translate(103,227)"/>
<path d="M0 0 C0.33 0.66 0.66 1.32 1 2 C1.99 2 2.98 2 4 2 C3.67 2.66 3.34 3.32 3 4 C2.01 3.67 1.02 3.34 0 3 C-0.33 3.99 -0.66 4.98 -1 6 C-1.99 6 -2.98 6 -4 6 C-3.002 3.007 -2.248 2.052 0 0 Z " fill="#B32C2F" transform="translate(170,111)"/>
<path d="M0 0 C0.66 0.33 1.32 0.66 2 1 C2.625 4.062 2.625 4.062 3 7 C0.525 6.01 0.525 6.01 -2 5 C-2 4.01 -2 3.02 -2 2 C-1.34 2 -0.68 2 0 2 C0 1.34 0 0.68 0 0 Z " fill="#B92E33" transform="translate(170,106)"/>
<path d="M0 0 C-0.33 0.99 -0.66 1.98 -1 3 C-4.3 3.33 -7.6 3.66 -11 4 C-7.611 1.741 -4.152 0 0 0 Z " fill="#D66265" transform="translate(46,22)"/>
<path d="M0 0 C0 0.66 0 1.32 0 2 C-3.478 3.159 -5.459 2.708 -9 2 C-4 -1.333 -4 -1.333 0 0 Z " fill="#D9585E" transform="translate(103,3)"/>
<path d="M0 0 C2.97 0.33 5.94 0.66 9 1 C8.01 2.485 8.01 2.485 7 4 C4.085 2.926 2.222 2.222 0 0 Z " fill="#DC545F" transform="translate(37,194)"/>
</svg>